<svg width="17" height="17" viewBox="0 0 17 17" fill="none" xmlns="http://www.w3.org/2000/svg">
<mask id="mask0_261_3228" style="mask-type:alpha" maskUnits="userSpaceOnUse" x="0" y="0" width="17" height="17">
<rect width="17" height="17" fill="#D9D9D9"/>
</mask>
<g mask="url(#mask0_261_3228)">
<path d="M2.12533 14.1667V6.16258C1.92463 6.03272 1.7564 5.86744 1.62064 5.66675C1.48487 5.46605 1.41699 5.22994 1.41699 4.95842V2.83341C1.41699 2.44383 1.55571 2.11032 1.83314 1.83289C2.11057 1.55546 2.44408 1.41675 2.83366 1.41675H14.167C14.5566 1.41675 14.8901 1.55546 15.1675 1.83289C15.4449 2.11032 15.5837 2.44383 15.5837 2.83341V4.95842C15.5837 5.22994 15.5158 5.46605 15.38 5.66675C15.2442 5.86744 15.076 6.03272 14.8753 6.16258V14.1667C14.8753 14.5563 14.7366 14.8898 14.4592 15.1673C14.1818 15.4447 13.8482 15.5834 13.4587 15.5834H3.54199C3.15241 15.5834 2.8189 15.4447 2.54147 15.1673C2.26404 14.8898 2.12533 14.5563 2.12533 14.1667ZM3.54199 6.37508V14.1667H13.4587V6.37508H3.54199ZM14.167 4.95842V2.83341H2.83366V4.95842H14.167ZM6.37533 9.91675H10.6253V8.50008H6.37533V9.91675Z" fill="#15466B"/>
</g>
</svg>
