<svg width="24" height="24" viewBox="0 0 24 24" fill="none" xmlns="http://www.w3.org/2000/svg">
<mask id="mask0_1297_3966" style="mask-type:alpha" maskUnits="userSpaceOnUse" x="0" y="0" width="24" height="24">
<rect width="24" height="24" fill="#D9D9D9"/>
</mask>
<g mask="url(#mask0_1297_3966)">
<path d="M5.15 17.95V17.8924L5.11149 17.8497C4.82189 17.5279 4.58878 17.1702 4.41184 16.7761C4.23786 16.3886 4.15 15.9639 4.15 15.5V6C4.15 5.33229 4.30457 4.76214 4.60795 4.28342C4.91153 3.80439 5.36998 3.40771 5.99208 3.09666C7.24304 2.47118 9.23886 2.15 12 2.15C14.8633 2.15 16.8829 2.45916 18.0829 3.05916C18.6781 3.35675 19.1174 3.74902 19.409 4.23358C19.7007 4.71848 19.85 5.30515 19.85 6V15.5C19.85 15.9639 19.7621 16.3886 19.5882 16.7761C19.4112 17.1702 19.1781 17.5279 18.8885 17.8497L18.85 17.8924V17.95V20C18.85 20.2456 18.7686 20.4443 18.6064 20.6064C18.4443 20.7686 18.2456 20.85 18 20.85H17C16.7544 20.85 16.5557 20.7686 16.3936 20.6064C16.2314 20.4443 16.15 20.2456 16.15 20V19V18.85H16H8H7.85V19V20C7.85 20.2456 7.76858 20.4443 7.60643 20.6064C7.44429 20.7686 7.24556 20.85 7 20.85H6C5.75444 20.85 5.55571 20.7686 5.39357 20.6064C5.23142 20.4443 5.15 20.2456 5.15 20V17.95ZM5.85 10V10.15H6H18H18.15V10V7V6.85H18H6H5.85V7V10ZM6.35397 4.88477L6.03569 5.15H6.45H17.65H17.9824L17.7625 4.90076C17.6174 4.73633 17.3987 4.59531 17.12 4.47217C16.8398 4.34837 16.4895 4.23851 16.0714 4.14139C15.2286 3.94557 13.8847 3.85 12.05 3.85C10.2647 3.85 8.94485 3.95391 8.10077 4.16707C7.27381 4.3759 6.68202 4.61139 6.35397 4.88477ZM18.15 12V11.85H18H6H5.85V12V15C5.85 15.5901 6.06186 16.099 6.48143 16.5186C6.90101 16.9381 7.4099 17.15 8 17.15H16C16.5901 17.15 17.099 16.9381 17.5186 16.5186C17.9381 16.099 18.15 15.5901 18.15 15V12ZM9.45643 15.4564C9.19322 15.7197 8.87734 15.85 8.5 15.85C8.12266 15.85 7.80678 15.7197 7.54357 15.4564C7.28035 15.1932 7.15 14.8773 7.15 14.5C7.15 14.1227 7.28035 13.8068 7.54357 13.5436C7.80678 13.2803 8.12266 13.15 8.5 13.15C8.87734 13.15 9.19322 13.2803 9.45643 13.5436C9.71965 13.8068 9.85 14.1227 9.85 14.5C9.85 14.8773 9.71965 15.1932 9.45643 15.4564ZM16.4564 15.4564C16.1932 15.7197 15.8773 15.85 15.5 15.85C15.1227 15.85 14.8068 15.7197 14.5436 15.4564C14.2803 15.1932 14.15 14.8773 14.15 14.5C14.15 14.1227 14.2803 13.8068 14.5436 13.5436C14.8068 13.2803 15.1227 13.15 15.5 13.15C15.8773 13.15 16.1932 13.2803 16.4564 13.5436C16.7197 13.8068 16.85 14.1227 16.85 14.5C16.85 14.8773 16.7197 15.1932 16.4564 15.4564Z" fill="#15466B" stroke="white" stroke-width="0.3"/>
</g>
</svg>
