<svg width="24" height="24" viewBox="0 0 24 24" fill="none" xmlns="http://www.w3.org/2000/svg">
<mask id="mask0_1297_3961" style="mask-type:alpha" maskUnits="userSpaceOnUse" x="0" y="0" width="24" height="24">
<rect width="24" height="24" fill="#D9D9D9"/>
</mask>
<g mask="url(#mask0_1297_3961)">
<path d="M6 18.85H5.85V19V20C5.85 20.2456 5.76858 20.4443 5.60643 20.6064C5.44429 20.7686 5.24556 20.85 5 20.85H4C3.75444 20.85 3.55571 20.7686 3.39357 20.6064C3.23142 20.4443 3.15 20.2456 3.15 20V12.0255L5.24158 6.04955L5.24159 6.04956L5.2423 6.04743C5.33221 5.77771 5.49191 5.56226 5.72431 5.39733C5.95729 5.23199 6.21445 5.15 6.5 5.15H17.5C17.7855 5.15 18.0427 5.23199 18.2757 5.39733C18.5081 5.56226 18.6678 5.77771 18.7577 6.04743L18.7577 6.04744L18.7584 6.04955L20.85 12.0255V20C20.85 20.2456 20.7686 20.4443 20.6064 20.6064C20.4443 20.7686 20.2456 20.85 20 20.85H19C18.7544 20.85 18.5557 20.7686 18.3936 20.6064C18.2314 20.4443 18.15 20.2456 18.15 20V19V18.85H18H6ZM5.65842 9.95045L5.58858 10.15H5.8H18.2H18.4114L18.3416 9.95045L17.2916 6.95045L17.2564 6.85H17.15H6.85H6.74358L6.70842 6.95045L5.65842 9.95045ZM4.85 17V17.15H5H19H19.15V17V12V11.85H19H5H4.85V12V17ZM8.45643 15.4564C8.19322 15.7197 7.87734 15.85 7.5 15.85C7.12266 15.85 6.80678 15.7197 6.54357 15.4564C6.28035 15.1932 6.15 14.8773 6.15 14.5C6.15 14.1227 6.28035 13.8068 6.54357 13.5436C6.80678 13.2803 7.12266 13.15 7.5 13.15C7.87734 13.15 8.19322 13.2803 8.45643 13.5436C8.71965 13.8068 8.85 14.1227 8.85 14.5C8.85 14.8773 8.71965 15.1932 8.45643 15.4564ZM17.4564 15.4564C17.1932 15.7197 16.8773 15.85 16.5 15.85C16.1227 15.85 15.8068 15.7197 15.5436 15.4564C15.2803 15.1932 15.15 14.8773 15.15 14.5C15.15 14.1227 15.2803 13.8068 15.5436 13.5436C15.8068 13.2803 16.1227 13.15 16.5 13.15C16.8773 13.15 17.1932 13.2803 17.4564 13.5436C17.7197 13.8068 17.85 14.1227 17.85 14.5C17.85 14.8773 17.7197 15.1932 17.4564 15.4564Z" fill="#15466B" stroke="#77B945" stroke-width="0.3"/>
</g>
</svg>
