<svg xmlns="http://www.w3.org/2000/svg" width="45" height="45" viewBox="0 0 45 45" fill="none"> <path d="M22.5 45C34.9264 45 45 34.9264 45 22.5C45 10.0736 34.9264 0 22.5 0C10.0736 0 0 10.0736 0 22.5C0 34.9264 10.0736 45 22.5 45Z" fill="white"/> <path fill-rule="evenodd" clip-rule="evenodd" d="M37.8721 14.2129C38.0989 13.4572 37.8721 12.9283 36.8138 12.9283H33.2873C32.3806 12.9283 31.9774 13.407 31.7507 13.9359C31.7507 13.9359 29.9623 18.3187 27.4182 21.1407C26.587 21.9719 26.2345 22.2239 25.7811 22.2239C25.5543 22.2239 25.2269 21.9719 25.2269 21.2163V14.2129C25.2269 13.3062 24.9749 12.9283 24.2194 12.9283H18.6778C18.1236 12.9283 17.7709 13.3557 17.7709 13.7344C17.7709 14.5909 19.0303 14.7928 19.1815 17.16V22.3499C19.1815 23.4835 18.98 23.685 18.5266 23.685C17.3427 23.685 14.4208 19.3021 12.708 14.2644C12.3553 13.3323 12.028 12.9293 11.1205 12.9293H7.59398C6.58652 12.9293 6.38503 13.408 6.38503 13.9369C6.38503 14.8689 7.56894 19.5036 11.9517 25.6246C14.8737 29.8059 18.9794 32.0729 22.7074 32.0729C24.9492 32.0729 25.2262 31.569 25.2262 30.7128V27.5378C25.2262 26.5303 25.4277 26.3288 26.1582 26.3288C26.6874 26.3288 27.5688 26.5806 29.6588 28.5957C32.0519 30.9888 32.4549 32.0719 33.7904 32.0719H37.3169C38.3244 32.0719 38.8283 31.568 38.526 30.5862C38.1986 29.6038 37.0649 28.1681 35.5546 26.4546C34.7232 25.4722 33.489 24.4397 33.1363 23.9105C32.6071 23.2303 32.7585 22.9281 33.1363 22.3487C33.1363 22.3236 37.4439 16.2785 37.8721 14.2129Z" fill="#194158"/> </svg>
