<svg width="14" height="13" viewBox="0 0 14 13" fill="none" xmlns="http://www.w3.org/2000/svg">
<path d="M1.19115 0.747344L1.19115 0.747342C1.35187 0.589046 1.54986 0.509878 1.78194 0.509878H3.80202C3.99665 0.509878 4.16643 0.571223 4.30879 0.694218C4.45097 0.817057 4.54227 0.981975 4.58413 1.18578L5.00708 3.05835L5.00774 3.06127L5.00765 3.06128C5.03668 3.23829 5.03281 3.40132 4.99448 3.54949C4.95585 3.69882 4.88101 3.82411 4.76998 3.92386L4.76909 3.92467L4.76908 3.92466L4.18933 4.42078C4.85997 5.5134 5.60231 6.45635 6.41615 7.25001C7.23037 8.04403 8.16779 8.72808 9.22867 9.30208L9.74593 8.77738C9.86862 8.64463 10.0075 8.55091 10.1625 8.49796C10.3179 8.44486 10.4794 8.43696 10.6456 8.47363L10.6456 8.47363L10.635 8.52249L10.6458 8.47367L1.19115 0.747344ZM1.19115 0.747344C1.03041 0.905675 0.949756 1.10104 0.949756 1.33029C0.949756 2.63536 1.28998 3.94614 1.96876 5.26215C2.64689 6.57687 3.52433 7.76332 4.60088 8.82141C5.67743 9.87949 6.88424 10.7425 8.22119 11.4103C9.55944 12.0788 10.8911 12.4138 12.2157 12.4138C12.4478 12.4138 12.6458 12.3346 12.8065 12.1763C12.9673 12.018 13.0479 11.8226 13.0479 11.5934V9.67744C13.0479 9.46732 12.9842 9.28427 12.856 9.13087C12.7283 8.978 12.5627 8.88291 12.3616 8.84594L1.19115 0.747344ZM12.1122 5.83269C12.1416 6.06807 12.3365 6.25591 12.5778 6.25591C12.8351 6.25591 13.046 6.04067 13.0177 5.78021C12.9478 5.1374 12.7793 4.5288 12.512 3.95466C12.1872 3.25669 11.7566 2.64346 11.2204 2.1153L11.1853 2.15093L11.2204 2.1153C10.6841 1.58714 10.0616 1.16311 9.35306 0.843225C8.76632 0.57831 8.14416 0.411924 7.48683 0.343988C7.23016 0.317461 7.01821 0.525135 7.01821 0.778825C7.01821 1.01709 7.20395 1.20967 7.43674 1.23743C8.65082 1.38223 9.69655 1.88697 10.5755 2.75261C11.4518 3.61571 11.9636 4.64193 12.1122 5.83269ZM9.11522 5.87955C9.176 6.08981 9.35997 6.25591 9.5865 6.25591C9.85624 6.25591 10.0769 6.01852 10.0107 5.74711C9.86528 5.15087 9.56692 4.63029 9.11661 4.18604C8.66144 3.73698 8.12691 3.44421 7.51385 3.30854C7.24779 3.24966 7.01821 3.46605 7.01821 3.72953C7.01821 3.95633 7.18677 4.13945 7.3985 4.19591C7.81067 4.30583 8.17043 4.51252 8.47845 4.81659C8.78606 5.12025 8.99808 5.47439 9.11522 5.87955Z" fill="#F9FCFF" stroke="white" stroke-width="0.1"/>
</svg>
