<svg width="24" height="24" viewBox="0 0 24 24" fill="none" xmlns="http://www.w3.org/2000/svg">
<g opacity="0.9">
<path d="M15.1279 16.9093C15.4775 17.2694 16.0469 17.2955 16.4279 16.9687V16.9687C16.8554 16.602 16.8717 15.946 16.463 15.5585L12.8769 12.1582C12.7693 12.0561 12.7083 11.9142 12.7083 11.7658V6.99904C12.7083 6.47208 12.2811 6.04489 11.7541 6.04489V6.04489C11.2271 6.04489 10.8 6.47208 10.8 6.99904V12.2006C10.8 12.3607 10.8623 12.5144 10.9738 12.6293L15.1279 16.9093ZM12.0019 22.8002C10.5198 22.8002 9.12337 22.5167 7.81267 21.9498C6.50196 21.3829 5.35574 20.6088 4.37402 19.6275C3.39228 18.6462 2.61783 17.5005 2.05068 16.1904C1.48353 14.8803 1.19995 13.4842 1.19995 12.0021C1.19995 10.52 1.4834 9.12362 2.05031 7.81291C2.61722 6.5022 3.39131 5.35599 4.3726 4.37427C5.35391 3.39252 6.49962 2.61808 7.80974 2.05092C9.11988 1.48377 10.516 1.2002 11.998 1.2002C13.4801 1.2002 14.8765 1.48365 16.1872 2.05056C17.4979 2.61746 18.6442 3.39156 19.6259 4.37285C20.6076 5.35415 21.3821 6.49986 21.9492 7.80998C22.5164 9.12012 22.7999 10.5162 22.7999 11.9983C22.7999 13.4804 22.5165 14.8768 21.9496 16.1875C21.3827 17.4982 20.6086 18.6444 19.6273 19.6261C18.646 20.6079 17.5003 21.3823 16.1902 21.9495C14.88 22.5166 13.4839 22.8002 12.0019 22.8002Z" fill="white"/>
</g>
</svg>
