<svg width="16" height="16" viewBox="0 0 16 16" fill="none" xmlns="http://www.w3.org/2000/svg">
<mask id="mask0_1338_15377" style="mask-type:alpha" maskUnits="userSpaceOnUse" x="0" y="0" width="16" height="16">
<rect width="16" height="16" fill="#D9D9D9"/>
</mask>
<g mask="url(#mask0_1338_15377)">
<path d="M10.31 11.1254L11.29 10.1454L8.7 7.55545V4.33545H7.3V8.11545L10.31 11.1254ZM8 14.8354C7.03167 14.8354 6.12167 14.6517 5.27 14.2842C4.41833 13.9167 3.6775 13.4179 3.0475 12.7879C2.4175 12.1579 1.91875 11.4171 1.55125 10.5654C1.18375 9.71378 1 8.80378 1 7.83545C1 6.86712 1.18375 5.95712 1.55125 5.10545C1.91875 4.25378 2.4175 3.51295 3.0475 2.88295C3.6775 2.25295 4.41833 1.7542 5.27 1.3867C6.12167 1.0192 7.03167 0.835449 8 0.835449C8.96833 0.835449 9.87833 1.0192 10.73 1.3867C11.5817 1.7542 12.3225 2.25295 12.9525 2.88295C13.5825 3.51295 14.0812 4.25378 14.4487 5.10545C14.8162 5.95712 15 6.86712 15 7.83545C15 8.80378 14.8162 9.71378 14.4487 10.5654C14.0812 11.4171 13.5825 12.1579 12.9525 12.7879C12.3225 13.4179 11.5817 13.9167 10.73 14.2842C9.87833 14.6517 8.96833 14.8354 8 14.8354ZM8 13.4354C9.55167 13.4354 10.8729 12.89 11.9637 11.7992C13.0546 10.7084 13.6 9.38712 13.6 7.83545C13.6 6.28378 13.0546 4.96253 11.9637 3.8717C10.8729 2.78087 9.55167 2.23545 8 2.23545C6.44833 2.23545 5.12708 2.78087 4.03625 3.8717C2.94542 4.96253 2.4 6.28378 2.4 7.83545C2.4 9.38712 2.94542 10.7084 4.03625 11.7992C5.12708 12.89 6.44833 13.4354 8 13.4354Z" fill="#F9FCFF"/>
</g>
</svg>
