<svg width="16" height="16" viewBox="0 0 16 16" fill="none" xmlns="http://www.w3.org/2000/svg">
<mask id="mask0_476_888" style="mask-type:alpha" maskUnits="userSpaceOnUse" x="-1" y="-1" width="17" height="17">
<rect x="-1" y="-1" width="17" height="17" fill="#D9D9D9"/>
</mask>
<g mask="url(#mask0_476_888)">
<path d="M8 11.8C8.90909 11.8 9.68182 11.4792 10.3182 10.8375C10.9545 10.1958 11.2727 9.41667 11.2727 8.5C11.2727 7.58333 10.9545 6.80417 10.3182 6.1625C9.68182 5.52083 8.90909 5.2 8 5.2C7.09091 5.2 6.31818 5.52083 5.68182 6.1625C5.04545 6.80417 4.72727 7.58333 4.72727 8.5C4.72727 9.41667 5.04545 10.1958 5.68182 10.8375C6.31818 11.4792 7.09091 11.8 8 11.8ZM8 10.48C7.45455 10.48 6.99091 10.2875 6.60909 9.9025C6.22727 9.5175 6.03636 9.05 6.03636 8.5C6.03636 7.95 6.22727 7.4825 6.60909 7.0975C6.99091 6.7125 7.45455 6.52 8 6.52C8.54545 6.52 9.00909 6.7125 9.39091 7.0975C9.77273 7.4825 9.96364 7.95 9.96364 8.5C9.96364 9.05 9.77273 9.5175 9.39091 9.9025C9.00909 10.2875 8.54545 10.48 8 10.48ZM8 14C6.2303 14 4.61818 13.5019 3.16364 12.5058C1.70909 11.5097 0.654546 10.1744 0 8.5C0.654546 6.82556 1.70909 5.49028 3.16364 4.49417C4.61818 3.49806 6.2303 3 8 3C9.7697 3 11.3818 3.49806 12.8364 4.49417C14.2909 5.49028 15.3455 6.82556 16 8.5C15.3455 10.1744 14.2909 11.5097 12.8364 12.5058C11.3818 13.5019 9.7697 14 8 14ZM8 12.5333C9.3697 12.5333 10.6273 12.1697 11.7727 11.4425C12.9182 10.7153 13.7939 9.73444 14.4 8.5C13.7939 7.26556 12.9182 6.28472 11.7727 5.5575C10.6273 4.83028 9.3697 4.46667 8 4.46667C6.6303 4.46667 5.37273 4.83028 4.22727 5.5575C3.08182 6.28472 2.20606 7.26556 1.6 8.5C2.20606 9.73444 3.08182 10.7153 4.22727 11.4425C5.37273 12.1697 6.6303 12.5333 8 12.5333Z" fill="#15466B"/>
</g>
</svg>
