<svg width="23" height="20" viewBox="0 0 23 20" fill="none" xmlns="http://www.w3.org/2000/svg">
<path d="M22.329 19.4893C20.8883 19.4893 20.1555 18.5761 19.5685 17.8414C18.9854 17.1106 18.6171 16.6981 17.8613 16.6981C17.1054 16.6981 16.7391 17.1106 16.154 17.8414C15.567 18.5761 14.8342 19.4893 13.3935 19.4893C11.9529 19.4893 11.222 18.5742 10.635 17.8395C10.0519 17.1106 9.68356 16.6981 8.92967 16.6981C8.17386 16.6981 7.80746 17.1106 7.2243 17.8395C6.63539 18.5742 5.90452 19.4893 4.46388 19.4893C3.02324 19.4893 2.29236 18.5761 1.70536 17.8414C1.1222 17.1106 0.75389 16.6981 0 16.6981V15.3496C1.44064 15.3496 2.17151 16.2627 2.75851 16.9974C3.34167 17.7263 3.70999 18.1407 4.46388 18.1407C5.21968 18.1407 5.58608 17.7263 6.16924 16.9974C6.75816 16.2627 7.48903 15.3496 8.92967 15.3496C10.3703 15.3496 11.1012 16.2627 11.6882 16.9974C12.2713 17.7263 12.6377 18.1407 13.3935 18.1407C14.1494 18.1407 14.5157 17.7263 15.1008 16.9974C15.6878 16.2627 16.4206 15.3496 17.8613 15.3496C19.3019 15.3496 20.0347 16.2627 20.6217 16.9974C21.2068 17.7263 21.5732 18.1407 22.329 18.1407V19.4893Z" fill="#15466B"/>
<path d="M14.632 11.8379H13.2834V6.25565C13.2834 4.34503 14.8373 2.79121 16.7479 2.79121C18.6585 2.79121 20.2123 4.34503 20.2123 6.25565C20.2123 8.16627 18.6585 9.72009 16.7479 9.72009V8.37153C17.9142 8.37153 18.8638 7.42197 18.8638 6.25565C18.8638 5.08933 17.9142 4.14169 16.7479 4.14169C15.5816 4.14169 14.632 5.08933 14.632 6.25565V11.8379Z" fill="#15466B"/>
<path d="M14.6505 9.04663H13.302V3.46439C13.302 2.29807 12.3524 1.35043 11.1861 1.35043C10.0198 1.35043 9.07021 2.29807 9.07021 3.46439C9.07021 4.63071 10.0198 5.58027 11.1861 5.58027V6.92883C9.27546 6.92883 7.71973 5.37501 7.71973 3.46439C7.71973 1.55377 9.27546 -5.25714e-05 11.1861 -5.25714e-05C13.0967 -5.25714e-05 14.6505 1.55377 14.6505 3.46439V9.04663Z" fill="#15466B"/>
<path d="M7.46803 17.5433L4.33545 14.4127L5.29076 13.4574L7.4757 15.6423L10.4586 12.7016C11.4331 11.7271 12.7337 11.188 14.1168 11.188C16.8082 11.188 19.0776 13.2886 19.2809 15.9703L17.9342 16.072C17.7846 14.0904 16.108 12.5385 14.1168 12.5385C13.0944 12.5385 12.1333 12.9375 11.4101 13.6607L7.46803 17.5433Z" fill="#15466B"/>
</svg>
