<svg width="57" height="55" viewBox="0 0 57 55" fill="none" xmlns="http://www.w3.org/2000/svg">
<path d="M18.7355 43.6757C17.8466 43.1693 16.9749 42.687 16.1073 42.2273C15.2163 41.8185 14.3446 41.4088 13.4953 41.0005C12.6311 40.6154 11.7951 40.2156 10.9873 39.8009C10.1735 39.3956 9.39722 38.9683 8.65519 38.5168C7.91316 38.0654 7.21168 37.5872 6.55103 37.0892C5.88978 36.5776 5.27538 36.0368 4.70482 35.4715C4.14026 34.8968 3.62556 34.2883 3.16731 33.6502C2.72978 32.9726 2.36072 32.2467 2.03581 31.5031C1.71059 30.7528 1.42381 30.0007 1.18178 29.2445C0.939442 28.4816 0.738848 27.7191 0.579995 26.9571C0.424145 26.1904 0.313039 25.4196 0.237968 24.6653C0.165901 23.9065 0.138878 23.1502 0.150893 22.4059C0.169214 21.659 0.226574 20.9241 0.332581 20.2007C0.438589 19.4773 0.580632 18.7706 0.76862 18.0868C0.962614 17.3937 1.19294 16.724 1.46952 16.0841C1.7488 15.4327 2.07432 14.8111 2.43648 14.2197C2.80795 13.6211 3.21035 13.0688 3.64368 12.5628C4.08301 12.0475 4.55027 11.5831 5.04816 11.1583C5.54906 10.7288 6.07458 10.3481 6.62742 10.0049C7.18357 9.66374 7.76405 9.36465 8.36884 9.10762C8.97034 8.84845 9.60246 8.62881 10.2526 8.45376C10.9024 8.27191 11.5733 8.12999 12.2652 8.02799C12.9673 7.8666 13.6985 7.71077 14.4552 7.55159C15.2201 7.35804 16.0258 7.14462 16.8714 6.89095C17.7438 6.58852 18.6534 6.25729 19.6044 5.91977C20.5912 5.5195 21.6164 5.11758 22.6764 4.70512C23.7638 4.25748 24.868 3.82727 25.986 3.41915C27.107 3.00636 28.2358 2.62499 29.3694 2.2797C30.5001 1.93907 31.6328 1.64597 32.764 1.39149C33.8901 1.16671 35.0168 1.02808 36.1279 0.971741C37.2303 1.00875 38.2852 1.20653 39.3194 1.5163C40.3257 1.92024 41.3047 2.43192 42.2494 3.0403C43.159 3.72501 44.0173 4.48221 44.8145 5.31229C45.5319 6.22288 46.1944 7.19704 46.8109 8.22077C47.4163 9.28353 47.9751 10.3823 48.5 11.5119C49.0072 12.6764 49.4739 13.8675 49.906 15.076C50.3264 16.3099 50.7207 17.5335 51.088 18.7266C51.4513 19.904 51.7906 21.0461 52.1026 22.1508C52.4321 23.2139 52.7819 24.1583 53.1197 25.0488C53.4783 25.8998 53.8224 26.7151 54.1521 27.4948C54.4915 28.2741 54.796 29.0639 55.0587 29.8532C55.3215 30.6425 55.5395 31.436 55.7155 32.2223C55.8944 33.0038 56.0287 33.7895 56.1175 34.5658C56.2064 35.3422 56.2533 36.1112 56.2485 36.8734C56.247 37.6376 56.2001 38.3925 56.1046 39.1359C56.0091 39.8792 55.8683 40.6131 55.6785 41.3287C55.489 42.0511 55.2505 42.7552 54.9665 43.443C54.6794 44.1356 54.3433 44.8098 53.9584 45.4656C53.5731 46.1147 53.1482 46.7383 52.6863 47.3249C52.2244 47.9114 51.7227 48.4657 51.1902 48.9804C50.6548 49.4998 50.0887 49.9797 49.4923 50.4269C48.896 50.8741 48.2692 51.2885 47.6152 51.6656C46.9611 52.0426 46.2798 52.3823 45.5777 52.6888C44.8723 52.9932 44.1462 53.2645 43.396 53.5005C42.6426 53.7343 41.8615 53.924 41.0513 54.0356C40.2276 54.1319 39.3859 54.1835 38.5261 54.1906C37.6667 54.2045 36.7982 54.1598 35.9484 54.0282C35.1163 53.8617 34.2941 53.6291 33.4758 53.3396C32.6635 53.0408 31.8518 52.683 31.0443 52.2752C30.2305 51.8699 29.4146 51.417 28.6026 50.9073C27.7846 50.4069 26.9738 49.8518 26.1675 49.2534C25.3522 48.669 24.5351 48.0438 23.7225 47.3754C22.8985 46.7392 22.0772 46.0916 21.2622 45.4414C20.4337 44.8485 19.5892 44.2585 18.7355 43.6757Z" fill="#FDC504"/>
</svg>
