<svg width="61" height="47" viewBox="0 0 61 47" fill="none" xmlns="http://www.w3.org/2000/svg">
<path d="M56.196 10.8881C52.3924 8.73144 48.0572 7.76452 43.7287 8.09925L44.5745 5.04309L44.9186 3.79947L43.8264 4.4865L37.31 8.58536L40.1675 3.23557L39.4026 2.61912L32.7358 8.28896V3.63419V2.13799L31.8362 3.33359L32.2358 3.63419C31.8362 3.33359 31.8362 3.3337 31.836 3.33384L31.8357 3.33428L31.8346 3.33574L31.8308 3.34091L31.8164 3.36018C31.8039 3.37696 31.7858 3.40157 31.7622 3.43371C31.7152 3.498 31.6468 3.59243 31.5601 3.71467C31.3866 3.95911 31.1398 4.31494 30.8441 4.76342C30.2529 5.65994 29.4648 6.92906 28.6761 8.4207C27.1081 11.3865 25.5012 15.2999 25.5005 18.9313C25.4781 21.5056 26.2046 24.0258 27.5835 26.1743C27.1159 26.3922 26.7435 26.8213 26.4802 27.3054C26.0896 28.0235 25.8632 28.9818 25.8632 30.0143V30.0152V30.016V30.0168V30.0177V30.0185V30.0193V30.0202V30.021V30.0218V30.0227V30.0235V30.0243V30.0252V30.026V30.0268V30.0277V30.0285V30.0293V30.0302V30.031V30.0318V30.0327V30.0335V30.0343V30.0352V30.036V30.0368V30.0376V30.0385V30.0393V30.0401V30.041V30.0418V30.0426V30.0435V30.0443V30.0451V30.0459V30.0468V30.0476V30.0484V30.0493V30.0501V30.0509V30.0518V30.0526V30.0534V30.0542V30.0551V30.0559V30.0567V30.0575V30.0584V30.0592V30.06V30.0609V30.0617V30.0625V30.0633V30.0642V30.065V30.0658V30.0666V30.0675V30.0683V30.0691V30.0699V30.0708V30.0716V30.0724V30.0732V30.0741V30.0749V30.0757V30.0765V30.0774V30.0782V30.079V30.0798V30.0807V30.0815V30.0823V30.0831V30.084V30.0848V30.0856V30.0864V30.0873V30.0881V30.0889V30.0897V30.0905V30.0914V30.0922V30.093V30.0938V30.0947V30.0955V30.0963V30.0971V30.0979V30.0988V30.0996V30.1004V30.1012V30.1021V30.1029V30.1037V30.1045V30.1053V30.1062V30.107V30.1078V30.1086V30.1094V30.1103V30.1111V30.1119V30.1127V30.1135V30.1144V30.1152V30.116V30.1168V30.1176V30.1185V30.1193V30.1201V30.1209V30.1217V30.1226V30.1234V30.1242V30.125V30.1258V30.1267V30.1275V30.1283V30.1291V30.1299V30.1307V30.1316V30.1324V30.1332V30.134V30.1348V30.1357V30.1365V30.1373V30.1381V30.1389V30.1397V30.1406V30.1414V30.1422V30.143V30.1438V30.1447V30.1455V30.1463V30.1471V30.1479V30.1487V30.1496V30.1504V30.1512V30.152V30.1528V30.1536V30.1545V30.1553V30.1561V30.1569V30.1577V30.1585V30.1594V30.1602V30.161V30.1618V30.1626V30.1634V30.1642V30.1651V30.1659V30.1667V30.1675V30.1683V30.1691V30.17V30.1708V30.1716V30.1724V30.1732V30.174V30.1749V30.1757V30.1765V30.1773V30.1781V30.1789V30.1797V30.1806V30.1814V30.1822V30.183V30.1838V30.1846V30.1854V30.1863V30.1871V30.1879V30.1887V30.1895V30.1903V30.1912V30.192V30.1928V30.1936V30.1944V30.1952V30.196V30.1969V30.1977V30.1985V30.1993V30.2001V30.2009V30.2017V30.2026V30.2034V30.2042V30.205V30.2058V30.2066V30.2074V30.2083V30.2091V30.2099V30.2107V30.2115V30.2123V30.2131V30.214V30.2148V30.2156V30.2164V30.2172V30.218V30.2188V30.2197V30.2205V30.2213V30.2221V30.2229V30.2237V30.2245V30.2254V30.2262V30.227V30.2278V30.2286V30.2294V30.2302V30.2311V30.2319V30.2327V30.2335V30.2343V30.2351V30.2359V30.2368V30.2376V30.2384V30.2392V30.24V30.2408V30.2416V30.2425V30.2433V30.2441V30.2449V30.2457V30.2465V30.2473V30.2482V30.249V30.2498V30.2506V30.2514V30.2522V30.253V30.2539V30.2547V30.2555V30.2563V30.2571V30.2579V30.2587V30.2596V30.2604V30.2612V30.262V30.2628V30.2636V30.2644V30.2653V30.2661V30.2669V30.2677V30.2685V30.2693V30.2702V30.271V30.2718V30.2726V30.2734V30.2742V30.275V30.2759V30.2767V30.2775V30.2783V30.2791V30.2799V30.2808V30.2816V30.2824V30.2832V30.284V30.2848V30.2857V30.2865V30.2873V30.2881V30.2889V30.2897V30.2905V30.2914V30.2922V30.293V30.2938V30.2946V30.2954V30.2963V30.2971V30.2979V30.2987V30.2995V30.3003V30.3012V30.302V30.3028V30.3036V30.3044V30.3052V30.3061V30.3069V30.3077V30.3085V30.3093V30.3102V30.311V30.3118V30.3126V30.3134V30.3142V30.3151V30.3159V30.3167V30.3175V30.3183V30.3192V30.32V30.3208V30.3216V30.3224V30.3232V30.3241V30.3249V30.3257V30.3265V30.3273V30.3282V30.329V30.3298V30.3306V30.3314V30.3323V30.3331V30.3339V30.3347V30.3355V30.3364V30.3372V30.338V30.3388V30.3396V30.3405V30.3413V30.3421V30.3429V30.3437V30.3446V30.3454V30.3462V30.347V30.3478V30.3487V30.3495V30.3503V30.3511V30.352V30.3528V30.3536V30.3544V30.3552V30.3561V30.3569V30.3577V30.3585V30.3594V30.3602V30.361V30.3618V30.3627V30.3635V30.3643V30.3651V30.3659V30.3668V30.3676V30.3684V30.3692V30.3701V30.3709V30.3717V30.3725V30.3734V30.3742V30.375V30.3758V30.3767V30.3775V30.3783V30.3791V30.38V30.3808V30.3816V30.3824V30.3833V30.3841V30.3849V30.3857V30.3866V30.3874V30.3882V30.3891V30.3899V30.3907V30.3915V30.3924V30.3932V30.394V30.3948V30.3957V30.3965V30.3973V30.3982V30.399V30.3998V30.4006V30.4015V30.4023V30.4031V30.404V30.4048V30.4056V30.4065V30.4073V30.4081V30.4089V30.4098V30.4106V30.4114V30.4123V30.4131V30.4139V30.4148V30.4156V30.4164V30.4173V30.4181V30.4189V30.4198V30.4206V30.4214V30.4222V30.4231V30.4239V30.4247V30.4256V30.4264V30.4272V30.4281V30.4289V30.4297V30.4306V30.4314V30.4323V30.4331V30.4339V30.4348V30.4356V30.4364V30.4373V30.4381V30.4389V30.4397V30.4406V30.4414V30.4422V30.4431V30.4439V30.4447V30.4455V30.4463V30.4472V30.448V30.4488V30.4496V30.4504V30.4512V30.452V30.4529V30.4537V30.4545V30.4553V30.4561V30.4569V30.4577V30.4585V30.4593V30.4601V30.4609V30.4617V30.4625V30.4633V30.4641V30.4649V30.4657V30.4665V30.4673V30.4681V30.4689V30.4697V30.4704V30.4712V30.472V30.4728V30.4736V30.4744V30.4752V30.4759V30.4767V30.4775V30.4783V30.4791V30.4798V30.4806V30.4814V30.4822V30.4829V30.4837V30.4845V30.4852V30.486V30.4868V30.4876V30.4883V30.4891V30.4898V30.4906V30.4914V30.4921V30.4929V30.4937V30.4944V30.4952V30.4959V30.4967V30.4974V30.4982V30.499V30.4997V30.5005V30.5012V30.502V30.5027V30.5035V30.5042V30.505V30.5057V30.5065V30.5072V30.5079V30.5087V30.5094V30.5102V30.5109V30.5117V30.5124V30.5131V30.5139V30.5146V30.5153V30.5161V30.5168V30.5176V30.5183V30.519V30.5198V30.5205V30.5212V30.5219V30.5227V30.5234V30.5241V30.5249V30.5256V30.5263V30.527V30.5278V30.5285V30.5292V30.5299V30.5306V30.5314V30.5321V30.5328V30.5335V30.5342V30.5349V30.5357V30.5364V30.5371V30.5378V30.5385V30.5392V30.5399V30.5407V30.5414V30.5421V30.5428V30.5435V30.5442V30.5449V30.5456V30.5463V30.547V30.5477V30.5484V30.5491V30.5498V30.5505V30.5512V30.552V30.5527V30.5534V30.554V30.5547V30.5554V30.5561V30.5568V30.5575V30.5582V30.5589V30.5596V30.5603V30.561V30.5617V30.5624V30.5631V30.5638V30.5645V30.5652V30.5658V30.5665V30.5672V30.5679V30.5686V30.5693V30.57V30.5707V30.5713V30.572V30.5727V30.5734V30.5741V30.5748V30.5755V30.5761V30.5768V30.5775V30.5782V30.5789V30.5795V30.5802V30.5809V30.5816V30.5823V30.5829V30.5836V30.5843V30.585V30.5856V30.5863V30.587V30.5877V30.5883V30.589V30.5897V30.5904V30.591V30.5917V30.5924V30.593V30.5937V30.5944V30.5951V30.5957V30.5964V30.5971V30.5977V30.5984V30.5991V30.5997V30.6004V30.6011V30.6017V30.6024V30.6031V30.6037V30.6044V30.6051V30.6057V30.6064V30.607V30.6077V30.6084V30.609V30.6097V30.6104V30.611V30.6117V30.6123V30.613V30.6137V30.6143V30.615V30.6157V30.6163V30.617V30.6176V30.6183V30.6189V30.6196V30.6203V30.6209V30.6216V30.6222V30.6229V30.6235V30.6242V30.6249V30.6255V30.6262V30.6268V30.6275V30.6281V30.6288V30.6294V30.6301V30.6308V30.6314V30.6321V30.6327V30.6334V30.634V30.6347V30.6353V30.636V30.6366V30.6373V30.6379V30.6386V30.6392V30.6399V30.6406V30.6412V30.6419V30.6425V30.6432V30.6438V30.6445V30.6451V30.6458V30.6464V30.6471V30.6477V30.6484V30.649V30.6497V30.6503V30.651V30.6516V30.6523V30.6529V30.6536V30.6542V30.6549V30.6555V30.6562V30.6568V30.6575V30.6581V30.6588V30.6594V30.6601V30.6607V30.6614V30.662V30.6627V30.6633V30.664V30.6646V30.6653V30.6659V30.6666V30.6672V30.6679V30.6685V30.6691V30.6698V30.6704V30.6711V30.6717V30.6724V30.673V30.6737V30.6743V30.675V30.6756V30.6763V30.6769V30.6776V30.6782V30.6789V30.6795V30.6802V30.6808V30.6815V30.6821V30.6828V30.6834V30.6841V30.6847V30.6854V30.686V30.6867V30.6873V30.688V30.6886V30.6893V30.6899V30.6906V30.6912V30.6919V30.6926V30.6932V30.6939V30.6945V30.6952V30.6958V30.6965V30.6971V30.6978V30.6984V30.6991V30.6997V30.7004V30.701V30.7017V30.7024V30.703V30.7037V30.7043V30.705V30.7056V30.7063V30.7069V30.7076V30.7082V30.7089V30.7096V30.7102V30.7109V30.7115V30.7122V30.7128V30.7135V30.7142V30.7148V30.7155V30.7161V30.7168V30.7175V30.7181V30.7188V30.7194V30.7201V30.7208V30.7214V30.7221V30.7227V30.7234V30.7241V30.7247V30.7254V30.7261V30.7267V30.7274V30.7281V30.7287V30.7294V30.73V30.7307V30.7314V30.732V30.7327V30.7334V30.734V30.7347V30.7354V30.7361V30.7367V30.7374V30.7381V30.7387V30.7394V30.7401V30.7407V30.7414V30.7421V30.7428V30.7434V30.7441V30.7448V30.7455V30.7461V30.7468V30.7475V30.7482V30.7488V30.7495V30.7502V30.7509V30.7515V30.7522V30.7529V30.7536V30.7543V30.7549V30.7556V30.7563V30.757V30.7577V30.7583V30.759V30.7597V30.7604V30.7611V30.7618V30.7625V30.7631V30.7638V30.7645V30.7652V30.7659V30.7666V30.7673V30.768V30.7687V30.7693V30.77V30.7707V30.7714V30.7721V30.7728V30.7735V30.7742V30.7749V30.7756V30.7763V30.777V30.7777V30.7784V30.7791V30.7798V30.7805V30.7812V30.7819V30.7826V30.7833V30.784V30.7847V30.7854V30.7861V30.7868V30.7875V30.7882V30.7889V30.7896V30.7903V30.791C25.8632 33.0549 27.1838 35.0708 29.0742 35.5064C31.066 40.8471 35.0929 44.887 40.0224 46.1333C42.123 46.6644 44.5324 46.5803 46.3284 46.1262C51.2563 44.8802 55.2896 40.8423 57.2756 35.5028C59.1728 35.0869 60.4889 33.0723 60.4946 30.7987C60.5016 30.6743 60.5018 30.5497 60.4953 30.4253C60.5016 30.2819 60.5014 30.1383 60.4946 29.9949C60.4928 28.9671 60.2667 28.0133 59.8765 27.2978C59.5745 26.7439 59.1297 26.2635 58.5633 26.0873C58.4776 24.9519 58.3037 23.8252 58.0431 22.7178C59.9594 19.8834 60.3393 16.6901 60.2458 14.2169C60.1979 12.9496 60.0254 11.86 59.8647 11.0862C59.7842 10.6989 59.7065 10.3898 59.6484 10.1758C59.6194 10.0688 59.5952 9.98559 59.578 9.92821C59.5694 9.89952 59.5626 9.87729 59.5577 9.86178L59.552 9.84361L59.5503 9.83836L59.5498 9.83671L59.5496 9.83613C59.5495 9.83591 59.5494 9.83571 59.074 9.99052L59.5494 9.83571L59.1674 8.66227L58.6249 9.77073C58.3392 10.3545 58.037 10.6848 57.7702 10.8708C57.507 11.0542 57.2537 11.1144 57.0309 11.1189C56.8019 11.1235 56.5952 11.0688 56.4417 11.0094C56.366 10.9801 56.3067 10.9509 56.2683 10.9303C56.2492 10.9201 56.2356 10.9121 56.228 10.9076L56.2219 10.9039L56.2218 10.9038L56.2215 10.9036L56.2106 10.8964L56.196 10.8881Z" fill="#0281C9" stroke="#E8E9EB"/>
<path d="M2.368 16V6.384H0.08L1.424 4.64H4.128V16H2.368ZM9.99525 16.16C7.69125 16.16 6.10725 14.48 6.10725 12.336C6.10725 11.2 6.63525 10.368 7.38725 9.392L11.1793 4.64H13.3873L10.1873 8.672H10.3633C12.1553 8.672 13.8993 10.192 13.8993 12.32C13.8993 14.48 12.3153 16.16 9.99525 16.16ZM9.99525 14.464C11.2113 14.464 12.1233 13.52 12.1233 12.336C12.1233 11.168 11.2113 10.208 9.99525 10.208C8.77925 10.208 7.88325 11.168 7.88325 12.336C7.88325 13.52 8.77925 14.464 9.99525 14.464ZM15.1545 12.144V10.592H17.7465V8H19.3145V10.592H21.9065V12.144H19.3145V14.736H17.7465V12.144H15.1545Z" fill="#15466B"/>
</svg>
