<svg width="65" height="47" viewBox="0 0 65 47" fill="none" xmlns="http://www.w3.org/2000/svg">
<path d="M2.368 16V6.384H0.08L1.424 4.64H4.128V16H2.368ZM13.7873 14.272V16H6.26725V15.36C6.26725 12.848 8.33125 11.776 9.99525 10.544C11.1473 9.696 11.8993 9.056 11.8993 7.904C11.8993 6.88 11.2273 6.176 10.0913 6.176C8.93925 6.176 8.05925 6.896 8.04325 8.112H6.26725C6.26725 5.92 7.94725 4.448 10.1073 4.448C12.0113 4.448 13.6753 5.6 13.6753 7.856C13.6753 9.664 12.8273 10.64 11.1633 11.84C10.1393 12.608 8.89125 13.248 8.58725 14.272H13.7873ZM15.1701 12.144V10.592H17.7621V8H19.3301V10.592H21.9221V12.144H19.3301V14.736H17.7621V12.144H15.1701Z" fill="#15466B"/>
<mask id="path-2-outside-1_1_3205" maskUnits="userSpaceOnUse" x="23.5574" y="1.97607" width="41" height="46" fill="black">
<rect fill="white" x="23.5574" y="1.97607" width="41" height="46"/>
<path fill-rule="evenodd" clip-rule="evenodd" d="M35.9243 11.9547C36.3402 8.30812 39.073 4.93648 43.5022 3.56914C44.7335 3.18897 48.0775 2.77983 48.5451 3.07963C48.8044 3.2459 48.004 3.45256 47.6974 3.50655C44.979 3.98535 43.9742 6.85144 44.1447 8.49154C44.1927 8.95329 44.3095 9.35697 44.4692 9.72539C44.8568 8.76082 46.5673 6.59914 49.2976 6.57801C49.5732 6.57587 50.3636 6.83749 50.0879 6.83749C49.1108 6.83749 48.403 8.81644 48.3484 10.061C48.4939 10.3174 48.6863 10.5334 48.8234 10.6873C48.8807 10.7516 48.9284 10.8051 48.9589 10.8461C49.5066 11.5834 50.1565 12.1691 50.8295 12.7757C50.8952 12.835 50.9612 12.8945 51.0274 12.9543C51.9794 13.8155 53.3299 15.0733 53.8424 16.4683C55.0714 15.4324 56.979 14.5243 58.4583 13.82L58.4584 13.82C58.9764 13.5734 59.4419 13.3518 59.8074 13.1584C59.9446 13.0858 60.3027 12.8277 60.7223 12.5251L60.7224 12.525L60.7228 12.5248L60.7228 12.5247C61.5682 11.9152 62.6633 11.1257 62.7071 11.3092C64.5569 19.0553 60.0133 29.3572 58.1416 31.7014C58.0759 31.7837 58.0054 31.8749 57.9305 31.9716C57.3785 32.6851 56.5888 33.7056 55.7177 33.7799C55.9135 38.0441 54.4796 41.6658 49.5154 44.0932C49.3224 44.1875 49.1304 44.2827 48.9392 44.3774L48.9391 44.3775C47.8735 44.9054 46.8314 45.4218 45.7707 45.7304C45.7707 45.7304 42.5864 46.3371 39.7432 45.7304C36.9 45.1237 33.8974 43.5065 30.593 38.9611C28.786 36.4754 28.8492 34.4844 29.434 32.5983C29.3221 32.7204 29.2245 32.7731 29.15 32.7273C24.4454 29.8358 24.0295 18.8589 24.9568 11.9412C24.9793 11.7733 24.9329 11.5412 24.8879 11.3161C24.8122 10.9368 24.7403 10.5772 25.0079 10.5772C25.0939 10.5772 26.7207 11.772 27.4417 12.3015L27.4418 12.3016L27.4418 12.3016C27.613 12.4273 27.7331 12.5155 27.7693 12.5413C27.9701 12.6841 28.2007 12.8425 28.4523 13.0153L28.4526 13.0154L28.4527 13.0155L28.4527 13.0155C29.8763 13.9931 31.9731 15.433 33.1488 17.1325C33.2516 15.148 34.4376 13.2334 35.9243 11.9547Z"/>
</mask>
<path fill-rule="evenodd" clip-rule="evenodd" d="M35.9243 11.9547C36.3402 8.30812 39.073 4.93648 43.5022 3.56914C44.7335 3.18897 48.0775 2.77983 48.5451 3.07963C48.8044 3.2459 48.004 3.45256 47.6974 3.50655C44.979 3.98535 43.9742 6.85144 44.1447 8.49154C44.1927 8.95329 44.3095 9.35697 44.4692 9.72539C44.8568 8.76082 46.5673 6.59914 49.2976 6.57801C49.5732 6.57587 50.3636 6.83749 50.0879 6.83749C49.1108 6.83749 48.403 8.81644 48.3484 10.061C48.4939 10.3174 48.6863 10.5334 48.8234 10.6873C48.8807 10.7516 48.9284 10.8051 48.9589 10.8461C49.5066 11.5834 50.1565 12.1691 50.8295 12.7757C50.8952 12.835 50.9612 12.8945 51.0274 12.9543C51.9794 13.8155 53.3299 15.0733 53.8424 16.4683C55.0714 15.4324 56.979 14.5243 58.4583 13.82L58.4584 13.82C58.9764 13.5734 59.4419 13.3518 59.8074 13.1584C59.9446 13.0858 60.3027 12.8277 60.7223 12.5251L60.7224 12.525L60.7228 12.5248L60.7228 12.5247C61.5682 11.9152 62.6633 11.1257 62.7071 11.3092C64.5569 19.0553 60.0133 29.3572 58.1416 31.7014C58.0759 31.7837 58.0054 31.8749 57.9305 31.9716C57.3785 32.6851 56.5888 33.7056 55.7177 33.7799C55.9135 38.0441 54.4796 41.6658 49.5154 44.0932C49.3224 44.1875 49.1304 44.2827 48.9392 44.3774L48.9391 44.3775C47.8735 44.9054 46.8314 45.4218 45.7707 45.7304C45.7707 45.7304 42.5864 46.3371 39.7432 45.7304C36.9 45.1237 33.8974 43.5065 30.593 38.9611C28.786 36.4754 28.8492 34.4844 29.434 32.5983C29.3221 32.7204 29.2245 32.7731 29.15 32.7273C24.4454 29.8358 24.0295 18.8589 24.9568 11.9412C24.9793 11.7733 24.9329 11.5412 24.8879 11.3161C24.8122 10.9368 24.7403 10.5772 25.0079 10.5772C25.0939 10.5772 26.7207 11.772 27.4417 12.3015L27.4418 12.3016L27.4418 12.3016C27.613 12.4273 27.7331 12.5155 27.7693 12.5413C27.9701 12.6841 28.2007 12.8425 28.4523 13.0153L28.4526 13.0154L28.4527 13.0155L28.4527 13.0155C29.8763 13.9931 31.9731 15.433 33.1488 17.1325C33.2516 15.148 34.4376 13.2334 35.9243 11.9547Z" fill="#AB8EB8"/>
<path d="M43.5022 3.56914L43.7972 4.52464L43.7972 4.52463L43.5022 3.56914ZM35.9243 11.9547L36.5764 12.7128L36.8735 12.4573L36.9179 12.068L35.9243 11.9547ZM48.5451 3.07963L48.0053 3.92143L48.0053 3.92145L48.5451 3.07963ZM47.6974 3.50655L47.524 2.52171L47.524 2.52171L47.6974 3.50655ZM44.1447 8.49154L43.1501 8.59495L43.1501 8.59496L44.1447 8.49154ZM44.4692 9.72539L43.5518 10.1232L44.5043 12.3202L45.3971 10.0982L44.4692 9.72539ZM49.2976 6.57801L49.3053 7.57798L49.3053 7.57798L49.2976 6.57801ZM48.3484 10.061L47.3493 10.0172L47.3367 10.3045L47.4787 10.5546L48.3484 10.061ZM48.8234 10.6873L48.0768 11.3525L48.0768 11.3525L48.8234 10.6873ZM48.9589 10.8461L49.7616 10.2498L49.7615 10.2496L48.9589 10.8461ZM50.8295 12.7757L51.499 12.0329L51.499 12.0329L50.8295 12.7757ZM51.0274 12.9543L50.3565 13.6958L50.3565 13.6959L51.0274 12.9543ZM53.8424 16.4683L52.9037 16.8131L53.3958 18.1525L54.4868 17.2329L53.8424 16.4683ZM58.4583 13.82L58.8882 14.723L58.8995 14.7174L58.4583 13.82ZM58.4584 13.82L58.0285 12.917L58.0172 12.9226L58.4584 13.82ZM59.8074 13.1584L60.275 14.0423L60.275 14.0423L59.8074 13.1584ZM60.7223 12.5251L60.1387 11.7131L60.1375 11.7139L60.7223 12.5251ZM60.7224 12.525L61.306 13.337L61.307 13.3363L60.7224 12.525ZM60.7228 12.5248L61.3074 13.3361L61.3152 13.3305L61.3228 13.3248L60.7228 12.5248ZM60.7228 12.5247L60.138 11.7136L60.1304 11.7191L60.1228 11.7247L60.7228 12.5247ZM62.7071 11.3092L61.7344 11.5413L61.7344 11.5415L62.7071 11.3092ZM58.1416 31.7014L57.3602 31.0774L57.3601 31.0775L58.1416 31.7014ZM57.9305 31.9716L58.7214 32.5836L58.7214 32.5836L57.9305 31.9716ZM55.7177 33.7799L55.6327 32.7835L54.6746 32.8652L54.7187 33.8257L55.7177 33.7799ZM49.5154 44.0932L49.9547 44.9915L49.9547 44.9915L49.5154 44.0932ZM48.9392 44.3774L48.4952 43.4814L48.4776 43.4901L48.4603 43.4995L48.9392 44.3774ZM48.9391 44.3775L49.3831 45.2735L49.4007 45.2648L49.418 45.2554L48.9391 44.3775ZM45.7707 45.7304L45.9579 46.7127L46.0045 46.7038L46.0501 46.6906L45.7707 45.7304ZM39.7432 45.7304L39.9518 44.7524L39.9518 44.7524L39.7432 45.7304ZM30.593 38.9611L31.4019 38.3731L31.4019 38.3731L30.593 38.9611ZM29.434 32.5983L30.3892 32.8945L28.697 31.9224L29.434 32.5983ZM29.15 32.7273L28.6264 33.5793L28.6264 33.5793L29.15 32.7273ZM24.9568 11.9412L23.9656 11.8082L23.9656 11.8083L24.9568 11.9412ZM24.8879 11.3161L23.9073 11.512L23.9073 11.512L24.8879 11.3161ZM27.4417 12.3015L26.8498 13.1075L26.8556 13.1118L26.8615 13.116L27.4417 12.3015ZM27.4418 12.3016L28.037 11.498L28.0295 11.4925L28.0219 11.4871L27.4418 12.3016ZM27.4418 12.3016L26.8465 13.1052L26.8498 13.1076L27.4418 12.3016ZM27.7693 12.5413L28.3489 11.7264L28.3488 11.7263L27.7693 12.5413ZM28.4523 13.0153L29.0192 12.1914L29.0184 12.1909L28.4523 13.0153ZM28.4526 13.0154L27.8857 13.8393L27.8863 13.8396L28.4526 13.0154ZM28.4527 13.0155L29.1171 12.2681L29.0704 12.2267L29.019 12.1913L28.4527 13.0155ZM28.4527 13.0155L27.7883 13.7629L27.8351 13.8045L27.8866 13.8399L28.4527 13.0155ZM33.1488 17.1325L32.3264 17.7015L33.9957 20.1145L34.1474 17.1843L33.1488 17.1325ZM43.2072 2.61363C38.4413 4.08492 35.3965 7.75771 34.9308 11.8414L36.9179 12.068C37.2839 8.85854 39.7047 5.78803 43.7972 4.52464L43.2072 2.61363ZM49.0849 2.23784C48.8192 2.06751 48.5139 2.02427 48.3647 2.00623C48.1682 1.98246 47.9483 1.97501 47.7277 1.97619C47.2829 1.97858 46.746 2.01697 46.2035 2.07509C45.1348 2.1896 43.9154 2.39499 43.2072 2.61364L43.7972 4.52463C44.3203 4.36312 45.3886 4.17385 46.4166 4.06371C46.9225 4.0095 47.3863 3.97805 47.7384 3.97616C47.9162 3.97521 48.044 3.98201 48.1246 3.99176C48.2526 4.00724 48.154 4.01681 48.0053 3.92143L49.0849 2.23784ZM47.8709 4.4914C48.0629 4.45759 48.4068 4.37836 48.6923 4.26859C48.7941 4.22945 49.0651 4.12431 49.2742 3.91403C49.3834 3.80421 49.6397 3.49849 49.5899 3.03644C49.54 2.57306 49.2228 2.3263 49.0848 2.23781L48.0053 3.92145C47.9321 3.87453 47.6467 3.6706 47.6014 3.25056C47.5563 2.83184 47.7902 2.56997 47.8561 2.50375C47.9004 2.45919 47.9386 2.43114 47.9588 2.41726C47.9803 2.40247 47.9954 2.3942 48.0003 2.3916C48.0087 2.38712 48.0022 2.39119 47.9746 2.4018C47.8481 2.45043 47.6386 2.50153 47.524 2.52171L47.8709 4.4914ZM45.1394 8.38813C45.0771 7.78904 45.2337 6.87333 45.7026 6.06559C46.1569 5.28291 46.8605 4.66935 47.8709 4.49139L47.524 2.52171C45.8158 2.82256 44.6579 3.88145 43.9729 5.06153C43.3024 6.21656 43.0419 7.55394 43.1501 8.59495L45.1394 8.38813ZM45.3867 9.3276C45.2638 9.0441 45.1759 8.73938 45.1394 8.38812L43.1501 8.59496C43.2096 9.16721 43.3552 9.66984 43.5518 10.1232L45.3867 9.3276ZM49.2898 5.57804C47.6489 5.59074 46.3259 6.24914 45.3746 7.02158C44.4416 7.77911 43.8058 8.69439 43.5413 9.35255L45.3971 10.0982C45.5203 9.79182 45.9335 9.14398 46.6352 8.57424C47.3186 8.01941 48.216 7.58641 49.3053 7.57798L49.2898 5.57804ZM50.0879 7.83749C50.1327 7.83749 50.2234 7.83584 50.3295 7.81394C50.3827 7.80298 50.4763 7.77974 50.5826 7.72707C50.6832 7.67722 50.8698 7.56403 51.0049 7.33568C51.356 6.74266 50.9683 6.24161 50.899 6.16111C50.7929 6.03782 50.6803 5.96766 50.6451 5.94594C50.4934 5.85218 50.3076 5.78854 50.2126 5.75722C50.0843 5.71493 49.9364 5.67347 49.7939 5.64166C49.672 5.61445 49.4784 5.57658 49.2898 5.57804L49.3053 7.57798C49.2546 7.57838 49.2631 7.5724 49.3583 7.59364C49.4329 7.61029 49.5171 7.63384 49.5864 7.65668C49.689 7.6905 49.6663 7.69213 49.5939 7.64736C49.5785 7.63788 49.4805 7.57895 49.383 7.46561C49.3223 7.39507 48.9371 6.9027 49.2839 6.31683C49.417 6.09206 49.5997 5.98206 49.6947 5.93498C49.7954 5.8851 49.8816 5.86422 49.9255 5.85517C50.0131 5.83711 50.0777 5.83749 50.0879 5.83749V7.83749ZM49.3474 10.1049C49.3689 9.61621 49.5269 8.93999 49.7771 8.40821C49.9017 8.14319 50.0246 7.96752 50.1193 7.87265C50.2147 7.77703 50.2027 7.83749 50.0879 7.83749V5.83749C49.4846 5.83749 49.0176 6.14533 48.7038 6.45965C48.3893 6.77473 48.1486 7.17158 47.9673 7.55687C47.6057 8.32571 47.3825 9.26124 47.3493 10.0172L49.3474 10.1049ZM47.4787 10.5546C47.6837 10.9158 47.9454 11.205 48.0768 11.3525L49.57 10.022C49.4273 9.86176 49.3041 9.71902 49.2181 9.56743L47.4787 10.5546ZM48.0768 11.3525C48.1069 11.3863 48.1274 11.4093 48.1439 11.4285C48.1616 11.449 48.1627 11.4512 48.1563 11.4427L49.7615 10.2496C49.6981 10.1643 49.6141 10.0715 49.57 10.022L48.0768 11.3525ZM48.1562 11.4425C48.7725 12.2722 49.4976 12.9215 50.16 13.5185L51.499 12.0329C50.8153 11.4168 50.2406 10.8946 49.7616 10.2498L48.1562 11.4425ZM50.16 13.5185C50.2259 13.5779 50.2912 13.6367 50.3565 13.6958L51.6983 12.2127C51.6313 12.1522 51.5646 12.0921 51.499 12.0329L50.16 13.5185ZM50.3565 13.6959C51.346 14.5909 52.4908 15.6894 52.9037 16.8131L54.781 16.1234C54.1689 14.4573 52.6128 13.04 51.6982 12.2127L50.3565 13.6959ZM58.0284 12.9171C56.586 13.6038 54.546 14.5674 53.1979 15.7036L54.4868 17.2329C55.5967 16.2975 57.3719 15.4447 58.8881 14.7229L58.0284 12.9171ZM58.0172 12.9226L58.0171 12.9226L58.8995 14.7174L58.8996 14.7174L58.0172 12.9226ZM59.3397 12.2745C58.9971 12.4558 58.5533 12.6673 58.0286 12.9171L58.8882 14.7229C59.3995 14.4795 59.8867 14.2478 60.275 14.0423L59.3397 12.2745ZM60.1375 11.7139C59.9258 11.8666 59.7376 12.0022 59.5853 12.1089C59.5093 12.1621 59.4473 12.2046 59.3992 12.2363C59.3445 12.2722 59.3295 12.2799 59.3397 12.2745L60.275 14.0423C60.4092 13.9713 60.5863 13.8496 60.7325 13.7471C60.8985 13.6309 61.0992 13.4862 61.3071 13.3363L60.1375 11.7139ZM60.1388 11.713L60.1387 11.7131L61.306 13.3371L61.306 13.337L60.1388 11.713ZM60.1382 11.7134L60.1378 11.7137L61.307 13.3363L61.3074 13.3361L60.1382 11.7134ZM60.1228 11.7247L60.1228 11.7248L61.3228 13.3248L61.3228 13.3247L60.1228 11.7247ZM63.6798 11.0772C63.6003 10.7442 63.3641 10.4768 63.0505 10.3544C62.8054 10.2587 62.5897 10.2811 62.4997 10.2942C62.309 10.322 62.1472 10.3954 62.0698 10.432C61.8826 10.5206 61.6675 10.6529 61.4699 10.7816C61.0608 11.0479 60.5544 11.4133 60.138 11.7136L61.3077 13.3359C61.7367 13.0266 62.2005 12.6925 62.5612 12.4576C62.7485 12.3356 62.8682 12.2668 62.9251 12.2399C62.9697 12.2188 62.9073 12.2559 62.7881 12.2733C62.7339 12.2812 62.547 12.3048 62.3232 12.2175C62.0309 12.1033 61.8083 11.8513 61.7344 11.5413L63.6798 11.0772ZM58.9231 32.3253C59.973 31.0104 61.6227 27.7105 62.7786 23.8155C63.938 19.9087 64.6639 15.198 63.6797 11.0769L61.7344 11.5415C62.6001 15.1664 61.9791 19.4798 60.8612 23.2465C59.7399 27.025 58.1819 30.0482 57.3602 31.0774L58.9231 32.3253ZM58.7214 32.5836C58.7974 32.4853 58.863 32.4006 58.9231 32.3253L57.3601 31.0775C57.2887 31.1669 57.2133 31.2644 57.1396 31.3597L58.7214 32.5836ZM55.8026 34.7763C56.5822 34.7098 57.2059 34.2424 57.6295 33.8433C58.0715 33.4269 58.4535 32.9298 58.7214 32.5836L57.1396 31.3597C56.8554 31.7269 56.5667 32.0968 56.258 32.3876C55.931 32.6957 55.7243 32.7757 55.6327 32.7835L55.8026 34.7763ZM49.9547 44.9915C52.5847 43.7055 54.3563 42.0624 55.4285 40.1059C56.4966 38.1568 56.8201 35.9884 56.7166 33.734L54.7187 33.8257C54.811 35.8355 54.5155 37.6101 53.6746 39.1448C52.8377 40.6719 51.4103 42.0534 49.0761 43.1948L49.9547 44.9915ZM49.3831 45.2735C49.5748 45.1785 49.7644 45.0846 49.9547 44.9915L49.0762 43.1948C48.8804 43.2905 48.6861 43.3868 48.4952 43.4814L49.3831 45.2735ZM49.418 45.2554L49.418 45.2553L48.4603 43.4995L48.4603 43.4996L49.418 45.2554ZM46.0501 46.6906C47.2113 46.3527 48.3345 45.793 49.3831 45.2735L48.4951 43.4814C47.4125 44.0178 46.4514 44.4909 45.4914 44.7702L46.0501 46.6906ZM39.5345 46.7084C41.083 47.0388 42.6926 47.0345 43.8889 46.9557C44.4926 46.916 45.0036 46.8563 45.3657 46.8063C45.5469 46.7812 45.6915 46.7585 45.7924 46.7417C45.8429 46.7333 45.8825 46.7264 45.9103 46.7214C45.9243 46.7189 45.9353 46.7169 45.9432 46.7155C45.9472 46.7147 45.9504 46.7141 45.9529 46.7137C45.9541 46.7134 45.9551 46.7132 45.956 46.7131C45.9564 46.713 45.9568 46.7129 45.9571 46.7129C45.9572 46.7128 45.9574 46.7128 45.9575 46.7128C45.9577 46.7128 45.9579 46.7127 45.7707 45.7304C45.5836 44.7481 45.5837 44.748 45.5839 44.748C45.5839 44.748 45.5841 44.748 45.5841 44.748C45.5842 44.7479 45.5843 44.7479 45.5844 44.7479C45.5844 44.7479 45.5843 44.7479 45.584 44.748C45.5833 44.7481 45.5819 44.7484 45.5798 44.7488C45.5756 44.7495 45.5683 44.7509 45.5582 44.7527C45.5381 44.7563 45.5065 44.7618 45.4643 44.7688C45.38 44.7828 45.2535 44.8028 45.0919 44.8251C44.768 44.8699 44.3052 44.924 43.7574 44.9601C42.6507 45.0329 41.2465 45.0287 39.9518 44.7524L39.5345 46.7084ZM29.7842 39.5491C33.2094 44.2608 36.4125 46.0422 39.5345 46.7084L39.9518 44.7524C37.3874 44.2052 34.5853 42.7522 31.4019 38.3731L29.7842 39.5491ZM28.4789 32.3022C28.1597 33.3316 27.9634 34.4525 28.1251 35.6849C28.2873 36.9212 28.7996 38.1947 29.7842 39.5491L31.4019 38.3731C30.5795 37.2417 30.2199 36.2769 30.1081 35.4248C29.9958 34.5688 30.1235 33.7511 30.3892 32.8945L28.4789 32.3022ZM28.6264 33.5793C29.0399 33.8334 29.4603 33.7465 29.7078 33.6287C29.9257 33.5249 30.081 33.3724 30.171 33.2742L28.697 31.9224C28.6751 31.9463 28.7256 31.8812 28.8481 31.8229C28.9172 31.79 29.0353 31.7468 29.1908 31.7438C29.3573 31.7406 29.5262 31.7848 29.6736 31.8754L28.6264 33.5793ZM23.9656 11.8083C23.4924 15.3391 23.3598 19.9077 23.9518 23.9877C24.2479 26.028 24.7304 27.9837 25.4659 29.6386C26.1985 31.2872 27.2163 32.7127 28.6264 33.5793L29.6736 31.8754C28.7314 31.2963 27.933 30.2653 27.2935 28.8263C26.6568 27.3936 26.2112 25.6306 25.9311 23.7005C25.3709 19.8396 25.4939 15.461 25.9479 12.074L23.9656 11.8083ZM23.9073 11.512C23.9312 11.6314 23.9472 11.7135 23.9566 11.7833C23.9609 11.8157 23.9623 11.8345 23.9626 11.8429C23.9629 11.8523 23.9616 11.8384 23.9656 11.8082L25.9479 12.0741C25.9769 11.858 25.9572 11.6539 25.9387 11.5169C25.9193 11.3725 25.8897 11.2259 25.8685 11.1201L23.9073 11.512ZM25.0079 9.57722C24.6896 9.57722 24.319 9.70119 24.0654 10.0396C23.8576 10.3168 23.8265 10.6143 23.8201 10.7607C23.8076 11.0471 23.879 11.3704 23.9073 11.512L25.8685 11.1201C25.8486 11.0201 25.8348 10.9503 25.8258 10.8906C25.816 10.8263 25.8194 10.8206 25.8182 10.8482C25.8178 10.8573 25.8142 11.0411 25.6658 11.2391C25.5829 11.3497 25.4694 11.444 25.3332 11.5053C25.2027 11.5641 25.0857 11.5772 25.0079 11.5772V9.57722ZM28.0336 11.4956C27.6739 11.2313 27.0828 10.7972 26.5704 10.4288C26.315 10.2453 26.0734 10.0739 25.8876 9.94677C25.7962 9.88423 25.7087 9.82591 25.6362 9.78074C25.6018 9.75928 25.5563 9.73175 25.5085 9.70651C25.4858 9.69454 25.4455 9.67394 25.3958 9.65379C25.387 9.65025 25.2231 9.57722 25.0079 9.57722V11.5772C24.8808 11.5772 24.7843 11.5523 24.7468 11.542C24.7001 11.5291 24.6644 11.5154 24.645 11.5075C24.6065 11.4919 24.5803 11.4781 24.5745 11.475C24.5603 11.4675 24.5593 11.4662 24.579 11.4784C24.6147 11.5007 24.6741 11.5399 24.7585 11.5976C24.9245 11.7111 25.1507 11.8715 25.403 12.0528C25.9057 12.4142 26.4885 12.8422 26.8498 13.1075L28.0336 11.4956ZM28.0219 11.4871L28.0219 11.487L26.8615 13.116L26.8616 13.1161L28.0219 11.4871ZM28.037 11.498L28.037 11.498L26.8465 13.1051L26.8465 13.1051L28.037 11.498ZM28.3488 11.7263C28.3208 11.7064 28.2106 11.6255 28.0337 11.4956L26.8498 13.1076C27.0153 13.2291 27.1453 13.3246 27.1898 13.3563L28.3488 11.7263ZM29.0184 12.1909C28.7648 12.0168 28.5416 11.8634 28.3489 11.7264L27.1897 13.3562C27.3985 13.5047 27.6365 13.6681 27.8862 13.8396L29.0184 12.1909ZM29.0194 12.1916L29.0192 12.1914L27.8855 13.8391L27.8857 13.8393L29.0194 12.1916ZM29.019 12.1913L29.0189 12.1912L27.8863 13.8396L27.8864 13.8397L29.019 12.1913ZM29.1171 12.2681L29.1171 12.2681L27.7883 13.7629L27.7883 13.7629L29.1171 12.2681ZM33.9712 16.5636C32.6709 14.684 30.4041 13.1424 29.0188 12.1912L27.8866 13.8399C29.3485 14.8437 31.2752 16.1819 32.3264 17.7015L33.9712 16.5636ZM35.2722 11.1966C33.6406 12.6 32.2708 14.751 32.1501 17.0808L34.1474 17.1843C34.2324 15.545 35.2347 13.8669 36.5764 12.7128L35.2722 11.1966Z" fill="#E8E9EB" mask="url(#path-2-outside-1_1_3205)"/>
</svg>
