<svg width="58" height="46" viewBox="0 0 58 46" fill="none" xmlns="http://www.w3.org/2000/svg">
<path d="M49.8282 29.2172L49.8281 29.2175C49.3779 30.1916 48.4872 30.6874 47.7122 31.0139C46.9576 31.3371 46.4314 31.7498 46.1798 32.2409C45.8719 32.9163 45.7774 33.6976 45.9166 34.4488L45.9167 34.4488L45.9185 34.4597C45.9557 34.6885 46.0002 34.8985 46.0465 35.1175C46.0748 35.2511 46.1038 35.388 46.1323 35.5347C46.2034 35.9001 46.2629 36.2911 46.2505 36.694C46.2378 37.1081 46.1368 37.5056 46.0273 37.8645C45.9801 38.0189 45.9343 38.1584 45.8904 38.292C45.824 38.4938 45.7621 38.6821 45.707 38.8879L45.7066 38.8894C45.5127 39.6038 45.2384 40.288 44.8897 40.9249C44.675 41.3202 44.1322 41.7269 43.2196 42.0359C42.287 42.3516 40.8953 42.5913 38.8604 42.593L38.857 42.5933L38.7813 42.6001C38.7147 42.606 38.6165 42.6147 38.4896 42.6257C38.2357 42.6478 37.8669 42.6792 37.4066 42.7169C36.4862 42.7922 35.1997 42.8924 33.7351 42.9919C30.8093 43.1906 27.1603 43.3876 24.299 43.3767C22.9798 43.3717 21.6899 43.4016 20.4585 43.4333C20.3356 43.4365 20.2133 43.4396 20.0915 43.4428C18.9959 43.4713 17.9479 43.4986 16.9797 43.4997C15.9044 43.501 14.9126 43.4702 14.0474 43.3706C13.1872 43.2715 12.4186 43.101 11.807 42.804C11.3468 42.5805 10.946 42.2407 10.7131 41.6941C10.4877 41.165 10.4446 40.5001 10.5673 39.669C10.5904 39.5128 10.6107 39.3657 10.6303 39.2237C10.7085 38.6577 10.7753 38.1737 10.9598 37.5232C11.0377 37.2485 11.09 36.9686 11.1471 36.6629C11.1648 36.5683 11.1829 36.4713 11.2024 36.3712C11.2816 35.9643 11.3814 35.5217 11.5684 35.0999C11.7503 34.6895 11.9799 34.3325 12.2062 34.0046C12.2786 33.8998 12.3491 33.8 12.4179 33.7025C12.5698 33.4875 12.7138 33.2837 12.8526 33.0616C13.2533 32.3496 13.7034 31.6744 14.1988 31.0424L14.2226 31.0121L14.2507 30.9858C15.3887 29.9214 16.6178 28.9876 17.9202 28.1988L17.9381 28.1879L17.957 28.1785C18.6392 27.8401 19.3452 27.5654 20.0679 27.3576C20.3035 27.2819 20.5301 27.1786 20.7886 27.0606C20.8648 27.0258 20.9439 26.9897 21.0267 26.9527C21.3739 26.7977 21.773 26.6348 22.2123 26.5687L22.2203 26.5675L22.2282 26.5665C23.0247 26.4726 23.8268 26.4555 24.626 26.5153C25.0619 26.5322 25.4773 26.6253 25.8564 26.722C25.9558 26.7474 26.0516 26.7727 26.145 26.7973C26.4251 26.8712 26.6834 26.9393 26.9507 26.9868C27.2511 27.0401 27.5576 27.0505 27.906 27.0624C27.949 27.0638 27.9927 27.0653 28.0371 27.0669C28.4247 27.0808 28.8603 27.103 29.2953 27.2173L29.3078 27.2206L29.3201 27.2245C30.0964 27.472 30.8843 27.6685 31.6799 27.8131C32.3342 27.8936 32.6638 27.7319 32.8862 27.4737C33.046 27.2699 33.1718 27.029 33.2537 26.7637C33.3366 26.4954 33.3723 26.2096 33.358 25.9234L33.3574 25.9109L33.3574 25.8984C33.3574 25.6456 33.4316 25.4178 33.4828 25.2631C33.4859 25.2536 33.489 25.2442 33.492 25.2351C33.5403 25.0892 33.5698 25.0001 33.582 24.9173C33.5789 24.8851 33.5672 24.8612 33.5571 24.8487C33.5552 24.8464 33.5535 24.8446 33.5522 24.8434C33.2057 24.8173 32.8505 24.8492 32.4453 24.8855C32.4177 24.8879 32.3898 24.8904 32.3617 24.8929C31.9365 24.9308 31.4564 24.9691 30.9734 24.9033C30.4926 24.8379 30.0388 24.6782 29.6294 24.5239C29.5575 24.4968 29.4872 24.47 29.4182 24.4437C29.0792 24.3142 28.771 24.1966 28.4549 24.1162C28.2119 24.0549 27.9667 24.0236 27.6893 23.9881C27.6239 23.9798 27.5568 23.9712 27.4876 23.962C27.1435 23.9161 26.7556 23.854 26.3792 23.7018C25.7061 23.4464 25.0508 23.1356 24.4186 22.7719L24.4185 22.772L24.4094 22.7665C23.7779 22.3852 23.1755 21.9463 22.608 21.4547L22.6071 21.454C22.2759 21.1657 22.0386 20.7896 21.8432 20.4619C21.8069 20.4009 21.7719 20.3416 21.738 20.2839C21.6088 20.0645 21.4931 19.8681 21.3649 19.6914C21.2495 19.6717 21.0598 19.6148 20.9178 19.4323L20.4792 18.8686L21.1589 18.6494C21.445 18.5571 21.7244 18.426 22.0377 18.279C22.0721 18.2628 22.107 18.2465 22.1423 18.2299C22.4847 18.0698 22.8687 17.8956 23.2777 17.7942C23.7014 17.6891 24.1312 17.685 24.5054 17.6876C24.5508 17.6879 24.5953 17.6883 24.639 17.6887C24.9748 17.6918 25.2634 17.6944 25.5415 17.6531C25.8108 17.6132 26.0775 17.5383 26.3802 17.4532C26.4409 17.4362 26.5029 17.4187 26.5667 17.4011C26.9312 17.3003 27.3452 17.1957 27.7778 17.1835C28.1964 17.1716 28.6028 17.2291 28.9771 17.2942C29.0916 17.3141 29.2013 17.3343 29.3079 17.3539C29.563 17.4008 29.801 17.4447 30.0468 17.4738C30.9436 17.5605 31.8315 17.7374 32.7 18.0022L32.7 18.0021L32.7098 18.0054C33.1711 18.1565 33.5972 18.3783 33.9941 18.6071C34.1805 18.7146 34.3478 18.8156 34.5107 18.914C34.7134 19.0364 34.9092 19.1547 35.1266 19.2761C35.2926 19.3474 35.4625 19.4047 35.635 19.4478L35.6723 19.4571L35.7078 19.4721C35.8405 19.5279 35.9816 19.5337 36.1152 19.4904C36.1782 19.47 36.2405 19.4384 36.2994 19.3954C36.0307 19.1265 35.8566 18.7891 35.7218 18.5186C35.7053 18.4855 35.6893 18.4534 35.6738 18.4221C35.543 18.1583 35.442 17.9547 35.3108 17.7907C34.892 17.3306 34.5066 16.8337 34.1584 16.3048L34.1505 16.2929L34.1434 16.2805C34.0296 16.0842 33.9191 15.91 33.8037 15.7281C33.7195 15.5953 33.6327 15.4584 33.54 15.3057C33.3349 14.9679 33.133 14.6006 32.9897 14.1917L32.9848 14.1776L32.9807 14.1632C32.7591 13.3851 32.6002 12.586 32.506 11.7758C32.3903 10.9845 32.3249 10.1849 32.3101 9.38311C32.2957 9.0493 32.3108 8.72394 32.3299 8.41582C32.3348 8.33824 32.3398 8.26235 32.3447 8.18763C32.36 7.95638 32.3746 7.73625 32.3801 7.51122C32.386 7.27228 32.3434 7.02736 32.29 6.72083C32.2875 6.70624 32.2849 6.6915 32.2823 6.67662C32.2291 6.37012 32.1671 5.99958 32.199 5.61703L32.2005 5.59868L32.2034 5.58049C32.2335 5.39013 32.3029 5.2064 32.4095 5.0446C32.5163 4.88265 32.659 4.74515 32.8303 4.64826C33.002 4.55108 33.1957 4.49875 33.3952 4.49977C33.5946 4.50078 33.7878 4.55506 33.9586 4.65386L33.9587 4.6537L33.9703 4.66084C34.605 5.0515 35.2192 5.48313 35.8097 5.95352C36.4066 6.42673 36.9758 6.9426 37.514 7.49785L37.522 7.5061L37.5297 7.51472C37.8192 7.84225 38.0351 8.22784 38.2206 8.57901C38.2588 8.65135 38.2956 8.72195 38.3315 8.79091C38.4785 9.07297 38.6112 9.32749 38.7674 9.56114L38.7675 9.56136C39.0227 9.9436 39.2182 10.3487 39.3916 10.7363C39.4482 10.8628 39.5015 10.9853 39.5537 11.1051C39.6665 11.3641 39.7736 11.6101 39.8956 11.8558C40.0321 12.1306 40.2022 12.3849 40.3933 12.6706C40.4351 12.7332 40.478 12.7973 40.5218 12.8635C40.7554 13.2167 41.0052 13.6172 41.1657 14.0811C41.3211 14.5302 41.3978 14.9928 41.4579 15.4254C41.4724 15.5297 41.4859 15.6315 41.4991 15.7312C41.5424 16.0592 41.583 16.3658 41.6481 16.6708C41.8476 17.6039 42.3027 18.1854 42.9911 18.372C43.1899 18.4254 43.3782 18.4519 43.5948 18.4825C43.6949 18.4966 43.8009 18.5115 43.9168 18.5303C44.2538 18.5851 44.6442 18.6714 45.0051 18.9009L45.0124 18.9055L45.0194 18.9104C45.6137 19.3176 46.1539 19.8146 46.6256 20.3862C46.8927 20.6941 47.0742 21.0547 47.224 21.3858C47.2734 21.4947 47.3186 21.5987 47.3624 21.6992C47.4603 21.9241 47.5507 22.1317 47.6624 22.3398C47.7796 22.5465 47.9458 22.7287 48.1589 22.9508C48.1738 22.9664 48.1891 22.9822 48.2046 22.9983C48.3973 23.1986 48.6289 23.4392 48.8097 23.7239C48.9068 23.8768 49.0003 24.0271 49.0923 24.175C49.3202 24.5414 49.539 24.8931 49.7812 25.2336C50.2025 25.8221 50.7527 26.7034 50.3734 27.6965C50.3319 27.815 50.2887 27.9484 50.2429 28.0901C50.1276 28.4461 49.9952 28.8552 49.8282 29.2172ZM21.5259 18.7039C21.5257 18.7041 21.5289 18.7047 21.5361 18.7056C21.5298 18.7042 21.5262 18.7038 21.5259 18.7039ZM36.4926 19.1905C36.4926 19.1905 36.4919 19.1913 36.4908 19.193L36.4913 19.1924C36.4922 19.1912 36.4926 19.1905 36.4926 19.1905ZM44.1098 23.0552C44.0286 22.9314 43.9595 22.8879 43.9182 22.8732L43.869 22.8732C43.8627 22.8732 43.8502 22.8734 43.8238 22.8929C43.7931 22.9156 43.7494 22.9615 43.7041 23.0415C43.6113 23.2051 43.5519 23.4405 43.553 23.6636L43.5531 23.6867L43.5511 23.7097C43.5448 23.7815 43.5521 23.8533 43.5717 23.9197C43.5913 23.9862 43.6219 24.0429 43.6582 24.0875C43.6944 24.132 43.7345 24.1624 43.7732 24.181C43.8117 24.1995 43.8499 24.2072 43.8862 24.2062L43.8991 24.2059L43.912 24.2062C43.953 24.2072 43.9957 24.1988 44.0382 24.179C44.0811 24.1591 44.1248 24.1271 44.1643 24.081C44.2041 24.0347 44.238 23.9759 44.2611 23.9069C44.2842 23.8379 44.2951 23.7626 44.292 23.6861L44.2917 23.6774L44.2916 23.6686C44.2906 23.4564 44.2197 23.2227 44.1098 23.0552Z" fill="#0281C9" stroke="#E8E9EB"/>
<path d="M6.768 16.16C4.544 16.16 2.688 14.72 2.64 12.432H4.4C4.48 13.68 5.504 14.432 6.768 14.432C7.92 14.432 8.784 13.792 8.8 12.688C8.8 11.472 7.936 10.88 6.608 10.88H5.712V9.376H6.608C7.744 9.376 8.464 8.72 8.48 7.76C8.48 6.8 7.696 6.176 6.704 6.176C5.536 6.176 4.624 6.896 4.624 8.112H2.848C2.848 5.808 4.656 4.448 6.704 4.448C8.832 4.448 10.256 5.792 10.256 7.648C10.256 8.752 9.616 9.664 8.864 10.112C9.872 10.544 10.576 11.504 10.576 12.8C10.576 14.8 9.008 16.16 6.768 16.16ZM11.9358 12.144V10.592H14.5278V8H16.0958V10.592H18.6878V12.144H16.0958V14.736H14.5278V12.144H11.9358Z" fill="#15466B"/>
</svg>
