<svg width="59" height="46" viewBox="0 0 59 46" fill="none" xmlns="http://www.w3.org/2000/svg">
<path d="M5.46424 15.16C3.16024 15.16 1.57624 13.48 1.57624 11.336C1.57624 10.2 2.10424 9.368 2.85624 8.392L6.64824 3.64H8.85624L5.65624 7.672H5.83224C7.62424 7.672 9.36824 9.192 9.36824 11.32C9.36824 13.48 7.78424 15.16 5.46424 15.16ZM5.46424 13.464C6.68024 13.464 7.59224 12.52 7.59224 11.336C7.59224 10.168 6.68024 9.208 5.46424 9.208C4.24824 9.208 3.35224 10.168 3.35224 11.336C3.35224 12.52 4.24824 13.464 5.46424 13.464ZM10.6235 11.144V9.592H13.2155V7H14.7835V9.592H17.3755V11.144H14.7835V13.736H13.2155V11.144H10.6235Z" fill="#15466B"/>
<path d="M46.4713 23.0391C45.925 23.4673 45.5103 23.4311 45.1338 23.5387C44.8223 23.635 44.4331 23.7033 44.2504 23.9846C43.6506 24.8271 42.9609 25.4466 41.9746 25.6821C41.157 25.8827 40.9879 26.0215 41.5818 26.6336C42.9631 28.0574 43.7862 29.6883 44.1156 31.5669C44.4576 33.5107 43.5699 34.9956 42.2294 36.2485C39.7175 38.6155 36.8198 40.2198 33.3564 40.667C29.9707 41.1162 26.6738 42.0481 23.2757 42.3801C23.0682 42.4009 22.8211 42.5897 22.6795 42.3394C22.5507 42.1284 22.9142 42.0075 23.0187 41.8282C25.3044 37.715 27.5124 33.5739 30.1214 29.6635C30.9954 28.3731 32.0248 27.1126 32.8861 25.731C32.0958 25.5946 31.2532 25.5609 30.6302 25.7274C27.0482 26.6523 23.5303 27.7217 20.0249 28.9342C19.2459 29.2008 19.0786 28.8979 18.8875 28.0749C18.1735 25.1478 18.1206 22.224 18.1716 19.2767C18.187 18.6926 18.345 18.099 18.2567 17.5123C18.1679 17.0295 18.3638 16.6836 18.9203 16.9181C21.9356 18.2523 25.1217 19.0582 28.1896 20.2119C29.3546 20.6562 30.6255 20.5576 31.8304 20.7561C32.0637 20.7879 32.2584 20.7277 32.492 20.6815C32.9331 20.5885 33.1545 20.3471 32.8837 19.9898C32.1872 19.1153 31.5166 18.2415 30.7941 17.3924C29.5167 15.8932 28.4082 14.3332 27.4298 12.6465C26.3742 10.802 25.2279 8.96831 24.3412 7.03708C23.6988 5.61844 23.498 4.00285 22.8297 2.58357C22.5469 1.97911 22.6387 1.73457 23.364 1.90831C27.1202 2.78017 30.6793 4.30961 34.291 5.63253C35.7926 6.18908 37.36 6.52643 38.822 7.25087C40.517 8.08495 42.0687 9.08436 43.2165 10.5544C44.3256 11.9846 44.6168 13.6933 44.4927 15.4957C44.3683 17.3761 43.3906 18.6639 42.0117 19.7989C41.2312 20.4292 41.2559 20.7415 42.1878 21.1282C43.5857 21.6821 44.7615 22.6593 46.4455 23.0125L46.4713 23.0391ZM42.6302 23.8797C43.0061 23.902 43.292 23.7532 43.3194 23.3901C43.3598 23.0145 43.1799 22.6204 42.7782 22.5715C42.3636 22.5093 42.2712 22.9097 42.2438 23.2727C42.2035 23.6224 42.3324 23.8075 42.6302 23.8797Z" fill="#15466B"/>
</svg>
