<svg width="46" height="30" viewBox="0 0 46 30" fill="none" xmlns="http://www.w3.org/2000/svg">
<path d="M12.2941 20.8842C13.0999 20.8843 13.8875 20.6455 14.5575 20.1979C15.2275 19.7503 15.7498 19.1141 16.0582 18.3697C16.3666 17.6253 16.4473 16.8062 16.2901 16.0159C16.133 15.2256 15.745 14.4997 15.1752 13.93C14.6055 13.3602 13.8795 12.9722 13.0893 12.8151C12.299 12.6579 11.4799 12.7386 10.7355 13.047C9.9911 13.3554 9.35488 13.8776 8.9073 14.5476C8.45972 15.2176 8.22088 16.0053 8.221 16.8111C8.22115 17.8913 8.65033 18.9272 9.41415 19.691C10.178 20.4549 11.2139 20.884 12.2941 20.8842Z" fill="white"/>
<path d="M34.021 20.8842C36.2708 20.8842 38.0947 19.0603 38.0947 16.8105C38.0947 14.5607 36.2708 12.7368 34.021 12.7368C31.7712 12.7368 29.9473 14.5607 29.9473 16.8105C29.9473 19.0603 31.7712 20.8842 34.021 20.8842Z" fill="white"/>
<path d="M0.990425 16.8325C0.990425 23.0584 5.95205 28.1042 12.0729 28.1042C14.867 28.1081 17.5586 27.0344 19.605 25.0996L23.1576 29.0314L26.7102 25.1018C28.7565 27.0351 31.4472 28.1077 34.2401 28.1036C40.3615 28.1036 45.3276 23.0567 45.3276 16.8319C45.3291 15.2636 45.0082 13.7122 44.3852 12.2776C43.7623 10.8429 42.8512 9.55661 41.7104 8.50137L45.3368 4.48841H37.2976C33.1313 1.60495 28.2085 0.0629883 23.1691 0.0629883C18.1297 0.0629883 13.2069 1.60495 9.04064 4.48841H0.978947L4.60534 8.50137C3.46489 9.55685 2.55414 10.8433 1.93158 12.2781C1.30903 13.7128 0.988443 15.2642 0.990425 16.8325ZM41.7389 16.8325C41.7389 18.3412 41.299 19.8161 40.4748 21.0706C39.6507 22.3251 38.4793 23.3028 37.1088 23.8802C35.7382 24.4576 34.2302 24.6087 32.7752 24.3143C31.3203 24.02 29.9839 23.2934 28.9349 22.2266C27.886 21.1597 27.1716 19.8005 26.8822 18.3207C26.5928 16.8409 26.7414 15.3071 27.309 13.9132C27.8767 12.5193 28.8381 11.3279 30.0715 10.4896C31.3049 9.65141 32.7551 9.20401 34.2385 9.20401C36.2277 9.20401 38.1355 10.0077 39.5421 11.4383C40.9486 12.8689 41.7389 14.8093 41.7389 16.8325ZM23.156 3.75075C26.0146 3.74713 28.8453 4.32274 31.4828 5.44398C26.749 7.28619 23.1598 11.5932 23.1598 16.6123C23.1598 11.5927 19.5695 7.28508 14.8352 5.44343C17.4708 4.32306 20.2994 3.74765 23.156 3.75075ZM12.0729 9.20401C13.5564 9.20401 15.0065 9.65141 16.2399 10.4896C17.4733 11.3279 18.4347 12.5193 19.0024 13.9132C19.5701 15.3071 19.7186 16.8409 19.4292 18.3207C19.1398 19.8005 18.4254 21.1597 17.3765 22.2266C16.3276 23.2934 14.9911 24.02 13.5362 24.3143C12.0813 24.6087 10.5732 24.4576 9.20266 23.8802C7.83214 23.3028 6.66074 22.3251 5.83659 21.0706C5.01244 19.8161 4.57255 18.3412 4.57255 16.8325C4.57255 14.8093 5.36277 12.8689 6.76936 11.4383C8.17595 10.0077 10.0837 9.20401 12.0729 9.20401Z" fill="white"/>
</svg>
