<svg width="140" height="86" viewBox="0 0 140 86" fill="none" xmlns="http://www.w3.org/2000/svg">
<path d="M92.7599 1.12673C90.5066 0.18787 87.8778 0 85.4368 0C82.9957 0 80.7424 0.938979 78.4891 1.87784C76.2358 2.81671 73.7948 3.5677 72.1048 5.44543C70.6026 6.94761 67.9738 7.88649 66.4717 6.19654C64.7817 4.50658 63.0918 2.81671 60.8385 1.87784C58.5852 0.938979 56.1442 0.751109 53.8909 0.751109C51.6376 0.751109 48.821 5.73033e-05 46.5677 0.938922C43.9389 1.87779 42.0612 4.13102 39.6201 5.44543C37.1791 6.75984 34.738 7.8865 32.4847 9.57646C30.2314 11.2664 28.7293 13.5196 26.8515 15.3974C24.2227 18.0262 23.4716 17.2752 20.8428 19.904C18.214 22.5328 18.5896 22.9083 15.9607 25.5371C13.3319 28.1659 12.7686 27.6026 10.1398 30.2314C7.51094 32.8603 7.6987 33.048 5.06988 35.6769C2.44106 38.3057 0 37.5547 0 41.3101C0 45.0656 2.81661 43.9389 5.44543 46.5677C8.07426 49.1966 8.07423 49.1965 10.7031 51.8253C13.3319 54.4542 13.7075 54.0787 16.3363 56.7075C18.9651 59.3363 19.1528 59.1485 21.7817 61.7773C24.4105 64.4061 24.4105 64.4061 27.0394 67.0349C28.9171 68.9126 30.2315 71.5415 32.297 73.0436C34.3625 74.5458 37.1791 75.6726 39.4324 76.987C41.6856 78.3014 44.1266 79.8035 46.5677 80.7424C49.0087 81.6813 51.6376 82.4323 54.2665 83.1834C56.8953 83.9345 59.5241 83.9346 62.1529 84.3101C64.7817 84.6857 67.4105 86 70.0393 86C72.6681 86 75.297 85.0611 77.9258 84.6856C80.5546 84.3101 83.3712 84.31 86.0001 83.7467C88.6289 83.1834 91.2577 82.4323 93.6988 81.3057C96.1398 80.179 98.2053 78.3014 100.459 76.987C102.712 75.6726 105.153 74.5459 107.406 72.856C109.659 71.166 111.725 69.6637 113.79 67.786C116.419 65.1572 115.856 64.5939 118.485 61.9651C121.114 59.3363 121.677 59.8996 124.306 57.2708C126.935 54.642 126.371 54.0787 129 51.4499C131.629 48.821 132.38 49.572 135.009 46.9432C137.638 44.3144 139.14 44.8778 139.14 41.3101C139.14 37.7424 137.45 38.4935 134.821 35.8647C132.192 33.2359 131.817 33.6114 129.188 30.9825C126.559 28.3537 126.559 28.3538 123.93 25.7249C121.301 23.0961 121.865 22.5328 119.236 19.904C116.607 17.2752 116.044 17.8385 113.415 15.2097C111.537 13.332 109.284 11.6419 107.218 9.95194C105.153 8.26198 103.275 6.00873 100.834 4.69432C98.3931 3.37991 95.952 2.0656 93.3232 1.12673H92.7599Z" fill="#77B945"/>
</svg>
