<svg width="41" height="25" viewBox="0 0 41 25" fill="none" xmlns="http://www.w3.org/2000/svg">
<path d="M38.9747 24.5955H34.6202C32.9729 24.5955 32.4775 23.2604 29.5231 20.303C26.9448 17.8151 25.8554 17.5039 25.2021 17.5039C24.3005 17.5039 24.0528 17.7521 24.0528 18.9978V22.9167C24.0528 23.9771 23.7096 24.5985 20.943 24.5985C18.2583 24.4182 15.6546 23.6015 13.347 22.2165C11.0389 20.8314 9.09295 18.9174 7.66894 16.6318C4.28798 12.4197 1.93594 7.47639 0.799133 2.19492C0.799133 1.54061 1.04687 0.949226 2.29107 0.949226H6.64251C7.76134 0.949226 8.16442 1.4482 8.60296 2.598C10.7157 8.82348 14.321 14.2363 15.7834 14.2363C16.3444 14.2363 16.5891 13.9881 16.5891 12.587V6.17675C16.4038 3.25231 14.8524 3.00457 14.8524 1.94718C14.8719 1.66797 14.9998 1.40775 15.208 1.22144C15.4163 1.03514 15.689 0.937738 15.9682 0.949226H22.8081C23.7426 0.949226 24.0528 1.41524 24.0528 2.53556V11.1865C24.0528 12.1215 24.4559 12.4317 24.7361 12.4317C25.2975 12.4317 25.73 12.1215 26.7564 11.0936C28.9616 8.40192 30.7633 5.40356 32.1043 2.19192C32.2417 1.80633 32.5009 1.47567 32.8431 1.25141C33.1857 1.02714 33.5918 0.921255 33.9999 0.949226H38.3538C39.6579 0.949226 39.9356 1.60354 39.6579 2.53556C38.0746 6.08535 36.1156 9.45532 33.8146 12.587C33.346 13.3043 33.1577 13.6774 33.8146 14.517C34.2471 15.1708 35.7725 16.4465 36.7989 17.6592C38.2909 19.1492 39.5296 20.8724 40.4666 22.7614C40.8397 23.9741 40.2159 24.5955 38.9747 24.5955Z" fill="white"/>
</svg>
