<svg width="207" height="201" viewBox="0 0 207 201" fill="none" xmlns="http://www.w3.org/2000/svg">
<path d="M164.453 74.0089C165.951 76.3692 167.442 78.6511 168.956 80.8759C170.606 83.016 172.206 85.1321 173.751 87.2146C175.369 89.2642 176.893 91.3095 178.323 93.3503C179.783 95.378 181.113 97.4052 182.321 99.4411C183.528 101.477 184.592 103.519 185.522 105.551C186.433 107.615 187.181 109.683 187.781 111.747C188.351 113.824 188.743 115.911 188.947 117.99C189.039 120.13 188.885 122.288 188.591 124.427C188.287 126.582 187.884 128.689 187.36 130.745C186.827 132.816 186.188 134.83 185.445 136.786C184.686 138.749 183.807 140.661 182.862 142.486C181.902 144.318 180.831 146.082 179.679 147.767C178.507 149.449 177.254 151.05 175.895 152.56C174.535 154.069 173.109 155.492 171.601 156.8C170.063 158.122 168.468 159.34 166.801 160.428C165.109 161.539 163.345 162.518 161.532 163.38C159.686 164.245 157.83 164.962 155.966 165.532C154.072 166.115 152.184 166.543 150.277 166.84C148.356 167.144 146.446 167.302 144.522 167.338C142.594 167.365 140.667 167.263 138.741 167.032C136.821 166.81 134.882 166.456 132.965 165.976C131.038 165.512 129.118 164.928 127.204 164.225C125.175 163.644 123.08 163.01 120.916 162.349C118.679 161.757 116.308 161.154 113.775 160.589C111.1 160.099 108.288 159.625 105.36 159.109C102.247 158.688 99.0339 158.219 95.7162 157.727C92.276 157.278 88.8192 156.766 85.3606 156.186C81.8874 155.612 78.4416 154.955 75.038 154.21C71.649 153.458 68.3263 152.595 65.0656 151.645C61.8626 150.635 58.7878 149.426 55.8768 148.051C53.1286 146.474 50.7433 144.595 48.5794 142.487C46.6284 140.202 44.9092 137.708 43.4228 135.039C42.1408 132.243 41.0986 129.351 40.3213 126.375C39.8684 123.323 39.6511 120.201 39.6253 117.027C39.6866 113.779 39.9205 110.512 40.2873 107.22C40.7516 103.873 41.3591 100.519 42.0806 97.1729C42.8703 93.7843 43.711 90.4545 44.5743 87.2311C45.4239 84.0489 46.2815 80.9798 47.1522 78.0331C47.9161 75.1578 48.449 72.5263 48.9313 70.0343C49.3014 67.6044 49.6545 65.2754 49.9905 63.0475C50.3014 60.8075 50.7168 58.5906 51.2377 56.4312C51.7585 54.2719 52.3995 52.1636 53.1364 50.1288C53.8587 48.1007 54.701 46.1235 55.6445 44.2293C56.588 42.335 57.6275 40.5143 58.788 38.7792C59.9433 37.0347 61.1997 35.3732 62.5625 33.8038C63.9254 32.2345 65.3893 30.748 66.9502 29.3697C68.5205 27.9754 70.1877 26.6893 71.9467 25.502C73.7202 24.308 75.5907 23.2222 77.5581 22.2446C79.5159 21.2828 81.5362 20.4331 83.5947 19.7178C85.6532 19.0025 87.7646 18.4152 89.8944 17.9596C92.0388 17.4974 94.2016 17.167 96.3922 16.9524C98.5829 16.7378 100.801 16.639 103.033 16.6626C105.265 16.6863 107.51 16.8324 109.757 17.0822C112.01 17.3414 114.266 17.7043 116.529 18.1803C118.798 18.6657 121.071 19.2894 123.299 20.1311C125.54 21.026 127.758 22.0472 129.956 23.1946C132.163 24.3262 134.305 25.6038 136.268 27.0549C138.134 28.5614 139.874 30.2059 141.52 31.9749C143.136 33.7572 144.661 35.6734 146.101 37.6983C147.56 39.726 148.953 41.8651 150.25 44.1289C151.577 46.3795 152.803 48.7454 153.953 51.2041C155.146 53.6431 156.282 56.1776 157.342 58.8048C158.48 61.3739 159.593 63.9655 160.686 66.5543C161.9 69.0306 163.159 71.5216 164.453 74.0089Z" fill="url(#paint0_linear_1502_4314)"/>
<path d="M74.6707 128.191L62.2911 72.3464C61.8348 72.7257 61.1828 73.1699 60.335 73.6789C59.5322 74.1203 58.6556 74.6344 57.7049 75.2213C56.7416 75.751 55.8361 76.2703 54.9883 76.7792C54.1277 77.2309 53.463 77.6178 52.9941 77.9399L50.8229 68.1457C51.4397 67.6781 52.2621 67.0545 53.2901 66.2751C54.3759 65.4854 55.5067 64.628 56.6826 63.7031C57.8585 62.7781 58.935 61.8114 59.9123 60.8029C60.9472 59.784 61.7062 58.8741 62.1891 58.0731L72.584 56.2133L88.0109 125.804L74.6707 128.191ZM117.055 121.679C112.435 122.506 108.542 122.279 105.377 121C102.198 119.663 99.6409 117.471 97.7044 114.423C95.8257 111.365 94.4229 107.745 93.496 103.564C93.077 101.674 92.8566 99.8672 92.8349 98.1442C92.8132 96.4212 92.9965 94.8104 93.3848 93.3118C93.773 91.8132 94.3438 90.4605 95.097 89.2539C95.8952 87.9797 96.9111 86.8749 98.1448 85.9396C95.9343 84.906 93.8342 83.2869 91.8445 81.0823C89.8998 78.8101 88.4733 75.7604 87.5648 71.9333C86.6564 68.1061 86.5616 64.6991 87.2803 61.7122C87.9864 58.668 89.5027 56.1637 91.829 54.1992C94.1554 52.2347 97.282 50.9012 101.209 50.1986C105.194 49.4856 108.651 49.6413 111.579 50.6655C114.566 51.6794 117.006 53.4759 118.898 56.0552C120.778 58.5771 122.115 61.762 122.908 65.6098C123.713 69.515 123.702 72.8516 122.875 75.6197C122.093 78.3202 120.866 80.5048 119.195 82.1735C120.733 82.6128 122.114 83.2888 123.337 84.2014C124.605 85.0464 125.737 86.0942 126.735 87.3448C127.733 88.5955 128.589 90.0203 129.304 91.6193C130.076 93.208 130.672 94.9474 131.091 96.8375C132.133 100.998 132.381 104.824 131.834 108.316C131.345 111.798 129.918 114.703 127.552 117.032C125.232 119.293 121.733 120.842 117.055 121.679ZM114.865 111.799C116.539 111.499 117.654 110.705 118.209 109.414C118.763 108.124 118.972 106.628 118.835 104.926C118.697 103.223 118.457 101.599 118.115 100.052C117.766 98.2093 117.257 96.4544 116.587 94.7877C115.975 93.1108 115.144 91.8005 114.095 90.8569C113.045 89.9133 111.683 89.5913 110.008 89.891C108.391 90.1803 107.27 90.9466 106.645 92.1898C106.078 93.4227 105.84 94.9241 105.932 96.6941C106.07 98.3964 106.348 100.193 106.767 102.083C107.11 103.629 107.587 105.241 108.199 106.918C108.798 108.538 109.629 109.848 110.691 110.849C111.799 111.782 113.19 112.099 114.865 111.799ZM107.608 79.0658C108.763 78.8591 109.592 78.2642 110.095 77.2811C110.655 76.2876 110.931 74.958 110.922 73.2923C110.912 71.6266 110.667 69.7055 110.184 67.529C109.638 65.0661 108.796 63.1624 107.657 61.8179C106.564 60.4057 105.151 59.8546 103.418 60.1646C101.686 60.4746 100.558 61.4803 100.034 63.1817C99.5561 64.8156 99.5835 66.8353 100.117 69.2409C100.599 71.4174 101.169 73.3103 101.826 74.9197C102.528 76.4614 103.35 77.5947 104.291 78.3195C105.29 79.034 106.396 79.2828 107.608 79.0658ZM148.089 96.476L145.022 82.6438L132.635 84.8601L130.883 76.956L143.27 74.7397L140.28 61.2511L149.116 59.6703L152.106 73.1588L164.666 70.9115L166.418 78.8156L153.858 81.0629L156.924 94.8951L148.089 96.476Z" fill="#E96852"/>
<defs>
<linearGradient id="paint0_linear_1502_4314" x1="143.18" y1="171.635" x2="76.2731" y2="22.7867" gradientUnits="userSpaceOnUse">
<stop stop-color="#F1F8FD"/>
<stop offset="1" stop-color="#E7F1F8"/>
</linearGradient>
</defs>
</svg>
