<svg width="208" height="193" viewBox="0 0 208 193" fill="none" xmlns="http://www.w3.org/2000/svg">
<path d="M69.1703 146.694C66.7631 145.355 64.4024 144.08 62.053 142.864C59.6402 141.783 57.2794 140.7 54.9797 139.621C52.6392 138.603 50.3752 137.545 48.1877 136.449C45.9839 135.377 43.8817 134.248 41.8723 133.054C39.8628 131.86 37.9632 130.596 36.1741 129.279C34.3834 127.927 32.7196 126.497 31.1745 125.002C29.6456 123.483 28.2518 121.874 27.0108 120.187C25.826 118.395 24.8265 116.476 23.9466 114.51C23.0659 112.526 22.2893 110.538 21.6339 108.538C20.9776 106.521 20.4344 104.505 20.0042 102.49C19.5822 100.463 19.2813 98.4251 19.078 96.4309C18.8828 94.4245 18.8097 92.4249 18.8422 90.4569C18.8918 88.4822 19.0471 86.5391 19.3342 84.6266C19.6213 82.714 20.0059 80.8453 20.515 79.0374C21.0404 77.2048 21.6641 75.4342 22.4131 73.7422C23.1694 72.02 24.0509 70.3765 25.0317 68.8128C26.0376 67.2301 27.1274 65.7699 28.3008 64.432C29.4906 63.0695 30.7559 61.8418 32.1043 60.7186C33.4607 59.583 34.8838 58.5765 36.381 57.669C37.8871 56.767 39.459 55.9762 41.0968 55.2966C42.7257 54.6114 44.4375 54.0307 46.1981 53.5678C47.9579 53.087 49.7747 52.7118 51.6483 52.4421C53.5496 52.0154 55.5298 51.6034 57.5791 51.1825C59.6504 50.6708 61.8322 50.1065 64.1223 49.4358C66.4847 48.6362 68.9479 47.7604 71.5234 46.868C74.1956 45.8097 76.9719 44.7471 79.8426 43.6565C82.7872 42.473 85.7774 41.3355 88.805 40.2564C91.8408 39.165 94.8977 38.1567 97.9676 37.2438C101.029 36.3431 104.097 35.5682 107.16 34.8954C110.21 34.301 113.261 33.9345 116.27 33.7855C119.255 33.8834 122.112 34.4063 124.913 35.2253C127.638 36.2933 130.289 37.6462 132.847 39.2548C135.31 41.0651 137.635 43.0671 139.794 45.2619C141.736 47.6695 143.53 50.2451 145.2 52.9518C146.839 55.7617 148.353 58.6668 149.774 61.6536C151.148 64.7324 152.411 67.8817 153.582 71.0768C154.72 74.3392 155.788 77.5746 156.782 80.729C157.766 83.842 158.685 86.8617 159.53 89.7825C160.422 92.5935 161.37 95.0903 162.285 97.4447C163.256 99.6947 164.187 101.85 165.08 103.912C165.999 105.972 166.824 108.061 167.535 110.148C168.247 112.235 168.837 114.333 169.314 116.411C169.799 118.478 170.162 120.555 170.403 122.608C170.643 124.66 170.77 126.694 170.757 128.709C170.753 130.729 170.626 132.725 170.368 134.691C170.109 136.656 169.728 138.597 169.214 140.489C168.701 142.399 168.055 144.26 167.286 146.079C166.508 147.91 165.598 149.692 164.556 151.427C163.512 153.143 162.362 154.791 161.111 156.342C159.86 157.893 158.501 159.359 157.059 160.72C155.609 162.093 154.076 163.362 152.461 164.544C150.846 165.726 149.149 166.822 147.378 167.819C145.607 168.816 143.762 169.714 141.86 170.524C139.95 171.329 137.984 172.046 135.952 172.67C133.912 173.289 131.797 173.79 129.603 174.085C127.372 174.34 125.093 174.476 122.764 174.495C120.437 174.532 118.085 174.414 115.784 174.066C113.53 173.626 111.304 173.011 109.088 172.245C106.888 171.455 104.69 170.509 102.503 169.431C100.299 168.359 98.0898 167.162 95.8908 165.814C93.6756 164.491 91.48 163.023 89.2965 161.441C87.0886 159.896 84.8759 158.243 82.6753 156.476C80.4438 154.794 78.2197 153.081 76.0126 151.362C73.769 149.795 71.4822 148.235 69.1703 146.694Z" fill="url(#paint0_linear_1502_4331)"/>
<path d="M94.5973 98.7991C93.8338 98.7073 92.4325 100.647 91.7902 100.57C83.0883 99.5242 74.5908 96.8575 65.8859 95.8356C64.5527 95.6753 62.7061 95.9774 62.1167 94.6025C61.5273 93.2275 63.6013 92.5872 64.5041 91.5744C69.209 85.9729 73.4683 80.0008 78.1853 74.4007C82.9023 68.8007 87.0406 62.7166 91.7455 57.1151C96.4504 51.5136 102.226 46.7843 106.931 41.1828C111.636 35.5813 114.603 28.5398 119.31 22.9263C119.93 22.2757 120.747 21.8433 121.636 21.6949C122.526 21.5466 123.439 21.6905 124.236 22.1047C124.989 22.5275 125.582 23.181 125.927 23.9674C126.271 24.7538 126.349 25.6307 126.147 26.4661C124.315 34.363 120.398 41.8142 118.576 49.7245C116.754 57.6348 116.93 65.9924 115.109 73.9028C115.066 74.2389 114.174 74.4851 114.109 75.0014C115.139 75.1252 116.302 73.9 117.26 74.0151C125.598 75.0173 133.682 78.0366 142.022 79.0269C143.392 79.1915 145.117 78.4848 145.732 79.9482C146.347 81.4115 144.266 81.8195 143.395 82.8727C138.711 88.4036 134.316 94.286 129.626 99.8649C124.936 105.444 120.681 111.38 115.991 116.959C111.302 122.538 106.856 128.329 102.166 133.908C97.4762 139.487 92.7638 145.051 88.074 150.63C86.9894 151.913 85.3957 153.818 83.605 152.896C81.8143 151.974 81.2506 149.322 81.6277 147.698C83.4661 139.753 85.4711 131.852 87.2959 123.918C89.1207 115.984 92.9348 108.471 94.7718 100.539C94.6826 99.9624 94.6243 99.3817 94.5973 98.7991Z" fill="#D0468B"/>
<defs>
<linearGradient id="paint0_linear_1502_4331" x1="35.2065" y1="53.3768" x2="170.435" y2="142.571" gradientUnits="userSpaceOnUse">
<stop stop-color="#F1F8FD"/>
<stop offset="1" stop-color="#E7F1F8"/>
</linearGradient>
</defs>
</svg>
