<svg width="53" height="85" viewBox="0 0 53 85" fill="none" xmlns="http://www.w3.org/2000/svg">
<path d="M20.4626 49.6916C19.9907 49.6335 19.1248 50.8614 18.7279 50.8126C13.3505 50.1506 8.0994 48.4627 2.72015 47.8159C1.89632 47.7145 0.7552 47.9057 0.390958 47.0354C0.0267163 46.1652 1.30838 45.7599 1.86628 45.1189C4.7737 41.5735 7.40577 37.7936 10.3207 34.2491C13.2356 30.7046 15.7929 26.8539 18.7003 23.3085C21.6077 19.7631 25.177 16.7698 28.0844 13.2244C30.9918 9.67901 32.8255 5.22226 35.7339 1.66927C36.1169 1.25752 36.6217 0.983814 37.1715 0.889908C37.7212 0.796002 38.2855 0.887121 38.7782 1.1493C39.2434 1.41688 39.6099 1.8305 39.8228 2.32823C40.0357 2.82596 40.0835 3.38096 39.9589 3.90974C38.8266 8.90791 36.4061 13.624 35.2803 18.6307C34.1545 23.6374 34.2635 28.9272 33.1377 33.9339C33.1115 34.1467 32.5602 34.3025 32.5199 34.6293C33.1565 34.7076 33.8754 33.9322 34.4671 34.005C39.6198 34.6394 44.6154 36.5504 49.769 37.1771C50.6153 37.2813 51.6815 36.834 52.0616 37.7602C52.4418 38.6865 51.1557 38.9447 50.6174 39.6112C47.7231 43.112 45.0067 46.8351 42.1087 50.3662C39.2106 53.8973 36.5812 57.6544 33.6831 61.1855C30.7851 64.7167 28.0377 68.382 25.1397 71.9131C22.2416 75.4442 19.3295 78.9658 16.4315 82.497C15.7612 83.3093 14.7764 84.5149 13.6698 83.9312C12.5632 83.3476 12.2149 81.6694 12.4479 80.6412C13.584 75.6126 14.823 70.6121 15.9506 65.5902C17.0783 60.5683 19.4352 55.8136 20.5704 50.7926C20.5153 50.4279 20.4793 50.0603 20.4626 49.6916Z" fill="#D0468B"/>
</svg>
