<svg width="24" height="23" viewBox="0 0 24 23" fill="none" xmlns="http://www.w3.org/2000/svg">
<path d="M7.3084 15.3477C6.82118 16.5847 6.25273 17.7394 5.92791 18.9765C5.6843 19.8012 5.60309 20.6259 5.7655 21.3682C5.8467 21.863 6.17154 22.0279 6.73997 21.7805C7.63322 21.3681 8.44524 20.9558 9.09488 20.2135C10.0693 19.1414 10.719 18.0693 11.4498 16.5848C12.3431 19.2239 14.1296 20.8733 15.7537 22.6877C16.0785 23.0176 16.4845 23.1825 16.7281 22.6877C17.7026 20.4609 17.9462 18.1517 16.7281 15.8425C16.4845 15.3476 16.7281 15.1827 17.0529 15.1003C17.6214 15.1003 18.1086 15.1002 18.677 14.9353C20.1387 14.6879 21.6004 14.2755 23.1433 14.523C23.8741 14.6054 24.1989 14.358 23.8741 13.6158C23.3869 12.3787 22.656 11.389 21.4379 10.7292C20.0575 9.98698 18.677 9.24469 16.9717 9.65705C16.5657 9.73952 16.4033 9.73956 16.4845 9.24473C16.8905 7.10045 16.7281 4.87367 16.7281 2.64692C16.7281 1.90466 16.4033 1.2449 16.1597 0.667597C15.8349 -0.157126 15.5912 -0.157133 14.9416 0.337701C14.6168 0.585118 14.3732 0.915012 14.1296 1.2449C12.9927 2.7294 12.0995 4.37884 11.531 6.19323C11.3686 6.68806 11.0438 7.01796 10.5566 6.52313C10.2317 6.19324 9.90694 5.69841 9.50092 5.36852C8.12045 4.37885 6.73997 3.38917 5.27829 2.64692C4.62866 2.31703 4.38504 2.48195 4.38504 3.14173C4.38504 4.95612 4.30382 6.77055 5.19707 8.33753C5.44069 8.83236 5.44069 8.91485 4.95347 8.99732C3.49179 9.32721 2.11131 9.82198 0.73084 10.4818C0.487227 10.5642 0 10.4818 0 10.8941C0 11.224 0.324815 11.389 0.568428 11.5539C2.35492 12.8735 4.46624 13.6157 6.65875 14.0281C7.6332 14.193 7.87684 14.1931 7.47081 15.1827L7.3084 15.3477Z" fill="#0281C9"/>
</svg>
