<svg width="97" height="87" viewBox="0 0 97 87" fill="none" xmlns="http://www.w3.org/2000/svg">
<path d="M63.1315 55.9078C66.3016 62.2858 68.1131 67.2972 69.4718 73.2196C70.3775 77.3197 69.9246 81.4196 69.4718 85.0641C69.0189 87.3419 67.6603 87.3419 65.8488 86.4307C62.6786 85.064 59.5085 83.6976 57.697 80.9642C54.5268 76.8641 51.8094 71.8527 49.0921 67.297C46.8277 63.6525 46.3749 63.6526 43.2047 66.386C36.4115 72.764 29.1655 77.7751 20.1079 80.5085C18.7493 80.5085 17.8434 81.8752 16.9377 80.5085C16.0319 79.5974 16.9377 78.2307 16.9377 77.3195C18.2963 70.9416 19.655 65.0193 22.3723 59.5525C23.278 57.7302 23.278 56.8191 21.0136 56.3635C13.3146 55.4524 6.97437 51.8079 1.08693 46.7966C-0.724589 44.9744 -0.271764 43.1521 2.44552 41.7854C8.78584 38.5964 15.5791 36.7741 22.3723 34.9518C24.1838 34.4962 26.4482 34.0408 28.7126 34.0408C31.4298 34.0408 30.977 31.7629 30.0712 30.3962C25.5424 24.0183 22.8251 16.7291 20.5607 8.9845C20.5607 7.16223 19.2021 5.7955 19.2021 3.97324C19.2021 0.328699 20.1079 -0.582518 23.7309 0.328616C26.4482 1.23975 29.6183 1.6953 31.8827 3.51757C39.1288 8.98437 46.8278 13.9958 52.7152 20.8293C54.0739 22.6516 54.9797 22.1959 55.4326 20.3737C58.1499 13.9957 64.4901 11.2622 70.3775 8.52884C75.3592 6.251 80.3409 6.25115 85.7755 7.61785C88.4928 8.52899 89.3985 10.3513 87.1341 12.6291C82.6053 17.1848 80.341 23.1071 77.1708 28.5739C76.2651 30.3962 74.4535 32.2186 73.5477 34.0408C72.6419 35.4075 72.642 36.3185 74.9064 36.7741C85.3227 38.5964 92.1159 45.4298 96.6447 54.0855C97.5504 55.9078 96.6446 56.8192 94.8331 56.8192C84.8698 57.7303 74.9064 59.5524 64.0372 55.9078H63.1315Z" fill="#77B945"/>
</svg>
