<svg width="1372" height="1118" viewBox="0 0 1372 1118" fill="none" xmlns="http://www.w3.org/2000/svg">
<path d="M710.175 772.365C868.683 824.422 883.47 911.476 876.445 968.711C870.118 1020.25 802.073 1093.83 782.391 1114.17C780.96 1115.65 782.39 1118.03 784.359 1117.44C816.371 1107.77 949.784 1063.96 1099.08 964.075C1270.55 849.357 1307.06 823.038 1350.97 682.041C1389.16 559.381 1368.08 476.189 1329 353.81C1172.82 -135.188 139.769 -108.319 14.8127 381.172C-23.4676 531.127 12.8423 695.736 127.385 761.144C278.382 826.333 487.654 699.284 710.175 772.365Z" fill="url(#paint0_linear_1026_9188)"/>
<defs>
<linearGradient id="paint0_linear_1026_9188" x1="674.638" y1="0.25436" x2="697.976" y2="1121.2" gradientUnits="userSpaceOnUse">
<stop stop-color="#F1F8FD"/>
<stop offset="1" stop-color="#E7F1F8"/>
</linearGradient>
</defs>
</svg>
