<svg width="331" height="151" viewBox="0 0 331 151" fill="none" xmlns="http://www.w3.org/2000/svg">
<path d="M59.5482 83.6521C64.4095 81.7388 69.1372 80.8344 72.6869 85.7273C75.3039 89.1599 73.7376 96.3426 68.7299 100.906C65.1165 104.22 60.6914 106.705 56.5814 109.13C53.6111 110.682 50.2778 110.336 47.5877 108.229C44.837 105.805 44.2926 102.959 45.5787 99.4354C48.151 92.3879 51.1594 85.9125 59.5482 83.6521Z" fill="#AB8EB8"/>
<path d="M97.4009 56.0889C102.262 54.1755 106.99 53.2711 110.54 58.1641C113.157 61.5966 111.59 68.7794 106.583 73.3429C102.969 76.6563 98.5441 79.1417 94.4341 81.5668C91.4638 83.1184 88.1305 82.7728 85.4404 80.6653C82.6897 78.2416 82.1453 75.3959 83.4314 71.8721C86.0037 64.8247 89.0121 58.3493 97.4009 56.0889Z" fill="#AB8EB8"/>
<path d="M41.5677 129.702C43.6657 127.006 46.1393 124.566 50.0902 126.433C52.914 127.531 54.5123 132.47 53.0319 136.686C52.0005 139.833 50.3387 143.101 48.5559 145.737C47.2825 147.619 45.5124 148.613 42.87 148.463C40.4823 147.937 39.1738 146.22 38.7504 144.007C37.7825 138.948 37.5055 134.084 41.5677 129.702Z" fill="#AB8EB8"/>
<path d="M23.3731 97.7837C26.2066 105.764 18.5534 118.7 10.2378 119.635C6.08004 120.103 2.75952 118.116 1.28229 113.81C-1.11504 106.402 3.74939 95.9659 10.9507 92.6216C16.9517 89.8347 21.2178 91.6407 23.4336 98.0999L23.3731 97.7837Z" fill="#AB8EB8"/>
<path d="M20.9277 55.9695C23.9585 54.7341 26.6008 54.8841 28.6002 56.796C30.5995 58.7079 30.0774 61.1022 28.925 63.617C27.7725 66.1319 26.3049 68.707 24.0255 70.4542C21.4309 72.2616 18.7153 73.4367 16.0856 71.6454C13.4559 69.8541 12.851 66.6921 13.5673 63.6052C14.7929 59.7653 17.2666 57.3254 20.6125 56.0298L20.9277 55.9695Z" fill="#AB8EB8"/>
<path d="M77.3723 0.922309C80.4031 -0.313048 83.0455 -0.163031 85.0448 1.74886C87.0441 3.66074 86.522 6.055 85.3696 8.56985C84.2172 11.0847 82.7496 13.6598 80.4701 15.407C77.8755 17.2145 75.1599 18.3895 72.5302 16.5982C69.9006 14.8069 69.2956 11.645 70.0119 8.55803C71.2376 4.7181 73.7112 2.27826 77.0571 0.982606L77.3723 0.922309Z" fill="#AB8EB8"/>
<path d="M55.2372 38.9171C56.813 38.6156 58.0737 38.3745 59.2612 39.4584C60.4487 40.5422 59.9998 41.6114 59.6115 42.9968C58.9079 44.4425 58.459 45.5116 57.0041 46.4455C55.8644 47.3191 54.349 47.9368 52.9069 47.2294C51.4042 46.2058 51.1017 44.6248 51.8053 43.1791C52.3879 41.1011 53.7823 39.851 55.2976 39.2333L55.2372 38.9171Z" fill="#AB8EB8"/>
<path d="M76.931 114.742C79.9617 113.507 82.6041 113.657 84.6035 115.569C86.6028 117.481 86.0807 119.875 84.9283 122.39C83.7758 124.905 82.3082 127.48 80.0288 129.227C77.4342 131.034 74.7186 132.209 72.0889 130.418C69.4592 128.627 68.8543 125.465 69.5706 122.378C70.7962 118.538 73.2698 116.098 76.6158 114.803L76.931 114.742Z" fill="#AB8EB8"/>
<path d="M164.04 98.7328C168.065 99.274 172.149 100.131 172.802 105.251C173.467 108.729 169.465 113.428 164.168 114.769C160.386 115.493 156.228 115.96 152.325 116.051C149.743 116.218 147.174 114.743 146.314 111.957C145.14 109.232 145.977 106.777 148.196 104.714C152.634 100.587 157.568 97.3489 164.04 98.7328Z" fill="#AB8EB8"/>
<path d="M228.168 83.8425C232.192 84.3837 236.276 85.2411 236.929 90.3605C237.594 93.8387 233.593 98.5375 228.295 99.8787C224.513 100.602 220.355 101.07 216.452 101.161C213.87 101.327 211.301 99.8522 210.441 97.0667C209.267 94.3415 210.104 91.887 212.323 89.8236C216.761 85.6969 221.695 82.4585 228.168 83.8425Z" fill="#AB8EB8"/>
<path d="M136.815 135.735C139.53 134.56 141.991 133.761 144.172 136.622C145.856 138.594 145.321 142.629 142.217 145.19C140.314 147.193 137.974 148.624 135.634 150.055C134.179 150.989 132.167 150.718 130.664 149.695C129.101 148.355 128.799 146.774 129.381 144.696C130.546 140.54 132.148 136.956 136.754 135.419L136.815 135.735Z" fill="#AB8EB8"/>
<path d="M127.413 122.456C126.417 129.202 115.857 135.483 109.518 133.091C106.319 131.736 104.514 129.131 105.424 125.352C106.542 119.238 113.95 113.56 120.495 113.619C126.095 113.859 128.276 116.719 127.353 122.14L127.413 122.456Z" fill="#AB8EB8"/>
<path d="M150.316 74.8093C153.019 75.2755 154.836 76.2388 155.575 78.3919C155.998 80.6052 154.98 82.1112 153.27 83.4216C151.245 84.7923 149.536 86.1026 147.014 86.585C144.493 87.0674 142.105 86.5408 140.991 84.1319C139.877 81.7229 140.399 79.3286 142.303 77.3256C144.461 74.946 147.552 74.0269 150.316 74.8093Z" fill="#AB8EB8"/>
<path d="M212.007 57.435C214.71 57.9012 216.528 58.8645 217.267 61.0175C217.69 63.2309 216.671 64.7369 214.962 66.0472C212.937 67.4179 211.227 68.7283 208.706 69.2106C206.185 69.693 203.797 69.1665 202.683 66.7575C201.568 64.3486 202.09 61.9543 203.994 59.9513C206.153 57.5717 209.244 56.6525 212.007 57.435Z" fill="#AB8EB8"/>
<path d="M181.588 76.0374C181.588 76.0374 183.976 76.5639 184.218 77.8287C184.46 79.0935 183.95 79.8465 183.065 80.3436C182.241 81.1568 181.041 81.7142 179.78 81.9554C178.519 82.1966 177.198 82.1216 176.641 80.9171C176.084 79.7126 176.157 78.3875 177.297 77.514C178.376 76.3242 179.952 76.0227 181.273 76.0977L181.588 76.0374Z" fill="#AB8EB8"/>
<path d="M167.759 138.665C170.462 139.131 172.28 140.094 173.019 142.247C173.442 144.461 172.423 145.967 170.714 147.277C168.689 148.648 166.979 149.958 164.458 150.44C161.937 150.923 159.549 150.396 158.435 147.987C157.32 145.578 157.842 143.184 159.746 141.181C161.905 138.801 164.996 137.882 167.759 138.665Z" fill="#AB8EB8"/>
<path d="M267.345 112.73C270.048 113.196 272.751 113.662 273.101 117.2C273.525 119.414 270.857 122.546 267.45 123.526C264.929 124.008 262.408 124.491 259.45 124.401C257.559 124.763 255.996 123.423 255.318 121.586C254.64 119.749 255.343 118.303 256.677 116.737C259.721 113.861 262.885 111.616 267.345 112.73Z" fill="#AB8EB8"/>
<path d="M294.568 116.699C297.271 117.165 299.974 117.631 300.324 121.17C300.748 123.383 298.08 126.516 294.673 127.495C292.152 127.978 289.631 128.46 286.673 128.37C284.782 128.732 283.219 127.392 282.541 125.555C281.863 123.719 282.566 122.273 283.9 120.707C286.943 117.83 290.108 115.586 294.568 116.699Z" fill="#AB8EB8"/>
<path d="M200.076 135.104C201.907 134.426 203.422 133.809 205.106 135.781C205.978 136.925 205.832 139.575 203.928 141.578C202.534 142.828 201.079 143.762 199.624 144.696C198.424 145.253 197.418 145.118 196.291 144.35C195.164 143.583 194.922 142.318 195.686 141.188C196.463 138.418 197.676 136.219 200.452 135.36L200.076 135.104Z" fill="#AB8EB8"/>
<path d="M248.992 117.552C248.202 121.964 241.498 126.196 237.232 124.39C235.099 123.487 234.105 121.711 234.627 119.317C235.477 115.221 240.291 111.35 244.57 111.515C248.218 111.8 249.527 113.516 249.246 117.175L248.992 117.552Z" fill="#AB8EB8"/>
<path d="M258.466 97.0566C260.163 97.3875 261.229 97.839 261.847 99.3597C262.149 100.941 261.325 101.754 260.5 102.567C259.361 103.441 257.906 104.375 256.33 104.676C254.754 104.978 253.057 104.647 252.439 103.126C251.507 101.666 251.835 99.9641 253.229 98.714C254.878 97.0875 256.769 96.7257 258.466 97.0566Z" fill="#AB8EB8"/>
<path d="M299.089 85.6796C300.785 86.0105 301.852 86.462 302.47 87.9827C302.772 89.5636 301.948 90.3769 301.123 91.1902C299.983 92.0638 298.528 92.9977 296.952 93.2991C295.377 93.6006 293.68 93.2697 293.062 91.749C292.129 90.2887 292.457 88.5871 293.852 87.337C295.501 85.7105 297.392 85.3487 299.089 85.6796Z" fill="#AB8EB8"/>
<path d="M328.715 112.461C328.715 112.461 330.097 112.852 330.218 113.484C330.339 114.117 330.4 114.433 329.454 114.614C328.824 114.734 328.254 115.171 327.563 114.976C326.933 115.096 326.302 115.217 325.806 114.328C325.685 113.696 325.564 113.064 326.134 112.627C326.703 112.19 327.649 112.009 328.655 112.144L328.715 112.461Z" fill="#AB8EB8"/>
<path d="M269.784 139.14C271.481 139.471 272.547 139.922 273.165 141.443C273.468 143.024 272.643 143.837 271.818 144.651C270.679 145.524 269.224 146.458 267.648 146.76C266.072 147.061 264.375 146.73 263.758 145.209C262.825 143.749 263.153 142.048 264.547 140.797C266.196 139.171 268.087 138.809 269.784 139.14Z" fill="#AB8EB8"/>
</svg>
