<svg width="1180" height="871" viewBox="0 0 1180 871" fill="none" xmlns="http://www.w3.org/2000/svg">
<path d="M124.493 162.755L143.592 154.087L177.095 230.776L249.237 440.42L306.725 604.675L283.906 602.784L170.571 282.943L124.493 162.755Z" fill="#15466B"/>
<path d="M294.748 163.89L314.919 158.216L343.316 301.698L368.908 435.976L392.388 608.079L370.83 601.081L346.846 441.681L322.704 316.828L306.346 250.666L294.748 163.89Z" fill="#15466B"/>
<path d="M468.029 201.494L488.925 199.697L485.3 292.494L478.587 411.926L478.682 479.349L473.261 603.761L453.562 593.674L458.763 481.397L455.39 404.676L461.568 302.454L468.029 201.494Z" fill="#15466B"/>
<path d="M583.634 146.805L604.561 145.734L604.025 231.312L593.309 344.535L585.714 432.95L575.029 585.542L571.626 622.736L551.329 613.69L554.48 550.711L564.566 428.821L571.878 318.94L581.081 235.505L583.634 146.805Z" fill="#15466B"/>
<path d="M674.466 158.941L695.299 156.923L692.967 206.064L697.852 317.458L699.364 439.822L692.021 613.374L672.071 602.689L676.641 440.074L674.75 323.384L670.526 246.379L674.466 158.941Z" fill="#15466B"/>
<path d="M808.76 205.308L829.656 206.316L810.367 297.915L789.724 381.887L770.467 488.899L745.663 602.626L727.95 589.356L750.548 480.798L768.04 378.703L786.351 299.649L808.76 205.308Z" fill="#15466B"/>
<path d="M946.112 168.87L963.95 181.604L915.855 334.826L883.172 436.827L849.228 536.338L832.083 602.185L811.534 598.181L826.693 529.561L861.772 419.554L901.484 305.859L946.112 168.87Z" fill="#15466B"/>
<path d="M860.162 110L870.342 115.359L850.959 143.664L840.653 169.669L830 159.078L842.512 129.953L860.162 110Z" fill="#E96852"/>
<path d="M964 136.643L1015.66 120L1020.67 129.992L992.082 140.993L964.788 151.615L964 136.643Z" fill="#E96852"/>
<path d="M687.478 43.0173L698.572 41L698.162 71.7957L696.744 109.4L696.776 123.994L685.366 122.576L679 96.9177L687.478 43.0173Z" fill="#E96852"/>
<path d="M615.752 54L625.806 58.8542L609.89 85.0479L594.762 110.107L586 102.762L594.919 78.9959L615.752 54Z" fill="#E96852"/>
<path d="M490.658 108L500.712 112.854L482.18 141.443L469.668 164.075L460.906 156.731L467.462 134.919L490.658 108Z" fill="#E96852"/>
<path d="M301.303 16.9716L312.744 15.0488L309.435 63.3385L310.948 98.0428L299.538 96.5928L293.172 70.9665L301.303 16.9716Z" fill="#E96852"/>
<path d="M155.379 14.9543L166.788 13L164.425 77.05L164.992 95.994L153.614 94.5755L147.5 64.82L155.379 14.9543Z" fill="#E96852"/>
<path d="M30.3193 102.456L34.1329 91.9592L62.4668 104.725L91.8407 114.339L86.5143 124.489L58.1489 121.4L30.3193 102.456Z" fill="#E96852"/>
<path d="M21.7783 871C20.7067 840.33 12.7644 810.764 11.7244 780.031C11.3039 765.224 9.7444 750.47 7.05983 735.902C4.31784 721.214 5.73611 605.39 5.23184 590.481C3.52991 538.661 0.75641 486.904 0 435.147C0 423.894 3.15171 413.366 2.45833 401.83C1.73344 386.542 8.95086 373.713 11.3462 359.056C12.1971 353.918 9.70727 348.024 10.9364 343.075C12.1656 338.126 11.7874 339.419 17.8072 338.379C30.7922 336.204 43.9663 333.398 57.0775 331.602C72.0796 329.521 87.649 329.364 102.557 327.126C121.624 324.226 138.99 321.137 158.499 320.822L270.385 318.489C280.218 318.3 290.462 317.386 300.263 318.111C308.615 318.773 316.337 320.443 324.784 320.38C345.301 320.223 365.756 319.561 386.368 318.993C396.053 318.77 405.74 319.339 415.332 320.695C427.183 322.24 439.695 320.695 451.608 320.538C459.903 320.789 468.175 321.536 476.381 322.776C487.948 323.974 500.618 322.524 512.31 322.271C559.586 321.326 606.263 326.18 653.602 325.234L804.442 322.082L1040.06 317.071C1053.46 316.818 1066.89 316.598 1080.28 316.219C1095.88 315.747 1112.36 318.962 1127.56 321.515C1138.41 323.821 1149.42 325.37 1160.49 326.149C1171.62 326.495 1170.32 329.931 1170.67 338.757C1171.35 346.012 1171.35 353.314 1170.67 360.569C1165 398.394 1156.49 435.368 1157.62 473.728C1157.57 481.243 1156.28 488.697 1153.81 495.793C1151.07 505.249 1151.76 514.232 1152.23 523.972C1152.71 533.712 1149.84 542.317 1149.43 551.9C1148.92 562.9 1150.34 574.279 1150.72 585.312C1151.76 617.053 1156.65 750.748 1151.19 782.08C1148.39 798.093 1148.8 814.168 1145.74 830.086C1145.05 836.171 1145.05 842.315 1145.74 848.4C1145.74 852.718 1148.23 859.054 1145.55 862.773C1144.51 860.787 1143.72 864.57 1142.68 862.552L21.7783 871Z" fill="url(#paint0_linear_1631_4553)"/>
<path d="M14.6233 310.577L66.4057 314.108L266.318 303.674L410.54 310.735L553.754 322.361L844.908 320.349L987.018 310.956L1180 319.844L1161.85 469.923L998.089 467.023L563.5 482.5L290.625 461.917L2.21204 461.381L14.6233 310.577Z" fill="#AB8EB8"/>
<defs>
<linearGradient id="paint0_linear_1631_4553" x1="585.59" y1="316.173" x2="585.59" y2="871" gradientUnits="userSpaceOnUse">
<stop stop-color="#F1F8FD"/>
<stop offset="1" stop-color="#E7F1F8"/>
</linearGradient>
</defs>
</svg>
