<svg width="1253" height="1415" viewBox="0 0 1253 1415" fill="none" xmlns="http://www.w3.org/2000/svg">
<path d="M595.228 175.848C647.463 159.855 678.336 149.104 683.588 178.999C686.847 197.552 657.508 217.607 630.157 228.361C583.097 246.202 449.871 230.67 490.64 192.623C517.95 167.135 546.88 190.651 595.228 175.848Z" fill="#F9FCFF"/>
<path d="M232.83 1332.45C206.563 1387.72 139.115 1412.84 82.4495 1388.93C25.6337 1364.17 5.07679 1288.61 31.3441 1233.34C57.6115 1178.06 119.568 1163.69 176.233 1187.59C233.048 1212.36 258.204 1277.33 232.83 1332.45Z" fill="url(#paint0_linear_1627_4566)"/>
<path d="M-3.72719 414.738C-26.9771 264.407 76.5761 118.527 226.459 88.4724C377.858 59.9808 525.706 186.572 548.956 336.904C572.206 487.235 464.933 603.36 315.05 633.415C163.651 661.907 21.1418 563.5 -3.72719 414.738Z" fill="url(#paint1_linear_1627_4566)"/>
<path d="M981.355 265.477C976.661 260.087 1079.29 257.377 1128.74 232.471C1189.5 201.87 1208.51 152.8 1234.1 173.298C1261.51 195.256 1206.6 234.063 1171.38 252.838C1146.19 266.264 1121.82 274.342 1090.44 276.867C1047.44 280.326 987.258 272.255 981.355 265.477Z" fill="#F9FCFF"/>
<path d="M729.078 155.446C734.807 146.688 746.263 144.384 754.635 150.222C763.007 156.215 764.182 169.89 758.454 178.648C752.726 187.406 742.444 188.021 734.072 182.182C725.7 176.19 723.497 164.205 729.078 155.446Z" fill="#F9FCFF"/>
<defs>
<linearGradient id="paint0_linear_1627_4566" x1="150.331" y1="1395.73" x2="112.094" y2="1176.69" gradientUnits="userSpaceOnUse">
<stop stop-color="#F1F8FD"/>
<stop offset="1" stop-color="#E7F1F8"/>
</linearGradient>
<linearGradient id="paint1_linear_1627_4566" x1="77.419" y1="169.355" x2="462.128" y2="566.193" gradientUnits="userSpaceOnUse">
<stop stop-color="#F1F8FD"/>
<stop offset="1" stop-color="#E7F1F8"/>
</linearGradient>
</defs>
</svg>
