<svg width="21" height="30" viewBox="0 0 21 30" fill="none" xmlns="http://www.w3.org/2000/svg">
<path d="M20.8995 15.3747C20.4973 15.6869 20.193 15.6654 19.9213 15.7407C19.6931 15.8161 19.4105 15.8592 19.2801 16.0745C18.8454 16.6882 18.3454 17.1404 17.6172 17.3234C17.0195 17.4742 16.8999 17.5711 17.3347 18.0125C18.3563 19.0353 18.9758 20.2089 19.2257 21.5763C19.4866 22.9867 18.8453 24.0634 17.8672 24.9786C16.0413 26.712 13.922 27.8964 11.3789 28.2409C8.9009 28.5854 6.47727 29.2853 3.98844 29.5437C3.83628 29.5652 3.65152 29.6944 3.55371 29.5221C3.45589 29.3714 3.7276 29.2853 3.80368 29.1453C5.45566 26.1521 7.05329 23.1375 8.94436 20.2843C9.57472 19.3476 10.3246 18.4216 10.9441 17.4203C10.3681 17.3234 9.74861 17.3019 9.29215 17.4311C6.6729 18.1202 4.09712 18.9169 1.53221 19.8213C0.96706 20.0151 0.836644 19.7998 0.695357 19.2076C0.151944 17.0866 0.0976038 14.9763 0.11934 12.8337C0.11934 12.4138 0.238886 11.9831 0.173677 11.5525C0.108467 11.2079 0.249757 10.9495 0.651883 11.1218C2.86901 12.0693 5.21655 12.6291 7.47715 13.4474C8.33574 13.7596 9.27041 13.6843 10.1507 13.8242C10.3246 13.8458 10.4659 13.8027 10.6398 13.7704C10.9659 13.695 11.1289 13.5228 10.9224 13.2644C10.4007 12.6399 9.91164 12.0047 9.36822 11.391C8.42269 10.3143 7.5967 9.18379 6.86853 7.96715C6.08601 6.63207 5.22742 5.31853 4.56446 3.91886C4.08625 2.89602 3.92323 1.72245 3.42329 0.69961C3.2168 0.258175 3.28201 0.0859071 3.81455 0.204341C6.57509 0.818044 9.2052 1.89472 11.8571 2.83142C12.9656 3.22979 14.1177 3.45589 15.1936 3.97269C16.4435 4.56486 17.5846 5.28623 18.4432 6.34137C19.2692 7.37498 19.4866 8.61315 19.4105 9.91593C19.3344 11.2833 18.6171 12.22 17.6172 13.049C17.0521 13.512 17.063 13.7381 17.7585 14.0073C18.791 14.3949 19.6605 15.1055 20.8995 15.3424L20.9212 15.3639L20.8995 15.3747ZM18.0846 16.0099C18.3563 16.0207 18.5736 15.913 18.5845 15.6546C18.6171 15.3854 18.4758 15.0947 18.1824 15.0624C17.8781 15.0194 17.8129 15.3101 17.7911 15.5792C17.7585 15.8376 17.8563 15.9668 18.0737 16.0207L18.0846 16.0099Z" fill="#77B845"/>
</svg>
