<svg width="206" height="30" viewBox="0 0 206 30" fill="none" xmlns="http://www.w3.org/2000/svg">
<path d="M95.1492 26.8451C95.1492 26.3327 95.1492 26.1049 95.0915 25.8202C95.0915 25.5925 95.0339 25.3647 95.0339 24.9092C95.0339 24.4537 95.0339 24.226 95.0915 23.9982C95.1492 23.7705 95.1492 23.4858 95.1492 22.9733C95.1492 22.6887 95.2069 22.4609 95.2645 22.2901C95.3799 21.8346 95.4376 21.436 94.8608 20.9236C94.2841 20.4112 93.8227 20.6389 93.4767 20.7528C93.1883 20.8667 93.073 20.9236 92.7846 20.7528C92.4963 20.525 92.4963 20.4681 92.6116 20.1265C92.6693 19.8987 92.7846 19.614 92.7846 19.2724C92.7846 18.8169 92.7846 18.5891 92.7846 18.3614C92.7846 18.1336 92.7846 17.9059 92.7846 17.3934C92.7846 16.881 92.7846 16.7102 92.7846 16.4825C92.7846 16.2547 92.7846 16.0269 92.7846 15.5714C92.7846 15.1159 92.7846 14.8313 92.7846 14.6035C92.7846 14.3758 92.7846 14.148 92.7846 13.6925C92.7846 13.237 92.7846 13.0662 92.8423 12.8384C92.8423 12.6107 92.9 12.3829 92.9 11.8705C92.9 11.3581 92.9 11.1303 92.7846 10.9026C92.7846 10.6748 92.6693 10.504 92.6693 10.0485C92.6693 9.59299 92.6693 9.36523 92.6693 9.13748C92.6693 8.90973 92.6693 8.68199 92.6693 8.22649C92.6693 7.77098 92.6693 7.54323 92.6693 7.31548C92.6693 7.08773 92.6693 6.85998 92.6693 6.34754V4.52553C92.6693 4.07003 92.6693 3.89923 92.727 3.67148C92.727 3.44373 92.8423 3.15903 92.8423 2.70353C92.8423 2.41884 92.9 2.19109 92.9577 1.96334C93.073 1.56477 93.246 1.05233 92.6693 0.482951C92.0926 -0.0864255 91.6312 0.141323 91.2275 0.255199C90.9968 0.369074 90.7661 0.426013 90.4778 0.426013C90.0164 0.426013 89.7857 0.426013 89.555 0.426013C89.3243 0.426013 89.0936 0.426013 88.6323 0.426013C88.1132 0.426013 87.8825 0.482952 87.6518 0.53989C87.4212 0.53989 87.2481 0.653766 86.7868 0.653766C86.3254 0.653766 86.0947 0.653766 85.864 0.653766C85.6333 0.653766 85.4026 0.653766 84.9413 0.653766C84.4799 0.653766 84.3069 0.653766 84.0762 0.653766C83.8455 0.653766 83.6148 0.596828 83.0958 0.596828C82.5767 0.596828 82.346 0.596821 82.1153 0.710696C81.8847 0.710696 81.7116 0.82458 81.2503 0.82458C80.9042 0.82458 80.7312 0.767641 80.5005 0.653766C80.2122 0.539891 79.8661 0.369077 79.2318 0.653766C79.1164 0.653766 79.0011 0.824574 79.0011 0.938449C79.0011 1.28008 79.0011 1.62171 79.0011 1.96334C79.0011 2.30496 79.0011 2.70352 79.0011 3.04515C79.0011 3.38678 79.0011 3.7284 79.0011 4.07003C79.0011 4.41166 79.0011 4.75329 79.0011 5.03798C79.0011 5.3796 79.0011 5.72122 78.8857 6.06285C78.8857 6.40448 78.7704 6.7461 78.7704 7.03079C78.7704 7.42936 78.7704 7.77098 78.7704 8.16955C78.7704 8.45424 78.7704 8.79586 78.7704 9.08055V9.93462C78.7704 10.3332 78.7704 10.7317 78.7704 11.1303C78.7704 11.5289 78.7704 11.8705 78.8281 12.2691C78.8281 12.6107 78.8857 12.8954 78.8281 13.1801C78.8281 13.5217 78.8281 13.8064 78.8281 14.148C78.8281 14.5466 78.8281 14.8882 78.8281 15.2298C78.8281 15.7992 78.7127 16.3116 78.655 16.7671L78.482 17.849C78.4244 18.3614 78.3667 18.8738 78.2513 19.3293C78.0783 20.0695 77.79 20.8097 77.6169 21.2083C77.6169 21.2083 77.2709 21.1513 77.0402 20.9805C76.7519 20.8097 76.2328 20.525 75.7138 21.0375C75.1947 21.6068 75.3101 22.0623 75.4254 22.5178C75.4831 22.7456 75.5408 22.9734 75.5408 23.258C75.5408 23.7705 75.5408 24.0552 75.5984 24.2829C75.5984 24.5107 75.6561 24.7384 75.6561 25.1939C75.6561 25.6494 75.6561 25.8772 75.6561 26.1049C75.6561 26.3327 75.6561 26.6174 75.6561 27.0729C75.6561 27.3575 75.6561 27.5853 75.5408 27.7561C75.4254 28.2116 75.3677 28.5532 75.8868 29.1226C76.4058 29.692 76.8095 29.5212 77.1556 29.3504C77.3286 29.2934 77.5593 29.1796 77.79 29.1796C78.0207 29.1796 78.309 29.2934 78.5397 29.4073C78.8857 29.5781 79.4624 29.8628 79.9238 29.2934C80.4429 28.6671 80.2122 28.1547 79.9815 27.7561C79.8661 27.4714 79.6931 27.2437 79.6931 26.8451C79.6931 26.4465 79.6355 26.1619 79.5778 25.9341C79.4624 25.5355 79.4624 25.3647 79.8085 24.9662C80.0392 24.6815 80.0968 24.7384 80.4429 24.8523C80.6736 24.9092 80.9619 25.0231 81.4233 25.0231C81.8847 25.0231 82.1153 25.0231 82.346 25.0231C82.5767 25.0231 82.8074 25.0231 83.3265 25.0231C83.8455 25.0231 84.0185 25.0231 84.2492 25.0231C84.4799 25.0231 84.7106 25.0231 85.2296 25.0231C85.7487 25.0231 85.9794 25.0231 86.2101 25.0231C86.4407 25.0231 86.6714 25.0231 87.1328 25.0231C87.6519 25.0231 87.8825 25.0231 88.1132 24.9662C88.3439 24.9662 88.5746 24.9092 88.9783 24.9092C89.3243 24.9092 89.555 24.9092 89.7857 24.7954C90.1317 24.7384 90.1894 24.6815 90.4778 25.0231C90.8238 25.4217 90.7661 25.4786 90.6508 25.8772C90.5931 26.1049 90.4778 26.3896 90.4778 26.8451C90.4778 27.1867 90.3624 27.4714 90.2471 27.6992C90.0741 28.1547 89.901 28.6102 90.4201 29.2365C90.7085 29.5781 90.9968 29.692 91.2275 29.692C91.4582 29.692 91.6889 29.5781 91.9772 29.5212C92.1503 29.4642 92.3809 29.3504 92.6693 29.2934C92.9577 29.2365 93.1307 29.2934 93.3614 29.4073C93.7074 29.5781 94.1688 29.7489 94.6301 29.2365C95.1492 28.6671 95.0338 28.1547 94.9185 27.7561C94.8608 27.5284 94.7455 27.3006 94.7455 27.0159L95.1492 26.8451ZM83.2688 11.1303C83.2688 10.7887 83.2111 10.504 83.2111 10.1624C83.2111 9.82073 83.2111 9.47911 83.2111 9.13748C83.2111 8.85279 83.2111 8.51117 83.2111 8.16955C83.2111 7.88486 83.2111 7.60017 83.2111 7.25854C83.2111 6.91692 83.2111 6.57528 83.2111 6.17672C83.2111 5.89203 83.2111 5.60735 83.2111 5.26572C83.2111 4.98103 83.2111 4.63942 83.2111 4.35473C83.5571 4.24085 83.7302 4.29779 83.9609 4.35473C84.1915 4.35473 84.4222 4.41166 84.7683 4.41166C85.172 4.41166 85.4026 4.41166 85.6333 4.52553C85.864 4.58247 86.1524 4.69635 86.6714 4.69635C87.0751 4.69635 87.4212 4.58247 87.5942 4.4686C87.8825 4.35472 87.9402 4.35472 88.1709 4.58247C88.4593 4.86716 88.4593 4.9241 88.3439 5.26572C88.2862 5.49347 88.1709 5.72122 88.1709 6.11979C88.1709 6.57529 88.1709 6.80304 88.1709 7.03079C88.1709 7.25854 88.1709 7.48629 88.1709 7.99873C88.1709 8.51117 88.1709 8.73892 88.2862 9.02361C88.2862 9.25136 88.4016 9.47911 88.4016 9.87768V11.7566C88.4016 12.1552 88.3439 12.3829 88.2862 12.6107C88.2286 12.8384 88.1132 13.1231 88.1132 13.6356C88.1132 14.148 88.2286 14.4327 88.2862 14.6604C88.3439 14.8882 88.4016 15.059 88.4016 15.5145C88.4016 15.97 88.4016 16.1408 88.2862 16.3686C88.2862 16.5963 88.1709 16.881 88.1709 17.3934C88.1709 17.9059 88.1709 18.1336 88.1709 18.3614C88.1709 18.5891 88.1709 18.8169 88.1709 19.2724C88.1709 19.671 88.2862 19.9557 88.3439 20.1834C88.4593 20.525 88.4593 20.582 88.2286 20.8667C87.9979 21.0944 87.9979 21.0375 87.7095 20.9236C87.4788 20.8097 87.1905 20.6958 86.7868 20.6958C86.3254 20.6958 86.0947 20.6958 85.864 20.6958C85.6333 20.6958 85.4603 20.6958 84.9989 20.6958C84.5376 20.6958 84.3069 20.6958 84.0762 20.7528C83.8455 20.7528 83.6725 20.8097 83.2688 20.8097C82.6344 20.8097 82.5191 20.8097 82.1153 20.6389C82.1153 20.6389 82.0577 20.6389 82 20.6389C82.1153 20.3542 82.2307 20.0126 82.346 19.5571C82.346 19.3863 82.4614 19.2155 82.5191 18.9877C82.6344 18.703 82.7497 18.3614 82.8074 17.9628C82.8651 17.5643 82.9228 17.1088 82.9804 16.5963L83.0958 15.5145C83.0958 15.059 83.2111 14.6035 83.2111 14.0911C83.2111 13.6356 83.2111 13.1801 83.2688 12.6676V12.1552C83.2688 11.8136 83.2688 11.4719 83.2688 11.1872V11.1303Z" fill="#15466B"/>
<path d="M110.721 4.07003C110.721 4.07003 110.605 3.84228 110.49 3.72841C110.144 3.10209 109.682 2.6466 109.336 2.30497C108.933 1.90641 108.471 1.50783 107.837 1.22314C107.318 0.938452 106.741 0.824572 106.107 0.710696C105.472 0.596821 104.896 0.596828 104.319 0.596828C103.915 0.596828 103.742 0.596827 103.512 0.482951C103.281 0.426014 103.05 0.312145 102.531 0.312145C102.07 0.312145 101.897 0.312145 101.666 0.312145C101.435 0.312145 101.205 0.312145 100.743 0.312145C100.282 0.312145 100.051 0.312137 99.8206 0.369075C99.5899 0.369075 99.4169 0.426013 99.0132 0.426013C98.7248 0.426013 98.5518 0.369074 98.3211 0.255199C97.9751 0.0843856 97.5137 -0.0864255 96.9947 0.482951C96.4756 1.05233 96.7063 1.50783 96.8793 1.84945C96.9947 2.0772 97.11 2.30496 97.11 2.58965V4.41166C97.11 4.81022 97.0524 4.98103 96.9947 5.20879C96.937 5.43654 96.8217 5.72123 96.8217 6.23366C96.8217 6.7461 96.937 7.03079 96.9947 7.25854C97.0524 7.48629 97.11 7.65711 97.11 8.05567C97.11 8.45424 97.11 8.68198 96.9947 8.90974C96.9947 9.13749 96.8793 9.42218 96.8793 9.87768C96.8793 10.3332 96.8793 10.5609 96.8793 10.7887C96.8793 11.0164 96.8793 11.2442 96.8793 11.6997C96.8793 12.1552 96.8793 12.3829 96.8793 12.6107C96.8793 12.8384 96.8793 13.0662 96.8793 13.5217C96.8793 13.9772 96.8793 14.2049 96.8793 14.4327C96.8793 14.6604 96.8793 14.8882 96.8793 15.3437C96.8793 15.7992 96.8793 16.0269 96.8793 16.3116C96.8793 16.5394 96.8793 16.7671 96.8793 17.1657C96.8793 17.6212 96.8793 17.9059 96.937 18.1336C96.937 18.3614 96.9947 18.5891 96.9947 18.9877C96.9947 19.3863 96.937 19.5571 96.8793 19.7848C96.8217 20.0126 96.7063 20.2973 96.7063 20.8097C96.7063 21.2652 96.7063 21.5499 96.8217 21.7777C96.8217 22.0054 96.8793 22.1762 96.8793 22.6317C96.8793 22.9164 96.764 23.1442 96.7063 23.3719C96.5333 23.7705 96.3603 24.226 96.8793 24.7954C97.1677 25.08 97.4561 25.1939 97.7444 25.1939C98.0328 25.1939 98.2058 25.08 98.4942 24.9662C98.7248 24.8523 98.9555 24.7954 99.2439 24.6815C99.5322 24.6245 99.7629 24.6815 99.9936 24.7954C100.34 24.9662 100.801 25.137 101.32 24.6245C101.897 24.1121 101.724 23.6566 101.608 23.315C101.551 23.0872 101.435 22.9164 101.435 22.6317C101.435 22.2332 101.435 22.0054 101.493 21.8346C101.493 21.6068 101.608 21.3791 101.608 20.8667V19.1016C101.608 18.6461 101.608 18.4183 101.551 18.1906C101.551 17.9628 101.493 17.792 101.493 17.3365C101.493 16.9379 101.378 16.6533 101.32 16.4825C101.205 16.1978 101.205 16.1408 101.435 15.8561C101.666 15.6284 101.724 15.6284 102.012 15.6853C102.185 15.6853 102.416 15.7992 102.704 15.7992C103.108 15.7992 103.281 15.7992 103.512 15.7992C103.742 15.7992 103.915 15.7992 104.319 15.7992C104.492 15.7992 104.665 15.7992 104.78 15.7992C105.242 15.7992 105.703 15.7992 106.165 15.7423C106.626 15.6284 107.03 15.4006 107.433 15.1729C107.549 15.1159 107.722 15.0021 107.837 14.9451C108.01 14.8882 108.183 14.7743 108.356 14.7174C108.76 14.5466 109.163 14.3758 109.509 14.0911C110.029 13.6356 110.317 13.0092 110.605 12.4968C110.894 11.9844 111.009 11.3581 111.182 10.6748C111.182 10.504 111.24 10.3332 111.297 10.1624C111.413 9.7638 111.528 9.30829 111.528 8.79585C111.528 8.39729 111.528 8.22648 111.528 7.99873C111.528 7.77098 111.528 7.60017 111.528 7.20161C111.528 6.57529 111.47 5.94898 111.355 5.3796C111.24 4.86716 111.009 4.41166 110.778 4.07003H110.721Z" fill="#15466B"/>
<path d="M128.484 0.482951C127.907 -0.0864255 127.445 0.0843775 127.042 0.198253C126.811 0.255191 126.58 0.312137 126.292 0.312137C125.831 0.312137 125.6 0.312137 125.312 0.312137C125.081 0.312137 124.85 0.312137 124.389 0.312137C124.1 0.312137 123.87 0.312136 123.697 0.255199C123.293 0.198261 122.947 0.0843885 122.313 0.596828C121.736 1.05233 121.736 1.45089 121.794 1.84945C121.794 2.0772 121.794 2.30496 121.794 2.58965C121.678 3.04515 121.621 3.2729 121.563 3.50066C121.505 3.72841 121.448 3.95616 121.275 4.41166C121.159 4.86716 121.102 5.09491 121.044 5.32266C121.044 5.55041 120.986 5.77816 120.871 6.23366C120.756 6.68917 120.698 6.91692 120.64 7.14467C120.64 7.37242 120.525 7.60017 120.409 8.05567C120.294 8.45424 120.179 8.62505 120.063 8.8528C119.948 9.08055 119.775 9.3083 119.66 9.82074C119.544 10.2762 119.487 10.504 119.429 10.6748C119.371 10.9026 119.314 11.1303 119.198 11.5858C119.083 12.0413 119.025 12.326 119.025 12.5537C119.025 12.7815 119.025 13.0092 118.852 13.4078C118.737 13.8633 118.679 14.0341 118.564 14.2619C118.506 14.4896 118.391 14.7174 118.276 15.1729C118.16 15.6284 118.16 15.9131 118.103 16.1408C118.103 16.3686 118.103 16.5963 117.987 16.9949L117.526 18.8169C117.411 19.2155 117.468 19.614 117.526 19.8987C117.526 20.0126 117.526 20.1265 117.526 20.2403C117.295 20.1644 117.238 19.9746 117.353 19.671C117.353 19.671 117.526 19.1016 117.526 18.703C117.526 18.2475 117.526 18.0198 117.641 17.792C117.641 17.5073 117.757 17.2796 117.757 16.7102C117.757 16.1408 117.757 15.97 117.757 15.6853C117.757 15.4576 117.757 15.2298 117.757 14.7174C117.757 14.2049 117.757 13.9772 117.757 13.7494C117.757 13.5217 117.757 13.237 117.757 12.7246C117.757 12.2121 117.757 11.9844 117.757 11.7566C117.757 11.5289 117.757 11.2442 117.757 10.7317C117.757 10.2193 117.757 9.99155 117.757 9.70686C117.757 9.47911 117.757 9.25136 117.757 8.73892C117.757 8.22648 117.757 7.94179 117.699 7.71404C117.699 7.48629 117.641 7.25854 117.641 6.7461C117.641 6.2906 117.699 6.11979 117.757 5.8351C117.814 5.60735 117.93 5.26573 117.93 4.75329C117.93 4.24085 117.93 3.95615 117.872 3.7284C117.872 3.50065 117.814 3.27291 117.814 2.8174C117.814 2.47578 117.93 2.24802 117.987 2.02027C118.16 1.6217 118.333 1.1662 117.814 0.539882C117.238 -0.0864327 116.776 0.0843856 116.257 0.255199C116.084 0.312136 115.853 0.426014 115.623 0.482951C115.334 0.539889 115.161 0.482951 114.988 0.426013C114.7 0.312138 114.296 0.198257 113.777 0.710696C113.258 1.22314 113.258 1.56477 113.373 2.0772C113.373 2.24802 113.431 2.47577 113.431 2.70352C113.431 3.21596 113.431 3.44372 113.547 3.67147C113.547 3.89922 113.662 4.12697 113.662 4.52553C113.662 4.9241 113.662 5.15185 113.604 5.3796C113.604 5.60735 113.547 5.8351 113.547 6.34754C113.547 6.85998 113.604 7.14467 113.72 7.37242C113.777 7.60017 113.835 7.77098 113.835 8.16955C113.835 8.56811 113.777 8.73892 113.72 8.96667C113.662 9.19442 113.547 9.47911 113.547 9.99155C113.547 10.4471 113.547 10.6748 113.547 10.9595C113.547 11.1872 113.547 11.415 113.547 11.8136C113.547 12.2121 113.547 12.4399 113.489 12.6676C113.489 12.8954 113.431 13.1231 113.431 13.6356C113.431 14.148 113.547 14.4327 113.604 14.6604C113.662 14.8882 113.72 15.059 113.72 15.4576C113.72 15.8561 113.72 16.0839 113.604 16.3116C113.604 16.5394 113.489 16.8241 113.489 17.2796C113.489 17.7351 113.489 17.9628 113.489 18.2475C113.489 18.4753 113.489 18.703 113.489 19.1016C113.489 19.5571 113.489 19.7848 113.489 20.0126C113.489 20.2403 113.489 20.4681 113.489 20.9236C113.489 21.3222 113.489 21.5499 113.373 21.7776C113.316 22.0054 113.258 22.2901 113.258 22.7456C113.258 23.0303 113.2 23.2011 113.143 23.4289C113.027 23.8274 112.912 24.226 113.489 24.7954C113.835 25.137 114.181 25.2509 114.469 25.2509C114.642 25.2509 114.758 25.2509 114.931 25.1939C115.104 25.1939 115.334 25.137 115.623 25.137C116.142 25.137 116.43 25.0231 116.661 24.9662C116.891 24.9092 117.064 24.8523 117.526 24.8523C117.814 24.8523 118.045 24.9662 118.276 25.0231C118.622 25.1939 119.025 25.3647 119.66 24.9092C120.294 24.4537 120.236 24.0552 120.236 23.6566C120.236 23.4289 120.236 23.2011 120.236 22.9164C120.352 22.4609 120.409 22.2901 120.525 22.0623C120.64 21.8346 120.698 21.6068 120.813 21.1513C120.929 20.6958 120.986 20.4681 120.986 20.1834C120.986 19.9556 121.044 19.7279 121.159 19.3293L121.621 17.5073C121.736 17.0518 121.736 16.7671 121.736 16.5394C121.736 16.3116 121.736 16.0839 121.851 15.6853L122.313 13.8633C122.428 13.4648 122.543 13.2939 122.659 13.0662C122.774 12.8384 122.947 12.6107 123.062 12.0982C123.178 11.6427 123.235 11.415 123.293 11.1872C123.351 10.9595 123.408 10.7317 123.524 10.2762C123.639 9.82073 123.697 9.53605 123.697 9.3083C123.697 9.08054 123.754 8.85279 123.87 8.45423C123.985 8.05567 124.043 7.82792 124.1 7.6571C124.1 7.6571 124.1 7.6571 124.1 7.71404C124.1 7.94179 124.043 8.22648 124.043 8.73892C124.043 9.25136 124.1 9.53605 124.158 9.82074C124.216 10.0485 124.273 10.2762 124.273 10.7317C124.273 11.1872 124.216 11.415 124.158 11.6427C124.1 11.8705 123.985 12.1552 123.985 12.7246C123.985 13.2939 123.985 13.5217 124.1 13.7494C124.1 13.9772 124.216 14.2049 124.216 14.6604C124.216 15.1159 124.216 15.4006 124.216 15.6284C124.216 15.8561 124.216 16.1408 124.216 16.6533C124.216 17.1657 124.216 17.3935 124.216 17.6212C124.216 17.849 124.216 18.1336 124.216 18.6461C124.216 19.1585 124.216 19.3863 124.216 19.671C124.216 19.8987 124.216 20.1265 124.216 20.6389C124.216 21.1513 124.216 21.3222 124.158 21.5499C124.158 21.7777 124.1 22.0623 124.1 22.5748C124.1 22.8595 124.1 23.0872 123.985 23.315C123.87 23.7135 123.812 24.1121 124.331 24.7384C124.85 25.3078 125.254 25.137 125.6 25.0231C125.773 24.9662 126.004 24.8523 126.292 24.8523C126.58 24.8523 126.753 24.9092 126.984 25.0231C127.33 25.1939 127.791 25.3647 128.311 24.7954C128.83 24.226 128.714 23.8274 128.541 23.4289C128.484 23.2011 128.368 23.0303 128.368 22.7456C128.368 22.2901 128.368 22.1193 128.426 21.8915C128.426 21.6638 128.541 21.3791 128.541 20.9236V19.1016C128.541 18.6461 128.541 18.3614 128.484 18.1336C128.484 17.9059 128.426 17.6781 128.426 17.2796C128.426 16.881 128.426 16.5963 128.426 16.3686C128.426 16.1408 128.426 15.9131 128.426 15.4576C128.426 14.9451 128.368 14.7174 128.311 14.4896C128.311 14.2619 128.195 14.0911 128.195 13.6356C128.195 13.1801 128.195 12.9523 128.195 12.7246C128.195 12.4968 128.195 12.2691 128.195 11.8136C128.195 11.3581 128.195 11.1872 128.253 10.9595C128.253 10.7317 128.311 10.504 128.311 9.99155C128.311 9.47911 128.311 9.25136 128.195 9.02361C128.195 8.79586 128.08 8.62505 128.08 8.16955C128.08 7.71405 128.08 7.54323 128.195 7.37242C128.253 7.14467 128.311 6.85998 128.311 6.34754C128.311 5.89204 128.311 5.66429 128.311 5.43654C128.311 5.20879 128.311 4.98104 128.311 4.52553C128.311 4.07003 128.311 3.84227 128.311 3.61452C128.311 3.38677 128.311 3.15903 128.311 2.76047C128.311 2.47578 128.426 2.24802 128.541 2.02027C128.714 1.67864 128.945 1.16621 128.368 0.653766L128.484 0.482951ZM124.62 5.60735C124.62 5.60735 124.62 5.43654 124.62 5.3796C124.62 5.32266 124.62 5.20878 124.62 5.15185C124.85 5.26572 124.85 5.26573 124.677 5.60735H124.62Z" fill="#15466B"/>
<path d="M152.936 0.482951C152.244 -0.0864255 151.783 0.141324 151.379 0.369075C151.149 0.48295 150.86 0.596828 150.457 0.596828C149.937 0.596828 149.707 0.539889 149.418 0.482951C149.13 0.426014 148.842 0.312145 148.207 0.312145C147.861 0.312145 147.573 0.255205 147.342 0.14133C146.881 0.0274546 146.419 -0.143364 145.727 0.369075C145.093 0.824577 145.151 1.33701 145.208 1.73558C145.208 1.96333 145.266 2.19109 145.208 2.53271C145.093 2.98822 145.093 3.27291 145.093 3.50066C145.093 3.72841 145.093 3.95616 144.978 4.41166L144.632 6.23366C144.516 6.68917 144.516 6.91692 144.459 7.14467C144.459 7.37242 144.401 7.60017 144.286 8.05567C144.17 8.51117 144.17 8.73892 144.113 9.02361C144.113 9.25136 144.113 9.47911 143.997 9.93461C143.882 10.3901 143.882 10.6179 143.824 10.8456C143.824 11.0734 143.767 11.3011 143.651 11.7566C143.594 12.1552 143.478 12.3829 143.363 12.5537C143.248 12.7815 143.132 13.0093 143.075 13.5217C142.959 13.9772 142.959 14.2619 142.959 14.4896C142.959 14.7174 142.959 14.9451 142.844 15.3437C142.786 15.7423 142.671 15.9131 142.555 16.1408C142.498 16.3116 142.382 16.4255 142.325 16.7102C142.267 16.4825 142.152 16.3116 142.094 16.1408C141.979 15.9131 141.863 15.7423 141.806 15.3437C141.748 14.9451 141.748 14.7174 141.806 14.4896C141.806 14.2619 141.863 13.9772 141.806 13.4648C141.69 13.0092 141.633 12.7815 141.575 12.5537C141.517 12.326 141.46 12.0982 141.344 11.6997C141.229 11.2442 141.229 11.0734 141.229 10.8456C141.229 10.6179 141.229 10.3332 141.114 9.87768C140.998 9.36524 140.883 9.13749 140.71 8.90974C140.595 8.68198 140.479 8.51116 140.422 8.1126C140.364 7.71404 140.364 7.48629 140.364 7.25854C140.364 7.03079 140.364 6.7461 140.249 6.2906C140.133 5.8351 140.076 5.60735 140.018 5.3796C139.96 5.15185 139.903 4.9241 139.787 4.52553C139.672 4.07003 139.614 3.84228 139.557 3.61453C139.499 3.38678 139.441 3.15903 139.326 2.76047C139.268 2.47578 139.326 2.24802 139.384 1.96334C139.499 1.56477 139.614 1.05233 138.98 0.596828C138.288 0.141326 137.826 0.312138 137.423 0.426013C137.192 0.539889 136.904 0.596828 136.558 0.596828C136.039 0.596828 135.808 0.596827 135.52 0.482951C135.231 0.426014 134.943 0.369075 134.366 0.369075C134.078 0.369075 133.789 0.369082 133.616 0.312145C133.097 0.198269 132.694 0.198265 132.059 0.767642C131.425 1.28008 131.598 1.67864 131.713 2.0772C131.771 2.24802 131.828 2.47578 131.828 2.76047V4.58247C131.828 5.03797 131.828 5.20879 131.771 5.43654C131.771 5.66429 131.713 5.89203 131.713 6.40447C131.713 6.91691 131.713 7.14467 131.713 7.37242C131.713 7.60017 131.713 7.82792 131.713 8.22649V10.0485C131.713 10.5609 131.713 10.7887 131.828 11.0164C131.828 11.2442 131.944 11.415 131.944 11.8705V13.6925C131.944 14.0911 131.944 14.2619 131.828 14.4896C131.771 14.7174 131.655 15.0021 131.655 15.5145C131.655 15.97 131.655 16.1978 131.655 16.4255C131.655 16.6533 131.655 16.881 131.655 17.3365C131.655 17.792 131.655 18.0767 131.713 18.3045C131.713 18.5322 131.713 18.76 131.713 19.1585C131.713 19.5571 131.713 19.8418 131.713 20.0126C131.713 20.2403 131.713 20.4681 131.713 20.9805V22.8025C131.713 22.8025 131.713 23.258 131.598 23.4858C131.482 23.8843 131.367 24.2829 131.944 24.8523C132.463 25.4217 132.867 25.2509 133.27 25.1939C133.443 25.1939 133.674 25.08 133.905 25.08C134.135 25.08 134.366 25.08 134.539 25.1939C135 25.3078 135.346 25.3078 135.808 24.7954C136.327 24.226 136.327 23.8844 136.212 23.4289C136.212 23.258 136.154 23.0303 136.154 22.8025C136.154 22.2901 136.154 22.0623 136.039 21.7776C136.039 21.5499 135.923 21.3222 135.923 20.9236C135.923 20.4681 135.923 20.2403 135.923 20.0126C135.923 19.7848 135.923 19.5571 135.923 19.0446C135.923 18.5322 135.923 18.3614 135.923 18.1336C135.923 17.9059 135.923 17.6781 135.923 17.1657C135.923 16.6533 135.923 16.4255 135.923 16.1978C135.923 15.97 135.923 15.7423 135.923 15.2868C135.923 14.8313 135.923 14.6035 135.981 14.3758C135.981 14.148 136.039 13.8633 136.039 13.4078C136.039 12.9523 136.039 12.6676 135.923 12.3829C135.923 12.1552 135.808 11.9274 135.808 11.5289C135.808 11.0734 135.808 10.8456 135.808 10.6179C135.808 10.3901 135.808 10.1624 135.808 9.64992C135.808 9.13749 135.808 8.96667 135.808 8.73892C135.808 8.51117 135.808 8.28342 135.808 7.77098V7.60017C135.808 7.60017 135.808 7.77098 135.808 7.88486C135.923 8.34036 135.923 8.5681 135.981 8.79585C135.981 9.0236 136.039 9.25136 136.154 9.7638C136.269 10.2762 136.385 10.504 136.5 10.7317C136.615 10.9595 136.673 11.1303 136.788 11.5858C136.904 12.0413 136.904 12.2691 136.961 12.4968C136.961 12.7246 137.019 12.9523 137.134 13.4648C137.25 13.9203 137.25 14.148 137.25 14.3758C137.25 14.6035 137.25 14.8882 137.365 15.3437C137.48 15.8561 137.596 16.0839 137.653 16.3116C137.769 16.5394 137.826 16.7102 137.942 17.1657C138.057 17.6212 137.999 17.792 137.999 18.0767C137.999 18.3045 137.999 18.5891 138.057 19.1016C138.172 19.5571 138.23 19.8418 138.288 20.0695C138.345 20.2973 138.403 20.525 138.518 20.9805C138.634 21.436 138.691 21.7207 138.749 21.9485C138.807 22.1762 138.864 22.404 138.98 22.8595C139.037 23.1442 138.98 23.4289 138.98 23.6566C138.864 24.0552 138.749 24.5676 139.441 25.0231C140.191 25.5355 140.595 25.4217 141.114 25.2509C141.402 25.1939 141.633 25.08 142.036 25.08C142.44 25.08 142.671 25.137 142.959 25.2509C143.19 25.3078 143.363 25.3647 143.651 25.3647C143.94 25.3647 144.228 25.2509 144.632 25.0231C145.266 24.5676 145.151 24.0552 145.093 23.6566C145.093 23.4289 144.978 23.1442 145.093 22.8595C145.208 22.404 145.208 22.1193 145.266 21.8915C145.266 21.6638 145.324 21.436 145.439 20.9805C145.554 20.525 145.612 20.2973 145.67 20.0695C145.727 19.8418 145.785 19.614 145.9 19.1016C146.016 18.5891 146.016 18.3614 146.073 18.1336C146.073 17.9059 146.131 17.6781 146.246 17.2226C146.362 16.7671 146.362 16.5394 146.419 16.3116C146.419 16.0839 146.477 15.8561 146.592 15.4006C146.65 15.0021 146.766 14.7743 146.881 14.6035C146.996 14.3758 147.112 14.148 147.227 13.6356C147.342 13.1801 147.4 12.9523 147.458 12.7246C147.458 12.4968 147.573 12.2691 147.688 11.7566C147.804 11.2442 147.804 11.0164 147.804 10.7317C147.804 10.504 147.804 10.2762 147.919 9.82074C148.034 9.36524 148.092 9.13749 148.15 8.90974C148.207 8.68198 148.265 8.45423 148.38 7.94179C148.438 7.60017 148.496 7.37242 148.496 7.20161C148.496 7.37242 148.611 7.54323 148.611 7.88486C148.611 8.34036 148.611 8.51117 148.496 8.73892C148.496 8.96667 148.38 9.25136 148.38 9.7638C148.38 10.2762 148.38 10.504 148.38 10.7317C148.38 10.9595 148.38 11.1872 148.38 11.6427C148.38 12.0982 148.38 12.326 148.38 12.5537C148.38 12.7815 148.38 13.0093 148.38 13.5217C148.38 14.0341 148.38 14.2049 148.38 14.4327C148.38 14.6604 148.38 14.8882 148.38 15.4006C148.38 15.9131 148.38 16.1408 148.38 16.3686C148.38 16.5963 148.38 16.8241 148.38 17.2796C148.38 17.792 148.38 18.0198 148.438 18.2475C148.438 18.4753 148.496 18.703 148.496 19.1585C148.496 19.5571 148.438 19.7848 148.38 20.0126C148.323 20.2403 148.207 20.525 148.207 21.0375C148.207 21.5499 148.207 21.7777 148.323 22.0054C148.323 22.2332 148.38 22.4609 148.38 22.8595C148.38 23.1442 148.265 23.3719 148.207 23.5997C148.034 23.9982 147.861 24.5107 148.38 25.0231C149.015 25.6494 149.476 25.3647 149.88 25.137C150.11 25.0231 150.341 24.9092 150.687 24.7954C150.976 24.7384 151.206 24.8523 151.495 25.0231C151.841 25.1939 152.36 25.4786 152.879 25.0231C153.455 24.4537 153.225 23.9982 153.052 23.5997C152.936 23.3719 152.821 23.1442 152.821 22.8595C152.821 22.4609 152.821 22.2332 152.936 22.0054C152.936 21.7777 153.052 21.493 153.052 21.0375C153.052 20.582 152.994 20.2973 152.936 20.0695C152.936 19.8418 152.821 19.671 152.821 19.2155C152.821 18.76 152.821 18.5322 152.821 18.3614C152.821 18.1336 152.821 17.9059 152.821 17.3934C152.821 16.9379 152.821 16.7671 152.821 16.5394C152.821 16.3116 152.821 16.0839 152.821 15.5714C152.821 15.059 152.763 14.8313 152.706 14.6035C152.648 14.3758 152.59 14.2049 152.59 13.7494C152.59 13.2939 152.59 13.0662 152.59 12.8384C152.59 12.6107 152.59 12.3829 152.59 11.9274C152.59 11.4719 152.59 11.3011 152.648 11.0734C152.648 10.8456 152.706 10.6179 152.706 10.1054C152.706 9.59299 152.648 9.36523 152.59 9.13748C152.59 8.90973 152.475 8.73892 152.475 8.28342C152.475 7.82791 152.533 7.71405 152.648 7.4863C152.763 7.25855 152.821 6.97386 152.821 6.46142C152.821 6.00592 152.821 5.72122 152.763 5.49347C152.763 5.26572 152.706 5.03797 152.706 4.63941C152.706 4.18391 152.706 3.95616 152.706 3.72841C152.706 3.50066 152.706 3.27291 152.706 2.8174C152.706 2.53272 152.821 2.30496 152.879 2.0772C153.052 1.67864 153.225 1.22314 152.648 0.710696L152.936 0.482951ZM135.635 4.29778C135.635 4.29778 135.75 4.29778 135.808 4.29778C135.808 4.35472 135.808 4.4686 135.75 4.52553C135.75 4.4686 135.693 4.35472 135.635 4.29778ZM142.382 18.3045C142.382 18.3045 142.382 18.3045 142.382 18.3614C142.382 18.4753 142.498 18.703 142.555 18.703C142.555 18.703 142.555 18.703 142.44 18.703C142.382 18.703 142.325 18.703 142.325 18.703C142.325 18.703 142.325 18.4183 142.382 18.3045ZM148.611 4.69634V4.18391C148.611 4.18391 148.611 4.18391 148.784 4.18391H148.842C148.842 4.29779 148.726 4.4686 148.669 4.63941C148.669 4.63941 148.669 4.69635 148.669 4.75329L148.611 4.69634Z" fill="#15466B"/>
<path d="M170.988 17.0518C170.988 16.4824 170.988 15.8561 170.815 15.2298V15.059C170.642 14.5466 170.469 13.9772 170.18 13.4648C169.95 13.0662 169.546 12.8384 169.2 12.5537C169.085 12.4399 168.969 12.3829 168.854 12.2691C168.738 12.1552 168.623 12.0413 168.508 11.9274C168.392 11.8136 168.219 11.6428 168.046 11.5289C168.508 11.2442 168.854 10.9026 169.142 10.6179C169.661 10.0485 169.95 9.42217 170.123 8.8528L170.238 8.56811C170.411 8.05568 170.642 7.54323 170.642 6.85998C170.642 6.85998 170.642 6.80304 170.642 6.7461C170.642 6.7461 170.642 6.63222 170.642 6.51835C170.642 5.94897 170.584 5.3796 170.469 4.81023C170.353 4.35472 170.123 3.95616 169.892 3.61453C169.834 3.50066 169.719 3.38678 169.661 3.2729C169.373 2.76046 168.912 2.3619 168.508 2.02027C168.104 1.67865 167.643 1.28008 167.008 1.05233C166.489 0.824575 165.913 0.710703 165.278 0.596828C164.759 0.482952 164.182 0.482951 163.548 0.482951C163.144 0.482951 162.971 0.48295 162.798 0.369075C162.568 0.312137 162.337 0.198261 161.818 0.198261C161.414 0.198261 161.183 0.198261 160.953 0.198261C160.722 0.198261 160.491 0.198261 160.088 0.198261C159.626 0.198261 159.396 0.198261 159.165 0.255199C158.934 0.255199 158.761 0.312145 158.358 0.312145C158.069 0.312145 157.896 0.255205 157.665 0.14133C157.319 0.0274546 156.858 -0.200302 156.339 0.369075C155.82 0.938452 156.051 1.39395 156.224 1.73558C156.339 1.96333 156.454 2.1911 156.454 2.47578V4.29778C156.454 4.69635 156.397 4.86716 156.339 5.09491C156.281 5.32266 156.166 5.60735 156.166 6.11979C156.166 6.63223 156.281 6.91692 156.339 7.14467C156.397 7.37242 156.454 7.54323 156.454 7.94179C156.454 8.34036 156.454 8.56811 156.339 8.79586C156.339 9.02361 156.224 9.3083 156.224 9.7638C156.224 10.2193 156.224 10.4471 156.224 10.6748C156.224 10.9026 156.224 11.1303 156.224 11.5858C156.224 12.0413 156.224 12.2691 156.224 12.4968C156.224 12.7246 156.224 12.9523 156.224 13.4078C156.224 13.8633 156.224 14.0911 156.224 14.3188C156.224 14.5466 156.224 14.7743 156.224 15.2298C156.224 15.6853 156.224 15.9131 156.224 16.1978C156.224 16.4255 156.224 16.6533 156.224 17.0518C156.224 17.5073 156.224 17.792 156.281 18.0198C156.281 18.2475 156.339 18.4753 156.339 18.8738C156.339 19.2724 156.281 19.4432 156.224 19.671C156.166 19.8987 156.051 20.1834 156.051 20.6958C156.051 21.1513 156.051 21.436 156.166 21.6638C156.166 21.8915 156.224 22.0623 156.224 22.5178C156.224 22.8025 156.108 23.0303 156.051 23.258C155.878 23.6566 155.705 24.1121 156.224 24.6815C156.512 24.9662 156.8 25.08 157.031 25.08C157.262 25.08 157.492 24.9662 157.723 24.8523C157.896 24.7384 158.127 24.6815 158.473 24.6245C158.877 24.5107 159.05 24.6245 159.338 24.6245C159.569 24.6815 159.857 24.7954 160.261 24.7954C160.78 24.7954 161.01 24.7954 161.241 24.6815C161.472 24.6815 161.703 24.5676 162.106 24.5676C162.568 24.5676 162.798 24.5676 163.029 24.5676C163.26 24.5676 163.49 24.5676 163.952 24.5676C164.528 24.5676 165.163 24.5676 165.797 24.4537C166.432 24.3399 167.008 24.1121 167.527 23.8274C167.643 23.7705 167.758 23.7135 167.873 23.6566C168.335 23.4289 168.738 23.258 169.142 22.8595C169.604 22.404 170.007 21.8346 170.296 21.2652C170.526 20.8097 170.642 20.2403 170.699 19.7279V19.3863C170.872 18.703 170.93 18.0767 170.93 17.5073C170.93 17.2226 170.815 17.1088 170.757 16.9949C170.757 16.938 170.757 16.938 170.757 16.881L170.988 17.0518Z" fill="#15466B"/>
<path d="M185.636 5.60734C185.636 5.60734 185.809 5.15184 185.925 4.6394C186.04 4.1839 186.155 3.95615 186.213 3.7284C186.271 3.50065 186.386 3.2729 186.501 2.76046C186.559 2.47577 186.732 2.24802 186.847 2.0772C187.078 1.67864 187.367 1.28008 186.847 0.596828C186.328 -0.0864245 185.867 0.0843775 185.406 0.198253C185.175 0.255191 184.944 0.312137 184.656 0.312137C184.368 0.312137 184.137 0.312136 183.964 0.255199C183.502 0.141323 183.156 0.141326 182.58 0.596828C182.003 1.05233 182.003 1.45088 182.061 1.84944C182.061 2.0772 182.061 2.24802 182.061 2.53271C181.945 2.98821 181.888 3.21596 181.83 3.38677C181.772 3.61452 181.715 3.84227 181.599 4.29777L181.196 6.11978C181.08 6.51834 181.023 6.74609 180.907 6.91691C180.792 7.14466 180.677 7.37242 180.561 7.82792L180.158 9.59298C180.042 10.0485 180.042 10.3332 179.984 10.5609C179.984 10.7887 179.985 11.0164 179.869 11.415C179.754 11.8705 179.696 12.0982 179.638 12.2691C179.581 12.4968 179.523 12.7246 179.408 13.1801C179.292 13.5786 179.408 14.0341 179.408 14.3757C179.408 14.5466 179.465 14.8312 179.465 14.8312C179.465 14.8312 179.465 14.8312 179.35 14.8312C179.235 14.8312 179.177 14.8312 179.177 14.8312C179.177 14.7743 179.177 14.4896 179.177 14.2619C179.177 13.9772 179.177 13.5786 179.177 13.1801C179.062 12.7246 179.062 12.5537 179.004 12.326C179.004 12.0982 178.946 11.8135 178.831 11.358C178.716 10.9025 178.6 10.6179 178.485 10.447C178.37 10.2193 178.312 10.0485 178.197 9.64992C178.081 9.25136 178.081 9.0236 178.081 8.79585C178.081 8.5681 178.081 8.28341 177.966 7.77097C177.851 7.31547 177.735 7.08772 177.678 6.85997C177.62 6.63222 177.505 6.46141 177.389 6.0059C177.274 5.5504 177.216 5.32266 177.101 5.09491C177.043 4.86716 176.928 4.69634 176.813 4.24084C176.697 3.84227 176.697 3.61452 176.697 3.38677C176.697 3.15902 176.697 2.87433 176.524 2.41883C176.466 2.13414 176.466 1.90639 176.524 1.67864C176.524 1.28007 176.524 0.824569 175.947 0.369067C175.313 -0.086434 174.909 0.027447 174.448 0.141322C174.217 0.19826 173.987 0.255199 173.641 0.255199C173.352 0.255199 173.122 0.19826 172.891 0.141322C172.487 0.027447 171.968 -0.14337 171.449 0.539882C170.93 1.22313 171.276 1.6217 171.564 1.90639C171.737 2.0772 171.91 2.24802 171.968 2.58964C172.083 3.04515 172.141 3.2729 172.199 3.50066C172.256 3.72841 172.314 3.95616 172.43 4.41166C172.545 4.86716 172.66 5.0949 172.718 5.32265C172.776 5.5504 172.891 5.77815 173.006 6.17672C173.122 6.63222 173.237 6.85996 173.295 7.08771C173.352 7.31546 173.468 7.54322 173.583 7.94179C173.698 8.34035 173.698 8.5681 173.698 8.79585C173.698 9.0236 173.698 9.30829 173.871 9.82073C173.987 10.2762 174.044 10.504 174.102 10.6748C174.16 10.9025 174.217 11.1303 174.333 11.5858C174.448 12.0413 174.563 12.2691 174.679 12.4968C174.794 12.7246 174.852 12.8954 175.025 13.2939C175.14 13.7494 175.198 13.9203 175.255 14.148C175.255 14.3758 175.371 14.6035 175.486 15.059C175.601 15.5145 175.774 15.7422 175.89 15.97C176.005 16.1978 176.12 16.3686 176.236 16.7671L176.755 18.5322C176.986 19.2724 176.986 19.3293 176.986 20.0126V20.1834C176.524 20.6958 176.063 21.0375 175.313 21.0375C174.967 21.0375 174.506 20.9236 174.102 20.8097C173.929 20.8097 173.756 20.6958 173.641 20.6958C173.468 20.6958 173.295 20.6958 173.237 20.9236C173.006 21.493 173.122 21.7777 173.237 22.0623C173.237 22.2332 173.352 22.404 173.352 22.6887C173.352 22.9733 173.352 23.1442 173.237 23.315C173.179 23.5997 173.122 23.8843 173.237 24.4537C173.237 24.5676 173.352 24.6245 173.468 24.6815C174.333 24.9662 175.198 25.137 176.063 25.137C176.813 25.137 177.447 24.9092 178.024 24.7384C178.543 24.5107 178.946 24.169 179.292 23.8843L179.465 23.7705C179.465 23.7705 179.696 23.5997 179.869 23.4858C180.215 23.2011 180.619 22.9164 180.907 22.4609C181.138 22.0054 181.311 21.5499 181.426 21.0944C181.484 20.8666 181.542 20.6389 181.657 20.4111C181.715 20.1834 181.83 19.9556 181.945 19.7279C182.176 19.2155 182.407 18.6461 182.58 18.0198L182.695 17.5643C182.868 17.0518 182.868 16.881 183.041 16.0839C183.156 15.6284 183.156 15.4006 183.214 15.1729C183.214 14.8882 183.272 14.6604 183.445 14.148C183.56 13.6925 183.676 13.4647 183.733 13.237C183.849 13.0092 183.906 12.7815 184.079 12.2691C184.195 11.7566 184.252 11.4719 184.252 11.1872C184.252 10.9595 184.252 10.7317 184.368 10.2762C184.483 9.82073 184.598 9.64991 184.714 9.4791C184.829 9.25135 185.002 9.02361 185.175 8.51117C185.29 7.99873 185.348 7.71404 185.348 7.48629C185.348 7.25854 185.348 7.03079 185.521 6.57529C185.636 6.11978 185.752 5.89203 185.809 5.66428L185.636 5.60734Z" fill="#15466B"/>
<path d="M204.841 26.8451C204.841 26.3327 204.841 26.1049 204.783 25.8202C204.783 25.5925 204.726 25.3647 204.726 24.9092C204.726 24.4537 204.726 24.226 204.783 23.9982C204.841 23.7705 204.841 23.4858 204.841 22.9733C204.841 22.6887 204.899 22.4609 204.956 22.2901C205.072 21.8346 205.129 21.436 204.553 20.9236C203.976 20.4112 203.515 20.6389 203.169 20.7528C202.88 20.8667 202.765 20.9236 202.477 20.7528C202.188 20.525 202.188 20.4681 202.303 20.1265C202.361 19.8987 202.477 19.614 202.477 19.2724C202.477 18.8169 202.477 18.5891 202.477 18.3614C202.477 18.1336 202.477 17.9059 202.477 17.3934C202.477 16.881 202.477 16.7102 202.477 16.4825C202.477 16.2547 202.477 16.0269 202.477 15.5714C202.477 15.1159 202.477 14.8313 202.477 14.6035C202.477 14.3758 202.477 14.148 202.477 13.6925C202.477 13.237 202.477 13.0662 202.534 12.8384C202.534 12.6107 202.592 12.3829 202.592 11.8705C202.592 11.3581 202.592 11.1303 202.477 10.9026C202.477 10.6748 202.361 10.504 202.361 10.0485C202.361 9.59299 202.361 9.36523 202.361 9.13748C202.361 8.90973 202.361 8.68199 202.361 8.22649C202.361 7.77098 202.361 7.54323 202.361 7.31548C202.361 7.08773 202.361 6.85998 202.361 6.34754V4.52553C202.361 4.07003 202.361 3.89923 202.419 3.67148C202.419 3.44373 202.534 3.15903 202.534 2.70353C202.534 2.41884 202.592 2.19109 202.65 1.96334C202.765 1.56477 202.938 1.05233 202.361 0.482951C201.784 -0.0864255 201.323 0.141323 200.919 0.255199C200.689 0.369074 200.458 0.426013 200.17 0.426013C199.708 0.426013 199.478 0.426013 199.247 0.426013C199.016 0.426013 198.786 0.426013 198.324 0.426013C197.805 0.426013 197.574 0.482952 197.344 0.53989C197.113 0.53989 196.94 0.653766 196.479 0.653766C196.017 0.653766 195.787 0.653766 195.556 0.653766C195.325 0.653766 195.095 0.653766 194.633 0.653766C194.172 0.653766 193.999 0.653766 193.768 0.653766C193.537 0.653766 193.307 0.596828 192.788 0.596828C192.269 0.596828 192.038 0.596821 191.807 0.710696C191.577 0.710696 191.404 0.82458 190.942 0.82458C190.596 0.82458 190.423 0.767641 190.192 0.653766C189.904 0.539891 189.558 0.369077 188.924 0.653766C188.808 0.653766 188.693 0.824574 188.693 0.938449C188.693 1.28008 188.693 1.62171 188.693 1.96334C188.693 2.30496 188.693 2.70352 188.693 3.04515C188.693 3.38678 188.693 3.7284 188.693 4.07003C188.693 4.41166 188.693 4.75329 188.693 5.03798C188.693 5.3796 188.693 5.72122 188.578 6.06285C188.578 6.40448 188.462 6.7461 188.462 7.03079C188.462 7.42936 188.462 7.77098 188.462 8.16955C188.462 8.45424 188.462 8.79586 188.462 9.08055V9.93462C188.462 10.3332 188.462 10.7317 188.462 11.1303C188.462 11.5289 188.462 11.8705 188.52 12.2691C188.52 12.6107 188.578 12.8954 188.52 13.1801C188.52 13.5217 188.52 13.8064 188.52 14.148C188.52 14.5466 188.52 14.8882 188.52 15.2298C188.52 15.7992 188.405 16.3116 188.347 16.7671L188.174 17.849C188.116 18.3614 188.059 18.8738 187.943 19.3293C187.77 20.0695 187.482 20.8097 187.309 21.2083C187.309 21.2083 186.963 21.1513 186.732 20.9805C186.444 20.8097 185.925 20.525 185.406 21.0375C184.887 21.6068 185.002 22.0623 185.117 22.5178C185.175 22.7456 185.233 22.9734 185.233 23.258C185.233 23.7705 185.233 24.0552 185.29 24.2829C185.29 24.5107 185.348 24.7384 185.348 25.1939C185.348 25.6494 185.348 25.8772 185.348 26.1049C185.348 26.3327 185.348 26.6174 185.348 27.0729C185.348 27.3575 185.348 27.5853 185.233 27.7561C185.117 28.2116 185.06 28.5532 185.579 29.1226C186.098 29.692 186.501 29.5212 186.847 29.3504C187.02 29.2934 187.251 29.1796 187.482 29.1796C187.713 29.1796 188.001 29.2934 188.232 29.4073C188.578 29.5781 189.154 29.8628 189.616 29.2934C190.135 28.6671 189.904 28.1547 189.673 27.7561C189.558 27.4714 189.385 27.2437 189.385 26.8451C189.385 26.4465 189.327 26.1619 189.27 25.9341C189.154 25.5355 189.154 25.3647 189.5 24.9662C189.731 24.6815 189.789 24.7384 190.135 24.8523C190.365 24.9092 190.654 25.0231 191.115 25.0231C191.577 25.0231 191.807 25.0231 192.038 25.0231C192.269 25.0231 192.499 25.0231 193.018 25.0231C193.537 25.0231 193.71 25.0231 193.941 25.0231C194.172 25.0231 194.402 25.0231 194.922 25.0231C195.441 25.0231 195.671 25.0231 195.902 25.0231C196.133 25.0231 196.363 25.0231 196.825 25.0231C197.344 25.0231 197.574 25.0231 197.805 24.9662C198.036 24.9662 198.266 24.9092 198.67 24.9092C199.016 24.9092 199.247 24.9092 199.478 24.7954C199.824 24.7384 199.881 24.6815 200.17 25.0231C200.516 25.4217 200.458 25.4786 200.343 25.8772C200.285 26.1049 200.17 26.3896 200.17 26.8451C200.17 27.1867 200.054 27.4714 199.939 27.6992C199.766 28.1547 199.593 28.6102 200.112 29.2365C200.4 29.5781 200.689 29.692 200.919 29.692C201.15 29.692 201.381 29.5781 201.669 29.5212C201.842 29.4642 202.073 29.3504 202.361 29.2934C202.65 29.2365 202.823 29.2934 203.053 29.4073C203.399 29.5781 203.861 29.7489 204.322 29.2365C204.841 28.6671 204.726 28.1547 204.61 27.7561C204.553 27.5284 204.437 27.3006 204.437 27.0159L204.841 26.8451ZM192.961 11.1303C192.961 10.7887 192.903 10.504 192.903 10.1624C192.903 9.82073 192.903 9.47911 192.903 9.13748C192.903 8.85279 192.903 8.51117 192.903 8.16955C192.903 7.88486 192.903 7.60017 192.903 7.25854C192.903 6.91692 192.903 6.57528 192.903 6.17672C192.903 5.89203 192.903 5.60735 192.903 5.26572C192.903 4.98103 192.903 4.63942 192.903 4.35473C193.249 4.24085 193.422 4.29779 193.653 4.35473C193.883 4.35473 194.114 4.41166 194.46 4.41166C194.864 4.41166 195.095 4.41166 195.325 4.52553C195.556 4.58247 195.844 4.69635 196.363 4.69635C196.767 4.69635 197.113 4.58247 197.286 4.4686C197.574 4.35472 197.632 4.35472 197.863 4.58247C198.151 4.86716 198.151 4.9241 198.036 5.26572C197.978 5.49347 197.863 5.72122 197.863 6.11979C197.863 6.57529 197.863 6.80304 197.863 7.03079C197.863 7.25854 197.863 7.48629 197.863 7.99873C197.863 8.51117 197.863 8.73892 197.978 9.02361C197.978 9.25136 198.093 9.47911 198.093 9.87768V11.7566C198.093 12.1552 198.036 12.3829 197.978 12.6107C197.92 12.8384 197.805 13.1231 197.805 13.6356C197.805 14.148 197.92 14.4327 197.978 14.6604C198.036 14.8882 198.093 15.059 198.093 15.5145C198.093 15.97 198.093 16.1408 197.978 16.3686C197.978 16.5963 197.863 16.881 197.863 17.3934C197.863 17.9059 197.863 18.1336 197.863 18.3614C197.863 18.5891 197.863 18.8169 197.863 19.2724C197.863 19.671 197.978 19.9557 198.036 20.1834C198.151 20.525 198.151 20.582 197.92 20.8667C197.69 21.0944 197.69 21.0375 197.401 20.9236C197.171 20.8097 196.882 20.6958 196.479 20.6958C196.017 20.6958 195.787 20.6958 195.556 20.6958C195.325 20.6958 195.152 20.6958 194.691 20.6958C194.229 20.6958 193.999 20.6958 193.768 20.7528C193.537 20.7528 193.364 20.8097 192.961 20.8097C192.326 20.8097 192.211 20.8097 191.807 20.6389C191.807 20.6389 191.75 20.6389 191.692 20.6389C191.807 20.3542 191.923 20.0126 192.038 19.5571C192.038 19.3863 192.153 19.2155 192.211 18.9877C192.326 18.703 192.442 18.3614 192.499 17.9628C192.557 17.5643 192.615 17.1088 192.672 16.5963L192.788 15.5145C192.788 15.059 192.903 14.6035 192.903 14.0911C192.903 13.6356 192.903 13.1801 192.961 12.6676V12.1552C192.961 11.8136 192.961 11.4719 192.961 11.1872V11.1303Z" fill="#15466B"/>
<path d="M0.230688 24.9662C0.865078 25.5355 1.32645 25.3647 1.73015 25.137C1.96084 25.0231 2.19153 24.9092 2.47989 24.8523C2.76824 24.7953 2.99894 24.8523 3.22962 25.0231C3.57565 25.1939 4.03703 25.4217 4.61375 24.9092C5.19047 24.3398 5.01746 23.9413 4.90211 23.5427C4.84444 23.315 4.72909 23.1441 4.72909 22.8025C4.72909 22.347 4.72909 22.1193 4.78676 21.8915C4.78676 21.6638 4.84443 21.436 4.84443 20.9236C4.84443 20.4111 4.84443 20.1834 4.84443 19.9556C4.84443 19.7279 4.84443 19.5001 4.84443 19.0446V17.2226C4.84443 16.7102 4.84444 16.4824 4.72909 16.2547C4.72909 16.0269 4.61375 15.8561 4.61375 15.4006V13.5786C4.61375 13.1801 4.61375 12.9523 4.72909 12.7815C4.78676 12.5537 4.90211 12.269 4.90211 11.7566C4.90211 11.3011 4.90211 11.0734 4.90211 10.8456C4.90211 10.6179 4.90211 10.3901 4.90211 9.9346C4.90211 9.4791 4.90211 9.19441 4.84443 8.96666C4.84443 8.73891 4.84443 8.51116 4.84443 8.1126C4.84443 7.71403 4.84443 7.42935 4.84443 7.2016C4.84443 6.97384 4.84443 6.74609 4.84443 6.23365C4.84443 5.77815 4.72909 5.49346 4.61375 5.26571C4.49841 4.92408 4.44073 4.92408 4.72909 4.75327C5.1328 4.41164 5.24814 4.46858 5.65185 4.58245C5.88253 4.63939 6.22856 4.75327 6.63226 4.75327C7.15131 4.75327 7.43967 4.75327 7.67036 4.8102C7.95871 4.8102 8.24708 4.86714 8.8238 4.86714C9.34284 4.86714 9.68887 4.69633 10.0349 4.58245C10.4386 4.41164 10.6116 4.3547 10.9 4.58245C11.073 4.75327 11.073 4.8102 10.9 5.20877C10.727 5.49346 10.5539 5.83509 10.5539 6.29059C10.5539 6.80303 10.554 7.03078 10.6693 7.25853C10.6693 7.48628 10.7846 7.71403 10.7846 8.1126C10.7846 8.5681 10.7846 8.79585 10.7846 9.0236C10.7846 9.25135 10.7846 9.4791 10.7846 9.99154C10.7846 10.504 10.7846 10.6748 10.7846 10.9025C10.7846 11.1303 10.7846 11.358 10.7846 11.8135C10.7846 12.269 10.7846 12.5537 10.7846 12.7815C10.7846 13.0092 10.7846 13.237 10.7846 13.6925C10.7846 14.148 10.7846 14.3188 10.727 14.5466C10.727 14.7743 10.6693 15.059 10.6693 15.5145C10.6693 15.97 10.6693 16.2547 10.7846 16.4824C10.7846 16.7102 10.9 16.881 10.9 17.3365C10.9 17.792 10.9 18.0198 10.9 18.2475C10.9 18.4753 10.9 18.703 10.9 19.1585C10.9 19.614 10.9 19.8418 10.9 20.0695C10.9 20.2973 10.9 20.525 10.9 20.9805V22.8025C10.9 23.0872 10.7846 23.315 10.6693 23.5427C10.4963 23.9413 10.2656 24.4537 10.8423 24.9662C11.1883 25.2508 11.4767 25.3647 11.7074 25.3647C11.9381 25.3647 12.1111 25.3078 12.3418 25.2508C12.5725 25.1939 12.8031 25.137 13.0915 25.137C13.3799 25.137 13.6106 25.137 13.8412 25.2508C14.2449 25.3647 14.7063 25.4786 15.283 24.9092C15.8598 24.3398 15.6867 23.9413 15.5714 23.4858C15.5137 23.258 15.4561 23.0303 15.4561 22.7456C15.4561 22.2331 15.3984 22.0054 15.3407 21.7776C15.3407 21.5499 15.2254 21.3791 15.2254 20.9236C15.2254 20.4681 15.2254 20.2403 15.2254 20.0126C15.2254 19.7848 15.2254 19.5571 15.2254 19.1016C15.2254 18.6461 15.2254 18.4753 15.283 18.2475C15.283 18.0198 15.3407 17.792 15.3407 17.2796C15.3407 16.7671 15.3407 16.5394 15.2254 16.3116C15.2254 16.0839 15.11 15.9131 15.11 15.4576C15.11 15.0021 15.11 14.8312 15.2254 14.6604C15.283 14.4327 15.3407 14.148 15.3407 13.6356C15.3407 13.1801 15.3407 12.9523 15.3407 12.7246C15.3407 12.4968 15.3407 12.269 15.3407 11.8135C15.3407 11.358 15.3407 11.1303 15.3407 10.9025C15.3407 10.6748 15.3407 10.447 15.3407 9.99154C15.3407 9.53604 15.3407 9.36523 15.3984 9.13748C15.3984 8.90973 15.5137 8.62504 15.5137 8.16954C15.5137 7.71403 15.5137 7.48628 15.5137 7.25853C15.5137 7.03078 15.5137 6.80303 15.5137 6.34753C15.5137 5.89203 15.5137 5.66427 15.5137 5.43652C15.5137 5.20877 15.5137 4.98102 15.5137 4.52552C15.5137 4.01308 15.5137 3.78533 15.3984 3.55757C15.3984 3.32982 15.3407 3.15901 15.3407 2.70351C15.3407 2.41882 15.3984 2.19107 15.5137 2.02026C15.6291 1.67863 15.8021 1.22313 15.2254 0.710692C14.591 0.141315 14.1873 0.312128 13.7836 0.426004C13.5529 0.482941 13.3222 0.596817 13.0338 0.596817C12.5148 0.596817 12.2264 0.596817 11.9957 0.596817C11.7651 0.596817 11.4767 0.596817 11.0153 0.596817C10.554 0.596817 10.2656 0.596817 9.97723 0.596817C9.74655 0.596817 9.45818 0.596817 8.93913 0.596817C8.47776 0.596817 8.24708 0.539879 8.01639 0.482941C7.78571 0.426004 7.43966 0.369066 6.92061 0.369066C6.40157 0.369066 6.17089 0.369066 5.94021 0.369066C5.70952 0.369066 5.42116 0.369066 4.90211 0.369066C4.38306 0.369066 4.0947 0.369066 3.80634 0.426004C3.57565 0.426004 3.34497 0.482941 2.82592 0.482941C2.47989 0.482941 2.2492 0.369066 2.01852 0.312128C1.61481 0.141315 1.15344 -0.0294979 0.519045 0.539879C-0.0576738 1.05232 0.173014 1.56476 0.346029 1.90638C0.461373 2.13413 0.576723 2.36188 0.576723 2.64657V4.46858C0.576723 4.86714 0.519042 5.03796 0.46137 5.26571C0.403699 5.49346 0.288359 5.77815 0.288359 6.29059C0.288359 6.80303 0.403699 7.08772 0.46137 7.31547C0.519042 7.54322 0.576723 7.71403 0.576723 8.1126C0.576723 8.51116 0.576714 8.73891 0.46137 8.96666C0.46137 9.19441 0.346029 9.4791 0.346029 9.9346C0.346029 10.3901 0.346029 10.6179 0.346029 10.8456C0.346029 11.0734 0.346029 11.3011 0.346029 11.7566C0.346029 12.2121 0.346029 12.4399 0.346029 12.6676C0.346029 12.8954 0.346029 13.1231 0.346029 13.5786C0.346029 14.0341 0.346029 14.2619 0.346029 14.4896C0.346029 14.7174 0.346029 14.9451 0.346029 15.4006C0.346029 15.8561 0.346029 16.0839 0.346029 16.3686C0.346029 16.5963 0.346029 16.8241 0.346029 17.2226C0.346029 17.6781 0.346036 17.9628 0.403707 18.1906C0.403707 18.4183 0.46137 18.6461 0.46137 19.0446C0.46137 19.4432 0.403701 19.614 0.346029 19.8418C0.288357 20.0695 0.173017 20.3542 0.173017 20.8666C0.173017 21.3221 0.173015 21.6068 0.288359 21.8346C0.288359 22.0623 0.346029 22.2331 0.346029 22.6886C0.346029 22.9733 0.230689 23.2011 0.173017 23.4288C1.87755e-06 23.8274 -0.173017 24.2829 0.346029 24.8523L0.230688 24.9662Z" fill="#15466B"/>
<path d="M18.9164 24.9092C19.2047 24.8523 19.4354 24.9092 19.7238 25.08C20.0698 25.2508 20.5312 25.4786 21.1079 25.0231C21.6846 24.5676 21.5693 24.0551 21.5116 23.7135C21.4539 23.4858 21.3962 23.258 21.4539 22.9733C21.5693 22.5178 21.5693 22.2901 21.6269 22.0623C21.6269 21.8346 21.7423 21.6068 21.7999 21.1513C21.8576 20.7528 21.7999 20.4681 21.7999 20.2403C21.7999 19.8987 21.8 19.7848 22.0883 19.5571C22.4343 19.2724 22.5497 19.3293 22.8957 19.4432C23.1264 19.5001 23.4148 19.614 23.8761 19.614C24.3375 19.614 24.5682 19.614 24.7989 19.6709C25.0296 19.6709 25.3179 19.7848 25.837 19.7848C26.2984 19.7848 26.5867 19.6709 26.8174 19.5571C27.1058 19.4432 27.1634 19.4432 27.4518 19.6709C27.7402 19.8987 27.7402 19.9556 27.7402 20.2973C27.7402 20.525 27.7402 20.7528 27.7402 21.1513C27.7978 21.6068 27.8555 21.8346 27.9132 22.0623C27.9132 22.2901 27.9708 22.5178 28.0862 22.9733C28.0862 23.258 28.0862 23.4288 28.0862 23.5996C28.0862 24.0551 28.0862 24.3968 28.6629 24.7953C29.2396 25.1939 29.5856 25.1939 29.9893 25.0231C30.1624 24.9662 30.3931 24.8523 30.6814 24.8523C30.9698 24.8523 31.2581 24.9662 31.4888 25.08C31.8349 25.2508 32.3539 25.4786 32.9306 24.8523C33.4497 24.226 33.1036 23.7705 32.8153 23.4858C32.6423 23.315 32.4693 23.0872 32.4116 22.8025C32.2962 22.404 32.3539 22.1762 32.3539 21.9485C32.3539 21.7207 32.3539 21.436 32.2962 20.9236C32.1809 20.4681 32.1232 20.2403 32.0655 20.0126C32.0079 19.7848 31.9502 19.5571 31.8349 19.1016C31.7195 18.6461 31.6619 18.4183 31.6042 18.1906C31.5465 17.9628 31.4888 17.7351 31.3735 17.3365C31.2581 16.9379 31.2582 16.7102 31.2582 16.4824C31.2582 16.2547 31.2582 15.97 31.1428 15.5145C31.0275 15.059 31.0275 14.8312 30.9698 14.6035C30.9698 14.3757 30.9121 14.148 30.7968 13.6925C30.6814 13.237 30.6238 13.0092 30.6238 12.7815C30.6238 12.5537 30.5084 12.326 30.4507 11.8705C30.3354 11.358 30.22 11.1303 30.1624 10.9025C30.047 10.6748 29.9894 10.504 29.874 10.0485C29.7587 9.59298 29.701 9.36523 29.6433 9.13748C29.5857 8.90973 29.528 8.68197 29.4126 8.22647C29.2973 7.77097 29.2973 7.54322 29.2396 7.31547C29.2396 7.08772 29.182 6.85997 29.0666 6.40446C28.9513 5.94896 28.8936 5.72121 28.8359 5.49346C28.7782 5.26571 28.7206 5.03795 28.6052 4.58245C28.4899 4.12695 28.4322 3.8992 28.3745 3.67145C28.3745 3.4437 28.2592 3.21595 28.1439 2.76045C28.0862 2.47576 28.1439 2.24801 28.2015 1.96332C28.3169 1.56476 28.4322 1.10926 27.8555 0.596817C27.2211 0.141315 26.8174 0.255191 26.4137 0.369066C26.183 0.426004 25.9523 0.482941 25.664 0.482941C25.1449 0.482941 24.9142 0.482941 24.6259 0.539879C24.3952 0.539879 24.1645 0.596817 23.7031 0.596817C23.4148 0.596817 23.1841 0.539879 22.9534 0.426004C22.5497 0.312128 22.146 0.141315 21.5116 0.596817C20.9349 1.05232 21.0502 1.56476 21.1079 1.90638C21.1656 2.13413 21.2232 2.36188 21.1079 2.70351L20.7042 4.52552C20.6465 4.92408 20.5312 5.09489 20.4158 5.32264C20.3005 5.5504 20.1275 5.77815 20.0698 6.29059C19.9545 6.80303 20.0121 7.08772 20.0698 7.31547C20.0698 7.54322 20.0698 7.77097 20.0698 8.16954C19.9545 8.5681 19.8968 8.79585 19.7814 8.96666C19.6661 9.19441 19.5507 9.42216 19.4931 9.9346C19.3777 10.3901 19.3777 10.6179 19.3201 10.9025C19.3201 11.1303 19.2624 11.358 19.147 11.8135C19.0317 12.269 18.974 12.4968 18.9164 12.7246C18.8587 12.9523 18.801 13.18 18.6857 13.6356C18.5703 14.0911 18.5127 14.3188 18.455 14.5466C18.3973 14.7743 18.3396 15.0021 18.2243 15.4576C18.109 15.9131 18.109 16.1408 18.0513 16.4255C18.0513 16.6532 18.0513 16.881 17.8783 17.3365C17.7629 17.792 17.7629 18.0767 17.7629 18.3044C17.7629 18.5322 17.7629 18.7599 17.6476 19.1585C17.5899 19.5571 17.4746 19.7279 17.3592 19.9556C17.2439 20.1834 17.0709 20.4111 16.9555 20.9236C16.8402 21.3791 16.8402 21.6638 16.8402 21.8915C16.8402 22.1193 16.8402 22.347 16.7248 22.7456C16.6671 23.0303 16.4941 23.258 16.3788 23.4858C16.1481 23.8274 15.8021 24.3398 16.3788 24.9662C16.6671 25.3078 16.9555 25.4217 17.2439 25.4217C17.5322 25.4217 17.7629 25.3078 17.9936 25.1939C18.2243 25.08 18.455 25.0231 18.7433 24.9092H18.9164Z" fill="#15466B"/>
<path d="M34.3148 24.9662C34.6031 25.2508 34.8915 25.3647 35.1798 25.3647C35.4682 25.3647 35.6412 25.2508 35.9296 25.137C36.1602 25.0231 36.3909 24.9662 36.6793 24.8523C36.9677 24.7953 37.1983 24.8523 37.429 24.9662C37.7751 25.137 38.2364 25.3078 38.7555 24.7953C39.3322 24.2829 39.1592 23.8274 39.0438 23.4858C38.9862 23.258 38.8708 23.0872 38.8708 22.8025C38.8708 22.404 38.8708 22.1762 38.9285 22.0054C38.9285 21.7776 39.0438 21.5499 39.0438 21.0375V19.2724C39.0438 18.8169 39.0439 18.5891 38.9862 18.3614C38.9862 18.1336 38.9285 17.9628 38.9285 17.5073C38.9285 17.1088 38.8131 16.8241 38.7555 16.6533C38.6401 16.3686 38.6401 16.3116 38.8708 16.0269C39.1015 15.7992 39.1592 15.7992 39.4476 15.8561C39.6206 15.8561 39.8512 15.97 40.1396 15.97C40.5433 15.97 40.7163 15.97 40.947 15.97C41.1777 15.97 41.3507 15.97 41.7544 15.97C41.9274 15.97 42.1005 15.97 42.2158 15.97C42.6772 15.97 43.1385 15.97 43.5999 15.9131C44.0613 15.7992 44.465 15.5714 44.8687 15.3437C44.9841 15.2867 45.1571 15.1729 45.2724 15.1159C45.4454 15.059 45.6184 14.9451 45.7915 14.8882C46.1952 14.7174 46.5988 14.5466 46.9449 14.2619C47.4639 13.8064 47.7523 13.1801 48.0407 12.6676C48.329 12.1552 48.4444 11.5289 48.6174 10.8456C48.6174 10.6748 48.675 10.504 48.7327 10.3332C48.8481 9.9346 48.9634 9.4791 48.9634 8.96666C48.9634 8.5681 48.9634 8.39729 48.9634 8.16954C48.9634 7.94178 48.9634 7.77097 48.9634 7.37241C48.9634 6.74609 48.9057 6.11977 48.7904 5.5504C48.6751 5.03796 48.4444 4.58245 48.2137 4.24083C48.156 4.12695 48.0983 4.01308 47.983 3.8992C47.6369 3.27289 47.1756 2.81739 46.8296 2.47576C46.4258 2.0772 45.9645 1.67863 45.3301 1.39394C44.811 1.10926 44.2343 0.99538 43.5999 0.881505C42.9655 0.76763 42.3888 0.76763 41.8121 0.76763C41.4084 0.76763 41.2354 0.76763 41.0047 0.653754C40.774 0.596817 40.5433 0.482941 40.0243 0.482941C39.5629 0.482941 39.3899 0.482941 39.1592 0.482941C38.9285 0.482941 38.6978 0.482941 38.2364 0.482941C37.7751 0.482941 37.5444 0.482941 37.3137 0.539879C37.083 0.539879 36.91 0.596817 36.5063 0.596817C36.2179 0.596817 36.0449 0.539879 35.8142 0.426004C35.4682 0.255191 35.0068 0.0843775 34.4878 0.653754C33.9687 1.22313 34.1994 1.67863 34.3724 2.02026C34.4878 2.24801 34.6031 2.47576 34.6031 2.76045V4.58245C34.6031 4.98102 34.5454 5.15183 34.4878 5.37958C34.4301 5.60733 34.3148 5.89203 34.3148 6.40447C34.3148 6.9169 34.4301 7.2016 34.4878 7.42935C34.5454 7.6571 34.6031 7.82791 34.6031 8.22647C34.6031 8.62504 34.6031 8.85279 34.4878 9.08054C34.4878 9.30829 34.3724 9.59298 34.3724 10.0485C34.3724 10.504 34.3724 10.7317 34.3724 10.9595C34.3724 11.1872 34.3724 11.415 34.3724 11.8705C34.3724 12.326 34.3724 12.5537 34.3724 12.7815C34.3724 13.0092 34.3724 13.237 34.3724 13.6925C34.3724 14.148 34.3724 14.3757 34.3724 14.6035C34.3724 14.8312 34.3724 15.059 34.3724 15.5145C34.3724 15.97 34.3724 16.1977 34.3724 16.4824C34.3724 16.7102 34.3724 16.9379 34.3724 17.3365C34.3724 17.792 34.3724 18.0767 34.4301 18.3044C34.4301 18.5322 34.4878 18.7599 34.4878 19.1585C34.4878 19.5571 34.4301 19.7279 34.3724 19.9556C34.3148 20.1834 34.1994 20.4681 34.1994 20.9805C34.1994 21.436 34.1994 21.7207 34.3148 21.9485C34.3148 22.1762 34.3724 22.347 34.3724 22.8025C34.3724 23.0872 34.2571 23.315 34.1994 23.5427C34.0264 23.9413 33.8534 24.3968 34.3724 24.9662H34.3148ZM44.292 8.34035C44.292 8.34035 44.4073 8.51116 44.4073 8.62504C44.4073 9.13748 44.2343 9.64992 44.0613 10.0485L43.946 10.3332C43.7153 10.9595 43.4269 11.358 43.0232 11.5858C42.6195 11.8135 42.1005 11.9274 41.3507 11.9274C40.774 11.9274 40.3703 12.0413 40.0243 12.1552C39.5629 12.326 39.3322 12.3829 38.7555 11.9844C38.4671 11.7566 38.4671 11.7566 38.6402 11.358C38.7555 11.0734 38.8708 10.7887 38.8708 10.3332C38.8708 9.82073 38.8708 9.53604 38.8132 9.30829C38.8132 9.08054 38.7555 8.85279 38.7555 8.34035C38.7555 7.88485 38.8132 7.71404 38.8708 7.42935C38.9285 7.2016 39.0438 6.91691 39.0438 6.34753C39.0438 5.89203 38.8708 5.49346 38.6978 5.20877C38.4671 4.81021 38.4671 4.8102 38.6978 4.63939C38.9862 4.46858 39.1592 4.3547 39.3322 4.3547C39.5052 4.3547 39.6782 4.41164 39.9089 4.52552C40.255 4.63939 40.6586 4.8102 41.293 4.8102C41.5237 4.8102 41.6968 4.8102 41.9274 4.8102C42.3311 4.8102 42.7349 4.81021 42.9655 4.86714C43.4269 5.09489 43.8306 5.49346 44.0613 6.0059C44.1766 6.23365 44.119 6.57528 44.0613 6.97384C44.0613 7.2016 44.0613 7.42935 44.0613 7.6571C44.0613 7.99872 44.1766 8.16954 44.292 8.34035Z" fill="#15466B"/>
<path d="M52.3084 25.137C52.3084 25.137 52.7697 24.9092 53.1158 24.9092C53.4618 24.9092 53.6348 25.0231 53.8655 25.08C54.2692 25.2508 54.7306 25.4217 55.3073 24.8523C55.884 24.2829 55.6533 23.8274 55.4803 23.4288C55.365 23.2011 55.2496 22.9733 55.2496 22.6317V20.6958C55.2496 20.2403 55.3073 20.0695 55.365 19.8418C55.4226 19.614 55.538 19.3293 55.538 18.8169C55.538 18.3044 55.4226 18.0198 55.365 17.7351C55.3073 17.5073 55.2496 17.2796 55.2496 16.881C55.2496 16.4824 55.2496 16.2547 55.365 15.97C55.365 15.7422 55.4803 15.4576 55.4803 14.9451C55.4803 14.4896 55.3073 14.148 55.192 13.8064C55.1343 13.6925 55.0189 13.4647 55.0189 13.4078C55.0189 13.4078 55.0189 13.4078 55.192 13.3509C55.2496 13.3509 55.3073 13.3509 55.3073 13.3509C55.3073 13.4078 55.3073 13.6356 55.3073 13.7494C55.3073 14.0911 55.3073 14.4896 55.538 14.8882C55.7687 15.2867 55.8263 15.5145 55.9417 15.6853C56.057 15.9131 56.1147 16.1408 56.3454 16.5394C56.5761 16.9379 56.6914 17.1657 56.8068 17.3934C56.9221 17.5643 57.0375 17.792 57.2681 18.1906C57.4988 18.6461 57.6142 18.8169 57.7872 19.0446C57.9025 19.2154 58.0755 19.3863 58.2486 19.7848C58.4216 20.1264 58.4793 20.3542 58.4793 20.5819C58.4793 20.8097 58.5369 21.0944 58.7676 21.5499C58.9983 22.0054 59.1713 22.1762 59.2867 22.404C59.402 22.5748 59.575 22.7456 59.748 23.1441C59.8634 23.4288 59.921 23.6566 59.921 23.8843C59.921 24.2829 59.9787 24.7384 60.6708 25.0231C61.0745 25.2508 61.3628 25.3078 61.6512 25.3078C61.8819 25.3078 62.1126 25.2508 62.4009 25.137C62.6316 25.08 62.8623 24.9662 63.2083 24.9092C63.612 24.8523 63.9004 24.9662 64.1887 25.08C64.5924 25.2508 65.1692 25.4786 65.7459 24.7953C66.3226 24.0551 65.8612 23.5996 65.4575 23.258C65.2845 23.0872 65.0538 22.8595 64.9385 22.5748C64.7078 22.1193 64.5348 21.8915 64.4194 21.6638C64.3041 21.436 64.1311 21.2652 63.9004 20.8097L62.9776 19.0446C62.7469 18.5891 62.5163 18.3614 62.3433 18.1336C62.1702 17.9628 62.0549 17.792 61.8242 17.3365L60.9015 15.5714C60.6708 15.1729 60.6131 14.9451 60.5554 14.7174C60.5554 14.4327 60.4401 14.148 60.1517 13.6925C59.921 13.2939 59.748 13.1231 59.575 12.9523C59.3443 12.7245 59.2867 12.6107 59.2867 12.1552C59.2867 11.6997 59.3443 11.5858 59.575 11.358C59.6904 11.1872 59.8634 11.0164 60.0364 10.6748C60.2671 10.2762 60.3824 10.1054 60.4978 9.9346C60.6131 9.70685 60.7861 9.53604 61.0168 9.13748L61.9395 7.54322C62.1702 7.08772 62.2856 6.85997 62.3433 6.63221C62.4009 6.40446 62.5163 6.23365 62.6893 5.83509C62.92 5.43652 63.0353 5.26571 63.1507 5.09489C63.266 4.92408 63.439 4.69633 63.6697 4.29777C63.9004 3.84226 63.9581 3.61451 64.0157 3.32982C64.0157 3.10207 64.1311 2.93126 64.3041 2.5327C64.4194 2.30495 64.7078 2.0772 64.9385 1.96332C65.2268 1.79251 65.5152 1.56476 65.5729 1.22313C65.5729 0.99538 65.5729 0.824568 65.3999 0.596817C64.8808 -0.143373 64.2464 0.141315 63.8427 0.369066C63.5543 0.482941 63.266 0.596817 62.92 0.596817C62.5739 0.596817 62.3432 0.539879 62.1126 0.426004C61.7089 0.312128 61.3628 0.141315 60.6708 0.539879C60.0364 0.881505 59.921 1.28007 59.8634 1.62169C59.8634 1.79251 59.748 2.02026 59.6327 2.30495C59.402 2.76045 59.3443 2.93126 59.229 3.15901C59.1713 3.38676 59.056 3.55757 58.8253 3.95614C58.5946 4.3547 58.4792 4.52552 58.3639 4.69633C58.1909 4.86714 58.0755 5.09489 57.8449 5.5504C57.6142 6.0059 57.5565 6.23365 57.4988 6.4614C57.4412 6.68915 57.3835 6.85997 57.2105 7.25853C56.9798 7.6571 56.8644 7.88485 56.7491 8.05566C56.6337 8.22647 56.5184 8.45422 56.2877 8.85279C56.057 9.25135 55.9417 9.42216 55.8263 9.64992C55.711 9.87767 55.5957 10.0485 55.365 10.447C55.365 10.447 55.365 10.504 55.3073 10.5609C55.3073 10.504 55.3073 10.3901 55.3073 10.2762V8.34035C55.3073 7.82791 55.3073 7.60016 55.2496 7.31547C55.2496 7.08772 55.192 6.85997 55.192 6.40446C55.192 5.94896 55.192 5.72121 55.192 5.43652C55.192 5.20877 55.192 4.98102 55.192 4.46858C55.192 3.95614 55.1343 3.67145 55.0766 3.4437C55.0766 3.21595 54.9613 2.9882 54.9613 2.58963C54.9613 2.30495 55.0766 2.0772 55.1343 1.84944C55.3073 1.50782 55.4803 1.05232 54.9036 0.482941C54.3269 -0.0864355 53.9232 0.0274403 53.5195 0.141316C53.2888 0.198253 53.1158 0.25519 52.8274 0.25519C52.539 0.25519 52.3084 0.255191 52.1353 0.141316C51.674 0.0274403 51.3279 -0.0294978 50.8089 0.482941C50.2898 0.995381 50.2898 1.33701 50.4052 1.79251C50.4052 1.96332 50.5205 2.19107 50.5205 2.41882C50.5205 2.87432 50.5205 3.10207 50.5205 3.38676C50.5205 3.61451 50.5205 3.84226 50.5205 4.29777C50.5205 4.75327 50.5205 4.98102 50.5205 5.26571C50.5205 5.49346 50.5205 5.72121 50.5205 6.17671C50.5205 6.63221 50.5205 6.80303 50.4629 7.03078C50.4629 7.25853 50.3475 7.54322 50.3475 7.99872C50.3475 8.45422 50.3475 8.68197 50.3475 8.90973C50.3475 9.13748 50.3475 9.36523 50.3475 9.82073C50.3475 10.2762 50.3475 10.504 50.3475 10.7317C50.3475 10.9595 50.3475 11.1872 50.3475 11.6427C50.3475 12.1552 50.3475 12.3829 50.4629 12.6107C50.4629 12.8384 50.5205 13.0662 50.5205 13.4647C50.5205 13.9202 50.5205 14.148 50.5205 14.3757C50.5205 14.6035 50.5205 14.8312 50.5205 15.2867C50.5205 15.7422 50.5205 15.97 50.5205 16.1977C50.5205 16.4255 50.5205 16.6533 50.5205 17.1088C50.5205 17.5643 50.5205 17.792 50.5205 18.0198C50.5205 18.2475 50.5205 18.4753 50.5205 18.9308C50.5205 19.3863 50.5205 19.614 50.5205 19.8418C50.5205 20.0695 50.5205 20.2973 50.5205 20.7528C50.5205 21.1513 50.5205 21.3221 50.4052 21.5499C50.3475 21.7776 50.2322 22.0623 50.2322 22.5748C50.2322 22.8595 50.1745 23.0872 50.0592 23.315C49.9438 23.7135 49.7708 24.226 50.3475 24.7384C50.9242 25.3078 51.4433 25.08 51.7893 24.9092L52.3084 25.137ZM55.365 11.1872C55.365 11.1872 55.365 11.5289 55.3073 11.6997C55.3073 11.8705 55.3073 12.0982 55.3073 12.0982C55.3073 12.0982 55.3073 12.0982 55.1343 12.0982C55.0189 12.0982 55.0189 12.0413 55.0189 12.0413C55.0189 11.9844 55.1343 11.8135 55.192 11.6427C55.2496 11.5289 55.365 11.358 55.4226 11.1872H55.365Z" fill="#15466B"/>
</svg>
