<svg width="106" height="101" viewBox="0 0 106 101" fill="none" xmlns="http://www.w3.org/2000/svg">
<g clip-path="url(#clip0_109_3613)">
<path d="M83.3821 22.2243C80.7719 21.788 80.7099 22.2464 78.0986 21.8612C75.4874 21.4759 75.544 20.3112 72.9105 20.4677C70.277 20.6241 70.3984 21.4929 67.8521 22.1793C65.3058 22.8658 65.3143 24.1401 62.8623 23.1258C60.4103 22.1115 61.6085 21.0366 60.2608 18.7242C58.9131 16.4118 59.2568 16.142 57.4128 14.1812C55.5843 12.2261 55.1311 12.748 52.9024 11.2654C50.6948 9.77328 51.0253 9.1551 48.4926 8.26598C45.666 7.26969 45.4945 8.22074 42.513 7.88951C39.5315 7.55828 39.598 6.89534 36.6517 7.33283C33.7109 7.75516 34.0136 8.41525 31.2959 9.57172C28.5782 10.7282 27.8402 9.53144 25.5445 11.3572C23.2488 13.1829 24.1449 14.0422 22.4403 16.4098C20.7302 18.7926 19.9854 18.3837 18.8819 21.0736C17.7784 23.7635 18.531 24.055 18.0606 27.0273C17.5903 29.9996 17.3527 29.9302 17.4327 32.9314C17.5017 35.9629 17.3039 35.9766 17.9143 38.9651C18.5248 41.9535 18.7757 41.8904 19.616 44.8252C20.4563 47.76 20.3569 47.7925 21.4172 50.6529C22.4929 53.5189 22.2044 53.6371 23.4216 56.4516C24.6388 59.2662 25.2843 58.9862 26.654 61.7189C28.0182 64.4668 27.8292 64.5525 29.1724 67.3099C30.5156 70.0673 30.2846 70.1721 31.5858 72.9485C32.887 75.725 33.307 75.5345 34.6712 78.2824C35.5571 80.0828 35.1791 80.2542 36.107 82.0356C37.0349 83.817 36.323 84.5195 38.1982 85.2891C40.0734 86.0588 40.1333 85.2216 42.0287 84.5899C43.9241 83.9582 43.6888 83.3055 45.5698 82.6171C48.4566 81.5738 48.6388 82.0353 51.5057 80.9504C54.3781 79.8504 54.2842 79.6272 57.1312 78.5006C59.9782 77.3741 59.9738 77.3382 62.8009 76.1701C65.6435 75.0076 65.8567 75.4804 68.6694 74.2555C71.4822 73.0307 71.2591 72.537 74.042 71.2497C76.8249 69.9624 76.9343 70.1912 79.557 68.6222C82.1742 67.0683 82.2902 67.2309 84.7418 65.4104C87.1778 63.5843 87.3259 63.7071 89.447 61.5428C91.5682 59.3786 91.2511 59.1427 92.9889 56.6841C94.7266 54.2254 95.5907 54.6436 96.681 51.8458C97.7436 49.1238 96.4098 48.7921 96.7541 45.8769C97.0984 42.9617 98.4234 42.981 98.0141 40.0659C97.6047 37.1508 96.7018 37.3198 95.5763 34.5902C94.4564 31.8455 95.3472 31.277 93.4591 28.9565C91.571 26.636 90.8813 27.2779 88.4029 25.5668C85.9345 23.8765 86.8328 24.393 84.413 22.6174C84.0959 22.3815 83.4285 22.2412 83.3765 22.2395L83.3821 22.2243Z" fill="#D0468B"/>
</g>
<defs>
<clipPath id="clip0_109_3613">
<rect width="83.6332" height="75.8894" fill="white" transform="translate(26.4785 0.239258) rotate(20.0329)"/>
</clipPath>
</defs>
</svg>
