<svg width="144" height="192" viewBox="0 0 144 192" fill="none" xmlns="http://www.w3.org/2000/svg">
<path fill-rule="evenodd" clip-rule="evenodd" d="M142.231 41.2114L141.655 40.511L141.405 40.5361L131.659 42.904L122.452 46.8609L114.033 52.3812L104.938 56.2004L96.0566 60.8828L87.7757 66.5158L80.2083 72.9619L71.7647 78.2321L63.6466 84.2279L57.481 92.0499L52.5292 100.634L52.6201 110.356L53.6209 110.256L53.2209 111.307L62.6931 113.768L71.8129 110.2L80.557 105.405L88.5876 99.7967L97.0062 94.2762L103.723 86.9046L111.403 80.3209L118.257 73.0618L124.422 65.2399L130.037 56.9677L136.065 49.0333L142.231 41.2114Z" fill="#FDC504"/>
<path fill-rule="evenodd" clip-rule="evenodd" d="M38.2969 3.24072L37.5694 3.01011L37.4042 3.14257L31.6091 9.28195L26.9226 16.2962L23.5097 24.0527L18.8396 30.9181L14.7155 38.2954L11.4514 46.0683L9.06378 54.0882L5.51851 61.6797L2.53569 69.6341L1.76839 77.9828L2.2077 86.3135L6.72838 93.1353L7.38888 92.6056L7.58837 93.5311L15.4042 90.9268L20.2067 84.2265L24.182 76.8329L27.2809 69.1924L30.6937 61.4358L32.0563 53.1527L34.4603 44.9839L35.9716 36.7171L36.7389 28.3685L36.911 19.9544L37.5296 11.5893L38.2969 3.24072Z" fill="#FDC504"/>
<path fill-rule="evenodd" clip-rule="evenodd" d="M143.607 149.321L143.579 148.567L143.449 148.446L136.665 145.298L129.545 143.295L122.22 142.558L115.091 140.303L107.868 138.933L100.543 138.195L93.0038 138.472L85.6695 137.483L78.2326 137.128L71.1211 138.773L64.2977 141.414L59.847 146.988L60.2378 147.352L59.6233 147.752L63.9962 153.756L70.874 156.02L77.9662 157.27L85.2819 157.756L92.7372 158.614L100.119 157.462L107.537 157.315L114.797 156.294L122.16 154.639L129.263 152.742L136.365 150.846L143.607 149.321Z" fill="#FDC504"/>
</svg>
