<svg width="101" height="120" viewBox="0 0 101 120" fill="none" xmlns="http://www.w3.org/2000/svg">
<path d="M19.2195 47.7014C19.9922 49.2153 20.9218 49.5464 21.6322 50.1651C22.2134 50.6933 22.9887 51.2358 23.116 52.0548C23.6111 54.5604 24.5118 56.6504 26.4173 58.1661C27.9917 59.435 28.225 59.9176 26.3621 60.7126C22.0287 62.5617 18.7039 65.4359 16.2098 69.3627C13.6263 73.4246 14.1331 77.6719 15.8374 81.8448C19.0128 89.708 23.7451 96.2276 30.7968 100.69C37.6787 105.08 43.9107 110.474 50.9309 114.61C51.359 114.864 51.7133 115.538 52.2565 115.112C52.7347 114.762 52.0649 114.126 52.0095 113.616C50.9799 102.024 50.1444 90.445 48.2244 78.9896C47.5627 75.1965 46.5372 71.3161 45.9894 67.329C47.8247 67.8072 49.6755 68.57 50.8623 69.5676C57.7166 75.2302 64.2952 81.156 70.7111 87.3938C72.1396 88.7735 72.7882 88.2541 73.9819 86.5803C78.3017 80.6616 81.1911 74.0918 83.8786 67.3656C84.3999 66.0273 84.6223 64.5254 85.3699 63.2846C86.0198 62.2795 85.9252 61.301 84.5013 61.2779C76.726 61.2966 69.0837 59.9486 61.3662 59.506C58.4296 59.3521 55.7797 57.863 52.9903 57.1126C52.4567 56.9521 52.0935 56.6219 51.6332 56.2847C50.7692 55.6345 50.5204 54.8674 51.4441 54.3277C53.7776 53.0408 56.0546 51.7296 58.4203 50.5261C62.6007 48.4026 66.4744 45.9733 70.1874 43.1275C74.2167 40.0012 78.4318 36.9896 82.1789 33.4985C84.9122 30.9252 86.8792 27.4659 89.6691 24.917C90.8532 23.8295 90.8872 23.1843 89.1567 22.8554C80.2209 21.089 71.0866 21.0083 62.0345 20.4075C58.2648 20.1724 54.5613 19.3755 50.7176 19.5601C46.2672 19.7611 41.9691 20.4793 38.0959 22.6657C34.3443 24.8002 32.0938 28.3805 30.6508 32.5865C29.1345 36.9693 30.0224 40.8599 31.9215 44.8041C33.008 47.0089 32.6584 47.6918 30.2798 47.6394C26.7364 47.5019 23.2708 48.544 19.3005 47.6668L19.2195 47.7014ZM26.7128 53.431C25.8803 53.107 25.4046 52.4852 25.69 51.6357C25.9593 50.7445 26.7217 50.031 27.6352 50.3204C28.5892 50.5926 28.4086 51.5915 28.1232 52.441C27.8783 53.2732 27.4245 53.5639 26.7128 53.431Z" fill="#E96852"/>
<path d="M4.92131 48.9864C5.35627 49.1877 5.75984 49.4365 6.09687 49.8057C6.36977 50.1122 6.48407 49.9994 6.56052 49.6443C6.62059 49.2341 6.70831 48.8021 6.81615 48.3996C7.082 47.419 7.61939 46.5871 8.5593 46.345C9.54697 46.1107 10.4909 46.3416 11.1902 47.2417C11.9537 48.2046 11.7796 49.2262 11.3152 50.2273C11.1005 50.6913 11.1698 50.8862 11.6549 50.9119C11.7743 50.9312 11.9176 50.9543 12.037 50.9735C13.1519 51.2058 14.1906 52.2918 14.327 53.3635C14.4951 54.8865 12.5469 56.6718 11.0499 56.3779C10.1701 56.2098 9.30153 55.9647 8.48553 55.3608C8.49469 55.9659 8.51887 56.4684 8.49529 56.9632C8.42695 58.2643 7.29149 59.3409 6.10631 59.2548C5.1637 59.1815 4.22935 58.2173 4.06399 57.0097C3.97568 56.4444 3.96652 55.8393 3.9536 55.2599C3.94579 54.8125 3.82128 54.6612 3.39143 54.5919C1.67202 54.3146 0.564805 52.1941 1.20974 50.4611C1.69532 49.1485 3.66795 48.3644 4.92131 48.9864ZM6.75876 53.2978C7.17254 53.8107 8.00461 53.9711 8.37139 53.6366C8.76579 53.2803 8.7706 52.9137 8.42471 52.438C7.93418 51.7816 7.46407 51.6533 6.99051 52.0493C6.54083 52.4491 6.44937 52.9068 6.75876 53.2978Z" fill="#E96852"/>
</svg>
