<svg width="181" height="33" viewBox="0 0 181 33" fill="none" xmlns="http://www.w3.org/2000/svg">
<g clip-path="url(#clip0_1_2884)">
<path d="M120.529 17.1406C120.703 17.7651 120.79 18.2711 120.79 18.8202C120.79 19.197 120.703 19.5739 120.529 19.9077C120.442 20.1122 120.312 20.0799 120.138 19.9077C119.877 19.7031 119.627 19.5308 119.496 19.2401C119.279 18.7771 119.105 18.3142 118.942 17.8512C118.812 17.4744 118.725 17.4744 118.431 17.6466C117.703 18.1096 116.888 18.4003 116.03 18.4864C115.899 18.4864 115.812 18.5726 115.725 18.4864C115.638 18.3572 115.769 18.2819 115.812 18.1957C116.073 17.6466 116.323 17.1514 116.671 16.6884C116.801 16.5161 116.845 16.4838 116.627 16.3977C115.943 16.1501 115.421 15.7302 114.997 15.1811C114.823 15.0088 114.91 14.8042 115.214 14.7612C115.856 14.5889 116.54 14.5566 117.192 14.5135H117.79C118.051 14.5135 118.051 14.3843 117.964 14.1798C117.66 13.5122 117.529 12.7908 117.497 12.0802C117.497 11.908 117.453 11.7895 117.497 11.6173C117.54 11.2835 117.671 11.2404 117.964 11.3696C118.225 11.4988 118.475 11.6173 118.649 11.7895C119.203 12.414 119.812 13.0062 120.279 13.7168C120.366 13.8891 120.453 13.8891 120.54 13.7168C120.931 13.1677 121.529 13.0493 122.127 12.9201C122.637 12.7908 123.116 12.92 123.539 13.1246C123.8 13.2538 123.844 13.4153 123.539 13.5876C123.029 13.9214 122.724 14.3843 122.333 14.8473C122.203 15.0196 122.029 15.138 121.898 15.2672C121.768 15.3964 121.768 15.4718 121.985 15.5579C122.931 15.8917 123.398 16.6453 123.702 17.5282C123.789 17.7328 123.702 17.7758 123.485 17.7328C122.54 17.6036 121.594 17.6036 120.649 17.0652L120.518 17.1514L120.529 17.1406Z" fill="#77B845"/>
<path d="M112.899 15.3749C112.497 15.6871 112.193 15.6656 111.921 15.741C111.693 15.8163 111.411 15.8594 111.28 16.0747C110.845 16.6884 110.345 17.1406 109.617 17.3237C109.019 17.4744 108.9 17.5713 109.335 18.0127C110.356 19.0356 110.976 20.2092 111.226 21.5765C111.487 22.987 110.845 24.0636 109.867 24.9788C108.041 26.7123 105.922 27.8966 103.379 28.2411C100.901 28.5857 98.4773 29.2855 95.9884 29.5439C95.8363 29.5654 95.6515 29.6946 95.5537 29.5224C95.4559 29.3716 95.7276 29.2855 95.8037 29.1455C97.4557 26.1524 99.0533 23.1377 100.944 20.2845C101.575 19.3478 102.325 18.4219 102.944 17.4206C102.368 17.3237 101.749 17.3021 101.292 17.4313C98.6729 18.1204 96.0971 18.9172 93.5322 19.8216C92.9671 20.0154 92.8367 19.8 92.6954 19.2079C92.152 17.0868 92.0976 14.9765 92.1193 12.834C92.1193 12.4141 92.2389 11.9834 92.1737 11.5527C92.1085 11.2082 92.2498 10.9498 92.6519 11.122C94.869 12.0695 97.2166 12.6294 99.4772 13.4477C100.336 13.7599 101.27 13.6845 102.151 13.8245C102.325 13.846 102.466 13.803 102.64 13.7707C102.966 13.6953 103.129 13.523 102.922 13.2646C102.401 12.6402 101.912 12.0049 101.368 11.3912C100.423 10.3145 99.5967 9.18403 98.8685 7.96739C98.086 6.63232 97.2274 5.31878 96.5645 3.9191C96.0863 2.89627 95.9232 1.72269 95.4233 0.699854C95.2168 0.258419 95.282 0.0861512 95.8146 0.204585C98.5751 0.818288 101.205 1.89496 103.857 2.83167C104.966 3.23003 106.118 3.45614 107.194 3.97294C108.443 4.56511 109.585 5.28648 110.443 6.34162C111.269 7.37522 111.487 8.6134 111.411 9.91617C111.334 11.2835 110.617 12.2202 109.617 13.0493C109.052 13.5123 109.063 13.7384 109.759 14.0075C110.791 14.3951 111.66 15.1057 112.899 15.3426L112.921 15.3641L112.899 15.3749ZM110.085 16.0101C110.356 16.0209 110.574 15.9132 110.585 15.6548C110.617 15.3857 110.476 15.095 110.182 15.0627C109.878 15.0196 109.813 15.3103 109.791 15.5795C109.759 15.8379 109.856 15.9671 110.074 16.0209L110.085 16.0101Z" fill="#77B845"/>
<path d="M22.095 32.7848C22.1711 32.7094 22.2146 32.6125 22.2146 32.5156L22.2472 30.5345L22.1819 27.5414L22.2689 24.4836C22.2689 24.376 22.2254 24.2683 22.1493 24.2037C22.0733 24.1391 21.9754 24.096 21.8668 24.096L19.5627 24.1714L19.6062 19.2618V16.6562L19.7257 14.0184V11.3913L19.6388 8.7965L19.6605 6.15866L19.5084 3.56388L19.5518 1.0014C19.5518 0.786063 19.3888 0.613795 19.1714 0.613795L16.6717 0.549195L14.1938 0.689162L11.6397 0.506128L6.66207 0.613795L4.12976 0.495361C4.03195 0.506128 3.92326 0.527661 3.84719 0.603029C3.77111 0.667629 3.72763 0.775296 3.72763 0.872197L3.67329 3.71461V6.49243L3.79284 9.21641V11.9512L3.58635 17.4314L3.36898 19.7893L2.74949 22.1149L2.10826 24.0745L0.412814 24.1606C0.206317 24.1714 0.0541613 24.3329 0.043293 24.5375L-0.0110483 27.5629L0.130239 30.556V32.4618C0.119371 32.6663 0.271527 32.8278 0.467155 32.8494L2.51039 33.0109L4.47754 32.8386C4.67317 32.8278 4.81446 32.6663 4.82533 32.4725L4.94488 31.0729L4.91228 28.9733L9.8356 29.0379L15.085 28.8872L17.2804 29.0379L17.3456 31.0729L17.2695 32.5802C17.2695 32.6879 17.313 32.7955 17.389 32.8601C17.4651 32.9355 17.5629 32.9678 17.6825 32.9678L19.7801 32.8601L21.8233 32.9032C21.9428 32.9355 22.0298 32.8709 22.1059 32.7955L22.095 32.7848ZM14.3785 16.1825L14.3133 21.7596L14.3568 24.1606L12.0636 24.2468L9.30305 24.0314L7.1294 24.1283L8.00973 21.0383C8.00973 21.0383 8.0206 20.9844 8.0206 20.9521L8.2923 15.6764L8.58575 13.0063L8.68356 10.3038L8.60748 7.65523L8.64009 5.39422L11.4984 5.27579L14.4003 5.29732L14.2481 7.81673L14.4655 10.573L14.3242 13.3939L14.3677 16.1717L14.3785 16.1825Z" fill="#77B845"/>
<path d="M40.1256 5.40481C40.1256 5.34021 40.1039 5.28638 40.0713 5.23255L38.3976 2.627C38.365 2.57317 38.3106 2.5301 38.2563 2.4978L35.5392 1.04429C35.5392 1.04429 35.4631 1.01199 35.4197 1.00123L32.2896 0.495191L29.5834 0.635158H26.8881L24.0949 0.462891C23.9971 0.462891 23.8776 0.495191 23.7906 0.581325C23.7145 0.656692 23.6711 0.764359 23.6819 0.872026L23.8667 3.69291L23.7254 6.49225L23.7689 9.24853L23.7037 14.7826L23.8558 20.2629L23.6385 23.073L23.758 25.797L23.6819 28.6179C23.6819 28.7255 23.7254 28.8332 23.8015 28.9086C23.8776 28.9732 23.9645 29.0162 24.0732 29.0162H24.1058L26.3555 28.8332L28.6379 28.9947C28.7465 28.9947 28.8552 28.9624 28.9313 28.887C29.0074 28.8117 29.0509 28.7148 29.0509 28.6071L28.953 23.4283L29.0726 20.8335V18.7232H32.3765L35.4305 18.1203C35.4305 18.1203 35.5175 18.088 35.5609 18.0665L38.1476 16.4407C38.1476 16.4407 38.2345 16.3761 38.2671 16.3223L39.9735 13.6737C39.9735 13.6737 40.0169 13.5768 40.0278 13.5229L40.4625 10.3252L40.4299 8.46256L40.1365 5.40481H40.1256Z" fill="#77B845"/>
<path d="M60.0797 28.5533L60.1449 25.7862L60.0036 23.0515L60.1884 20.2413L60.0797 14.7503L60.1993 11.9833L60.221 9.21623V6.42765L60.0906 3.69291V0.99046C60.0906 0.775125 59.9058 0.602858 59.6993 0.602858H56.428L53.1566 0.613625C52.9828 0.613625 52.8197 0.732059 52.7871 0.904326L52.1894 3.4022L51.3308 5.95392L50.6352 8.53793L50.0809 11.1112L49.3528 13.6737L48.8202 16.2469L48.1572 18.7771L47.516 20.6505L47.4834 18.8417L47.5486 13.6952L47.3965 8.62406L47.6138 6.01852L47.4943 3.48834L47.5704 0.872026C47.5704 0.764359 47.5269 0.656692 47.4508 0.592091C47.3747 0.527491 47.2334 0.484424 47.1682 0.484424L45.0707 0.570558L42.9079 0.462891C42.8101 0.473657 42.6905 0.505958 42.6144 0.581325C42.5384 0.656692 42.4949 0.764359 42.5057 0.882793L42.7014 3.69291L42.6036 6.48149V9.23776L42.5057 12.0263L42.5818 14.7719V17.5497L42.7231 20.2844V23.0192L42.5275 25.8077L42.5492 28.6394C42.5492 28.7363 42.5927 28.844 42.6688 28.9086C42.734 28.9732 42.8427 29.0162 42.9405 29.0162L46.3096 28.9624L49.6679 29.0055C49.8418 29.0055 49.994 28.887 50.0483 28.7255L50.7548 26.0877L51.3308 23.5144L52.0916 20.9304L52.5806 18.3787L53.461 15.827L53.9826 13.2645L55.2325 8.8071L55.3303 10.6482L55.276 15.7839V18.3141L55.1564 20.8874V23.4606L55.2434 26.0123V28.6071C55.2434 28.7148 55.276 28.8117 55.3629 28.887C55.439 28.9624 55.5368 28.9839 55.6563 28.9947L57.7104 28.8655L59.6993 28.9193C59.8189 28.9624 59.895 28.887 59.971 28.8117C60.0471 28.7363 60.0906 28.6394 60.0906 28.5425L60.0797 28.5533Z" fill="#77B845"/>
<path d="M88.0764 28.9732C88.2829 28.9732 88.4459 28.8009 88.4459 28.5856V25.797L88.3264 17.5066L88.4785 14.718L88.3698 12.0048L88.5655 9.1947L88.4351 6.45995L88.522 3.67137L88.359 0.99046C88.3481 0.796659 88.196 0.645925 88.0003 0.635158L85.468 0.462891L82.9031 0.527491L80.2513 0.473657C80.0556 0.473657 79.8926 0.613625 79.8709 0.807426L79.534 3.53141L78.871 6.20155L77.9581 11.5095L77.2734 14.1582L76.8604 16.7852L76.1757 19.4446L76.1104 19.9076L75.4801 16.7745L75.0236 14.072L74.415 11.4449L73.8716 8.78556L73.1869 6.19079L72.6543 3.56371L72.2848 0.828959C72.2522 0.635158 72.1001 0.495191 71.9044 0.495191L69.296 0.462891L66.7746 0.538258L64.1988 0.505957C64.0902 0.505957 63.9923 0.538258 63.9163 0.613625C63.8402 0.678225 63.7967 0.785892 63.7967 0.882793L63.775 3.72521L63.8728 6.47072L63.7858 9.28083L63.9597 11.994L63.7532 14.7934L63.8945 17.5281L63.8076 23.073L63.8728 25.8077L63.7858 28.6179C63.7858 28.7255 63.8293 28.8332 63.9054 28.8978C63.9815 28.9624 64.0793 28.9947 64.1988 29.0055L66.2964 28.8978L68.3179 28.9301C68.4157 28.9516 68.5244 28.8978 68.5896 28.8224C68.6657 28.7471 68.7092 28.6502 68.7092 28.5533L68.7418 25.8723V23.1914L68.8613 20.4782V17.7758L68.7744 15.1164L68.7961 12.4139L68.644 9.75457L68.6657 7.27822L69.0243 9.88377L70.2307 15.2133L70.6546 17.9265L71.7414 23.3099L72.4152 25.9477L72.9695 28.5748C73.0021 28.7471 73.1651 28.8763 73.3499 28.8763H76.0018H78.6428C78.8275 28.8763 78.9905 28.7471 79.0231 28.564L79.5122 25.9585L80.2513 23.2991L80.8273 20.6182L81.262 17.948L81.8598 15.2779L82.2619 12.6077L82.7944 9.98067L83.1966 8.5487L83.2183 9.92684L83.1531 15.2779L83.3052 20.5536L83.0879 23.256L83.2074 25.8939L83.1313 28.6071C83.1313 28.7148 83.1639 28.8117 83.24 28.887C83.3052 28.9624 83.4139 29.0055 83.5117 29.0055L85.8484 29.0378L88.0873 28.9516L88.0764 28.9732Z" fill="#77B845"/>
<path d="M140.907 26.2708L142.505 23.5253C142.505 23.5253 142.548 23.4284 142.548 23.3853L142.939 20.2522L143.059 19.5093C143.059 19.5093 143.059 19.4447 143.059 19.4016L142.831 17.3021C142.831 17.3021 142.82 17.2267 142.798 17.1944L141.94 15.2672C141.918 15.2026 141.874 15.1595 141.82 15.1165L139.136 13.0493L140.548 11.9941C140.548 11.9941 140.614 11.9295 140.646 11.8972L141.82 10.0346C141.82 10.0346 141.863 9.93768 141.874 9.88385L142.168 7.61207L141.853 4.44665C141.853 4.38205 141.82 4.31745 141.787 4.26362L140.168 1.92724C140.135 1.87341 140.081 1.83034 140.016 1.79804L137.31 0.495269C137.31 0.495269 137.234 0.462969 137.201 0.462969L134.147 0.0215334L131.517 0.161501H128.887L126.17 0C126.072 0 125.952 0.0323002 125.865 0.118434C125.789 0.193801 125.746 0.301468 125.757 0.409135L125.941 3.21925L125.8 6.0186L125.844 8.77487L125.778 14.309L125.931 19.7892L125.713 22.5993L125.833 25.3341L125.768 28.1657C125.768 28.2734 125.811 28.3811 125.887 28.4457C125.963 28.5103 126.061 28.5533 126.159 28.5533H126.181L129.126 28.3918L132.017 28.4134L134.995 28.4887L137.973 27.8858C137.973 27.8858 138.049 27.8643 138.081 27.8427L140.733 26.4C140.798 26.3677 140.853 26.3139 140.885 26.26L140.907 26.2708Z" fill="#77B845"/>
<path d="M160.709 3.07932L161.372 0.48454C161.405 0.366106 161.372 0.247672 161.296 0.150772C161.22 0.0538711 161.078 -0.0214959 160.992 3.75281e-05L158.633 0.0323377H156.34C156.155 0.0323377 155.992 0.161538 155.96 0.344573L155.438 3.17622L154.753 5.95404L154.003 8.74262L153.482 11.5097L152.634 14.2552L152.362 15.5257L152.003 14.2659L151.384 11.4343L149.928 5.84637L149.08 3.13315L148.341 0.409173C148.297 0.236905 148.145 0.129238 147.971 0.129238H145.711L143.483 0.118471C143.363 0.118471 143.244 0.183072 143.168 0.279972C143.092 0.376873 143.07 0.506073 143.113 0.624507L143.907 3.06855L144.504 5.69563L145.254 8.26888L146.124 10.756L146.841 13.3292L147.732 15.8056L148.493 18.3142L149.08 20.9628L149.917 23.1054L147.732 23.9883L145.841 23.7837C145.732 23.773 145.624 23.8053 145.537 23.8806C145.45 23.956 145.406 24.0529 145.406 24.1606L145.374 28.0689C145.374 28.2627 145.515 28.4242 145.7 28.4457L148.58 28.8979C148.58 28.8979 148.623 28.8979 148.645 28.8979C148.667 28.8979 148.7 28.8979 148.721 28.8979L150.841 28.478C150.841 28.478 150.938 28.4457 150.982 28.4134L152.601 27.2937L154.047 25.7433C154.047 25.7433 154.101 25.6679 154.123 25.6248L155.036 23.3315L155.992 20.5429C155.992 20.5429 155.992 20.5106 156.003 20.4999L156.546 18.002L157.34 15.4934L157.872 12.9847L159.937 5.55567L160.742 3.07932H160.709Z" fill="#77B845"/>
<path d="M180.826 32.3109C180.902 32.2355 180.946 32.1386 180.946 32.0417L180.978 30.0606L180.913 27.0675L181 24.0097C181 23.9021 180.957 23.7944 180.88 23.7298C180.804 23.6652 180.685 23.6221 180.598 23.6221L178.294 23.6975L178.337 18.7879V16.1823L178.457 13.5445V10.9174L178.37 8.32263L178.392 5.68478L178.239 3.09L178.283 0.52752C178.283 0.312186 178.12 0.139918 177.903 0.139918L175.403 0.075318L172.925 0.215285L170.371 0.0322511L165.393 0.139918L162.861 0.0214844C162.763 0.0322511 162.654 0.0537845 162.578 0.129152C162.502 0.193752 162.459 0.301419 162.459 0.39832L162.404 3.24073V6.01855L162.524 8.74253V11.4773L162.317 16.9575L162.1 19.3155L161.481 21.6411L160.839 23.6006L159.144 23.6867C158.937 23.6975 158.785 23.859 158.774 24.0636L158.72 27.089L158.861 30.0822V31.9879C158.85 32.1924 159.003 32.354 159.198 32.3755L161.241 32.537L163.209 32.3647C163.404 32.354 163.546 32.1924 163.556 31.9986L163.676 30.599L163.643 28.4995L168.567 28.5641L173.816 28.4133L176.011 28.5641L176.077 30.599L176.001 32.1063C176.001 32.214 176.044 32.3217 176.12 32.3862C176.196 32.4509 176.305 32.4939 176.414 32.4939L178.511 32.3862L180.554 32.4293C180.674 32.4616 180.761 32.397 180.837 32.3217L180.826 32.3109ZM173.11 15.7086L173.044 21.2858L173.088 23.6867L170.795 23.7729L168.034 23.5575L165.861 23.6544L166.741 20.5644C166.741 20.5644 166.752 20.5106 166.752 20.4783L167.023 15.2026L167.317 12.5324L167.415 9.82997L167.339 7.18135L167.371 4.92034L170.23 4.80191L173.131 4.82344L172.979 7.34286L173.197 10.0991L173.055 12.92L173.099 15.6978L173.11 15.7086Z" fill="#77B845"/>
</g>
<defs>
<clipPath id="clip0_1_2884">
<rect width="181" height="33" fill="white"/>
</clipPath>
</defs>
</svg>
