<svg width="50" height="50" viewBox="0 0 50 50" fill="none" xmlns="http://www.w3.org/2000/svg">
<path fill-rule="evenodd" clip-rule="evenodd" d="M0 25C0 11.1933 11.1933 0 25 0C38.8067 0 50 11.1933 50 25C50 38.8067 38.8067 50 25 50C11.1933 50 0 38.8067 0 25ZM25 3.33333C13.0343 3.33333 3.33333 13.0343 3.33333 25C3.33333 36.9657 13.0343 46.6667 25 46.6667C36.9657 46.6667 46.6667 36.9657 46.6667 25C46.6667 13.0343 36.9657 3.33333 25 3.33333ZM21.7965 15.919C20.693 15.1371 19.1667 15.9265 19.1667 17.2791V32.7201C19.1667 34.0728 20.693 34.8622 21.7965 34.0802L32.6965 26.3596C33.6344 25.6952 33.6344 24.3038 32.6965 23.6394L21.7965 15.919ZM15.8333 17.2791C15.8333 13.2211 20.4122 10.8535 23.7236 13.1988L34.6236 20.9197C37.4369 22.9123 37.4369 27.0871 34.6236 29.0797L23.7236 36.8007C20.4122 39.1459 15.8333 36.7783 15.8333 32.7203V17.2791Z" fill="#FDC504"/>
</svg>
