<svg width="146" height="62" viewBox="0 0 146 62" fill="none" xmlns="http://www.w3.org/2000/svg">
<path d="M145.071 22.1952L145.015 5C145.006 2.23858 142.76 0.00727423 139.999 0.0162474L4.99996 0.454932C2.23857 0.463905 0.00729565 2.70972 0.0162382 5.47111L0.07483 23.5585C0.078527 24.6962 1.01685 25.5772 2.12534 25.8335C4.01052 26.2692 6.11327 27.5398 6.12482 31.0954C6.13685 34.7983 4.1648 36.1703 2.16186 36.6372C1.05386 36.8954 0.121021 37.7781 0.124718 38.9158L0.181763 56.4709C0.190736 59.2323 2.43657 61.4636 5.19798 61.4546L140.197 61.0159C142.959 61.007 145.19 58.7611 145.181 55.9997L145.125 38.8111C145.121 37.6734 144.172 36.8031 143.085 36.4669C140.528 35.676 139.301 33.3313 139.292 30.6627C139.283 27.8497 140.152 25.3892 143.262 24.4141C144.267 24.0989 145.074 23.2487 145.071 22.1952Z" fill="#FDC504"/>
</svg>
