<svg width="1232" height="442" viewBox="0 0 1232 442" fill="none" xmlns="http://www.w3.org/2000/svg">
<path d="M549 97.0193L629.424 119.471C655.685 126.802 682.868 130.891 709.966 127.874C727.767 125.892 749.245 122.425 769.916 116.361C800.904 107.269 830.453 92.9448 861.743 84.953L941.982 64.459C995.374 50.8221 1052.05 60.8966 1097.48 92.0971V92.0971C1174.96 145.316 1202.23 246.975 1161.8 331.83L1161 333.5" stroke="#E8E9EB" stroke-width="5" stroke-linecap="round" stroke-dasharray="5 10"/>
<path d="M549.5 96.5L373.588 45.5989C275.054 17.0877 165.532 35.9681 93 108.5V108.5C81.3584 120.142 67.351 139.15 53.7814 159.441C17.6568 213.459 16.8469 282.781 45.1753 341.265L93 440" stroke="#E8E9EB" stroke-width="5" stroke-dasharray="5 10"/>
</svg>
