<svg width="488" height="633" viewBox="0 0 488 633" fill="none" xmlns="http://www.w3.org/2000/svg">
<path d="M420.589 424.306L420.589 72.3866C420.589 61.0096 411.366 51.7866 399.989 51.7866L100.252 51.7866C88.8751 51.7866 79.6521 61.0096 79.6521 72.3867L79.6521 427.899C79.6521 429.036 80.5717 429.953 81.7081 430.006C89.4558 430.37 102.745 433.142 102.745 448.853C102.745 464.83 90.8103 468.149 81.7095 468.543C80.5728 468.592 79.6521 469.509 79.6521 470.647L79.6522 560.1C79.6522 571.477 88.8751 580.7 100.252 580.7L399.989 580.7C411.366 580.7 420.589 571.477 420.589 560.1L420.589 471.906C420.589 470.769 419.66 469.854 418.525 469.784C404.823 468.941 398.336 459.66 398.336 448.853C398.336 437.927 402.626 428.561 418.724 426.393C419.776 426.251 420.589 425.369 420.589 424.306Z" fill="#FDC504"/>
<path d="M102.825 450.619L102.825 448.26L112.833 448.26L112.833 450.619L102.825 450.619Z" fill="white" stroke="white"/>
<path d="M346.742 450.619L346.742 448.26L366.919 448.26L366.919 450.619L346.742 450.619ZM304.395 450.619L304.395 448.26L324.568 448.26L324.568 450.619L304.395 450.619ZM262.045 450.619L262.045 448.26L282.218 448.26L282.218 450.619L262.045 450.619ZM219.694 450.619L219.694 448.26L239.871 448.26L239.871 450.619L219.694 450.619ZM177.348 450.619L177.348 448.26L197.525 448.26L197.525 450.619L177.348 450.619ZM135.001 450.619L135.001 448.26L155.17 448.26L155.17 450.619L135.001 450.619Z" fill="white" stroke="white"/>
<path d="M389.092 450.619L389.092 448.26L399.095 448.26L399.095 450.619L389.092 450.619Z" fill="white" stroke="white"/>
<path d="M421.089 355.49C420.808 356.27 421.211 357.129 421.99 357.411C422.77 357.692 423.629 357.289 423.911 356.51L421.089 355.49ZM356.569 61.9094C357.193 62.4543 358.141 62.39 358.685 61.7659C359.23 61.1418 359.166 60.1943 358.542 59.6495L356.569 61.9094ZM207.724 46.7162C207.015 47.1446 206.788 48.0668 207.216 48.7758C207.645 49.4848 208.567 49.7123 209.276 49.2838L207.724 46.7162ZM358.542 59.6495C357.918 59.1046 356.97 59.1689 356.425 59.793C355.881 60.4171 355.945 61.3646 356.569 61.9094L358.542 59.6495ZM429.176 337.515L427.766 337.006L429.176 337.515ZM211.341 48.0625C212.058 47.6476 212.303 46.73 211.888 46.0129C211.473 45.2959 210.556 45.0509 209.839 45.4658L211.341 48.0625ZM218.507 40.8813C217.76 41.2404 217.446 42.1367 217.805 42.8832C218.165 43.6298 219.061 43.9439 219.807 43.5847L218.507 40.8813ZM224.162 41.5912C224.922 41.2609 225.27 40.3772 224.94 39.6175C224.609 38.8578 223.726 38.5097 222.966 38.8401L224.162 41.5912ZM232.102 35.2758C231.319 35.5472 230.905 36.4017 231.176 37.1844C231.447 37.9671 232.302 38.3816 233.085 38.1102L232.102 35.2758ZM237.639 36.6277C238.432 36.3864 238.879 35.5483 238.637 34.7558C238.396 33.9633 237.558 33.5165 236.765 33.7578L237.639 36.6277ZM246.249 31.2611C245.44 31.4414 244.931 32.2429 245.111 33.0515C245.291 33.8601 246.093 34.3695 246.901 34.1893L246.249 31.2611ZM251.596 33.2366C252.411 33.0873 252.95 32.3057 252.801 31.4908C252.651 30.676 251.87 30.1364 251.055 30.2857L251.596 33.2366ZM260.761 28.8867C259.937 28.9736 259.34 29.7119 259.427 30.5358C259.514 31.3596 260.252 31.957 261.076 31.8701L260.761 28.8867ZM265.849 31.458C266.675 31.4024 267.3 30.6873 267.245 29.8608C267.189 29.0342 266.474 28.4092 265.647 28.4648L265.849 31.458ZM275.45 28.1786C274.621 28.1714 273.944 28.837 273.937 29.6654C273.929 30.4938 274.595 31.1713 275.423 31.1785L275.45 28.1786ZM280.212 31.3114C281.039 31.3501 281.742 30.7106 281.78 29.8831C281.819 29.0556 281.179 28.3534 280.352 28.3147L280.212 31.3114ZM290.123 29.1441C289.301 29.0427 288.553 29.6271 288.451 30.4493C288.35 31.2715 288.934 32.0202 289.756 32.1215L290.123 29.1441ZM294.499 32.7979C295.316 32.9304 296.087 32.3749 296.219 31.5571C296.352 30.7394 295.796 29.969 294.979 29.8365L294.499 32.7979ZM304.593 31.7728C303.787 31.5784 302.977 32.0736 302.782 32.8789C302.588 33.6842 303.083 34.4946 303.889 34.689L304.593 31.7728ZM308.522 35.9016C309.32 36.1266 310.148 35.6626 310.373 34.8654C310.598 34.0681 310.134 33.2393 309.337 33.0143L308.522 35.9016ZM318.667 36.0371C317.889 35.7517 317.028 36.1509 316.742 36.9287C316.457 37.7064 316.856 38.5682 317.634 38.8535L318.667 36.0371ZM322.098 40.5892C322.864 40.9042 323.74 40.5384 324.055 39.7722C324.37 39.006 324.005 38.1295 323.238 37.8145L322.098 40.5892ZM332.159 41.8899C331.42 41.5169 330.518 41.8141 330.145 42.5538C329.772 43.2935 330.069 44.1956 330.808 44.5686L332.159 41.8899ZM335.042 46.8069C335.767 47.2082 336.68 46.9459 337.081 46.2212C337.482 45.4964 337.22 44.5836 336.495 44.1823L335.042 46.8069ZM344.886 49.2605C344.194 48.8045 343.264 48.9956 342.808 49.6872C342.352 50.3788 342.543 51.3092 343.235 51.7652L344.886 49.2605ZM347.181 54.4777C347.855 54.9601 348.792 54.8051 349.274 54.1315C349.757 53.458 349.602 52.521 348.928 52.0386L347.181 54.4777ZM356.676 58.0516C356.041 57.5189 355.095 57.6013 354.562 58.2357C354.03 58.8702 354.112 59.8163 354.746 60.3491L356.676 58.0516ZM358.461 63.5775C359.079 64.1285 360.027 64.0737 360.578 63.4551C361.129 62.8364 361.075 61.8883 360.456 61.3373L358.461 63.5775ZM367.925 68.2607C367.329 67.6855 366.379 67.7026 365.804 68.2988C365.229 68.895 365.246 69.8446 365.842 70.4198L367.925 68.2607ZM369.427 73.9485C370.012 74.5355 370.962 74.5374 371.549 73.9528C372.136 73.3681 372.138 72.4184 371.553 71.8314L369.427 73.9485ZM378.594 79.1884C378.033 78.5786 377.084 78.5387 376.474 79.0995C375.864 79.6602 375.825 80.6091 376.385 81.2189L378.594 79.1884ZM379.756 84.9592C380.304 85.5802 381.252 85.639 381.873 85.0906C382.494 84.5422 382.553 83.5943 382.004 82.9734L379.756 84.9592ZM388.592 90.7403C388.069 90.0979 387.124 90.0011 386.481 90.5242C385.839 91.0473 385.742 91.9921 386.265 92.6345L388.592 90.7403ZM389.401 96.5651C389.911 97.2178 390.854 97.3335 391.506 96.8233C392.159 96.3132 392.275 95.3706 391.765 94.7178L389.401 96.5651ZM397.874 102.867C397.39 102.194 396.453 102.041 395.78 102.525C395.108 103.008 394.954 103.945 395.438 104.618L397.874 102.867ZM398.336 108.736C398.806 109.418 399.74 109.59 400.422 109.12C401.104 108.651 401.276 107.716 400.806 107.034L398.336 108.736ZM406.414 115.535C405.972 114.835 405.045 114.625 404.345 115.067C403.644 115.51 403.435 116.436 403.877 117.137L406.414 115.535ZM406.52 121.418C406.948 122.127 407.87 122.355 408.579 121.927C409.289 121.499 409.516 120.577 409.088 119.867L406.52 121.418ZM414.176 128.691C413.776 127.965 412.864 127.7 412.138 128.099C411.412 128.499 411.148 129.411 411.547 130.137L414.176 128.691ZM413.929 134.57C414.313 135.303 415.22 135.586 415.954 135.201C416.687 134.817 416.97 133.91 416.585 133.176L413.929 134.57ZM421.134 142.288C420.778 141.54 419.884 141.221 419.135 141.576C418.387 141.931 418.068 142.826 418.423 143.574L421.134 142.288ZM420.535 148.143C420.875 148.898 421.763 149.235 422.518 148.895C423.274 148.555 423.61 147.667 423.27 146.911L420.535 148.143ZM427.264 156.28C426.955 155.511 426.081 155.139 425.312 155.449C424.544 155.758 424.172 156.632 424.482 157.401L427.264 156.28ZM426.315 162.086C426.609 162.861 427.476 163.25 428.25 162.956C429.024 162.662 429.414 161.795 429.12 161.021L426.315 162.086ZM432.545 170.612C432.282 169.826 431.432 169.403 430.647 169.666C429.861 169.929 429.437 170.779 429.701 171.564L432.545 170.612ZM431.251 176.352C431.498 177.143 432.339 177.583 433.13 177.336C433.921 177.089 434.361 176.247 434.114 175.457L431.251 176.352ZM436.959 185.235C436.744 184.435 435.921 183.962 435.121 184.177C434.321 184.393 433.847 185.216 434.063 186.016L436.959 185.235ZM435.324 190.887C435.523 191.692 436.337 192.182 437.141 191.982C437.945 191.782 438.435 190.969 438.235 190.165L435.324 190.887ZM440.491 200.096C440.323 199.285 439.53 198.762 438.719 198.93C437.907 199.097 437.385 199.89 437.553 200.702L440.491 200.096ZM438.52 205.641C438.671 206.455 439.454 206.993 440.268 206.842C441.083 206.691 441.62 205.908 441.469 205.094L438.52 205.641ZM443.127 215.142C443.008 214.322 442.247 213.754 441.427 213.872C440.608 213.991 440.039 214.751 440.157 215.571L443.127 215.142ZM440.827 220.558C440.929 221.38 441.678 221.964 442.5 221.862C443.322 221.76 443.906 221.01 443.804 220.188L440.827 220.558ZM444.857 230.318C444.787 229.492 444.062 228.879 443.237 228.948C442.411 229.017 441.798 229.743 441.867 230.568L444.857 230.318ZM442.237 235.588C442.289 236.414 443.002 237.042 443.829 236.989C444.656 236.937 445.283 236.224 445.231 235.397L442.237 235.588ZM445.674 245.571C445.654 244.743 444.967 244.088 444.139 244.107C443.311 244.126 442.655 244.814 442.675 245.642L445.674 245.571ZM442.743 250.674C442.746 251.502 443.42 252.171 444.248 252.168C445.077 252.165 445.746 251.491 445.743 250.663L442.743 250.674ZM445.575 260.846C445.605 260.018 444.958 259.323 444.13 259.292C443.303 259.262 442.607 259.909 442.577 260.737L445.575 260.846ZM442.342 265.762C442.296 266.589 442.928 267.298 443.755 267.345C444.582 267.392 445.291 266.759 445.338 265.932L442.342 265.762ZM444.558 276.086C444.638 275.261 444.034 274.528 443.21 274.448C442.385 274.368 441.652 274.972 441.572 275.796L444.558 276.086ZM441.036 280.803C440.939 281.626 441.528 282.371 442.351 282.468C443.174 282.564 443.919 281.975 444.015 281.153L441.036 280.803ZM442.627 291.242C442.756 290.424 442.198 289.656 441.379 289.526C440.561 289.397 439.793 289.956 439.663 290.774L442.627 291.242ZM438.828 295.732C438.683 296.547 439.226 297.327 440.041 297.472C440.857 297.618 441.636 297.075 441.782 296.26L438.828 295.732ZM439.789 306.247C439.968 305.438 439.456 304.638 438.647 304.459C437.838 304.281 437.038 304.792 436.86 305.601L439.789 306.247ZM435.727 310.507C435.532 311.313 436.027 312.123 436.833 312.317C437.638 312.512 438.448 312.017 438.643 311.211L435.727 310.507ZM436.055 321.06C436.282 320.264 435.819 319.434 435.022 319.207C434.225 318.981 433.396 319.443 433.169 320.24L436.055 321.06ZM431.746 325.065C431.504 325.858 431.949 326.696 432.741 326.939C433.534 327.181 434.372 326.735 434.615 325.943L431.746 325.065ZM431.442 335.62C431.716 334.838 431.304 333.983 430.522 333.709C429.74 333.435 428.884 333.847 428.611 334.629L431.442 335.62ZM426.653 340.087C426.372 340.866 426.775 341.725 427.554 342.007C428.333 342.288 429.193 341.885 429.475 341.106L426.653 340.087ZM425.024 353.429C425.305 352.65 424.901 351.79 424.122 351.508C423.343 351.227 422.483 351.63 422.202 352.41L425.024 353.429ZM209.276 49.2838C209.961 48.8695 210.65 48.4624 211.341 48.0625L209.839 45.4658C209.131 45.8753 208.426 46.2921 207.724 46.7162L209.276 49.2838ZM219.807 43.5847C221.25 42.8909 222.702 42.2264 224.162 41.5912L222.966 38.8401C221.47 39.4905 219.984 40.1709 218.507 40.8813L219.807 43.5847ZM233.085 38.1102C234.596 37.5862 236.114 37.0921 237.639 36.6277L236.765 33.7578C235.204 34.2333 233.649 34.7392 232.102 35.2758L233.085 38.1102ZM246.901 34.1893C248.462 33.8415 250.027 33.524 251.596 33.2366L251.055 30.2857C249.449 30.58 247.846 30.9051 246.249 31.2611L246.901 34.1893ZM261.076 31.8701C262.665 31.7024 264.256 31.5651 265.849 31.458L265.647 28.4648C264.017 28.5744 262.388 28.715 260.761 28.8867L261.076 31.8701ZM275.423 31.1785C277.021 31.1925 278.617 31.2368 280.212 31.3114L280.352 28.3147C278.719 28.2384 277.085 28.193 275.45 28.1786L275.423 31.1785ZM289.756 32.1215C291.341 32.3169 292.922 32.5423 294.499 32.7979L294.979 29.8365C293.365 29.5749 291.746 29.3441 290.123 29.1441L289.756 32.1215ZM303.889 34.689C305.44 35.0634 306.985 35.4677 308.522 35.9016L309.337 33.0143C307.763 32.57 306.181 32.1561 304.593 31.7728L303.889 34.689ZM317.634 38.8535C319.131 39.4028 320.619 39.9814 322.098 40.5892L323.238 37.8145C321.724 37.1921 320.2 36.5996 318.667 36.0371L317.634 38.8535ZM330.808 44.5686C332.232 45.2861 333.643 46.0323 335.042 46.8069L336.495 44.1823C335.062 43.389 333.617 42.6248 332.159 41.8899L330.808 44.5686ZM343.235 51.7652C344.564 52.6417 345.88 53.5459 347.181 54.4777L348.928 52.0386C347.595 51.0843 346.248 50.1582 344.886 49.2605L343.235 51.7652ZM354.746 60.3491C355.358 60.8625 355.965 61.3826 356.569 61.9094L358.542 59.6495C357.924 59.11 357.302 58.5774 356.676 58.0516L354.746 60.3491ZM356.569 61.9094C357.203 62.4628 357.833 63.0188 358.461 63.5775L360.456 61.3373C359.821 60.772 359.183 60.2094 358.542 59.6495L356.569 61.9094ZM365.842 70.4198C367.05 71.5858 368.246 72.7621 369.427 73.9485L371.553 71.8314C370.357 70.6309 369.148 69.4406 367.925 68.2607L365.842 70.4198ZM376.385 81.2189C377.523 82.4559 378.646 83.7028 379.756 84.9592L382.004 82.9734C380.882 81.7019 379.745 80.4402 378.594 79.1884L376.385 81.2189ZM386.265 92.6345C387.325 93.9355 388.37 95.2458 389.401 96.5651L391.765 94.7178C390.721 93.3828 389.664 92.0569 388.592 90.7403L386.265 92.6345ZM395.438 104.618C396.418 105.982 397.384 107.355 398.336 108.736L400.806 107.034C399.844 105.637 398.866 104.247 397.874 102.867L395.438 104.618ZM403.877 117.137C404.773 118.556 405.654 119.983 406.52 121.418L409.088 119.867C408.212 118.415 407.32 116.971 406.414 115.535L403.877 117.137ZM411.547 130.137C412.356 131.607 413.15 133.085 413.929 134.57L416.585 133.176C415.798 131.674 414.994 130.179 414.176 128.691L411.547 130.137ZM418.423 143.574C419.142 145.09 419.846 146.613 420.535 148.143L423.27 146.911C422.574 145.364 421.861 143.823 421.134 142.288L418.423 143.574ZM424.482 157.401C425.108 158.957 425.72 160.519 426.315 162.086L429.12 161.021C428.517 159.435 427.899 157.854 427.264 156.28L424.482 157.401ZM429.701 171.564C430.233 173.155 430.75 174.751 431.251 176.352L434.114 175.457C433.607 173.837 433.084 172.222 432.545 170.612L429.701 171.564ZM434.063 186.016C434.499 187.635 434.92 189.259 435.324 190.887L438.235 190.165C437.826 188.517 437.401 186.874 436.959 185.235L434.063 186.016ZM437.553 200.702C437.891 202.345 438.214 203.991 438.52 205.641L441.469 205.094C441.16 203.424 440.834 201.758 440.491 200.096L437.553 200.702ZM440.157 215.571C440.397 217.231 440.62 218.893 440.827 220.558L443.804 220.188C443.595 218.504 443.369 216.822 443.127 215.142L440.157 215.571ZM441.867 230.568C442.007 232.239 442.13 233.913 442.237 235.588L445.231 235.397C445.123 233.702 444.998 232.009 444.857 230.318L441.867 230.568ZM442.675 245.642C442.714 247.318 442.737 248.995 442.743 250.674L445.743 250.663C445.737 248.965 445.714 247.267 445.674 245.571L442.675 245.642ZM442.577 260.737C442.515 262.411 442.437 264.087 442.342 265.762L445.338 265.932C445.434 264.236 445.513 262.541 445.575 260.846L442.577 260.737ZM441.572 275.796C441.41 277.466 441.231 279.135 441.036 280.803L444.015 281.153C444.213 279.464 444.394 277.775 444.558 276.086L441.572 275.796ZM439.663 290.774C439.402 292.428 439.124 294.08 438.828 295.732L441.782 296.26C442.08 294.588 442.362 292.916 442.627 291.242L439.663 290.774ZM436.86 305.601C436.499 307.238 436.121 308.874 435.727 310.507L438.643 311.211C439.042 309.558 439.424 307.904 439.789 306.247L436.86 305.601ZM433.169 320.24C432.712 321.851 432.237 323.459 431.746 325.065L434.615 325.943C435.112 324.318 435.592 322.69 436.055 321.06L433.169 320.24ZM428.611 334.629C428.333 335.422 428.052 336.214 427.766 337.006L430.587 338.025C430.877 337.224 431.162 336.423 431.442 335.62L428.611 334.629ZM427.766 337.006L426.653 340.087L429.475 341.106L430.587 338.025L427.766 337.006ZM422.202 352.41L421.089 355.49L423.911 356.51L425.024 353.429L422.202 352.41Z" fill="#15466B"/>
<path d="M76.9384 203.426C77.1734 202.631 76.72 201.797 75.9256 201.562C75.1312 201.327 74.2967 201.78 74.0616 202.574L76.9384 203.426ZM128.89 568.7C128.266 568.155 127.319 568.22 126.774 568.844C126.229 569.468 126.293 570.415 126.918 570.96L128.89 568.7ZM282.451 583.95L281.686 582.66L282.451 583.95ZM126.918 570.96C127.542 571.505 128.489 571.441 129.034 570.817C129.579 570.193 129.515 569.245 128.89 568.7L126.918 570.96ZM48.1714 295.364L46.7331 294.939L48.1714 295.364ZM282.56 582.141C281.847 582.564 281.613 583.484 282.035 584.197C282.458 584.909 283.378 585.144 284.091 584.721L282.56 582.141ZM283.392 585.136C284.104 584.713 284.339 583.793 283.916 583.081C283.494 582.368 282.573 582.133 281.861 582.556L283.392 585.136ZM279.534 583.909C278.813 584.319 278.561 585.234 278.97 585.955C279.38 586.675 280.295 586.927 281.016 586.518L279.534 583.909ZM271.997 591.199C272.747 590.846 273.067 589.952 272.714 589.202C272.36 588.453 271.466 588.132 270.717 588.486L271.997 591.199ZM266.185 590.52C265.423 590.845 265.069 591.726 265.393 592.488C265.718 593.25 266.599 593.605 267.362 593.28L266.185 590.52ZM257.869 596.906C258.653 596.64 259.074 595.788 258.808 595.004C258.542 594.219 257.69 593.799 256.906 594.065L257.869 596.906ZM252.172 595.569C251.378 595.805 250.925 596.64 251.161 597.434C251.397 598.229 252.232 598.681 253.026 598.445L252.172 595.569ZM243.181 600.965C243.991 600.791 244.506 599.993 244.331 599.183C244.156 598.373 243.358 597.858 242.549 598.033L243.181 600.965ZM237.674 598.988C236.858 599.132 236.313 599.91 236.457 600.726C236.601 601.542 237.378 602.086 238.194 601.943L237.674 598.988ZM228.127 603.325C228.951 603.244 229.554 602.509 229.472 601.685C229.391 600.86 228.656 600.258 227.832 600.34L228.127 603.325ZM222.88 600.734C222.053 600.784 221.423 601.495 221.473 602.322C221.523 603.149 222.234 603.779 223.061 603.728L222.88 600.734ZM212.902 603.958C213.73 603.971 214.412 603.309 214.425 602.481C214.437 601.653 213.776 600.971 212.948 600.958L212.902 603.958ZM207.982 600.788C207.155 600.744 206.449 601.379 206.405 602.206C206.361 603.033 206.996 603.74 207.823 603.784L207.982 600.788ZM197.703 602.859C198.525 602.966 199.277 602.386 199.384 601.565C199.49 600.743 198.911 599.991 198.089 599.884L197.703 602.859ZM193.175 599.152C192.358 599.014 191.584 599.565 191.447 600.382C191.309 601.199 191.86 601.973 192.677 602.11L193.175 599.152ZM182.727 600.044C183.531 600.243 184.345 599.752 184.544 598.948C184.743 598.144 184.252 597.331 183.448 597.132L182.727 600.044ZM178.649 595.846C177.853 595.617 177.022 596.076 176.793 596.872C176.563 597.668 177.022 598.499 177.818 598.729L178.649 595.846ZM168.168 595.545C168.944 595.834 169.808 595.439 170.097 594.663C170.387 593.887 169.992 593.023 169.216 592.734L168.168 595.545ZM164.594 590.911C163.83 590.592 162.951 590.954 162.633 591.719C162.314 592.483 162.676 593.362 163.441 593.68L164.594 590.911ZM154.216 589.418C154.954 589.794 155.857 589.5 156.233 588.762C156.609 588.024 156.315 587.12 155.577 586.745L154.216 589.418ZM151.194 584.407C150.47 584.003 149.557 584.262 149.153 584.986C148.749 585.709 149.008 586.623 149.732 587.027L151.194 584.407ZM141.053 581.741C141.744 582.198 142.675 582.009 143.132 581.319C143.59 580.628 143.401 579.697 142.71 579.24L141.053 581.741ZM138.622 576.418C137.949 575.934 137.012 576.088 136.529 576.76C136.045 577.433 136.199 578.37 136.871 578.854L138.622 576.418ZM128.851 572.616C129.485 573.149 130.431 573.067 130.964 572.433C131.497 571.798 131.415 570.852 130.781 570.319L128.851 572.616ZM127.01 567.043C126.391 566.492 125.443 566.547 124.892 567.166C124.341 567.785 124.397 568.733 125.015 569.284L127.01 567.043ZM117.584 562.414C118.181 562.988 119.131 562.969 119.704 562.371C120.278 561.774 120.259 560.824 119.661 560.25L117.584 562.414ZM116.086 556.752C115.499 556.167 114.55 556.168 113.965 556.755C113.38 557.342 113.381 558.291 113.968 558.876L116.086 556.752ZM106.939 551.596C107.503 552.203 108.452 552.238 109.059 551.674C109.666 551.11 109.701 550.161 109.137 549.554L106.939 551.596ZM105.764 545.855C105.212 545.237 104.264 545.184 103.646 545.737C103.029 546.289 102.976 547.237 103.528 547.855L105.764 545.855ZM96.9259 540.184C97.4542 540.822 98.3998 540.911 99.0379 540.383C99.6759 539.855 99.7648 538.909 99.2364 538.271L96.9259 540.184ZM96.0845 534.39C95.5684 533.742 94.6247 533.635 93.9767 534.152C93.3287 534.668 93.2218 535.611 93.738 536.259L96.0845 534.39ZM87.584 528.224C88.0751 528.891 89.014 529.034 89.6812 528.543C90.3484 528.052 90.4911 527.113 90.0001 526.446L87.584 528.224ZM87.0711 522.386C86.5929 521.709 85.6568 521.549 84.9804 522.027C84.3039 522.505 84.1433 523.441 84.6216 524.118L87.0711 522.386ZM78.9375 515.745C79.3896 516.439 80.3189 516.635 81.013 516.183C81.7072 515.731 81.9034 514.802 81.4512 514.107L78.9375 515.745ZM78.7609 509.89C78.3221 509.187 77.3967 508.974 76.6941 509.412C75.9914 509.851 75.7776 510.777 76.2165 511.479L78.7609 509.89ZM71.0194 502.795C71.4312 503.514 72.3477 503.762 73.0666 503.351C73.7854 502.939 74.0343 502.022 73.6225 501.304L71.0194 502.795ZM71.177 496.939C70.779 496.212 69.8673 495.946 69.1408 496.344C68.4143 496.742 68.148 497.654 68.546 498.38L71.177 496.939ZM63.8533 489.414C64.2234 490.155 65.1243 490.456 65.8654 490.086C66.6066 489.716 66.9074 488.815 66.5372 488.074L63.8533 489.414ZM64.3442 483.576C63.9882 482.828 63.0933 482.51 62.3452 482.866C61.5972 483.222 61.2793 484.117 61.6353 484.865L64.3442 483.576ZM57.4612 475.645C57.7885 476.406 58.6708 476.758 59.4318 476.431C60.1928 476.103 60.5445 475.221 60.2172 474.46L57.4612 475.645ZM58.2846 469.846C57.9719 469.079 57.0965 468.71 56.3293 469.023C55.5622 469.336 55.1939 470.211 55.5067 470.979L58.2846 469.846ZM51.8644 461.536C52.1478 462.314 53.0086 462.716 53.787 462.432C54.5655 462.149 54.9668 461.288 54.6834 460.51L51.8644 461.536ZM53.0162 455.792C52.7477 455.008 51.8946 454.591 51.111 454.859C50.3273 455.128 49.9097 455.981 50.1783 456.764L53.0162 455.792ZM47.0796 447.13C47.3182 447.924 48.1548 448.373 48.9481 448.135C49.7414 447.896 50.191 447.059 49.9524 446.266L47.0796 447.13ZM48.5566 441.461C48.3331 440.664 47.5052 440.198 46.7075 440.422C45.9098 440.645 45.4444 441.473 45.6679 442.271L48.5566 441.461ZM43.1225 432.476C43.3156 433.282 44.1252 433.778 44.9308 433.585C45.7364 433.392 46.233 432.582 46.0398 431.777L43.1225 432.476ZM44.9197 426.9C44.7419 426.091 43.9419 425.579 43.1328 425.757C42.3236 425.935 41.8118 426.735 41.9896 427.544L44.9197 426.9ZM40.0058 417.619C40.1527 418.435 40.9328 418.977 41.7481 418.83C42.5634 418.683 43.1052 417.903 42.9583 417.087L40.0058 417.619ZM42.1178 412.156C41.9864 411.338 41.2168 410.781 40.3989 410.913C39.5809 411.044 39.0244 411.814 39.1558 412.632L42.1178 412.156ZM37.7405 402.611C37.8408 403.433 38.5887 404.019 39.411 403.918C40.2333 403.818 40.8187 403.07 40.7185 402.248L37.7405 402.611ZM40.1602 397.275C40.0756 396.451 39.339 395.851 38.5149 395.936C37.6908 396.021 37.0913 396.757 37.1759 397.581L40.1602 397.275ZM36.3342 387.496C36.3874 388.323 37.1007 388.95 37.9274 388.897C38.7541 388.844 39.3812 388.131 39.328 387.304L36.3342 387.496ZM39.0543 382.308C39.0169 381.481 38.3156 380.84 37.4881 380.878C36.6605 380.915 36.0199 381.616 36.0574 382.444L39.0543 382.308ZM35.7925 372.326C35.7984 373.155 36.4747 373.822 37.3031 373.816C38.1316 373.81 38.7983 373.133 38.7924 372.305L35.7925 372.326ZM38.8043 367.303C38.8142 366.474 38.1507 365.795 37.3223 365.785C36.4939 365.775 35.8144 366.439 35.8046 367.267L38.8043 367.303ZM36.1178 357.152C36.0764 357.979 36.7135 358.683 37.5409 358.725C38.3683 358.766 39.0726 358.129 39.114 357.302L36.1178 357.152ZM39.4119 352.304C39.4691 351.478 38.8455 350.762 38.0191 350.705C37.1926 350.647 36.4763 351.271 36.4191 352.097L39.4119 352.304ZM37.31 342.015C37.2213 342.839 37.8172 343.579 38.6409 343.667C39.4646 343.756 40.2041 343.16 40.2928 342.336L37.31 342.015ZM40.8749 337.371C40.9792 336.549 40.3975 335.798 39.5757 335.694C38.7538 335.59 38.003 336.172 37.8988 336.993L40.8749 337.371ZM39.3638 326.98C39.2283 327.797 39.7809 328.569 40.5982 328.705C41.4155 328.84 42.1879 328.288 42.3234 327.47L39.3638 326.98ZM43.1891 322.54C43.3402 321.725 42.8023 320.943 41.9878 320.792C41.1732 320.641 40.3905 321.178 40.2394 321.993L43.1891 322.54ZM42.2732 312.08C42.0913 312.888 42.5991 313.691 43.4073 313.873C44.2155 314.055 45.0181 313.547 45.2 312.739L42.2732 312.08ZM46.3444 307.869C46.5416 307.065 46.0492 306.253 45.2445 306.055C44.4399 305.858 43.6278 306.351 43.4306 307.155L46.3444 307.869ZM46.0252 297.373C45.7977 298.17 46.259 299 47.0556 299.227C47.8522 299.455 48.6824 298.994 48.9099 298.197L46.0252 297.373ZM50.3689 293.224C50.6039 292.43 50.1505 291.595 49.3561 291.36C48.5617 291.125 47.7272 291.579 47.4922 292.373L50.3689 293.224ZM50.5287 282.11C50.2937 282.905 50.7471 283.739 51.5415 283.974C52.3359 284.209 53.1704 283.756 53.4054 282.961L50.5287 282.11ZM54.9237 277.83C55.1587 277.036 54.7053 276.201 53.9109 275.966C53.1165 275.731 52.282 276.184 52.0469 276.979L54.9237 277.83ZM55.0835 266.716C54.8484 267.511 55.3019 268.345 56.0962 268.58C56.8906 268.815 57.7251 268.362 57.9602 267.567L55.0835 266.716ZM59.4784 262.436C59.7135 261.642 59.26 260.807 58.4657 260.572C57.6713 260.337 56.8368 260.79 56.6017 261.585L59.4784 262.436ZM59.6382 251.322C59.4032 252.117 59.8566 252.951 60.651 253.186C61.4454 253.421 62.2799 252.968 62.5149 252.173L59.6382 251.322ZM64.0332 247.042C64.2682 246.248 63.8148 245.413 63.0204 245.178C62.226 244.943 61.3915 245.396 61.1565 246.191L64.0332 247.042ZM64.193 235.928C63.9579 236.723 64.4114 237.557 65.2058 237.792C66.0002 238.027 66.8347 237.574 67.0697 236.779L64.193 235.928ZM68.588 231.648C68.823 230.854 68.3696 230.019 67.5752 229.784C66.7808 229.549 65.9463 230.002 65.7112 230.797L68.588 231.648ZM68.7477 220.534C68.5127 221.328 68.9661 222.163 69.7605 222.398C70.5549 222.633 71.3894 222.18 71.6245 221.385L68.7477 220.534ZM73.1427 216.254C73.3778 215.46 72.9243 214.625 72.1299 214.39C71.3356 214.155 70.501 214.608 70.266 215.403L73.1427 216.254ZM73.3025 205.14C73.0675 205.934 73.5209 206.769 74.3153 207.004C75.1097 207.239 75.9442 206.786 76.1792 205.991L73.3025 205.14ZM282.735 582.038L282.56 582.141L284.091 584.721L284.265 584.618L282.735 582.038ZM281.861 582.556L281.686 582.66L283.217 585.24L283.392 585.136L281.861 582.556ZM281.686 582.66C280.971 583.084 280.254 583.5 279.534 583.909L281.016 586.518C281.752 586.099 282.486 585.673 283.217 585.24L281.686 582.66ZM270.717 588.486C269.216 589.195 267.705 589.873 266.185 590.52L267.362 593.28C268.916 592.617 270.462 591.924 271.997 591.199L270.717 588.486ZM256.906 594.065C255.335 594.597 253.756 595.099 252.172 595.569L253.026 598.445C254.647 597.964 256.262 597.451 257.869 596.906L256.906 594.065ZM242.549 598.033C240.928 598.383 239.302 598.701 237.674 598.988L238.194 601.943C239.861 601.649 241.523 601.323 243.181 600.965L242.549 598.033ZM227.832 600.34C226.183 600.502 224.532 600.634 222.88 600.734L223.061 603.728C224.751 603.626 226.44 603.492 228.127 603.325L227.832 600.34ZM212.948 600.958C211.291 600.933 209.636 600.876 207.982 600.788L207.823 603.784C209.514 603.874 211.207 603.932 212.902 603.958L212.948 600.958ZM198.089 599.884C196.447 599.671 194.809 599.427 193.175 599.152L192.677 602.11C194.348 602.392 196.023 602.641 197.703 602.859L198.089 599.884ZM183.448 597.132C181.842 596.734 180.242 596.305 178.649 595.846L177.818 598.729C179.447 599.198 181.084 599.637 182.727 600.044L183.448 597.132ZM169.216 592.734C167.666 592.156 166.125 591.549 164.594 590.911L163.441 593.68C165.006 594.333 166.582 594.954 168.168 595.545L169.216 592.734ZM155.577 586.745C154.104 585.995 152.642 585.215 151.194 584.407L149.732 587.027C151.214 587.854 152.709 588.651 154.216 589.418L155.577 586.745ZM142.71 579.24C141.333 578.327 139.97 577.387 138.622 576.418L136.871 578.854C138.25 579.845 139.645 580.807 141.053 581.741L142.71 579.24ZM130.781 570.319C130.147 569.786 129.516 569.247 128.89 568.7L126.918 570.96C127.558 571.519 128.202 572.071 128.851 572.616L130.781 570.319ZM128.89 568.7C128.26 568.15 127.634 567.598 127.01 567.043L125.015 569.284C125.646 569.845 126.28 570.404 126.918 570.96L128.89 568.7ZM119.661 560.25C118.457 559.094 117.265 557.928 116.086 556.752L113.968 558.876C115.16 560.066 116.366 561.245 117.584 562.414L119.661 560.25ZM109.137 549.554C108 548.33 106.875 547.097 105.764 545.855L103.528 547.855C104.652 549.111 105.789 550.358 106.939 551.596L109.137 549.554ZM99.2364 538.271C98.1725 536.986 97.1218 535.693 96.0845 534.39L93.738 536.259C94.7871 537.577 95.8498 538.885 96.9259 540.184L99.2364 538.271ZM90.0001 526.446C89.0101 525.101 88.0338 523.747 87.0711 522.386L84.6216 524.118C85.5952 525.495 86.5827 526.864 87.584 528.224L90.0001 526.446ZM81.4512 514.107C80.5405 512.709 79.6437 511.303 78.7609 509.89L76.2165 511.479C77.1093 512.909 78.0164 514.331 78.9375 515.745L81.4512 514.107ZM73.6225 501.304C72.7931 499.856 71.9779 498.401 71.177 496.939L68.546 498.38C69.356 499.859 70.1805 501.33 71.0194 502.795L73.6225 501.304ZM66.5372 488.074C65.7917 486.581 65.0607 485.081 64.3442 483.576L61.6353 484.865C62.3599 486.388 63.0993 487.904 63.8533 489.414L66.5372 488.074ZM60.2172 474.46C59.5583 472.928 58.9141 471.39 58.2846 469.846L55.5067 470.979C56.1432 472.54 56.7948 474.096 57.4612 475.645L60.2172 474.46ZM54.6834 460.51C54.1127 458.942 53.5569 457.369 53.0162 455.792L50.1783 456.764C50.7251 458.36 51.2872 459.951 51.8644 461.536L54.6834 460.51ZM49.9524 446.266C49.4719 444.669 49.0067 443.067 48.5566 441.461L45.6679 442.271C46.1231 443.895 46.5936 445.515 47.0796 447.13L49.9524 446.266ZM46.0398 431.777C45.6511 430.155 45.2777 428.529 44.9197 426.9L41.9896 427.544C42.3517 429.192 42.7293 430.836 43.1225 432.476L46.0398 431.777ZM42.9583 417.087C42.6626 415.447 42.3824 413.803 42.1178 412.156L39.1558 412.632C39.4234 414.297 39.7068 415.96 40.0058 417.619L42.9583 417.087ZM40.7185 402.248C40.5167 400.593 40.3306 398.935 40.1602 397.275L37.1759 397.581C37.3482 399.26 37.5365 400.937 37.7405 402.611L40.7185 402.248ZM39.328 387.304C39.221 385.64 39.1297 383.975 39.0543 382.308L36.0574 382.444C36.1337 384.13 36.226 385.814 36.3342 387.496L39.328 387.304ZM38.7924 372.305C38.7805 370.639 38.7845 368.971 38.8043 367.303L35.8046 367.267C35.7845 368.954 35.7805 370.641 35.7925 372.326L38.7924 372.305ZM39.114 357.302C39.1974 355.636 39.2967 353.971 39.4119 352.304L36.4191 352.097C36.3025 353.782 36.2021 355.467 36.1178 357.152L39.114 357.302ZM40.2928 342.336C40.4709 340.681 40.6649 339.026 40.8749 337.371L37.8988 336.993C37.6864 338.667 37.4901 340.341 37.31 342.015L40.2928 342.336ZM42.3234 327.47C42.596 325.826 42.8846 324.182 43.1891 322.54L40.2394 321.993C39.9314 323.654 39.6395 325.316 39.3638 326.98L42.3234 327.47ZM45.2 312.739C45.5656 311.114 45.947 309.491 46.3444 307.869L43.4306 307.155C43.0287 308.795 42.6429 310.437 42.2732 312.08L45.2 312.739ZM48.9099 298.197C49.1392 297.394 49.3725 296.592 49.6098 295.79L46.7331 294.939C46.4931 295.75 46.2572 296.561 46.0252 297.373L48.9099 298.197ZM49.6098 295.79L50.3689 293.224L47.4922 292.373L46.7331 294.939L49.6098 295.79ZM53.4054 282.961L54.9237 277.83L52.0469 276.979L50.5287 282.11L53.4054 282.961ZM57.9602 267.567L59.4784 262.436L56.6017 261.585L55.0835 266.716L57.9602 267.567ZM62.5149 252.173L64.0332 247.042L61.1565 246.191L59.6382 251.322L62.5149 252.173ZM67.0697 236.779L68.588 231.648L65.7112 230.797L64.193 235.928L67.0697 236.779ZM71.6245 221.385L73.1427 216.254L70.266 215.403L68.7477 220.534L71.6245 221.385ZM76.1792 205.991L76.9384 203.426L74.0616 202.574L73.3025 205.14L76.1792 205.991Z" fill="#15466B"/>
<path d="M113.579 493L110.373 493L110.373 539.993L113.579 539.993L113.579 493Z" fill="#15466B"/>
<path d="M119.427 493L116.216 493L116.216 539.993L119.427 539.993L119.427 493Z" fill="#15466B"/>
<path d="M246.144 493L242.932 493L242.932 539.993L246.144 539.993L246.144 493Z" fill="#15466B"/>
<path d="M251.987 493L248.775 493L248.775 539.993L251.987 539.993L251.987 493Z" fill="#15466B"/>
<path d="M382.835 493L379.624 493L379.624 539.993L382.835 539.993L382.835 493Z" fill="#15466B"/>
<path d="M388.679 493L385.467 493L385.467 539.993L388.679 539.993L388.679 493Z" fill="#15466B"/>
<path d="M129.11 493L122.285 493L122.285 540L129.11 540L129.11 493Z" fill="#15466B"/>
<path d="M158.789 493L151.964 493L151.964 540L158.789 540L158.789 493Z" fill="#15466B"/>
<path d="M287.26 493L280.435 493L280.435 540L287.26 540L287.26 493Z" fill="#15466B"/>
<path d="M299.222 493L292.397 493L292.397 540L299.222 540L299.222 493Z" fill="#15466B"/>
<path d="M228.134 493L221.309 493L221.309 540L228.134 540L228.134 493Z" fill="#15466B"/>
<path d="M216.779 493L204.834 493L204.834 540L216.779 540L216.779 493Z" fill="#15466B"/>
<path d="M267.784 493L255.838 493L255.838 540L267.784 540L267.784 493Z" fill="#15466B"/>
<path d="M375.089 493L363.143 493L363.143 540L375.089 540L375.089 493Z" fill="#15466B"/>
<path d="M138.843 493L135.621 493L135.621 540L138.843 540L138.843 493Z" fill="#15466B"/>
<path d="M144.4 493L141.172 493L141.172 540L144.4 540L144.4 493Z" fill="#15466B"/>
<path d="M168.522 493L165.3 493L165.3 540L168.522 540L168.522 493Z" fill="#15466B"/>
<path d="M174.073 493L170.851 493L170.851 540L174.073 540L174.073 493Z" fill="#15466B"/>
<path d="M307.173 493L303.945 493L303.945 540L307.173 540L307.173 493Z" fill="#15466B"/>
<path d="M312.718 493L309.496 493L309.496 540L312.718 540L312.718 493Z" fill="#15466B"/>
<path d="M186.096 493L182.868 493L182.868 540L186.096 540L186.096 493Z" fill="#15466B"/>
<path d="M193.539 493L190.317 493L190.317 540L193.539 540L193.539 493Z" fill="#15466B"/>
<path d="M200.74 493L197.512 493L197.512 540L200.74 540L200.74 493Z" fill="#15466B"/>
<path d="M333.288 493L330.065 493L330.065 540L333.288 540L333.288 493Z" fill="#15466B"/>
<path d="M340.742 493L337.514 493L337.514 540L340.742 540L340.742 493Z" fill="#15466B"/>
<path d="M347.937 493L344.709 493L344.709 540L347.937 540L347.937 493Z" fill="#15466B"/>
<path d="M238.838 493L235.616 493L235.616 540L238.838 540L238.838 493Z" fill="#15466B"/>
<path d="M323.428 493L320.206 493L320.206 540L323.428 540L323.428 493Z" fill="#15466B"/>
<path d="M358.746 493L355.523 493L355.523 540L358.746 540L358.746 493Z" fill="#15466B"/>
<path d="M275.696 493L272.468 493L272.468 540L275.696 540L275.696 493Z" fill="#15466B"/>
<path d="M359.471 443.555C359.018 443.499 358.187 444.678 357.807 444.631C352.647 443.995 347.609 442.376 342.448 441.755C341.657 441.658 340.563 441.842 340.213 441.007C339.864 440.172 341.093 439.783 341.629 439.168C344.418 435.766 346.943 432.14 349.74 428.739C352.537 425.338 354.99 421.643 357.78 418.242C360.57 414.84 363.994 411.968 366.784 408.567C369.573 405.165 371.333 400.889 374.123 397.48C374.49 397.085 374.975 396.822 375.502 396.732C376.03 396.642 376.571 396.73 377.044 396.981C377.49 397.238 377.842 397.635 378.046 398.112C378.25 398.59 378.296 399.122 378.177 399.63C377.09 404.425 374.768 408.95 373.688 413.754C372.608 418.557 372.712 423.633 371.632 428.436C371.607 428.64 371.078 428.79 371.039 429.103C371.65 429.179 372.34 428.435 372.908 428.505C377.851 429.113 382.644 430.947 387.589 431.548C388.401 431.648 389.424 431.219 389.789 432.108C390.153 432.996 388.919 433.244 388.403 433.883C385.626 437.242 383.02 440.814 380.239 444.202C377.459 447.59 374.936 451.195 372.155 454.583C369.375 457.971 366.739 461.488 363.958 464.876C361.178 468.263 358.384 471.642 355.603 475.03C354.96 475.81 354.015 476.966 352.954 476.406C351.892 475.846 351.558 474.236 351.781 473.25C352.871 468.425 354.06 463.627 355.142 458.809C356.224 453.991 358.485 449.429 359.574 444.611C359.521 444.262 359.487 443.909 359.471 443.555Z" fill="#D0468B"/>
<path d="M156.383 570.492C157.657 573.057 158.386 575.074 158.932 577.456C159.296 579.106 159.114 580.755 158.932 582.221C158.75 583.138 158.204 583.138 157.475 582.771C156.201 582.221 154.926 581.671 154.198 580.572C152.923 578.922 151.831 576.906 150.738 575.074C149.828 573.607 149.646 573.607 148.371 574.707C145.64 577.273 142.726 579.289 139.085 580.388C138.538 580.388 138.174 580.938 137.81 580.388C137.446 580.022 137.81 579.472 137.81 579.106C138.356 576.54 138.903 574.157 139.995 571.958C140.359 571.225 140.359 570.858 139.449 570.675C136.353 570.308 133.804 568.842 131.437 566.826C130.709 566.093 130.891 565.36 131.983 564.81C134.532 563.527 137.264 562.794 139.995 562.061C140.723 561.878 141.634 561.695 142.544 561.695C143.637 561.695 143.455 560.778 143.09 560.228C141.27 557.663 140.177 554.73 139.267 551.614C139.267 550.881 138.72 550.332 138.72 549.598C138.72 548.132 139.085 547.766 140.541 548.132C141.634 548.499 142.908 548.682 143.819 549.415C146.732 551.614 149.828 553.631 152.195 556.38C152.741 557.113 153.105 556.929 153.287 556.196C154.38 553.63 156.929 552.531 159.296 551.431C161.299 550.515 163.302 550.515 165.487 551.065C166.58 551.431 166.944 552.164 166.033 553.081C164.212 554.913 163.302 557.296 162.027 559.495C161.663 560.228 160.935 560.961 160.571 561.695C160.207 562.244 160.207 562.611 161.117 562.794C165.305 563.527 168.036 566.276 169.857 569.759C170.221 570.492 169.857 570.858 169.129 570.858C165.123 571.225 161.117 571.958 156.747 570.492H156.383Z" fill="#AB8EB8"/>
<path d="M157.888 38.4531C161.044 40.7021 163.265 43.697 166.247 45.9233C168.198 47.4699 170.036 49.1632 171.746 50.989C172.165 51.4178 171.887 51.7963 171.465 51.9169C170.834 52.0773 170.217 52.087 169.549 52.2566C167.037 52.8951 164.602 53.8355 162.098 54.4583C161.419 54.6311 161.237 54.6773 161.422 55.4063C161.815 56.9524 162.211 58.5111 162.531 60.0757C162.646 60.5282 162.367 60.8 161.918 60.9141C160.801 61.1979 159.729 61.6043 158.619 61.9132C158.024 62.0644 157.825 61.7402 157.696 61.1307C157.322 59.66 156.687 58.2291 156.386 56.7399C156.198 55.9983 156.121 55.6965 155.421 55.888C152.908 56.5265 150.409 57.1619 147.896 57.8004C147.557 57.8868 147.259 58.19 146.907 58.2795C145.997 58.5109 145.652 57.9161 145.871 57.2045C146.264 55.6996 146.715 54.2201 147.166 52.7405C148.466 48.5906 150.06 44.5492 151.935 40.6487C152.057 40.417 152.209 40.2041 152.079 39.9964C151.995 39.8719 151.873 39.7806 151.732 39.7382C151.592 39.6958 151.442 39.7049 151.309 39.7639C148.518 40.4734 145.796 41.4061 142.999 42.0904C141.87 42.3773 141.63 42.1439 141.903 41.0308C142.664 38.234 143.598 35.4932 144.701 32.8255C145.706 30.1211 146.695 27.4073 147.704 24.7155C148.217 23.3806 149.067 22.2011 149.651 20.8885C150.016 20.0865 150.271 20.0751 150.95 20.5584C153.678 22.7019 156.442 24.7828 159.056 27.0357C161.776 29.1898 164.377 31.4997 166.848 33.9542C167.27 34.3955 167.908 35.023 167.762 35.5685C167.617 36.114 166.752 36.1196 166.182 36.2645C163.451 36.9586 160.886 37.6911 157.888 38.4531Z" fill="#77B945"/>
</svg>
