<svg width="375" height="2453" viewBox="0 0 375 2453" fill="none" xmlns="http://www.w3.org/2000/svg">
<path d="M135.569 582.61C135.569 537.295 202.957 526.306 230.24 524.018C276.809 520.113 326.037 525.951 374.92 535.528C374.884 2099.3 374.87 3925.06 374.982 535.54C374.988 535.541 374.994 535.542 375 535.544C375 344.023 374.999 174.06 374.999 24.081C374.999 16.0774 374.999 8.05069 375 0.000732422C374.994 -1498.1 374.961 -952.571 374.934 0.000671387L166.488 0.000488281C129.252 0.000409608 101.239 0.000336475 -0.00012207 0.000427246L0.000158619 612C64.0288 639.567 141.206 657.143 163.376 661.887C165.291 662.297 166.658 659.888 165.418 658.371C156.323 647.25 135.569 617.996 135.569 582.61Z" fill="url(#paint0_linear_402_843)"/>
<defs>
<linearGradient id="paint0_linear_402_843" x1="187.5" y1="-930.117" x2="187.5" y2="2452.37" gradientUnits="userSpaceOnUse">
<stop stop-color="#F1F8FD"/>
<stop offset="1" stop-color="#E7F1F8"/>
</linearGradient>
</defs>
</svg>
