<svg width="20" height="20" viewBox="0 0 20 20" fill="none" xmlns="http://www.w3.org/2000/svg">
<path d="M8.34002 19.1421H1.78027V18.0015H7.31936L8.13588 10.6544L9.26995 10.7792L8.34002 19.1421Z" fill="white"/>
<path d="M18.2793 19.1421H11.6855L10.7556 10.7792L11.8881 10.6544L12.7046 18.0015H18.2793V19.1421Z" fill="white"/>
<path d="M7.85693 17.1682L5.92578 16.491L6.30326 15.4153L8.23441 16.0925L7.85693 17.1682Z" fill="white"/>
<path d="M12.3713 17.7344L11.7297 16.7931L13.6512 15.4825L14.2927 16.4253L12.3713 17.7344Z" fill="white"/>
<path d="M12.6811 14.5599H11.6864V13.4194H12.6811C13.462 13.4194 14.183 12.9625 14.5167 12.2562C14.7808 11.6956 14.7727 11.0314 14.494 10.4773L14.4746 10.4384C14.1279 9.75151 13.4329 9.32381 12.6617 9.32381H12.2502L12.0882 8.8313C11.7933 7.95159 10.972 7.35864 10.042 7.35864C9.11371 7.35864 8.29232 7.95159 7.99747 8.83292L7.83546 9.32381H7.42396C6.66413 9.30599 5.96101 9.72883 5.62566 10.3979L5.59325 10.4644C5.30812 11.033 5.30812 11.7102 5.59325 12.2789L5.60621 12.3048C5.94805 12.9901 6.64469 13.4194 7.4191 13.4194H8.33931V14.5599H7.4191C6.20889 14.5599 5.12343 13.8876 4.58232 12.807L4.56936 12.7811C4.13031 11.9014 4.13031 10.8418 4.5726 9.95402L4.60662 9.8876C5.07483 8.95119 5.99504 8.31935 7.02055 8.20271C7.53898 7.00546 8.72003 6.21972 10.042 6.21972C11.3689 6.21972 12.5515 7.0087 13.0683 8.20919C14.1068 8.34203 15.0125 8.97387 15.4936 9.9281L15.5131 9.96698C15.9537 10.8418 15.9667 11.8544 15.5471 12.7438C15.027 13.8471 13.9011 14.5599 12.6811 14.5599Z" fill="white"/>
<path d="M1.39004 16.5889C0.481166 15.0546 0 13.2936 0 11.5002C0 5.987 4.48603 1.50259 10.0008 1.50259C15.514 1.50259 20 5.987 20 11.5002C20 13.2596 19.5367 14.9898 18.6602 16.503L17.6735 15.9311C18.4496 14.5913 18.8595 13.0587 18.8595 11.5002C18.8595 6.6156 14.8854 2.64152 10.0008 2.64152C5.11462 2.64152 1.13892 6.6156 1.13892 11.5002C1.13892 13.0895 1.56501 14.648 2.37019 16.0073L1.39004 16.5889Z" fill="white"/>
</svg>
