<svg width="17" height="17" viewBox="0 0 17 17" fill="none" xmlns="http://www.w3.org/2000/svg">
<mask id="mask0_1297_6772" style="mask-type:alpha" maskUnits="userSpaceOnUse" x="0" y="0" width="17" height="17">
<rect width="17" height="17" fill="#D9D9D9"/>
</mask>
<g mask="url(#mask0_1297_6772)">
<path d="M4.95825 15.2545C4.56867 15.2545 4.23516 15.1009 3.95773 14.7938C3.6803 14.4866 3.54159 14.1174 3.54159 13.686V3.49111H2.83325V1.92265H6.37492V1.13843H10.6249V1.92265H14.1666V3.49111H13.4583V13.686C13.4583 14.1174 13.3195 14.4866 13.0421 14.7938C12.7647 15.1009 12.4312 15.2545 12.0416 15.2545H4.95825ZM12.0416 3.49111H4.95825V13.686H12.0416V3.49111ZM6.37492 12.1176H7.79158V5.05956H6.37492V12.1176ZM9.20825 12.1176H10.6249V5.05956H9.20825V12.1176Z" fill="#15466B"/>
</g>
</svg>
