<svg width="20" height="20" viewBox="0 0 20 20" fill="none" xmlns="http://www.w3.org/2000/svg">
<circle cx="10.0001" cy="10.0002" r="9.9" fill="#77B945"/>
<path d="M7.35789 16.8596C7.24743 16.8596 7.15789 16.77 7.15789 16.6596V11.2546C7.15789 10.7631 6.78477 10.3657 6.35339 10.1301C6.10138 9.9925 5.87183 9.80869 5.66473 9.57869C5.25494 9.12359 5.05005 8.57238 5.05005 7.92507V3.27025C5.05005 3.15979 5.13959 3.07025 5.25005 3.07025H5.65238C5.76283 3.07025 5.85238 3.15979 5.85238 3.27025V7.72507C5.85238 7.83553 5.94192 7.92507 6.05238 7.92507H6.95789C7.06835 7.92507 7.15789 7.83553 7.15789 7.72507V3.27025C7.15789 3.15979 7.24743 3.07025 7.35789 3.07025H7.7602C7.87066 3.07025 7.9602 3.15979 7.9602 3.27025V7.72507C7.9602 7.83553 8.04974 7.92507 8.1602 7.92507H9.05892C9.16938 7.92507 9.25892 7.83553 9.25892 7.72507V3.27025C9.25892 3.15979 9.34847 3.07025 9.45892 3.07025H9.86123C9.97169 3.07025 10.0612 3.15979 10.0612 3.27025V7.92507C10.0612 8.57238 9.85634 9.12359 9.44657 9.57869C9.24038 9.80769 9.0125 9.9909 8.76292 10.1283C8.33277 10.3652 7.9602 10.7625 7.9602 11.2536V16.6596C7.9602 16.77 7.87066 16.8596 7.7602 16.8596H7.35789ZM14.3477 16.8596C14.2373 16.8596 14.1477 16.77 14.1477 16.6596V11.4024C14.1477 11.2919 14.0582 11.2024 13.9477 11.2024H12.4847C12.3742 11.2024 12.2847 11.1128 12.2847 11.0024V6.10281C12.2847 5.25786 12.5222 4.55593 12.9972 3.99702C13.431 3.48669 14.0114 3.18856 14.7384 3.10262C14.8528 3.0891 14.95 3.18108 14.95 3.29627V16.6596C14.95 16.77 14.8605 16.8596 14.75 16.8596H14.3477Z" fill="white"/>
</svg>
