<svg width="21" height="22" viewBox="0 0 21 22" fill="none" xmlns="http://www.w3.org/2000/svg">
<mask id="path-1-outside-1_1404_4288" maskUnits="userSpaceOnUse" x="1" y="-0.000244141" width="19" height="22" fill="black">
<rect fill="white" x="1" y="-0.000244141" width="19" height="22"/>
<path d="M12.5671 11.6197C12.4059 12.1677 12.3136 12.7378 12.3136 13.4221C12.3136 14.5344 12.488 15.7199 12.7869 16.8746C13.1064 18.1012 13.5665 19.2984 14.1116 20.3491C14.116 20.3594 14.1234 20.3667 14.1292 20.3711C14.1365 20.374 14.1453 20.377 14.1571 20.377H16.6292C16.6409 20.377 16.6512 20.374 16.657 20.3711C16.6644 20.3667 16.6717 20.3579 16.6761 20.3491C17.2212 19.2999 17.6814 18.1026 18.0008 16.8746C18.2998 15.7199 18.4742 14.5344 18.4742 13.4221C18.4742 12.7378 18.3818 12.1677 18.2206 11.6197C18.0565 11.0657 17.8206 10.5294 17.5348 9.92124C17.422 9.68238 17.3106 9.44205 17.2036 9.19293C17.0952 8.94528 16.9941 8.69469 16.9091 8.43971C16.9047 8.42945 16.8974 8.4192 16.89 8.41334C16.8827 8.40747 16.8725 8.40454 16.8593 8.40454H13.9285C13.9153 8.40454 13.905 8.40747 13.8977 8.41334C13.8889 8.4192 13.883 8.42945 13.8786 8.43971C13.7922 8.69469 13.6925 8.94528 13.5841 9.19293C13.4742 9.45085 13.3643 9.68678 13.2529 9.92124C12.9671 10.5294 12.7297 11.0657 12.5671 11.6197ZM16.5369 6.09505L16.5383 6.03644C16.5383 6.02764 16.5369 6.02032 16.5354 6.01446C16.5325 6.01006 16.5281 6.0042 16.5222 5.99834C16.5178 5.99248 16.512 5.98808 16.5061 5.98661C16.5002 5.98368 16.4944 5.98222 16.4856 5.98222H14.3021C14.2933 5.98222 14.2875 5.98368 14.2816 5.98661C14.2758 5.98808 14.2699 5.99248 14.264 5.99834C14.2596 6.0042 14.2538 6.01006 14.2523 6.01446C14.2508 6.02032 14.2494 6.02764 14.2494 6.03644L14.2508 6.1566C14.2508 6.41745 14.2391 6.67829 14.2113 6.9406C14.1834 7.20144 14.1409 7.45935 14.0823 7.71873C14.0809 7.72752 14.0809 7.73632 14.0823 7.74218C14.0838 7.74804 14.0867 7.75537 14.0926 7.76416C14.0984 7.77002 14.1043 7.77442 14.1102 7.77881C14.116 7.78028 14.1233 7.78174 14.1336 7.78174H16.6541C16.6644 7.78174 16.6717 7.78028 16.6761 7.77881C16.682 7.77442 16.6893 7.77002 16.6951 7.76416C16.6995 7.75537 16.7039 7.74804 16.7054 7.74218C16.7069 7.73632 16.7069 7.72752 16.7054 7.71873C16.6468 7.45935 16.6043 7.20144 16.5764 6.9406C16.5486 6.67829 16.5354 6.41745 16.5354 6.1566C16.5383 6.15367 16.5369 6.10238 16.5369 6.09505ZM16.5427 2.09888C16.2482 1.80579 15.8423 1.62408 15.3939 1.62408C14.9454 1.62408 14.5395 1.80579 14.2435 2.10034C13.949 2.39489 13.7673 2.80081 13.7673 3.24922C13.7673 3.43826 13.7878 3.60971 13.8229 3.77531C13.8566 3.94823 13.9065 4.12261 13.9607 4.30725C14.0076 4.47284 14.053 4.6355 14.094 4.80403C14.1351 4.97401 14.1688 5.14254 14.1937 5.31545C14.1952 5.32864 14.201 5.34037 14.2113 5.34769C14.2201 5.35502 14.2318 5.35942 14.245 5.35942H16.5427C16.5559 5.35942 16.5677 5.35502 16.5764 5.34769C16.5852 5.34037 16.5911 5.32864 16.5926 5.31545C16.6189 5.14254 16.6526 4.97401 16.6937 4.80403C16.7332 4.6355 16.7787 4.47284 16.827 4.30725C16.8813 4.12261 16.9311 3.94823 16.9648 3.77531C16.9985 3.60971 17.019 3.43826 17.019 3.24922C17.019 2.80227 16.8373 2.39489 16.5427 2.09888ZM2.50703 16.816C2.18171 16.0115 2 15.1161 2 14.149C2 13.5218 2.0806 12.918 2.23007 12.345C2.61987 10.8503 3.48739 9.57834 4.65386 8.68151C5.82179 7.78467 7.28867 7.26006 8.87864 7.26006C9.50144 7.26006 10.1418 7.34065 10.7939 7.51064C11.2511 7.63081 11.6307 7.79347 11.9882 7.99716C12.3399 8.19938 12.6711 8.44118 13.0375 8.724C13.0433 8.7284 13.0507 8.73279 13.0595 8.73426C13.0668 8.73573 13.0741 8.73573 13.0829 8.73279C13.0932 8.72986 13.1005 8.72547 13.1049 8.72254C13.1093 8.71814 13.1137 8.71228 13.1166 8.70202C13.2895 8.27852 13.417 7.86967 13.502 7.45349C13.5855 7.04025 13.628 6.61381 13.628 6.1566C13.628 5.84593 13.6046 5.57483 13.5592 5.31106C13.5152 5.03996 13.4478 4.77472 13.3628 4.48017C13.3027 4.27355 13.247 4.07718 13.2104 3.88375C13.1694 3.68152 13.1445 3.4749 13.1445 3.24922C13.1445 2.62935 13.3965 2.06664 13.8039 1.65925C14.2113 1.25187 14.774 0.999817 15.3939 0.999817C16.0137 0.999817 16.5764 1.25187 16.9838 1.65925C17.3912 2.06664 17.6433 2.62935 17.6433 3.24922C17.6433 3.4749 17.6184 3.68152 17.5773 3.88375C17.5392 4.07718 17.485 4.27355 17.4249 4.48017C17.3399 4.77472 17.2725 5.03996 17.2271 5.31106C17.1831 5.57483 17.1597 5.84593 17.1597 6.1566C17.1597 6.83948 17.2505 7.40953 17.4132 7.95906C17.5759 8.51298 17.8118 9.04932 18.0975 9.656C18.3994 10.2993 18.6485 10.8679 18.8229 11.4629C18.9988 12.0637 19.097 12.6835 19.097 13.4221C19.097 14.2589 19.0105 15.1015 18.8537 15.9324C18.6881 16.8233 18.4405 17.7011 18.1371 18.5467C17.9906 18.9526 17.822 19.3834 17.6345 19.8069C17.4733 20.1689 17.3004 20.522 17.1172 20.8415C17.0893 20.8913 17.0498 20.9309 17.0029 20.9573C16.956 20.9851 16.9032 20.9998 16.8475 20.9998H13.9402C13.8845 20.9998 13.8317 20.9851 13.7834 20.9573C13.7365 20.9309 13.6984 20.8913 13.6705 20.8415C13.4844 20.5191 13.3115 20.1659 13.1518 19.8069C12.9642 19.3849 12.7957 18.9526 12.6506 18.5467C12.3473 17.7011 12.0996 16.8233 11.934 15.9324C11.7772 15.1015 11.6908 14.2589 11.6908 13.4221C11.6908 12.6835 11.7889 12.0637 11.9648 11.4629C12.1392 10.8679 12.3868 10.2993 12.6902 9.656L12.8147 9.39077C12.8191 9.37904 12.8206 9.36585 12.8177 9.35413C12.8147 9.34241 12.8074 9.33361 12.7986 9.32629L12.7752 9.3087C12.2227 8.86175 11.5984 8.51445 10.9346 8.27852C10.2708 8.04405 9.56592 7.92096 8.85226 7.92096C7.1348 7.92096 5.57707 8.61849 4.45017 9.74686C3.3218 10.8752 2.6228 12.4315 2.6228 14.149C2.6228 15.865 3.3218 17.4227 4.45017 18.5496C5.57707 19.678 7.1348 20.377 8.85226 20.377C9.29482 20.377 9.73005 20.3315 10.1536 20.2421C10.5771 20.1513 10.9918 20.0179 11.3904 19.8377C11.4695 19.804 11.5545 19.804 11.6292 19.8318C11.7025 19.8597 11.7655 19.9168 11.8021 19.9959L11.8065 20.0062C11.8358 20.0809 11.8358 20.1615 11.8095 20.2333C11.7816 20.3066 11.7259 20.3711 11.6483 20.4048L11.638 20.4092C10.6943 20.7931 9.73591 20.9719 8.80977 20.9719C7.42495 20.9719 6.10755 20.5719 5.00849 19.8509C3.90797 19.1314 3.02579 18.0909 2.50703 16.816ZM9.17671 10.9485C9.10197 10.8738 8.99793 10.8269 8.88363 10.8269C8.76932 10.8269 8.66528 10.8738 8.59055 10.9485C8.51434 11.0232 8.46892 11.1273 8.46892 11.2416C8.46892 11.3559 8.51434 11.4599 8.59055 11.5361C8.66528 11.6109 8.76932 11.6578 8.88363 11.6578C8.99793 11.6578 9.10197 11.6109 9.17671 11.5361C9.25145 11.4599 9.29834 11.3559 9.29834 11.2416C9.29834 11.1273 9.25145 11.0232 9.17671 10.9485ZM9.6178 11.9758C9.43023 12.1648 9.16938 12.2806 8.88363 12.2806C8.59787 12.2806 8.33703 12.1648 8.14946 11.9758C7.96188 11.7882 7.84612 11.5273 7.84612 11.2416C7.84612 10.9558 7.96188 10.6964 8.14946 10.5074C8.33703 10.3198 8.59787 10.2041 8.88363 10.2041C9.16938 10.2041 9.43023 10.3198 9.6178 10.5074C9.80537 10.6964 9.9226 10.9573 9.9226 11.2416C9.9226 11.5288 9.80537 11.7882 9.6178 11.9758ZM8.17671 14.8544C8.10197 14.7797 7.99793 14.7342 7.88363 14.7342C7.76932 14.7342 7.66528 14.7797 7.59055 14.8559C7.51434 14.9291 7.46892 15.0332 7.46892 15.149C7.46892 15.2633 7.51434 15.3673 7.59055 15.442C7.66528 15.5168 7.76932 15.5637 7.88363 15.5637C7.99793 15.5637 8.10197 15.5182 8.17671 15.442C8.25145 15.3673 8.29834 15.2633 8.29834 15.149C8.29834 15.0332 8.25291 14.9291 8.17817 14.8559L8.17671 14.8544ZM8.6178 15.8817C8.43023 16.0707 8.16938 16.1865 7.88363 16.1865C7.59787 16.1865 7.33703 16.0707 7.14946 15.8817C6.96188 15.6941 6.84612 15.4347 6.84612 15.149C6.84612 14.8632 6.96188 14.6038 7.14946 14.4148C7.33703 14.2272 7.59787 14.11 7.88363 14.11C8.16938 14.11 8.43023 14.2272 8.6178 14.4148C8.80537 14.6024 8.9226 14.8617 8.9226 15.149C8.9226 15.4347 8.80537 15.6941 8.6178 15.8817ZM5.75438 12.9883C5.82912 12.9136 5.87601 12.8096 5.87601 12.6953C5.87601 12.581 5.82912 12.4769 5.75438 12.4022C5.67965 12.326 5.5756 12.2806 5.4613 12.2806C5.347 12.2806 5.24296 12.326 5.16675 12.4022C5.09348 12.4769 5.04659 12.581 5.04659 12.6953C5.04659 12.811 5.09202 12.9151 5.16675 12.9883C5.24296 13.0646 5.347 13.11 5.4613 13.11C5.5756 13.11 5.67965 13.0646 5.75438 12.9883ZM4.72713 13.4294C4.53956 13.2404 4.42233 12.981 4.42233 12.6953C4.42233 12.4095 4.53956 12.1501 4.72713 11.9611C4.9147 11.7735 5.17555 11.6578 5.4613 11.6578C5.74706 11.6578 6.00643 11.7735 6.19547 11.9626C6.38305 12.1501 6.49881 12.4095 6.49881 12.6953C6.49881 12.981 6.38305 13.2404 6.19547 13.4294C6.00643 13.617 5.74706 13.7342 5.4613 13.7342C5.17555 13.7342 4.9147 13.617 4.72713 13.4294Z"/>
</mask>
<path d="M12.5671 11.6197C12.4059 12.1677 12.3136 12.7378 12.3136 13.4221C12.3136 14.5344 12.488 15.7199 12.7869 16.8746C13.1064 18.1012 13.5665 19.2984 14.1116 20.3491C14.116 20.3594 14.1234 20.3667 14.1292 20.3711C14.1365 20.374 14.1453 20.377 14.1571 20.377H16.6292C16.6409 20.377 16.6512 20.374 16.657 20.3711C16.6644 20.3667 16.6717 20.3579 16.6761 20.3491C17.2212 19.2999 17.6814 18.1026 18.0008 16.8746C18.2998 15.7199 18.4742 14.5344 18.4742 13.4221C18.4742 12.7378 18.3818 12.1677 18.2206 11.6197C18.0565 11.0657 17.8206 10.5294 17.5348 9.92124C17.422 9.68238 17.3106 9.44205 17.2036 9.19293C17.0952 8.94528 16.9941 8.69469 16.9091 8.43971C16.9047 8.42945 16.8974 8.4192 16.89 8.41334C16.8827 8.40747 16.8725 8.40454 16.8593 8.40454H13.9285C13.9153 8.40454 13.905 8.40747 13.8977 8.41334C13.8889 8.4192 13.883 8.42945 13.8786 8.43971C13.7922 8.69469 13.6925 8.94528 13.5841 9.19293C13.4742 9.45085 13.3643 9.68678 13.2529 9.92124C12.9671 10.5294 12.7297 11.0657 12.5671 11.6197ZM16.5369 6.09505L16.5383 6.03644C16.5383 6.02764 16.5369 6.02032 16.5354 6.01446C16.5325 6.01006 16.5281 6.0042 16.5222 5.99834C16.5178 5.99248 16.512 5.98808 16.5061 5.98661C16.5002 5.98368 16.4944 5.98222 16.4856 5.98222H14.3021C14.2933 5.98222 14.2875 5.98368 14.2816 5.98661C14.2758 5.98808 14.2699 5.99248 14.264 5.99834C14.2596 6.0042 14.2538 6.01006 14.2523 6.01446C14.2508 6.02032 14.2494 6.02764 14.2494 6.03644L14.2508 6.1566C14.2508 6.41745 14.2391 6.67829 14.2113 6.9406C14.1834 7.20144 14.1409 7.45935 14.0823 7.71873C14.0809 7.72752 14.0809 7.73632 14.0823 7.74218C14.0838 7.74804 14.0867 7.75537 14.0926 7.76416C14.0984 7.77002 14.1043 7.77442 14.1102 7.77881C14.116 7.78028 14.1233 7.78174 14.1336 7.78174H16.6541C16.6644 7.78174 16.6717 7.78028 16.6761 7.77881C16.682 7.77442 16.6893 7.77002 16.6951 7.76416C16.6995 7.75537 16.7039 7.74804 16.7054 7.74218C16.7069 7.73632 16.7069 7.72752 16.7054 7.71873C16.6468 7.45935 16.6043 7.20144 16.5764 6.9406C16.5486 6.67829 16.5354 6.41745 16.5354 6.1566C16.5383 6.15367 16.5369 6.10238 16.5369 6.09505ZM16.5427 2.09888C16.2482 1.80579 15.8423 1.62408 15.3939 1.62408C14.9454 1.62408 14.5395 1.80579 14.2435 2.10034C13.949 2.39489 13.7673 2.80081 13.7673 3.24922C13.7673 3.43826 13.7878 3.60971 13.8229 3.77531C13.8566 3.94823 13.9065 4.12261 13.9607 4.30725C14.0076 4.47284 14.053 4.6355 14.094 4.80403C14.1351 4.97401 14.1688 5.14254 14.1937 5.31545C14.1952 5.32864 14.201 5.34037 14.2113 5.34769C14.2201 5.35502 14.2318 5.35942 14.245 5.35942H16.5427C16.5559 5.35942 16.5677 5.35502 16.5764 5.34769C16.5852 5.34037 16.5911 5.32864 16.5926 5.31545C16.6189 5.14254 16.6526 4.97401 16.6937 4.80403C16.7332 4.6355 16.7787 4.47284 16.827 4.30725C16.8813 4.12261 16.9311 3.94823 16.9648 3.77531C16.9985 3.60971 17.019 3.43826 17.019 3.24922C17.019 2.80227 16.8373 2.39489 16.5427 2.09888ZM2.50703 16.816C2.18171 16.0115 2 15.1161 2 14.149C2 13.5218 2.0806 12.918 2.23007 12.345C2.61987 10.8503 3.48739 9.57834 4.65386 8.68151C5.82179 7.78467 7.28867 7.26006 8.87864 7.26006C9.50144 7.26006 10.1418 7.34065 10.7939 7.51064C11.2511 7.63081 11.6307 7.79347 11.9882 7.99716C12.3399 8.19938 12.6711 8.44118 13.0375 8.724C13.0433 8.7284 13.0507 8.73279 13.0595 8.73426C13.0668 8.73573 13.0741 8.73573 13.0829 8.73279C13.0932 8.72986 13.1005 8.72547 13.1049 8.72254C13.1093 8.71814 13.1137 8.71228 13.1166 8.70202C13.2895 8.27852 13.417 7.86967 13.502 7.45349C13.5855 7.04025 13.628 6.61381 13.628 6.1566C13.628 5.84593 13.6046 5.57483 13.5592 5.31106C13.5152 5.03996 13.4478 4.77472 13.3628 4.48017C13.3027 4.27355 13.247 4.07718 13.2104 3.88375C13.1694 3.68152 13.1445 3.4749 13.1445 3.24922C13.1445 2.62935 13.3965 2.06664 13.8039 1.65925C14.2113 1.25187 14.774 0.999817 15.3939 0.999817C16.0137 0.999817 16.5764 1.25187 16.9838 1.65925C17.3912 2.06664 17.6433 2.62935 17.6433 3.24922C17.6433 3.4749 17.6184 3.68152 17.5773 3.88375C17.5392 4.07718 17.485 4.27355 17.4249 4.48017C17.3399 4.77472 17.2725 5.03996 17.2271 5.31106C17.1831 5.57483 17.1597 5.84593 17.1597 6.1566C17.1597 6.83948 17.2505 7.40953 17.4132 7.95906C17.5759 8.51298 17.8118 9.04932 18.0975 9.656C18.3994 10.2993 18.6485 10.8679 18.8229 11.4629C18.9988 12.0637 19.097 12.6835 19.097 13.4221C19.097 14.2589 19.0105 15.1015 18.8537 15.9324C18.6881 16.8233 18.4405 17.7011 18.1371 18.5467C17.9906 18.9526 17.822 19.3834 17.6345 19.8069C17.4733 20.1689 17.3004 20.522 17.1172 20.8415C17.0893 20.8913 17.0498 20.9309 17.0029 20.9573C16.956 20.9851 16.9032 20.9998 16.8475 20.9998H13.9402C13.8845 20.9998 13.8317 20.9851 13.7834 20.9573C13.7365 20.9309 13.6984 20.8913 13.6705 20.8415C13.4844 20.5191 13.3115 20.1659 13.1518 19.8069C12.9642 19.3849 12.7957 18.9526 12.6506 18.5467C12.3473 17.7011 12.0996 16.8233 11.934 15.9324C11.7772 15.1015 11.6908 14.2589 11.6908 13.4221C11.6908 12.6835 11.7889 12.0637 11.9648 11.4629C12.1392 10.8679 12.3868 10.2993 12.6902 9.656L12.8147 9.39077C12.8191 9.37904 12.8206 9.36585 12.8177 9.35413C12.8147 9.34241 12.8074 9.33361 12.7986 9.32629L12.7752 9.3087C12.2227 8.86175 11.5984 8.51445 10.9346 8.27852C10.2708 8.04405 9.56592 7.92096 8.85226 7.92096C7.1348 7.92096 5.57707 8.61849 4.45017 9.74686C3.3218 10.8752 2.6228 12.4315 2.6228 14.149C2.6228 15.865 3.3218 17.4227 4.45017 18.5496C5.57707 19.678 7.1348 20.377 8.85226 20.377C9.29482 20.377 9.73005 20.3315 10.1536 20.2421C10.5771 20.1513 10.9918 20.0179 11.3904 19.8377C11.4695 19.804 11.5545 19.804 11.6292 19.8318C11.7025 19.8597 11.7655 19.9168 11.8021 19.9959L11.8065 20.0062C11.8358 20.0809 11.8358 20.1615 11.8095 20.2333C11.7816 20.3066 11.7259 20.3711 11.6483 20.4048L11.638 20.4092C10.6943 20.7931 9.73591 20.9719 8.80977 20.9719C7.42495 20.9719 6.10755 20.5719 5.00849 19.8509C3.90797 19.1314 3.02579 18.0909 2.50703 16.816ZM9.17671 10.9485C9.10197 10.8738 8.99793 10.8269 8.88363 10.8269C8.76932 10.8269 8.66528 10.8738 8.59055 10.9485C8.51434 11.0232 8.46892 11.1273 8.46892 11.2416C8.46892 11.3559 8.51434 11.4599 8.59055 11.5361C8.66528 11.6109 8.76932 11.6578 8.88363 11.6578C8.99793 11.6578 9.10197 11.6109 9.17671 11.5361C9.25145 11.4599 9.29834 11.3559 9.29834 11.2416C9.29834 11.1273 9.25145 11.0232 9.17671 10.9485ZM9.6178 11.9758C9.43023 12.1648 9.16938 12.2806 8.88363 12.2806C8.59787 12.2806 8.33703 12.1648 8.14946 11.9758C7.96188 11.7882 7.84612 11.5273 7.84612 11.2416C7.84612 10.9558 7.96188 10.6964 8.14946 10.5074C8.33703 10.3198 8.59787 10.2041 8.88363 10.2041C9.16938 10.2041 9.43023 10.3198 9.6178 10.5074C9.80537 10.6964 9.9226 10.9573 9.9226 11.2416C9.9226 11.5288 9.80537 11.7882 9.6178 11.9758ZM8.17671 14.8544C8.10197 14.7797 7.99793 14.7342 7.88363 14.7342C7.76932 14.7342 7.66528 14.7797 7.59055 14.8559C7.51434 14.9291 7.46892 15.0332 7.46892 15.149C7.46892 15.2633 7.51434 15.3673 7.59055 15.442C7.66528 15.5168 7.76932 15.5637 7.88363 15.5637C7.99793 15.5637 8.10197 15.5182 8.17671 15.442C8.25145 15.3673 8.29834 15.2633 8.29834 15.149C8.29834 15.0332 8.25291 14.9291 8.17817 14.8559L8.17671 14.8544ZM8.6178 15.8817C8.43023 16.0707 8.16938 16.1865 7.88363 16.1865C7.59787 16.1865 7.33703 16.0707 7.14946 15.8817C6.96188 15.6941 6.84612 15.4347 6.84612 15.149C6.84612 14.8632 6.96188 14.6038 7.14946 14.4148C7.33703 14.2272 7.59787 14.11 7.88363 14.11C8.16938 14.11 8.43023 14.2272 8.6178 14.4148C8.80537 14.6024 8.9226 14.8617 8.9226 15.149C8.9226 15.4347 8.80537 15.6941 8.6178 15.8817ZM5.75438 12.9883C5.82912 12.9136 5.87601 12.8096 5.87601 12.6953C5.87601 12.581 5.82912 12.4769 5.75438 12.4022C5.67965 12.326 5.5756 12.2806 5.4613 12.2806C5.347 12.2806 5.24296 12.326 5.16675 12.4022C5.09348 12.4769 5.04659 12.581 5.04659 12.6953C5.04659 12.811 5.09202 12.9151 5.16675 12.9883C5.24296 13.0646 5.347 13.11 5.4613 13.11C5.5756 13.11 5.67965 13.0646 5.75438 12.9883ZM4.72713 13.4294C4.53956 13.2404 4.42233 12.981 4.42233 12.6953C4.42233 12.4095 4.53956 12.1501 4.72713 11.9611C4.9147 11.7735 5.17555 11.6578 5.4613 11.6578C5.74706 11.6578 6.00643 11.7735 6.19547 11.9626C6.38305 12.1501 6.49881 12.4095 6.49881 12.6953C6.49881 12.981 6.38305 13.2404 6.19547 13.4294C6.00643 13.617 5.74706 13.7342 5.4613 13.7342C5.17555 13.7342 4.9147 13.617 4.72713 13.4294Z" fill="#15466B"/>
<path d="M12.5671 11.6197C12.4059 12.1677 12.3136 12.7378 12.3136 13.4221C12.3136 14.5344 12.488 15.7199 12.7869 16.8746C13.1064 18.1012 13.5665 19.2984 14.1116 20.3491C14.116 20.3594 14.1234 20.3667 14.1292 20.3711C14.1365 20.374 14.1453 20.377 14.1571 20.377H16.6292C16.6409 20.377 16.6512 20.374 16.657 20.3711C16.6644 20.3667 16.6717 20.3579 16.6761 20.3491C17.2212 19.2999 17.6814 18.1026 18.0008 16.8746C18.2998 15.7199 18.4742 14.5344 18.4742 13.4221C18.4742 12.7378 18.3818 12.1677 18.2206 11.6197C18.0565 11.0657 17.8206 10.5294 17.5348 9.92124C17.422 9.68238 17.3106 9.44205 17.2036 9.19293C17.0952 8.94528 16.9941 8.69469 16.9091 8.43971C16.9047 8.42945 16.8974 8.4192 16.89 8.41334C16.8827 8.40747 16.8725 8.40454 16.8593 8.40454H13.9285C13.9153 8.40454 13.905 8.40747 13.8977 8.41334C13.8889 8.4192 13.883 8.42945 13.8786 8.43971C13.7922 8.69469 13.6925 8.94528 13.5841 9.19293C13.4742 9.45085 13.3643 9.68678 13.2529 9.92124C12.9671 10.5294 12.7297 11.0657 12.5671 11.6197ZM16.5369 6.09505L16.5383 6.03644C16.5383 6.02764 16.5369 6.02032 16.5354 6.01446C16.5325 6.01006 16.5281 6.0042 16.5222 5.99834C16.5178 5.99248 16.512 5.98808 16.5061 5.98661C16.5002 5.98368 16.4944 5.98222 16.4856 5.98222H14.3021C14.2933 5.98222 14.2875 5.98368 14.2816 5.98661C14.2758 5.98808 14.2699 5.99248 14.264 5.99834C14.2596 6.0042 14.2538 6.01006 14.2523 6.01446C14.2508 6.02032 14.2494 6.02764 14.2494 6.03644L14.2508 6.1566C14.2508 6.41745 14.2391 6.67829 14.2113 6.9406C14.1834 7.20144 14.1409 7.45935 14.0823 7.71873C14.0809 7.72752 14.0809 7.73632 14.0823 7.74218C14.0838 7.74804 14.0867 7.75537 14.0926 7.76416C14.0984 7.77002 14.1043 7.77442 14.1102 7.77881C14.116 7.78028 14.1233 7.78174 14.1336 7.78174H16.6541C16.6644 7.78174 16.6717 7.78028 16.6761 7.77881C16.682 7.77442 16.6893 7.77002 16.6951 7.76416C16.6995 7.75537 16.7039 7.74804 16.7054 7.74218C16.7069 7.73632 16.7069 7.72752 16.7054 7.71873C16.6468 7.45935 16.6043 7.20144 16.5764 6.9406C16.5486 6.67829 16.5354 6.41745 16.5354 6.1566C16.5383 6.15367 16.5369 6.10238 16.5369 6.09505ZM16.5427 2.09888C16.2482 1.80579 15.8423 1.62408 15.3939 1.62408C14.9454 1.62408 14.5395 1.80579 14.2435 2.10034C13.949 2.39489 13.7673 2.80081 13.7673 3.24922C13.7673 3.43826 13.7878 3.60971 13.8229 3.77531C13.8566 3.94823 13.9065 4.12261 13.9607 4.30725C14.0076 4.47284 14.053 4.6355 14.094 4.80403C14.1351 4.97401 14.1688 5.14254 14.1937 5.31545C14.1952 5.32864 14.201 5.34037 14.2113 5.34769C14.2201 5.35502 14.2318 5.35942 14.245 5.35942H16.5427C16.5559 5.35942 16.5677 5.35502 16.5764 5.34769C16.5852 5.34037 16.5911 5.32864 16.5926 5.31545C16.6189 5.14254 16.6526 4.97401 16.6937 4.80403C16.7332 4.6355 16.7787 4.47284 16.827 4.30725C16.8813 4.12261 16.9311 3.94823 16.9648 3.77531C16.9985 3.60971 17.019 3.43826 17.019 3.24922C17.019 2.80227 16.8373 2.39489 16.5427 2.09888ZM2.50703 16.816C2.18171 16.0115 2 15.1161 2 14.149C2 13.5218 2.0806 12.918 2.23007 12.345C2.61987 10.8503 3.48739 9.57834 4.65386 8.68151C5.82179 7.78467 7.28867 7.26006 8.87864 7.26006C9.50144 7.26006 10.1418 7.34065 10.7939 7.51064C11.2511 7.63081 11.6307 7.79347 11.9882 7.99716C12.3399 8.19938 12.6711 8.44118 13.0375 8.724C13.0433 8.7284 13.0507 8.73279 13.0595 8.73426C13.0668 8.73573 13.0741 8.73573 13.0829 8.73279C13.0932 8.72986 13.1005 8.72547 13.1049 8.72254C13.1093 8.71814 13.1137 8.71228 13.1166 8.70202C13.2895 8.27852 13.417 7.86967 13.502 7.45349C13.5855 7.04025 13.628 6.61381 13.628 6.1566C13.628 5.84593 13.6046 5.57483 13.5592 5.31106C13.5152 5.03996 13.4478 4.77472 13.3628 4.48017C13.3027 4.27355 13.247 4.07718 13.2104 3.88375C13.1694 3.68152 13.1445 3.4749 13.1445 3.24922C13.1445 2.62935 13.3965 2.06664 13.8039 1.65925C14.2113 1.25187 14.774 0.999817 15.3939 0.999817C16.0137 0.999817 16.5764 1.25187 16.9838 1.65925C17.3912 2.06664 17.6433 2.62935 17.6433 3.24922C17.6433 3.4749 17.6184 3.68152 17.5773 3.88375C17.5392 4.07718 17.485 4.27355 17.4249 4.48017C17.3399 4.77472 17.2725 5.03996 17.2271 5.31106C17.1831 5.57483 17.1597 5.84593 17.1597 6.1566C17.1597 6.83948 17.2505 7.40953 17.4132 7.95906C17.5759 8.51298 17.8118 9.04932 18.0975 9.656C18.3994 10.2993 18.6485 10.8679 18.8229 11.4629C18.9988 12.0637 19.097 12.6835 19.097 13.4221C19.097 14.2589 19.0105 15.1015 18.8537 15.9324C18.6881 16.8233 18.4405 17.7011 18.1371 18.5467C17.9906 18.9526 17.822 19.3834 17.6345 19.8069C17.4733 20.1689 17.3004 20.522 17.1172 20.8415C17.0893 20.8913 17.0498 20.9309 17.0029 20.9573C16.956 20.9851 16.9032 20.9998 16.8475 20.9998H13.9402C13.8845 20.9998 13.8317 20.9851 13.7834 20.9573C13.7365 20.9309 13.6984 20.8913 13.6705 20.8415C13.4844 20.5191 13.3115 20.1659 13.1518 19.8069C12.9642 19.3849 12.7957 18.9526 12.6506 18.5467C12.3473 17.7011 12.0996 16.8233 11.934 15.9324C11.7772 15.1015 11.6908 14.2589 11.6908 13.4221C11.6908 12.6835 11.7889 12.0637 11.9648 11.4629C12.1392 10.8679 12.3868 10.2993 12.6902 9.656L12.8147 9.39077C12.8191 9.37904 12.8206 9.36585 12.8177 9.35413C12.8147 9.34241 12.8074 9.33361 12.7986 9.32629L12.7752 9.3087C12.2227 8.86175 11.5984 8.51445 10.9346 8.27852C10.2708 8.04405 9.56592 7.92096 8.85226 7.92096C7.1348 7.92096 5.57707 8.61849 4.45017 9.74686C3.3218 10.8752 2.6228 12.4315 2.6228 14.149C2.6228 15.865 3.3218 17.4227 4.45017 18.5496C5.57707 19.678 7.1348 20.377 8.85226 20.377C9.29482 20.377 9.73005 20.3315 10.1536 20.2421C10.5771 20.1513 10.9918 20.0179 11.3904 19.8377C11.4695 19.804 11.5545 19.804 11.6292 19.8318C11.7025 19.8597 11.7655 19.9168 11.8021 19.9959L11.8065 20.0062C11.8358 20.0809 11.8358 20.1615 11.8095 20.2333C11.7816 20.3066 11.7259 20.3711 11.6483 20.4048L11.638 20.4092C10.6943 20.7931 9.73591 20.9719 8.80977 20.9719C7.42495 20.9719 6.10755 20.5719 5.00849 19.8509C3.90797 19.1314 3.02579 18.0909 2.50703 16.816ZM9.17671 10.9485C9.10197 10.8738 8.99793 10.8269 8.88363 10.8269C8.76932 10.8269 8.66528 10.8738 8.59055 10.9485C8.51434 11.0232 8.46892 11.1273 8.46892 11.2416C8.46892 11.3559 8.51434 11.4599 8.59055 11.5361C8.66528 11.6109 8.76932 11.6578 8.88363 11.6578C8.99793 11.6578 9.10197 11.6109 9.17671 11.5361C9.25145 11.4599 9.29834 11.3559 9.29834 11.2416C9.29834 11.1273 9.25145 11.0232 9.17671 10.9485ZM9.6178 11.9758C9.43023 12.1648 9.16938 12.2806 8.88363 12.2806C8.59787 12.2806 8.33703 12.1648 8.14946 11.9758C7.96188 11.7882 7.84612 11.5273 7.84612 11.2416C7.84612 10.9558 7.96188 10.6964 8.14946 10.5074C8.33703 10.3198 8.59787 10.2041 8.88363 10.2041C9.16938 10.2041 9.43023 10.3198 9.6178 10.5074C9.80537 10.6964 9.9226 10.9573 9.9226 11.2416C9.9226 11.5288 9.80537 11.7882 9.6178 11.9758ZM8.17671 14.8544C8.10197 14.7797 7.99793 14.7342 7.88363 14.7342C7.76932 14.7342 7.66528 14.7797 7.59055 14.8559C7.51434 14.9291 7.46892 15.0332 7.46892 15.149C7.46892 15.2633 7.51434 15.3673 7.59055 15.442C7.66528 15.5168 7.76932 15.5637 7.88363 15.5637C7.99793 15.5637 8.10197 15.5182 8.17671 15.442C8.25145 15.3673 8.29834 15.2633 8.29834 15.149C8.29834 15.0332 8.25291 14.9291 8.17817 14.8559L8.17671 14.8544ZM8.6178 15.8817C8.43023 16.0707 8.16938 16.1865 7.88363 16.1865C7.59787 16.1865 7.33703 16.0707 7.14946 15.8817C6.96188 15.6941 6.84612 15.4347 6.84612 15.149C6.84612 14.8632 6.96188 14.6038 7.14946 14.4148C7.33703 14.2272 7.59787 14.11 7.88363 14.11C8.16938 14.11 8.43023 14.2272 8.6178 14.4148C8.80537 14.6024 8.9226 14.8617 8.9226 15.149C8.9226 15.4347 8.80537 15.6941 8.6178 15.8817ZM5.75438 12.9883C5.82912 12.9136 5.87601 12.8096 5.87601 12.6953C5.87601 12.581 5.82912 12.4769 5.75438 12.4022C5.67965 12.326 5.5756 12.2806 5.4613 12.2806C5.347 12.2806 5.24296 12.326 5.16675 12.4022C5.09348 12.4769 5.04659 12.581 5.04659 12.6953C5.04659 12.811 5.09202 12.9151 5.16675 12.9883C5.24296 13.0646 5.347 13.11 5.4613 13.11C5.5756 13.11 5.67965 13.0646 5.75438 12.9883ZM4.72713 13.4294C4.53956 13.2404 4.42233 12.981 4.42233 12.6953C4.42233 12.4095 4.53956 12.1501 4.72713 11.9611C4.9147 11.7735 5.17555 11.6578 5.4613 11.6578C5.74706 11.6578 6.00643 11.7735 6.19547 11.9626C6.38305 12.1501 6.49881 12.4095 6.49881 12.6953C6.49881 12.981 6.38305 13.2404 6.19547 13.4294C6.00643 13.617 5.74706 13.7342 5.4613 13.7342C5.17555 13.7342 4.9147 13.617 4.72713 13.4294Z" stroke="#15466B" stroke-width="0.6" mask="url(#path-1-outside-1_1404_4288)"/>
</svg>
