<svg width="25" height="21" viewBox="0 0 25 21" fill="none" xmlns="http://www.w3.org/2000/svg">
<path d="M7.43729 16.9999L6.25269 16.2919L15.4039 0.999878L24.6023 16.2487L23.4196 16.9607L15.4098 3.68093L7.43729 16.9999Z" fill="#15466B"/>
<path d="M1.7074 16.9888L0.560059 16.2219L4.35707 10.5303L5.24748 10.4989L5.4593 10.8284C5.7378 11.2599 6.1987 11.5168 6.72824 11.5325C7.28328 11.5502 7.80105 11.2991 8.11485 10.8677L8.33647 10.5656L9.19943 10.6127L10.184 12.219L9.00723 12.9388L8.61694 12.3033C8.07366 12.7113 7.39507 12.9309 6.68705 12.9113C6.00257 12.8917 5.37496 12.6524 4.87876 12.2347L1.7074 16.9888Z" fill="#15466B"/>
<path d="M7.53474 8.04602H6.15405V5.19432H7.53474V8.04602Z" fill="#15466B"/>
<path d="M8.66372 9.08374L7.68701 8.10899L9.70515 6.09085L10.6799 7.0656L8.66372 9.08374Z" fill="#15466B"/>
<path d="M5.11043 9.00049L3.09229 6.98235L4.06703 6.0076L6.08518 8.02378L5.11043 9.00049Z" fill="#15466B"/>
</svg>
