<svg width="26" height="26" viewBox="0 0 26 26" fill="none" xmlns="http://www.w3.org/2000/svg">
<path d="M17.3434 19.0099C15.8882 19.0099 14.4902 18.7545 13.1517 18.2416C11.8132 17.7286 10.6266 17.0175 9.59631 16.1083C8.56601 15.1991 7.74485 14.1248 7.13284 12.8831C6.52082 11.6437 6.21481 10.2942 6.21481 8.83899C6.21481 8.35466 6.3491 7.94519 6.61989 7.61496C6.89067 7.28474 7.27373 7.11963 7.76907 7.11963H9.30791C9.60511 7.11963 9.83627 7.20548 10.0014 7.375C10.1665 7.54672 10.2832 7.79108 10.3492 8.1103C10.4153 8.44052 10.4901 8.78175 10.5716 9.13619C10.6552 9.48843 10.7499 9.80325 10.86 10.0784C10.959 10.3096 10.9899 10.5275 10.9502 10.7323C10.9106 10.937 10.7983 11.1329 10.6112 11.3201L9.32112 12.5771C9.84948 13.3499 10.587 14.0962 11.5292 14.8182C12.4715 15.5403 13.3895 16.0335 14.2833 16.2976L15.045 14.7588C15.1441 14.5607 15.2718 14.4264 15.4259 14.3537C15.58 14.2811 15.7957 14.2569 16.0709 14.2789C16.3571 14.3009 16.6411 14.3119 16.9229 14.3119C17.2047 14.3119 17.5217 14.3009 17.8739 14.2789C18.2041 14.2569 18.4837 14.3449 18.7083 14.5431C18.935 14.7412 19.0869 15.0604 19.164 15.5029L19.4282 16.9911C19.4282 16.9911 19.4392 17.0858 19.4612 17.2729C19.4612 17.7352 19.2719 18.1403 18.891 18.4881C18.5101 18.836 17.995 19.0099 17.3456 19.0099H17.3434Z" fill="#15466B"/>
<path d="M12.8391 0C5.7569 0 0 5.7569 0 12.8391C0 19.9213 5.7569 25.6782 12.8391 25.6782C19.9213 25.6782 25.6782 19.9213 25.6782 12.8391C25.6782 5.7569 19.9191 0 12.8391 0ZM12.8391 23.3512C7.58634 23.3512 3.245 19.4942 2.46347 14.4594C2.44586 14.3471 2.42604 14.2348 2.41284 14.1204C2.39743 13.9927 2.38201 13.8628 2.37101 13.7351C2.34459 13.4379 2.32478 13.1407 2.32478 12.8369C2.32478 12.5331 2.34239 12.2359 2.37101 11.9387C2.38201 11.8088 2.39522 11.6811 2.41063 11.5534C2.42604 11.439 2.44366 11.3245 2.46347 11.2122C3.245 6.17959 7.58634 2.32478 12.8391 2.32478C18.0919 2.32478 22.4332 6.18179 23.2147 11.2166C23.2323 11.3289 23.2522 11.4412 23.2654 11.5534C23.2808 11.6811 23.2962 11.811 23.3072 11.9409C23.3336 12.2359 23.3534 12.5353 23.3534 12.8369C23.3534 13.1385 23.3358 13.4379 23.3072 13.7329C23.2962 13.8628 23.283 13.9927 23.2654 14.1204C23.25 14.2326 23.2323 14.3449 23.2147 14.4572C22.4332 19.492 18.0919 23.349 12.8391 23.349V23.3512Z" fill="#15466B"/>
</svg>
