<svg width="24" height="24" viewBox="0 0 24 24" fill="none" xmlns="http://www.w3.org/2000/svg">
<g opacity="0.9">
<circle cx="11.9995" cy="12.0002" r="10.7996" fill="#E8E9E7"/>
<path d="M6.19115 6.38357L6.19115 6.38357C6.35187 6.22528 6.54986 6.14611 6.78194 6.14611H8.80202C8.99665 6.14611 9.16643 6.20745 9.30879 6.33045C9.45097 6.45329 9.54227 6.61821 9.58413 6.82201L10.0071 8.69458L10.0077 8.6975L10.0077 8.69751C10.0367 8.87452 10.0328 9.03755 9.99448 9.18572C9.95585 9.33505 9.88101 9.46034 9.76998 9.56009L9.76909 9.5609L9.76908 9.56089L9.18933 10.057C9.85997 11.1496 10.6023 12.0926 11.4161 12.8862C12.2304 13.6803 13.1678 14.3643 14.2287 14.9383L14.7459 14.4136C14.8686 14.2809 15.0075 14.1871 15.1625 14.1342C15.3179 14.0811 15.4794 14.0732 15.6456 14.1099L15.6456 14.1099L15.635 14.1587L15.6458 14.1099L6.19115 6.38357ZM6.19115 6.38357C6.03041 6.54191 5.94976 6.73727 5.94976 6.96652C5.94976 8.27159 6.28998 9.58237 6.96876 10.8984C7.64689 12.2131 8.52433 13.3996 9.60088 14.4576C10.6774 15.5157 11.8842 16.3787 13.2212 17.0466C14.5594 17.715 15.8911 18.05 17.2157 18.05C17.4478 18.05 17.6458 17.9708 17.8065 17.8125C17.9673 17.6542 18.0479 17.4588 18.0479 17.2296V15.3137C18.0479 15.1036 17.9842 14.9205 17.856 14.7671C17.7283 14.6142 17.5627 14.5191 17.3616 14.4822L6.19115 6.38357ZM17.1122 11.4689C17.1416 11.7043 17.3365 11.8921 17.5778 11.8921C17.8351 11.8921 18.046 11.6769 18.0177 11.4164C17.9478 10.7736 17.7793 10.165 17.512 9.59089C17.1872 8.89292 16.7566 8.27969 16.2204 7.75153L16.1853 7.78716L16.2204 7.75154C15.6841 7.22337 15.0616 6.79934 14.3531 6.47946C13.7663 6.21454 13.1442 6.04815 12.4868 5.98022C12.2302 5.95369 12.0182 6.16137 12.0182 6.41506C12.0182 6.65332 12.2039 6.8459 12.4367 6.87366C13.6508 7.01846 14.6966 7.5232 15.5755 8.38884C16.4518 9.25195 16.9636 10.2782 17.1122 11.4689ZM14.1152 11.5158C14.176 11.726 14.36 11.8921 14.5865 11.8921C14.8562 11.8921 15.0769 11.6548 15.0107 11.3833C14.8653 10.7871 14.5669 10.2665 14.1166 9.82227C13.6614 9.37321 13.1269 9.08044 12.5139 8.94477C12.2478 8.88589 12.0182 9.10228 12.0182 9.36576C12.0182 9.59256 12.1868 9.77568 12.3985 9.83214C12.8107 9.94206 13.1704 10.1487 13.4784 10.4528C13.7861 10.7565 13.9981 11.1106 14.1152 11.5158Z" fill="#1A4769" stroke="white" stroke-width="0.1"/>
</g>
</svg>
