<svg width="17" height="17" viewBox="0 0 17 17" fill="none" xmlns="http://www.w3.org/2000/svg">
<mask id="mask0_1106_10026" style="mask-type:alpha" maskUnits="userSpaceOnUse" x="0" y="0" width="17" height="17">
<rect width="17" height="17" fill="#D9D9D9"/>
</mask>
<g mask="url(#mask0_1106_10026)">
<path d="M4.95837 15.5834V9.1021C4.35629 8.93683 3.8516 8.60627 3.44431 8.11044C3.03702 7.6146 2.83337 7.03613 2.83337 6.37502V1.41669H4.25004V6.37502H4.95837V1.41669H6.37504V6.37502H7.08337V1.41669H8.50004V6.37502C8.50004 7.03613 8.29639 7.6146 7.8891 8.11044C7.48181 8.60627 6.97712 8.93683 6.37504 9.1021V15.5834H4.95837ZM12.0417 15.5834V9.91669H9.91671V4.95835C9.91671 3.97849 10.262 3.14325 10.9526 2.45262C11.6433 1.762 12.4785 1.41669 13.4584 1.41669V15.5834H12.0417Z" fill="#15466B"/>
</g>
</svg>
