<svg width="17" height="17" viewBox="0 0 17 17" fill="none" xmlns="http://www.w3.org/2000/svg">
<mask id="mask0_1297_4214" style="mask-type:alpha" maskUnits="userSpaceOnUse" x="0" y="0" width="17" height="17">
<rect width="17" height="17" fill="#D9D9D9"/>
</mask>
<g mask="url(#mask0_1297_4214)">
<path d="M4.95825 15.5833V9.10209C4.35617 8.93681 3.85148 8.60626 3.44419 8.11042C3.0369 7.61459 2.83325 7.03612 2.83325 6.37501V1.41667H4.24992V6.37501H4.95825V1.41667H6.37492V6.37501H7.08325V1.41667H8.49992V6.37501C8.49992 7.03612 8.29627 7.61459 7.88898 8.11042C7.48169 8.60626 6.977 8.93681 6.37492 9.10209V15.5833H4.95825ZM12.0416 15.5833V9.91667H9.91658V4.95834C9.91658 3.97848 10.2619 3.14323 10.9525 2.45261C11.6431 1.76198 12.4784 1.41667 13.4583 1.41667V15.5833H12.0416Z" fill="#15466B"/>
</g>
</svg>
