<svg width="17" height="17" viewBox="0 0 17 17" fill="none" xmlns="http://www.w3.org/2000/svg">
<mask id="mask0_261_3944" style="mask-type:alpha" maskUnits="userSpaceOnUse" x="0" y="0" width="17" height="17">
<rect x="0.201172" y="0.160156" width="16" height="16" fill="#D9D9D9"/>
</mask>
<g mask="url(#mask0_261_3944)">
<path d="M4.10658 14.9355V12.6022H2.53516V11.0467H4.10658V9.4911H2.53516V7.93555H4.10658V0.935547H9.21373C10.4185 0.935547 11.4399 1.35036 12.278 2.17999C13.1161 3.00962 13.5352 4.02073 13.5352 5.21332C13.5352 6.40592 13.1161 7.41703 12.278 8.24666C11.4399 9.07629 10.4185 9.4911 9.21373 9.4911H5.67801V11.0467H8.82087V12.6022H5.67801V14.9355H4.10658ZM5.67801 7.93555H9.21373C9.97325 7.93555 10.6215 7.66981 11.1584 7.13832C11.6953 6.60684 11.9637 5.96518 11.9637 5.21332C11.9637 4.46147 11.6953 3.81981 11.1584 3.28832C10.6215 2.75684 9.97325 2.4911 9.21373 2.4911H5.67801V7.93555Z" fill="#F9FCFF"/>
</g>
</svg>
