<svg width="17" height="17" viewBox="0 0 17 17" fill="none" xmlns="http://www.w3.org/2000/svg">
<mask id="mask0_1297_6745" style="mask-type:alpha" maskUnits="userSpaceOnUse" x="0" y="0" width="17" height="17">
<rect width="17" height="17" fill="#D9D9D9"/>
</mask>
<g mask="url(#mask0_1297_6745)">
<path d="M8.50016 10.6905C9.38558 10.6905 10.1382 10.3474 10.758 9.6612C11.3778 8.975 11.6877 8.14176 11.6877 7.16148C11.6877 6.1812 11.3778 5.34796 10.758 4.66176C10.1382 3.97556 9.38558 3.63246 8.50016 3.63246C7.61475 3.63246 6.86214 3.97556 6.24235 4.66176C5.62256 5.34796 5.31266 6.1812 5.31266 7.16148C5.31266 8.14176 5.62256 8.975 6.24235 9.6612C6.86214 10.3474 7.61475 10.6905 8.50016 10.6905ZM8.50016 9.27889C7.96891 9.27889 7.51735 9.07303 7.14548 8.66131C6.7736 8.2496 6.58766 7.74965 6.58766 7.16148C6.58766 6.57331 6.7736 6.07337 7.14548 5.66165C7.51735 5.24993 7.96891 5.04407 8.50016 5.04407C9.03141 5.04407 9.48298 5.24993 9.85485 5.66165C10.2267 6.07337 10.4127 6.57331 10.4127 7.16148C10.4127 7.74965 10.2267 8.2496 9.85485 8.66131C9.48298 9.07303 9.03141 9.27889 8.50016 9.27889ZM8.50016 13.0432C6.77655 13.0432 5.20641 12.5106 3.78975 11.4453C2.37308 10.3801 1.346 8.95213 0.708496 7.16148C1.346 5.37083 2.37308 3.94289 3.78975 2.87765C5.20641 1.81241 6.77655 1.27979 8.50016 1.27979C10.2238 1.27979 11.7939 1.81241 13.2106 2.87765C14.6272 3.94289 15.6543 5.37083 16.2918 7.16148C15.6543 8.95213 14.6272 10.3801 13.2106 11.4453C11.7939 12.5106 10.2238 13.0432 8.50016 13.0432ZM8.50016 11.4747C9.83419 11.4747 11.059 11.0859 12.1746 10.3082C13.2903 9.5305 14.1432 8.4816 14.7335 7.16148C14.1432 5.84137 13.2903 4.79246 12.1746 4.01477C11.059 3.23708 9.83419 2.84824 8.50016 2.84824C7.16613 2.84824 5.94131 3.23708 4.82568 4.01477C3.71006 4.79246 2.85711 5.84137 2.26683 7.16148C2.85711 8.4816 3.71006 9.5305 4.82568 10.3082C5.94131 11.0859 7.16613 11.4747 8.50016 11.4747Z" fill="#15466B"/>
</g>
</svg>
