<svg width="26" height="22" viewBox="0 0 26 22" fill="none" xmlns="http://www.w3.org/2000/svg">
<path d="M19.2655 14.2554H0V12.928H19.2655C21.9126 12.928 24.0677 10.7748 24.0677 8.12768C24.0677 5.48051 21.9126 3.32545 19.2655 3.32545H19.1787C16.5316 3.32545 14.3765 5.48051 14.3765 8.12768V10.8503H13.0492V8.12768C13.0492 4.74896 15.8 1.99998 19.1787 1.99998H19.2655C22.6442 1.99998 25.3951 4.74896 25.3951 8.12768C25.3951 11.5064 22.6442 14.2554 19.2655 14.2554Z" fill="#15466B"/>
<path d="M8.22796 11.5132H2.73755V10.1858H8.22796C9.37431 10.1858 10.3076 9.25442 10.3076 8.10807C10.3076 6.96172 9.37431 6.03031 8.22796 6.03031C7.08161 6.03031 6.1502 6.96172 6.1502 8.10807L4.82285 8.12692C4.82285 6.23017 6.35006 4.70296 8.22796 4.70296C10.1059 4.70296 11.6331 6.23017 11.6331 8.10807C11.6331 9.98597 10.1059 11.5132 8.22796 11.5132Z" fill="#15466B"/>
<path d="M21.9452 17H10.9719V15.6727H21.9452V17Z" fill="#15466B"/>
<path d="M8.22871 17H5.48535V15.6727H8.22871V17Z" fill="#15466B"/>
</svg>
