<svg width="23" height="23" viewBox="0 0 23 23" fill="none" xmlns="http://www.w3.org/2000/svg">
<path d="M14.9161 2.47695C14.1471 2.89654 11.9884 4.28632 11.9846 6.69754C11.9808 9.10686 14.1357 10.5061 14.9028 10.9276C15.6717 10.508 17.8304 9.11825 17.8342 6.70703C17.838 4.29771 15.685 2.89844 14.9161 2.47695ZM14.9009 12.4028L14.6351 12.287C14.4718 12.2149 10.6442 10.4966 10.6499 6.69564C10.6556 2.89464 14.4889 1.1859 14.6522 1.11565L14.918 0.99984L15.1857 1.11755C15.3489 1.1878 19.1746 2.90983 19.1708 6.70893C19.1651 10.5118 15.33 12.2168 15.1686 12.287L14.9009 12.4028Z" fill="#15466B"/>
<path d="M15.5781 15.8939H14.2434V7.97488H15.5781V15.8939Z" fill="#15466B"/>
<path d="M15.0895 9.46387L12.8264 7.06214L13.7985 6.14701L14.7326 7.13618L15.5889 5.36669L16.7907 5.94956L15.0895 9.46387Z" fill="#15466B"/>
<path d="M1.0803 19.0369L0 18.2508C1.38598 16.3465 3.61873 15.2093 5.9711 15.2093C7.60389 15.2093 9.15125 15.7314 10.4461 16.7187L9.6354 17.7819C8.57598 16.9731 7.30771 16.5459 5.9711 16.5459C4.04402 16.5459 2.21567 17.4762 1.0803 19.0369Z" fill="#15466B"/>
<path d="M21.9196 20.1187C20.2925 17.8821 17.6706 16.5474 14.91 16.5474C12.1475 16.5474 9.52747 17.8821 7.90037 20.1187L6.82007 19.3326C8.69778 16.7524 11.7223 15.2127 14.91 15.2127C18.0978 15.2127 21.1203 16.7524 22.9999 19.3326L21.9196 20.1187Z" fill="#15466B"/>
<path d="M6.63916 10.7664V11.955L8.8852 11.1955V11.1386L6.63916 10.7664ZM6.63916 15.8357H5.30444V9.19059L10.2199 10.0051V12.1543L6.63916 13.3656V15.8357Z" fill="#15466B"/>
</svg>
