<svg width="24" height="24" viewBox="0 0 24 24" fill="none" xmlns="http://www.w3.org/2000/svg">
<g clip-path="url(#clip0_123_178)">
<path d="M12.7485 18.2126C14.1864 17.8567 15.3726 16.6851 15.9407 15.1223C16.4588 15.0599 16.8625 14.5272 16.8625 13.8737C16.8647 13.8391 16.8647 13.8043 16.8625 13.7697C16.8646 13.7288 16.8646 13.6878 16.8625 13.6469C16.8625 13.083 16.6087 12.6272 16.2944 12.6272C16.272 12.2431 16.2135 11.862 16.1196 11.4889C17.2787 9.87826 16.5879 7.80145 16.5879 7.80145C16.2133 8.5506 15.6556 8.19059 15.6556 8.19059C14.484 7.54041 13.1398 7.26924 11.8079 7.41438L12.1179 6.31771L9.69775 7.80769L10.8152 5.76001L8.58027 7.6204V5.94521C8.58027 5.94521 6.71988 8.36539 6.71988 10.4131C6.71291 11.1821 6.94887 11.9336 7.39411 12.5606V12.6293C7.08197 12.6293 6.82809 13.085 6.82809 13.649C6.82809 13.6906 6.82809 13.7301 6.82809 13.7718C6.82809 13.8134 6.82809 13.8404 6.82809 13.8758C6.82809 14.523 7.2318 15.0557 7.74788 15.1244C8.31806 16.6872 9.50214 17.8588 10.9401 18.2146L10.9505 18.5122V18.5289C10.9505 18.8826 10.8922 18.8098 10.5614 18.9929H10.5489C10.0619 19.2135 8.38049 19.8753 8.14534 20.0563C7.54602 20.254 7.27342 21.2591 7.13399 22.2309H16.5504C16.411 21.2591 16.1342 20.254 15.539 20.0563C15.3039 19.8753 13.6162 19.2135 13.1314 18.9929C12.8005 18.8098 12.7422 18.8826 12.7422 18.5289V18.5122L12.7485 18.2126Z" fill="#0281C9"/>
</g>
<circle cx="12" cy="12" r="11" stroke="#0281C9" stroke-width="2"/>
<defs>
<clipPath id="clip0_123_178">
<rect width="10.1427" height="16.4751" fill="white" transform="translate(6.72 5.76001)"/>
</clipPath>
</defs>
</svg>
