<svg width="158" height="43" viewBox="0 0 158 43" fill="none" xmlns="http://www.w3.org/2000/svg">
<path d="M0.150232 22.0907C0.170263 19.727 0.691064 17.4335 1.60247 15.3102C2.51387 13.197 3.81587 11.254 5.41834 9.58142C7.02081 7.91887 8.92374 6.51671 11.017 5.45507C13.0901 4.35338 15.3737 3.61224 17.7473 3.35184C17.7473 3.35184 19.7304 3.15153 23.2057 2.82102C24.9484 2.67079 27.0717 2.49051 29.5154 2.2902C31.9392 2.09991 34.6433 1.90962 37.5678 1.69929C39.0401 1.59914 40.5624 1.49898 42.1349 1.38881C43.7073 1.29868 45.3198 1.21855 46.9623 1.17849C48.5748 1.21855 50.2173 1.28866 51.8999 1.34875C53.5725 1.40884 55.3151 1.45892 57.0979 1.48897C58.9107 1.49898 60.7635 1.48897 62.6665 1.48897C64.5994 1.46894 66.5625 1.44891 68.5655 1.3788C70.5686 1.27864 72.6018 1.15846 74.6449 1.04829C76.688 0.91809 78.7312 0.80792 80.7844 0.707766C82.8475 0.617627 84.9007 0.537504 86.9338 0.467396C88.9669 0.407303 90.98 0.347211 92.9731 0.307149C94.9662 0.267088 96.9392 0.247057 98.9022 0.237041C100.885 0.227026 102.878 0.21701 104.841 0.156918C106.794 0.0968255 108.697 0.0767945 110.52 0.0868099C112.303 0.156918 114.005 0.257072 115.628 0.317164C117.23 0.407303 118.773 0.517473 120.255 0.637658C121.727 0.777874 123.14 0.91809 124.492 1.05831C127.186 1.35877 129.65 1.62918 131.813 1.87957C133.976 2.12996 135.859 2.35029 137.401 2.52056C140.486 2.8711 142.249 3.06139 142.249 3.06139C144.362 3.28173 146.385 4.0429 148.238 5.2147C150.081 6.36648 151.754 7.94891 153.166 9.81178C154.558 11.6746 155.69 13.838 156.461 16.1716C157.232 18.4951 157.653 20.9389 157.633 23.4227C157.653 25.8364 157.202 28.17 156.381 30.3334C155.549 32.4867 154.338 34.4697 152.845 36.1824C151.353 37.885 149.57 39.3272 147.607 40.3788C145.644 41.4304 143.531 42.0915 141.358 42.2116C141.358 42.2116 139.565 42.2918 136.42 42.442C134.838 42.5121 132.925 42.5922 130.731 42.6824C128.518 42.7825 126.024 42.8927 123.27 42.9929C121.858 42.9929 120.345 42.9127 118.773 42.7925C117.18 42.6523 115.538 42.5121 113.835 42.3719C112.133 42.2818 110.36 42.2717 108.517 42.3218C106.644 42.3919 104.731 42.462 102.778 42.5221C100.815 42.5622 98.8121 42.5922 96.789 42.6023C94.7659 42.6223 92.7127 42.6423 90.6395 42.6724C88.5663 42.6924 86.4931 42.7124 84.46 42.6623C82.4269 42.5822 80.3938 42.4921 78.3506 42.4019C76.3275 42.3218 74.3044 42.2317 72.2913 42.1516C70.2982 42.0614 68.3352 42.0214 66.4122 42.0414C64.5193 42.1115 62.6464 42.2016 60.8036 42.2918C58.9808 42.3619 57.188 42.412 55.4153 42.4019C53.6426 42.3018 51.8999 42.1415 50.1973 41.9813C48.4946 41.811 46.8421 41.6608 45.2196 41.5106C43.6071 41.3804 42.0347 41.2502 40.5124 41.14C38.99 41.0298 37.5178 40.9297 36.0956 40.8395C33.2612 40.6793 30.6572 40.5591 28.3436 40.459C26.0301 40.3688 24.007 40.2987 22.3444 40.2486C19.0093 40.1084 17.1063 40.0083 17.1063 40.0083C14.7928 39.858 12.5994 39.217 10.5963 38.1754C8.58321 37.1338 6.74038 35.7717 5.17797 34.1693C3.60555 32.6069 2.33359 30.774 1.46225 28.7309C0.59091 26.6978 0.120186 24.4543 0.150232 22.0907Z" fill="#77B945"/>
</svg>
