<svg width="61" height="44" viewBox="0 0 61 44" fill="none" xmlns="http://www.w3.org/2000/svg">
<path d="M1.152 16L4.384 11.936H4.208C2.416 11.936 0.656 10.416 0.656 8.288C0.656 6.144 2.256 4.448 4.56 4.448C6.864 4.448 8.464 6.144 8.464 8.272C8.464 9.456 7.936 10.24 7.168 11.232L3.36 16H1.152ZM4.56 10.416C5.776 10.416 6.672 9.472 6.672 8.272C6.672 7.104 5.776 6.144 4.56 6.144C3.344 6.144 2.448 7.104 2.448 8.272C2.448 9.472 3.344 10.416 4.56 10.416ZM9.62325 12.144V10.592H12.2153V8H13.7833V10.592H16.3753V12.144H13.7833V14.736H12.2153V12.144H9.62325Z" fill="#15466B"/>
<path d="M16.9868 24.5205L13.8834 24.7864L13.8368 24.7904L13.7917 24.803L13.9261 25.2846C13.7917 24.803 13.7915 24.803 13.7912 24.8031L13.7907 24.8032L13.7896 24.8036L13.7871 24.8043L13.7808 24.8061L13.7631 24.8115C13.7492 24.8159 13.7311 24.8219 13.7095 24.8296C13.6669 24.845 13.609 24.8678 13.5437 24.8992C13.4198 24.959 13.237 25.0648 13.0873 25.2369C12.9276 25.4205 12.8022 25.6863 12.8409 26.0187C12.877 26.3289 13.0479 26.6227 13.3099 26.9034C15.3423 29.206 18.7755 32.8065 23.0502 35.0227C23.6197 36.3785 26.3637 41.6049 33.5774 43.4839L33.6394 43.5H33.7035H33.9497C34.3909 43.5 34.7575 43.2305 34.9555 43.037L34.9911 43.0023L35.0192 42.9612C35.2599 42.6085 35.4195 41.9688 35.0123 41.4255C34.6988 40.9647 34.2023 40.1304 33.7542 39.1965C33.3894 38.4364 33.0709 37.6394 32.901 36.939C34.2233 36.7558 35.4838 36.408 36.6819 35.9451C37.4178 36.4334 38.501 37.1923 39.5257 37.9678C40.6739 38.8368 41.6887 39.6824 42.0947 40.1871L42.1135 40.2105L42.1349 40.2314C42.333 40.4249 42.6995 40.6944 43.1408 40.6944L43.1525 40.6944C43.2261 40.6944 43.3387 40.6945 43.4458 40.6796C43.5443 40.6658 43.7183 40.6302 43.8684 40.5013C44.3207 40.1575 44.5937 39.5538 44.3586 38.9249L44.3487 38.8867C44.3409 38.8567 44.3307 38.8152 44.3196 38.7614C44.2975 38.6537 44.2713 38.4921 44.2593 38.28C44.2355 37.8568 44.2681 37.2237 44.5121 36.4102C44.9815 34.8459 46.2456 32.5761 49.4745 29.8392L57.0208 39.0534C57.3051 39.4539 57.7253 39.5721 58.0764 39.5721L58.0896 39.5722C58.1612 39.5722 58.2594 39.5723 58.3619 39.5556C58.4831 39.5359 58.5918 39.4971 58.7061 39.4413C59.1846 39.2076 59.6266 38.5893 59.3823 37.8998C59.3816 37.8962 59.381 37.8928 59.3803 37.8895C59.3746 37.8609 59.3668 37.8246 59.3576 37.7829C59.339 37.6988 59.312 37.5813 59.2784 37.4357C59.2593 37.353 59.2379 37.2609 59.2145 37.1599C59.1551 36.9035 59.0824 36.59 58.9997 36.2287C58.7694 35.2224 58.4626 33.8513 58.156 32.3485C57.5392 29.3261 56.9351 25.8269 56.9351 23.6809C56.9351 21.5366 57.559 18.039 58.1963 15.0164C58.5132 13.5139 58.8302 12.143 59.0682 11.1369C59.1541 10.7737 59.2296 10.4587 59.2912 10.2015C59.3149 10.1023 59.3367 10.0117 59.3561 9.93027C59.3908 9.78477 59.4187 9.66722 59.4379 9.58312C59.4475 9.54142 59.4556 9.50505 59.4615 9.47644C59.4643 9.46246 59.4675 9.44679 59.4701 9.43163L59.4701 9.43154C59.4702 9.4306 59.4718 9.42222 59.4736 9.4091C59.5803 8.84063 59.3559 8.19874 58.7882 7.92146C58.5113 7.78624 58.1914 7.76174 57.9039 7.82087C57.6165 7.87997 57.3195 8.03162 57.1105 8.3001L47.8101 19.6945C46.3628 18.0262 44.445 16.1325 42.1782 14.4998C40.6695 12.5451 39.7588 9.91121 39.2261 7.71178C38.9587 6.60793 38.7896 5.62683 38.6875 4.91753C38.6365 4.56308 38.6023 4.27721 38.5809 4.07866C38.5675 3.95442 38.5603 3.87402 38.5565 3.83229C38.5537 3.80091 38.5528 3.79141 38.5528 3.8016C38.5528 3.35708 38.2697 2.99385 38.074 2.80264L38.0387 2.76822L37.9974 2.74133C37.6255 2.49911 37.2492 2.49964 37.0114 2.49998C37.0027 2.49999 36.9943 2.5 36.986 2.5H36.9169L36.8504 2.51874C34.5829 3.15765 32.413 4.9639 30.738 6.70104C29.1814 8.31544 27.9985 9.92746 27.495 10.6504C20.6757 12.2 15.246 18.0146 12.7996 21.0413C12.5277 21.3743 12.4442 21.8363 12.5359 22.2392C12.6325 22.6639 12.9379 23.0716 13.476 23.2044C14.566 23.4848 15.8149 23.9248 16.9868 24.5205ZM19.8347 20.6158C19.3516 20.6158 18.9562 20.2637 18.9401 19.7835C19.0059 19.338 19.2157 19.1602 19.381 19.0732C19.477 19.0227 19.5734 18.9961 19.6482 18.9826C19.6849 18.976 19.7142 18.973 19.7329 18.9716C19.7421 18.9709 19.7485 18.9706 19.7516 18.9705C19.7525 18.9705 19.7531 18.9705 19.7535 18.9705C20.2463 18.9709 20.6477 19.3378 20.6477 19.8332C20.6477 20.2074 20.2882 20.6158 19.8347 20.6158Z" fill="#77B945" stroke="#E8E9EB"/>
</svg>
