<svg width="24" height="24" viewBox="0 0 24 24" fill="none" xmlns="http://www.w3.org/2000/svg">
<circle cx="12" cy="12" r="11" stroke="#77B945" stroke-width="2"/>
<mask id="mask0_1651_4552" style="mask-type:alpha" maskUnits="userSpaceOnUse" x="5" y="5" width="16" height="16">
<rect x="5" y="5" width="16" height="16" fill="#D9D9D9"/>
</mask>
<g mask="url(#mask0_1651_4552)">
<path d="M14.8019 19.5681C14.4584 19.9115 14.0412 20.0833 13.5504 20.0833C13.0596 20.0833 12.6424 19.9115 12.2989 19.568L6.43227 13.7014C6.26609 13.5352 6.13589 13.3436 6.04169 13.1267C5.94749 12.9098 5.90039 12.6786 5.90039 12.4332V7.66657C5.90039 7.18057 6.07334 6.76462 6.41922 6.41874C6.76512 6.07285 7.18107 5.8999 7.66707 5.8999H12.4337C12.6792 5.8999 12.9103 5.947 13.1272 6.0412C13.3441 6.1354 13.5357 6.2656 13.7019 6.43179L19.5685 12.3057C19.912 12.6492 20.0838 13.0651 20.0838 13.5535C20.0838 14.0419 19.912 14.4579 19.5685 14.8014L14.8019 19.5681ZM13.5598 18.3333L18.3265 13.5666L12.4337 7.66659H7.66707V12.4333L13.5598 18.3333ZM9.33374 10.3333C9.61152 10.3333 9.84763 10.236 10.0421 10.0416C10.2365 9.84714 10.3337 9.61103 10.3337 9.33325C10.3337 9.05547 10.2365 8.81936 10.0421 8.62492C9.84763 8.43047 9.61152 8.33325 9.33374 8.33325C9.05596 8.33325 8.81985 8.43047 8.62541 8.62492C8.43096 8.81936 8.33374 9.05547 8.33374 9.33325C8.33374 9.61103 8.43096 9.84714 8.62541 10.0416C8.81985 10.236 9.05596 10.3333 9.33374 10.3333Z" fill="#77B945"/>
</g>
</svg>
