<svg width="113" height="110" viewBox="0 0 113 110" fill="none" xmlns="http://www.w3.org/2000/svg">
<path d="M92.2843 21.5731C88.6545 20.9663 88.5683 21.6038 84.9369 21.0681C81.3055 20.5324 81.3842 18.9127 77.7219 19.1302C74.0597 19.3478 74.2284 20.556 70.6874 21.5106C67.1464 22.4652 67.1583 24.2374 63.7484 22.8269C60.3385 21.4163 62.0047 19.9215 60.1305 16.7057C58.2563 13.49 58.7343 13.1148 56.17 10.388C53.6272 7.66905 52.9969 8.39486 49.8976 6.33306C46.8275 4.25802 47.2872 3.39835 43.7651 2.16189C39.8342 0.776396 39.5957 2.09897 35.4495 1.63834C31.3032 1.17772 31.3956 0.255799 27.2983 0.864199C23.2087 1.45151 23.6296 2.36947 19.8502 3.97773C16.0708 5.58598 15.0446 3.92172 11.8521 6.46067C8.65956 8.99962 9.90565 10.1946 7.53515 13.4872C5.15697 16.8009 4.12128 16.2321 2.58671 19.9728C1.05214 23.7136 2.09863 24.119 1.44457 28.2525C0.79051 32.386 0.460113 32.2894 0.571382 36.463C0.667273 40.6788 0.392178 40.6979 1.24112 44.8538C2.09007 49.0097 2.43895 48.9219 3.60757 53.0033C4.77619 57.0846 4.63786 57.1297 6.11233 61.1076C7.60832 65.0933 7.20717 65.2576 8.89988 69.1716C10.5926 73.0857 11.4902 72.6963 13.395 76.4966C15.2921 80.3179 15.0293 80.4371 16.8972 84.2718C18.7652 88.1064 18.4439 88.252 20.2535 92.1131C22.063 95.9743 22.647 95.7094 24.5442 99.5308C25.7761 102.035 25.2505 102.273 26.5409 104.75C27.8312 107.228 26.8413 108.204 29.4491 109.275C32.0568 110.345 32.1401 109.181 34.7759 108.302C37.4117 107.424 37.0846 106.516 39.7005 105.559C43.715 104.108 43.9684 104.75 47.9552 103.241C51.9498 101.711 51.8192 101.401 55.7784 99.8343C59.7376 98.2677 59.7314 98.2177 63.663 96.5932C67.616 94.9766 67.9125 95.6342 71.8241 93.9308C75.7356 92.2274 75.4254 91.5409 79.2955 89.7507C83.1656 87.9605 83.3176 88.2787 86.965 86.0967C90.6046 83.9358 90.766 84.1619 94.1752 81.6303C97.5629 79.0908 97.7688 79.2614 100.719 76.2517C103.668 73.242 103.227 72.914 105.644 69.4949C108.061 66.0758 109.262 66.6573 110.779 62.7665C112.256 58.9811 110.401 58.5198 110.88 54.4658C111.359 50.4118 113.202 50.4386 112.632 46.3847C112.063 42.3308 110.808 42.5658 109.242 38.7699C107.685 34.9529 108.924 34.1623 106.298 30.9353C103.672 27.7083 102.713 28.6009 99.2666 26.2214C95.8338 23.8708 97.0831 24.5891 93.718 22.1198C93.277 21.7917 92.3488 21.5967 92.2766 21.5942L92.2843 21.5731Z" fill="#0281C9"/>
</svg>
