<svg width="35" height="34" viewBox="0 0 35 34" fill="none" xmlns="http://www.w3.org/2000/svg">
<path d="M0.950958 17.5697C0.950958 17.2953 0.950958 17.0209 0.950958 16.7463C0.957038 16.6983 0.967433 16.6506 0.968806 16.6023C0.996852 15.6077 1.11884 14.6244 1.32634 13.6517C1.74899 11.6717 2.50525 9.82731 3.60356 8.12732C5.19825 5.65884 7.29405 3.73114 9.89291 2.35695C12.1786 1.1487 14.6191 0.520642 17.2011 0.442184C18.2641 0.40982 19.3216 0.480825 20.3725 0.651471C21.7281 0.871741 23.0376 1.24952 24.2969 1.79695C26.9256 2.9395 29.1275 4.63929 30.8844 6.90358C32.9149 9.52034 34.062 12.4876 34.3443 15.7874C34.4255 16.7361 34.4174 17.6858 34.3341 18.6354C34.2556 19.528 34.1113 20.4091 33.8883 21.2763C33.1093 24.3045 31.612 26.926 29.3713 29.1052C26.47 31.9267 22.988 33.4965 18.9547 33.833C17.9566 33.9164 16.9571 33.896 15.9608 33.7944C15.1355 33.7103 14.3199 33.5669 13.5165 33.359C11.1203 32.7384 8.95758 31.6503 7.05379 30.0684C4.23371 27.7251 2.36267 24.7733 1.45539 21.217C1.19984 20.2153 1.04706 19.1967 0.989987 18.164C0.978612 17.9657 0.963903 17.7678 0.950958 17.5697ZM14.5674 20.3816C13.0668 22.6169 11.5688 24.8484 10.0618 27.0935C10.1124 27.0959 10.141 27.0986 10.1694 27.0986C11.3586 27.0988 12.5477 27.0982 13.7368 27.1004C13.8054 27.1004 13.8409 27.0747 13.877 27.0207C15.5154 24.5695 17.1554 22.1195 18.795 19.6691C18.8125 19.6428 18.8282 19.6153 18.846 19.5857C18.816 19.5637 18.7931 19.5457 18.7692 19.5294C18.4063 19.2848 18.0433 19.0408 17.6807 18.7962C17.0146 18.347 16.3429 17.9063 15.7347 17.3777C15.2128 16.9242 14.7498 16.4209 14.4428 15.794C13.9721 14.8329 13.8603 13.8116 14.019 12.7677C14.1733 11.7523 14.7309 10.995 15.6315 10.4979C16.3113 10.1227 17.0519 9.96245 17.8187 9.93087C18.4253 9.90596 19.0335 9.91498 19.6411 9.91185C19.8329 9.91087 19.8123 9.87772 19.8123 10.0823C19.8127 15.6952 19.8127 21.3082 19.8129 26.9211C19.8129 26.9717 19.8172 27.0225 19.8194 27.0716H23.2734V7.21682H23.1382C21.5702 7.21682 20.002 7.21898 18.434 7.21584C17.7407 7.21447 17.0505 7.2482 16.3645 7.35275C15.3964 7.50005 14.4662 7.7674 13.6022 8.23756C12.2949 8.94897 11.3672 9.99109 10.8808 11.4069C10.4929 12.5363 10.4466 13.6949 10.6094 14.8684C10.7776 16.0824 11.2656 17.1553 12.0364 18.104C12.613 18.8135 13.2922 19.4135 14.0147 19.9676C14.1957 20.1065 14.3799 20.2412 14.5674 20.3816Z" fill="white"/>
</svg>
