<svg width="205" height="196" viewBox="0 0 205 196" fill="none" xmlns="http://www.w3.org/2000/svg">
<path d="M68.6425 47.1087C70.7942 45.4496 72.869 43.8076 74.8843 42.1529C76.799 40.3886 78.6959 38.6723 80.5666 37.0099C82.3955 35.2867 84.2318 33.6479 86.0755 32.0934C87.9024 30.5146 89.7449 29.0504 91.6113 27.6948C93.4778 26.3392 95.3681 25.1102 97.2653 24.0017C99.1963 22.9056 101.151 21.9543 103.121 21.1355C105.107 20.3409 107.126 19.7033 109.159 19.2343C111.267 18.8564 113.424 18.6958 115.579 18.6616C117.751 18.6335 119.887 18.7013 121.988 18.8831C124.106 19.071 126.18 19.3607 128.21 19.7522C130.248 20.1559 132.251 20.6734 134.176 21.2622C136.109 21.8632 137.99 22.5718 139.801 23.3639C141.612 24.174 143.354 25.0675 145.018 26.0684C146.682 27.0694 148.268 28.1415 149.751 29.3027C151.251 30.4882 152.656 31.7388 153.94 33.0721C155.25 34.4238 156.44 35.8583 157.518 37.3516C158.604 38.8752 159.545 40.427 160.341 42.0072C161.153 43.6117 161.812 45.2324 162.343 46.8877C162.882 48.555 163.277 50.2327 163.551 51.9391C163.817 53.6513 163.955 55.3801 163.966 57.1253C163.984 58.8647 163.875 60.6386 163.638 62.411C163.417 64.1896 163.078 65.9788 162.619 67.7786C162.295 69.6643 161.928 71.6157 161.542 73.633C161.233 75.7054 160.93 77.8983 160.685 80.2302C160.533 82.6776 160.412 85.2457 160.265 87.9219C160.235 90.7499 160.169 93.6737 160.094 96.6937C160.076 99.8167 159.999 102.963 159.854 106.121C159.717 109.29 159.494 112.447 159.179 115.578C158.855 118.698 158.413 121.774 157.877 124.806C157.274 127.796 156.46 130.699 155.459 133.479C154.239 136.142 152.674 138.524 150.855 140.741C148.834 142.793 146.577 144.667 144.119 146.359C141.509 147.886 138.774 149.213 135.924 150.316C132.957 151.141 129.892 151.766 126.752 152.228C123.527 152.622 120.262 152.866 116.957 152.995C113.584 153.044 110.187 152.967 106.783 152.788C103.329 152.554 99.9268 152.266 96.6271 151.944C93.3699 151.628 90.2238 151.289 87.1973 150.922C84.2547 150.64 81.5823 150.529 79.0543 150.445C76.6017 150.451 74.2513 150.459 72.0031 150.468C69.746 150.501 67.4987 150.438 65.2954 150.273C63.0921 150.108 60.9245 149.829 58.8177 149.455C56.7193 149.093 54.6565 148.617 52.6633 148.039C50.67 147.461 48.7377 146.788 46.8751 145.996C45.0039 145.209 43.2023 144.321 41.4787 143.325C39.7552 142.329 38.1012 141.232 36.5422 140.034C34.9663 138.83 33.4854 137.524 32.091 136.123C30.6883 134.71 29.3806 133.196 28.168 131.581C26.9723 129.972 25.8798 128.292 24.9157 126.559C23.9516 124.826 23.1077 123.029 22.3919 121.197C21.6678 119.353 21.0719 117.474 20.5873 115.554C20.1027 113.635 19.7293 111.675 19.4755 109.686C19.2218 107.697 19.0877 105.679 19.0559 103.645C19.0328 101.605 19.1121 99.5475 19.3024 97.4677C19.5013 95.3819 19.8368 93.2737 20.3935 91.1742C21.0016 89.0572 21.7374 86.9418 22.6009 84.8279C23.4474 82.7078 24.4468 80.6256 25.6401 78.6782C26.9005 76.8098 28.3129 75.0335 29.8606 73.325C31.425 71.6408 33.1334 70.0185 34.9601 68.4578C36.787 66.879 38.7326 65.3438 40.8135 63.8765C42.8777 62.3848 45.0686 60.9669 47.361 59.6044C49.6283 58.2054 51.9973 56.8438 54.4677 55.5376C56.8708 54.1704 59.2992 52.8215 61.7274 51.4907C64.0291 50.0681 66.3398 48.6035 68.6425 47.1087Z" fill="url(#paint0_linear_1502_4319)"/>
<path d="M122.001 40.0436C117.481 42.0376 113.288 44.501 109.786 48.1578C106.95 51.1924 105.762 50.0756 104.968 46.5593C104.344 42.497 103.432 38.2189 102.312 34.2329C99.5493 24.5218 93.9652 16.2839 84.1987 13.8865C73.9358 11.5653 64.1271 13.8525 56.8608 22.7658C48.928 32.3013 50.7368 42.4189 55.5623 52.3327C57.7925 56.9279 57.0731 58.8574 52.0322 59.1123C50.7914 59.3029 49.3026 59.5317 48.0619 59.7224C36.4771 62.0225 25.6836 72.7773 24.2666 83.3906C22.5203 98.4725 42.7636 116.153 58.3186 113.243C67.461 111.578 76.4861 109.151 84.9652 103.17C84.87 109.162 84.6187 114.138 84.8637 119.039C85.5739 131.924 97.3725 142.585 109.688 141.732C119.482 141.007 129.191 131.458 130.909 119.499C131.827 113.901 131.922 107.909 132.056 102.171C132.138 97.74 133.431 96.2417 137.898 95.5553C155.764 92.8097 167.269 71.8099 160.568 54.6477C155.522 41.649 135.025 33.884 122.001 40.0436ZM102.908 82.7404C98.6084 87.8192 89.9623 89.4078 86.1512 86.0951C82.0529 82.5667 82.003 78.9358 85.5972 74.2253C90.6942 67.7245 95.5791 66.4541 100.5 70.3758C105.172 74.3357 106.123 78.8678 102.908 82.7404Z" fill="#FDC504"/>
<defs>
<linearGradient id="paint0_linear_1502_4319" x1="167.973" y1="52.5396" x2="36.1467" y2="143.234" gradientUnits="userSpaceOnUse">
<stop stop-color="#F1F8FD"/>
<stop offset="1" stop-color="#E7F1F8"/>
</linearGradient>
</defs>
</svg>
