<svg width="204" height="194" viewBox="0 0 204 194" fill="none" xmlns="http://www.w3.org/2000/svg">
<path d="M135.617 46.3706C137.981 47.7106 140.299 48.9863 142.606 50.2023C144.974 51.2831 147.292 52.3661 149.55 53.4457C151.847 54.4634 154.07 55.5206 156.218 56.6172C158.381 57.689 160.446 58.8195 162.419 60.0143C164.392 61.2091 166.258 62.4749 168.015 63.7938C169.774 65.1487 171.409 66.5815 172.928 68.0797C174.431 69.6027 175.801 71.2159 177.022 72.9081C178.188 74.7052 179.172 76.6308 180.039 78.6039C180.907 80.5949 181.673 82.5906 182.32 84.5975C182.968 86.6225 183.505 88.6465 183.932 90.6693C184.35 92.7046 184.649 94.7512 184.853 96.7539C185.049 98.769 185.125 100.777 185.097 102.754C185.053 104.738 184.905 106.69 184.627 108.612C184.35 110.534 183.977 112.412 183.481 114.229C182.97 116.071 182.362 117.85 181.631 119.552C180.893 121.283 180.032 122.936 179.074 124.509C178.091 126.101 177.025 127.57 175.877 128.916C174.713 130.287 173.475 131.523 172.155 132.654C170.827 133.798 169.434 134.812 167.967 135.727C166.492 136.636 164.952 137.433 163.347 138.12C161.751 138.811 160.074 139.398 158.348 139.867C156.623 140.354 154.842 140.734 153.005 141.009C151.142 141.442 149.201 141.86 147.192 142.287C145.161 142.805 143.023 143.377 140.778 144.055C138.463 144.863 136.049 145.748 133.525 146.65C130.907 147.719 128.186 148.792 125.373 149.894C122.488 151.089 119.558 152.238 116.591 153.328C113.616 154.431 110.62 155.45 107.612 156.374C104.611 157.285 101.604 158.07 98.6013 158.752C95.6118 159.355 92.6202 159.73 89.6696 159.886C86.7416 159.794 83.9387 159.275 81.1902 158.458C78.5153 157.391 75.9124 156.037 73.3998 154.427C70.9802 152.614 68.6965 150.608 66.5743 148.408C64.6637 145.993 62.8988 143.41 61.2556 140.695C59.6417 137.875 58.1512 134.961 56.7506 131.963C55.397 128.874 54.1508 125.713 52.9962 122.506C51.8726 119.231 50.8185 115.983 49.8363 112.817C48.8645 109.692 47.9568 106.661 47.1218 103.729C46.2409 100.907 45.3063 98.4008 44.404 96.0378C43.4469 93.7796 42.5283 91.6161 41.6481 89.5473C40.7424 87.4796 39.9292 85.3837 39.2269 83.2889C38.5245 81.194 37.941 79.0878 37.4691 77.0008C36.9893 74.9261 36.6284 72.8401 36.3879 70.7788C36.1474 68.7175 36.0186 66.6753 36.027 64.6511C36.0266 62.6213 36.1467 60.6161 36.3961 58.6414C36.6455 56.6666 37.0153 54.7166 37.5153 52.815C38.0144 50.8953 38.6437 49.0241 39.3942 47.1956C40.1527 45.3547 41.0413 43.5622 42.06 41.8181C43.0796 40.092 44.2046 38.4335 45.4279 36.873C46.6511 35.3125 47.9807 33.8376 49.3918 32.4674C50.8108 31.0849 52.3115 29.8071 53.8928 28.6161C55.4742 27.4251 57.1363 26.3208 58.8712 25.3157C60.6061 24.3106 62.4138 23.4046 64.2767 22.5865C66.1484 21.774 68.0753 21.0494 70.0663 20.4183C72.066 19.7929 74.1393 19.2846 76.2904 18.9837C78.4776 18.7233 80.7128 18.5812 82.9961 18.5575C85.2786 18.5157 87.5854 18.6295 89.8432 18.9743C92.0541 19.4116 94.2391 20.0247 96.4141 20.7888C98.5731 21.5777 100.731 22.5233 102.878 23.6019C105.042 24.6738 107.211 25.8718 109.37 27.2209C111.546 28.5452 113.702 30.0149 115.847 31.5995C118.016 33.147 120.19 34.8026 122.352 36.5732C124.544 38.2582 126.729 39.9735 128.897 41.6957C131.101 43.2657 133.347 44.8277 135.617 46.3706Z" fill="url(#paint0_linear_1502_4324)"/>
<path d="M72.7585 132.594C68.7 128.615 66.6576 123.749 66.6312 117.994C66.6048 112.24 68.6023 107.311 72.6236 103.209C76.645 99.1072 81.5326 97.0122 87.2864 96.9242C93.0402 96.8362 97.9464 98.7816 102.005 102.76C103.419 104.147 104.558 105.599 105.422 107.116C106.286 108.633 106.937 110.276 107.373 112.045L145.942 72.7021L168.079 94.4035L153.456 109.32L138.698 94.8527L102.14 132.144C98.1183 136.247 93.2307 138.342 87.4769 138.43C81.7231 138.518 76.817 136.572 72.7585 132.594Z" fill="#77B945"/>
<path d="M114.074 90.1955C111.759 93.1026 108.731 94.7581 104.99 95.162C101.249 95.566 97.9089 94.598 94.9706 92.2581C92.0322 89.9182 90.3411 86.88 89.8972 83.1435C89.4533 79.407 90.3888 76.0852 92.7038 73.1781C93.5106 72.165 94.3784 71.3265 95.3072 70.6626C96.236 69.9986 97.261 69.4652 98.3821 69.0624L70.2005 46.6206L82.8279 30.7637L93.5128 39.2724L85.0946 49.8437L111.807 71.1155C114.745 73.4554 116.436 76.4936 116.88 80.2301C117.324 83.9666 116.389 87.2884 114.074 90.1955Z" fill="#77B945"/>
<defs>
<linearGradient id="paint0_linear_1502_4324" x1="169.128" y1="140.036" x2="34.4125" y2="53.6912" gradientUnits="userSpaceOnUse">
<stop stop-color="#F1F8FD"/>
<stop offset="1" stop-color="#E7F1F8"/>
</linearGradient>
</defs>
</svg>
