<svg width="221" height="183" viewBox="0 0 221 183" fill="none" xmlns="http://www.w3.org/2000/svg">
<path d="M153.072 147.151C150.671 148.424 148.349 149.692 146.084 150.983C143.899 152.4 141.74 153.771 139.615 155.095C137.522 156.485 135.436 157.79 133.356 159.012C131.289 160.26 129.226 161.392 127.158 162.414C125.09 163.435 123.019 164.328 120.962 165.1C118.874 165.855 116.787 166.463 114.707 166.938C112.615 167.386 110.518 167.674 108.435 167.794C106.293 167.811 104.14 167.605 102.01 167.276C99.8648 166.937 97.7703 166.51 95.7302 165.976C93.6744 165.434 91.6791 164.799 89.7443 164.07C87.8034 163.329 85.9167 162.481 84.1186 161.576C82.3143 160.658 80.58 159.642 78.928 158.556C77.2793 157.452 75.713 156.277 74.2418 155.01C72.7705 153.743 71.3878 152.419 70.1221 151.024C68.8439 149.603 67.67 148.133 66.6286 146.602C65.5654 145.049 64.6348 143.434 63.824 141.78C63.0104 140.096 62.3446 138.407 61.8266 136.716C61.2963 134.997 60.92 133.288 60.6759 131.567C60.4257 129.833 60.32 128.113 60.337 126.385C60.3635 124.652 60.5189 122.925 60.8032 121.203C61.0781 119.485 61.4852 117.755 62.0179 116.048C62.5349 114.332 63.1714 112.626 63.9273 110.929C64.5645 109.125 65.2557 107.264 65.9757 105.34C66.6302 103.35 67.2982 101.239 67.9328 98.9819C68.4962 96.5953 69.0479 94.0842 69.6445 91.4713C70.1512 88.6889 70.709 85.818 71.2926 82.854C71.8363 79.7786 72.443 76.6903 73.1189 73.6025C73.7886 70.5013 74.5399 67.4273 75.3789 64.3939C76.224 61.3739 77.1788 58.4167 78.218 55.5179C79.3166 52.6729 80.6091 49.949 82.0641 47.3773C83.7159 44.958 85.6607 42.8739 87.8271 40.9956C90.165 39.314 92.7056 37.8469 95.4143 36.5943C98.2442 35.529 101.163 34.6821 104.159 34.0756C107.222 33.7628 110.35 33.6637 113.523 33.7381C116.767 33.893 120.026 34.2035 123.307 34.6341C126.639 35.154 129.975 35.8026 133.299 36.5534C136.665 37.3667 139.97 38.224 143.168 39.0984C146.325 39.9591 149.369 40.8236 152.29 41.6961C155.143 42.4704 157.758 43.0299 160.236 43.5396C162.654 43.9467 164.973 44.3353 167.19 44.7055C169.42 45.0536 171.625 45.4948 173.769 46.0289C175.913 46.563 178.002 47.2034 180.016 47.9277C182.023 48.6386 183.976 49.4558 185.843 50.3613C187.711 51.2668 189.502 52.2562 191.204 53.3516C192.916 54.4427 194.542 55.622 196.073 56.894C197.604 58.166 199.049 59.5263 200.383 60.9703C201.734 62.4233 202.973 63.9599 204.111 65.5759C205.256 67.2052 206.289 68.9182 207.212 70.7149C208.119 72.5025 208.913 74.3428 209.571 76.2132C210.229 78.0837 210.758 79.9977 211.154 81.9241C211.557 83.864 211.828 85.8162 211.982 87.79C212.136 89.7637 212.173 91.7588 212.088 93.762C212.002 95.7653 211.794 97.7766 211.483 99.7872C211.161 101.802 210.736 103.816 210.198 105.834C209.65 107.857 208.964 109.878 208.061 111.854C207.105 113.838 206.023 115.799 204.815 117.737C203.623 119.684 202.287 121.568 200.782 123.286C199.225 124.915 197.533 126.428 195.719 127.851C193.893 129.247 191.936 130.558 189.872 131.788C187.805 133.036 185.629 134.221 183.33 135.317C181.044 136.439 178.645 137.467 176.156 138.424C173.685 139.42 171.12 140.363 168.465 141.234C165.866 142.176 163.245 143.096 160.627 143.998C158.118 145.012 155.594 146.066 153.072 147.151Z" fill="url(#paint0_linear_1502_4336)"/>
<path d="M187.459 72.3974C185.927 62.6912 177.042 56.8235 167.446 59.3246C157.961 61.8646 151.72 73.6202 153.204 83.4462C154.735 93.1523 163.361 97.1501 172.846 94.61C182.331 92.07 188.831 82.1844 187.348 72.3584" fill="#15466B"/>
<path d="M150.749 57.4193C149.217 47.7132 140.332 41.8455 130.736 44.3465C121.251 46.8866 115.01 58.6421 116.494 68.4681C118.025 78.1743 126.651 82.1721 136.136 79.632C145.621 77.0919 152.121 67.2063 150.638 57.3803" fill="#15466B"/>
<path d="M92.5082 126.62C123.115 138.522 123.359 137.916 153.966 149.818C154.413 149.976 155.085 150.213 155.328 149.607C165.337 126.279 164.938 126 175.06 102.712C175.254 102.227 175.274 101.542 174.827 101.384C154.162 94.0962 133.498 86.8081 112.833 79.52C112.833 79.52 112.079 79.8077 111.884 80.2928C102.216 102.771 101.88 102.653 92.1488 124.971C91.9539 125.456 92.1093 126.341 92.5569 126.499L92.5082 126.62Z" fill="#15466B"/>
<path d="M53.7223 105.514C55.5824 100.876 69.8044 66.6571 72.0126 61.4625C72.4418 60.392 72.7808 58.6108 74.0055 58.3644C75.0729 58.1983 75.6441 59.8937 76.2823 60.798C83.474 70.9422 89.1548 82.0462 94.6306 93.3495C95.2972 94.807 95.0252 95.7972 93.4382 96.323C90.9553 97.2112 88.3627 98.0607 85.8179 98.7912C75.5908 101.832 65.3586 105.822 54.951 107.442C52.8161 107.774 52.7543 107.616 53.6128 105.476L53.7223 105.514Z" fill="#15466B"/>
<path d="M39.764 86.0264L1 84.7273" stroke="#15466B" stroke-width="2" stroke-linecap="round"/>
<path d="M39.6072 72.8312C31.2661 68.4079 23.0038 63.414 14.626 59.2051" stroke="#15466B" stroke-width="2" stroke-linecap="round"/>
<path d="M48.692 59.2053C46.3484 54.7844 42.7355 50.9028 39.7994 46.7963C36.9207 42.7701 34.6148 38.696 32.7949 34.2241" stroke="#15466B" stroke-width="2" stroke-linecap="round"/>
<defs>
<linearGradient id="paint0_linear_1502_4336" x1="56.0795" y1="125.047" x2="201.313" y2="57.883" gradientUnits="userSpaceOnUse">
<stop stop-color="#F1F8FD"/>
<stop offset="1" stop-color="#E7F1F8"/>
</linearGradient>
</defs>
</svg>
