<svg width="1433" height="782" viewBox="0 0 1433 782" fill="none" xmlns="http://www.w3.org/2000/svg">
<path d="M41.2728 437.738C18.0229 287.407 121.576 141.527 271.459 111.472C422.858 82.9805 570.706 209.572 593.956 359.904C617.206 510.235 509.933 626.36 360.05 656.415C208.651 684.906 66.1418 586.5 41.2728 437.738Z" fill="#F1F8FD"/>
<path d="M1161.36 616.477C1156.66 611.087 1259.3 608.377 1308.75 583.471C1369.5 552.87 1388.52 503.8 1414.1 524.298C1441.51 546.256 1386.6 585.063 1351.38 603.838C1326.19 617.264 1301.82 625.342 1270.44 627.867C1227.44 631.326 1167.26 623.255 1161.36 616.477Z" fill="#F1F8FD"/>
<path d="M875.08 696.446C880.808 687.688 892.265 685.384 900.637 691.222C909.009 697.215 910.184 710.89 904.456 719.648C898.728 728.406 888.446 729.021 880.074 723.182C871.702 717.19 869.499 705.205 875.08 696.446Z" fill="#F1F8FD"/>
</svg>
