<svg width="109" height="71" viewBox="0 0 109 71" fill="none" xmlns="http://www.w3.org/2000/svg">
<mask id="path-1-inside-1_1297_6785" fill="white">
<path d="M104.967 27.2827C103.843 21.9229 98.6212 18.5036 93.2093 19.6599C87.8616 20.8401 84.6027 27.1495 85.7021 32.574C86.8259 37.9338 91.8518 40.3213 97.1995 39.1411C102.547 37.9609 106.002 32.6833 104.903 27.2588"/>
</mask>
<path d="M104.967 27.2827C103.843 21.9229 98.6212 18.5036 93.2093 19.6599C87.8616 20.8401 84.6027 27.1495 85.7021 32.574C86.8259 37.9338 91.8518 40.3213 97.1995 39.1411C102.547 37.9609 106.002 32.6833 104.903 27.2588" fill="#F8B500"/>
<path d="M93.2093 19.6599L92.996 18.685L93.0026 18.6836L93.2093 19.6599ZM85.7021 32.574L84.7219 32.7814L84.7205 32.7749L85.7021 32.574ZM103.987 27.4901C102.975 22.6672 98.2827 19.5964 93.4161 20.6362L93.0026 18.6836C98.9597 17.4108 104.711 21.1786 105.947 27.0753L103.987 27.4901ZM93.4227 20.6348C91.0865 21.1504 89.1494 22.8005 87.912 25.01C86.6736 27.2212 86.1851 29.9129 86.6837 32.3731L84.7205 32.7749C84.1198 29.8106 84.711 26.6354 86.1641 24.0407C87.6182 21.4443 89.9844 19.3497 92.996 18.6851L93.4227 20.6348ZM86.6824 32.3666C87.1848 34.7629 88.5412 36.4536 90.3473 37.4324C92.17 38.4202 94.5111 38.7125 96.9862 38.1662L97.4128 40.116C94.5402 40.7499 91.6944 40.4385 89.3864 39.1877C87.0617 37.9279 85.3432 35.7449 84.7219 32.7814L86.6824 32.3666ZM96.9862 38.1662C101.795 37.1049 104.913 32.3539 103.921 27.4597L105.884 27.0579C107.091 33.0126 103.299 38.8169 97.4128 40.116L96.9862 38.1662Z" fill="#F8B500" mask="url(#path-1-inside-1_1297_6785)"/>
<mask id="path-3-inside-2_1297_6785" fill="white">
<path d="M84.5182 18.9394C83.3944 13.5796 78.1725 10.1603 72.7606 11.3167C67.4128 12.4969 64.154 18.8062 65.2534 24.2307C66.3772 29.5905 71.403 31.9781 76.7508 30.7978C82.0985 29.6176 85.5534 24.34 84.454 18.9155"/>
</mask>
<path d="M84.5182 18.9394C83.3944 13.5796 78.1725 10.1603 72.7606 11.3167C67.4128 12.4969 64.154 18.8062 65.2534 24.2307C66.3772 29.5905 71.403 31.9781 76.7508 30.7978C82.0985 29.6176 85.5534 24.34 84.454 18.9155" fill="#F8B500"/>
<path d="M72.7606 11.3167L72.5473 10.3418L72.5539 10.3404L72.7606 11.3167ZM65.2534 24.2307L64.2731 24.4382L64.2718 24.4316L65.2534 24.2307ZM83.538 19.1468C82.5267 14.3239 77.834 11.2531 72.9673 12.293L72.5539 10.3404C78.511 9.06752 84.2621 12.8353 85.4984 18.732L83.538 19.1468ZM72.9739 12.2915C70.6378 12.8071 68.7007 14.4573 67.4632 16.6667C66.2248 18.8779 65.7363 21.5696 66.235 24.0298L64.2718 24.4316C63.671 21.4674 64.2623 18.2921 65.7154 15.6975C67.1695 13.1011 69.5357 11.0064 72.5473 10.3418L72.9739 12.2915ZM66.2336 24.0233C66.7361 26.4197 68.0925 28.1103 69.8986 29.0892C71.7213 30.077 74.0624 30.3692 76.5374 29.823L76.9641 31.7727C74.0914 32.4067 71.2457 32.0953 68.9377 30.8444C66.613 29.5846 64.8945 27.4016 64.2732 24.4382L66.2336 24.0233ZM76.5374 29.823C81.3466 28.7616 84.4644 24.0107 83.4724 19.1164L85.4356 18.7146C86.6425 24.6693 82.8504 30.4736 76.9641 31.7727L76.5374 29.823Z" fill="#F8B500" mask="url(#path-3-inside-2_1297_6785)"/>
<path d="M52.6255 55.6252L52.596 55.7033C61.0902 59.1497 65.4396 60.8243 69.7902 62.4994L69.7909 62.4996C74.22 64.2049 78.6505 65.9108 87.4459 69.4825C87.5094 69.5062 87.5636 69.526 87.6165 69.5416C87.6169 69.5417 87.6174 69.5419 87.6178 69.542C89.9525 63.7973 91.1502 60.6918 92.2841 57.7519C92.3598 57.5555 92.4353 57.3598 92.5108 57.1641C93.726 54.0148 94.9497 50.8675 97.5107 44.659C97.5202 44.6327 97.5279 44.6013 97.5319 44.5693C97.5331 44.5599 97.5339 44.5511 97.5343 44.543L97.4964 44.5289L97.4269 44.503L97.3574 44.4771L97.2879 44.4512L97.2184 44.4253L97.1489 44.3994L97.0795 44.3736L97.01 44.3477L96.9405 44.3218L96.871 44.2959L96.8015 44.27L96.732 44.2441L96.6626 44.2183L96.5931 44.1924L96.5236 44.1665L96.4541 44.1406L96.3846 44.1147L96.3151 44.0889L96.2457 44.063L96.1762 44.0371L96.1067 44.0112L96.0372 43.9853L95.9677 43.9594L95.8982 43.9336L95.8288 43.9077L95.7593 43.8818L95.6898 43.8559L95.6203 43.83L95.5508 43.8041L95.4813 43.7783L95.4119 43.7524L95.3424 43.7265L95.2729 43.7006L95.2034 43.6747L95.1339 43.6488L95.0644 43.623L94.995 43.5971L94.9255 43.5712L94.856 43.5453L94.7865 43.5194L94.717 43.4935L94.6476 43.4677L94.5781 43.4418L94.5086 43.4159L94.4391 43.39L94.3696 43.3641L94.3001 43.3382L94.2307 43.3124L94.1612 43.2865L94.0917 43.2606L94.0222 43.2347L93.9527 43.2088L93.8832 43.1829L93.8138 43.1571L93.7443 43.1312L93.6748 43.1053L93.6053 43.0794L93.5358 43.0535L93.4663 43.0276L93.3969 43.0018L93.3274 42.9759L93.2579 42.95L93.1884 42.9241L93.1189 42.8982L93.0494 42.8723L92.98 42.8465L92.9105 42.8206L92.841 42.7947L92.7715 42.7688L92.702 42.7429L92.6325 42.717L92.5631 42.6912L92.4936 42.6653L92.4241 42.6394L92.3546 42.6135L92.2851 42.5876L92.2157 42.5617L92.1462 42.5359L92.0767 42.51L92.0072 42.4841L91.9377 42.4582L91.8682 42.4323L91.7988 42.4064L91.7293 42.3806L91.6598 42.3547L91.5903 42.3288L91.5208 42.3029L91.4513 42.277L91.3819 42.2511L91.3124 42.2253L91.2429 42.1994L91.1734 42.1735L91.1039 42.1476L91.0344 42.1217L90.965 42.0958L90.8955 42.07L90.826 42.0441L90.7565 42.0182L90.687 41.9923L90.6175 41.9664L90.5481 41.9405L90.4786 41.9147L90.4091 41.8888L90.3396 41.8629L90.2701 41.837L90.2006 41.8111L90.1312 41.7852L90.0617 41.7594L89.9922 41.7335L89.9227 41.7076L89.8532 41.6817L89.7837 41.6558L89.7143 41.6299L89.6448 41.6041L89.5753 41.5782L89.5058 41.5523L89.4363 41.5264L89.3669 41.5005L89.2974 41.4746L89.2279 41.4488L89.1584 41.4229L89.0889 41.397L89.0194 41.3711L88.95 41.3452L88.8805 41.3193L88.811 41.2935L88.7415 41.2676L88.672 41.2417L88.6025 41.2158L88.5331 41.1899L88.4636 41.164L88.3941 41.1382L88.3246 41.1123L88.2551 41.0864L88.1856 41.0605L88.1162 41.0346L88.0467 41.0088L87.9772 40.9829L87.9077 40.957L87.8382 40.9311L87.7687 40.9052L87.6993 40.8793L87.6298 40.8535L87.5603 40.8276L87.4908 40.8017L87.4213 40.7758L87.3518 40.7499L87.2824 40.724L87.2129 40.6982L87.1434 40.6723L87.0739 40.6464L87.0044 40.6205L86.935 40.5946L86.8655 40.5687L86.796 40.5429L86.7265 40.517L86.657 40.4911L86.5875 40.4652L86.5181 40.4393L86.4486 40.4134L86.3791 40.3876L86.3096 40.3617L86.2401 40.3358L86.1706 40.3099L86.1012 40.284L86.0317 40.2581L85.9622 40.2323L85.8927 40.2064L85.8232 40.1805L85.7537 40.1546L85.6843 40.1287L85.6148 40.1028L85.5453 40.077L85.4758 40.0511L85.4063 40.0252L85.3368 39.9993L85.2674 39.9734L85.1979 39.9475L85.1284 39.9217L85.0589 39.8958L84.9894 39.8699L84.9199 39.844L84.8505 39.8181L84.781 39.7922L84.7115 39.7664L84.642 39.7405L84.5725 39.7146L84.503 39.6887L84.4336 39.6628L84.3641 39.6369L84.2946 39.6111L84.2251 39.5852L84.1556 39.5593L84.0862 39.5334L84.0167 39.5075L83.9472 39.4816L83.8777 39.4558L83.8082 39.4299L83.7387 39.404L83.6693 39.3781L83.5998 39.3522L83.5303 39.3263L83.4608 39.3005L83.3913 39.2746L83.3218 39.2487L83.2524 39.2228L83.1829 39.1969L83.1134 39.171L83.0439 39.1452L82.9744 39.1193L82.9049 39.0934L82.8355 39.0675L82.766 39.0416L82.6965 39.0157L82.627 38.9899L82.5575 38.964L82.488 38.9381L82.4186 38.9122L82.3491 38.8863L82.2796 38.8604L82.2101 38.8346L82.1406 38.8087L82.0711 38.7828L82.0017 38.7569L81.9322 38.731L81.8627 38.7051L81.7932 38.6793L81.7237 38.6534L81.6542 38.6275L81.5848 38.6016L81.5153 38.5757L81.4458 38.5498L81.3763 38.524L81.3068 38.4981L81.2374 38.4722L81.1679 38.4463L81.0984 38.4204L81.0289 38.3945L80.9594 38.3687L80.8899 38.3428L80.8205 38.3169L80.751 38.291L80.6815 38.2651L80.612 38.2392L80.5425 38.2134L80.473 38.1875L80.4036 38.1616L80.3341 38.1357L80.2646 38.1098L80.1951 38.0839L80.1256 38.0581L80.0561 38.0322L79.9867 38.0063L79.9172 37.9804L79.8477 37.9545L79.7782 37.9287L79.7087 37.9028L79.6392 37.8769L79.5698 37.851L79.5003 37.8251L79.4308 37.7992L79.3613 37.7734L79.2918 37.7475L79.2223 37.7216L79.1529 37.6957L79.0834 37.6698L79.0139 37.6439L78.9444 37.6181L78.8749 37.5922L78.8054 37.5663L78.736 37.5404L78.6665 37.5145L78.597 37.4886L78.5275 37.4628L78.458 37.4369L78.3886 37.411L78.3191 37.3851L78.2496 37.3592L78.1801 37.3333L78.1106 37.3075L78.0411 37.2816L77.9717 37.2557L77.9022 37.2298L77.8327 37.2039L77.7632 37.178L77.6937 37.1522L77.6242 37.1263L77.5548 37.1004L77.4853 37.0745L77.4158 37.0486L77.3463 37.0227L77.2768 36.9969L77.2073 36.971L77.1379 36.9451L77.0684 36.9192L76.9989 36.8933L76.9294 36.8674L76.8599 36.8416L76.7904 36.8157L76.721 36.7898L76.6515 36.7639L76.582 36.738L76.5125 36.7121L76.443 36.6863L76.3735 36.6604L76.3041 36.6345L76.2346 36.6086L76.1651 36.5827L76.0956 36.5568L76.0261 36.531L75.9567 36.5051L75.8872 36.4792L75.8177 36.4533L75.7482 36.4274L75.6787 36.4015L75.6092 36.3757L75.5398 36.3498L75.4703 36.3239L75.4008 36.298L75.3313 36.2721L75.2618 36.2462L75.1923 36.2204L75.1229 36.1945L75.0534 36.1686L74.9839 36.1427L74.9144 36.1168L74.8449 36.0909L74.7754 36.0651L74.706 36.0392L74.6365 36.0133L74.567 35.9874L74.4975 35.9615L74.428 35.9356L74.3585 35.9098L74.2891 35.8839L74.2196 35.858L74.1501 35.8321L74.0806 35.8062L74.0111 35.7803L73.9416 35.7545L73.8722 35.7286L73.8027 35.7027L73.7332 35.6768L73.6637 35.6509L73.5942 35.625L73.5247 35.5992L73.4553 35.5733L73.3858 35.5474L73.3163 35.5215L73.2468 35.4956L73.1773 35.4697L73.1079 35.4439L73.0384 35.418L72.9689 35.3921L72.8994 35.3662L72.8299 35.3403L72.7604 35.3144L72.691 35.2886L72.6215 35.2627L72.552 35.2368L72.4825 35.2109L72.413 35.185L72.3435 35.1591L72.2741 35.1333L72.2046 35.1074L72.1351 35.0815L72.0656 35.0556L71.9961 35.0297L71.9266 35.0038L71.8572 34.978L71.7877 34.9521L71.7182 34.9262L71.6487 34.9003L71.5792 34.8744L71.5097 34.8485L71.4403 34.8227L71.3708 34.7968L71.3013 34.7709L71.2318 34.745L71.1623 34.7191L71.0928 34.6933L71.0234 34.6674L70.9539 34.6415L70.8844 34.6156L70.8149 34.5897L70.7454 34.5638L70.6759 34.538L70.6065 34.5121L70.537 34.4862L70.4675 34.4603L70.398 34.4344L70.3285 34.4085L70.2591 34.3827L70.1896 34.3568L70.1201 34.3309L70.0506 34.305L69.9811 34.2791L69.9116 34.2532L69.8422 34.2274L69.7727 34.2015L69.7032 34.1756L69.6337 34.1497L69.5642 34.1238L69.4947 34.0979L69.4253 34.0721L69.3558 34.0462L69.2863 34.0203L69.2168 33.9944L69.1473 33.9685L69.0778 33.9426L69.0084 33.9168L68.9389 33.8909L68.8694 33.865L68.7999 33.8391L68.7304 33.8132L68.6609 33.7873L68.5915 33.7615L68.522 33.7356L68.4525 33.7097L68.383 33.6838L68.3135 33.6579L68.244 33.632L68.1746 33.6062L68.1051 33.5803L68.0356 33.5544L67.9661 33.5285L67.8966 33.5026L67.8272 33.4767L67.7577 33.4509L67.6882 33.425L67.6187 33.3991L67.5492 33.3732L67.4797 33.3473L67.4103 33.3214L67.3408 33.2956L67.2713 33.2697L67.2018 33.2438L67.1323 33.2179L67.0628 33.192L66.9934 33.1661L66.9239 33.1403L66.8544 33.1144L66.7849 33.0885L66.7154 33.0626L66.6459 33.0367L66.5765 33.0108L66.507 32.985L66.4375 32.9591L66.368 32.9332L66.2985 32.9073L66.229 32.8814L66.1596 32.8555L66.0901 32.8297L66.0206 32.8038L65.9511 32.7779L65.8816 32.752L65.8121 32.7261L65.7427 32.7002L65.6732 32.6744L65.6037 32.6485L65.5342 32.6226L65.4647 32.5967L65.3952 32.5708L65.3258 32.5449L65.2563 32.5191L65.1868 32.4932L65.1173 32.4673L65.0478 32.4414L64.9784 32.4155L64.9089 32.3896L64.8394 32.3638L64.7699 32.3379L64.7004 32.312L64.6309 32.2861L64.5615 32.2602L64.492 32.2343L64.4225 32.2085L64.353 32.1826L64.2835 32.1567L64.214 32.1308L64.1446 32.1049L64.0751 32.079L64.0056 32.0532L63.9361 32.0273L63.8666 32.0014L63.7971 31.9755L63.7277 31.9496L63.6582 31.9237L63.5887 31.8979L63.5192 31.872L63.4497 31.8461L63.3802 31.8202L63.3108 31.7943L63.2413 31.7684L63.1718 31.7426L63.1023 31.7167L63.0328 31.6908L62.9633 31.6649L62.8939 31.639L62.8244 31.6132L62.7549 31.5873L62.6854 31.5614L62.6159 31.5355L62.5465 31.5096L62.477 31.4837L62.4075 31.4579L62.338 31.432L62.2685 31.4061L62.2543 31.4008C62.2221 31.4199 62.1984 31.4377 62.1835 31.4515C62.1822 31.4527 62.1811 31.4538 62.1801 31.4548C59.5295 37.9564 58.255 40.9215 56.8556 44.1774C55.681 46.9102 54.4184 49.8479 52.18 55.2535C52.1791 55.2581 52.1762 55.2737 52.1764 55.3012C52.1767 55.3387 52.1827 55.3816 52.1941 55.4215C52.2003 55.4429 52.2068 55.4594 52.2124 55.4713L52.6255 55.6252ZM87.7272 69.5642C87.7272 69.5642 87.7266 69.5642 87.7255 69.5643L87.7272 69.5642Z" fill="#F8B500" stroke="#F8B500"/>
<path d="M30.8044 44.8213L30.6307 45.2816C30.7377 45.2746 30.8716 45.2618 31.0398 45.2432C35.2783 44.7744 39.4157 43.6377 43.5822 42.493C45.2221 42.0425 46.8666 41.5907 48.5236 41.1779L48.5282 41.1767C49.9626 40.8339 51.4228 40.4266 52.8209 39.9951L52.8208 39.9949L52.8325 39.9917C53.2153 39.8835 53.2799 39.7581 53.2943 39.7162C53.3186 39.6454 53.325 39.4641 53.1336 39.0901C49.6899 32.7277 46.147 26.4968 41.7691 20.7653L41.7685 20.7645C41.6566 20.6175 41.5498 20.4453 41.4555 20.2935L41.448 20.2814C41.3463 20.1176 41.2551 19.9713 41.1607 19.8446C40.9713 19.5904 40.8777 19.5645 40.8534 19.5625C40.765 19.5821 40.6596 19.6584 40.5351 19.9287C40.4728 20.0642 40.4194 20.2194 40.3646 20.3914C40.3533 20.4269 40.3416 20.464 40.3297 20.5021C40.2878 20.6357 40.2424 20.7807 40.1949 20.9065L40.195 20.9066L40.1908 20.917C39.0547 23.7339 31.7535 42.3063 30.8044 44.8213ZM30.5674 45.2852C30.5815 45.2845 30.596 45.2837 30.6112 45.2828L30.5726 45.2685C30.5709 45.2741 30.5691 45.2797 30.5674 45.2852Z" fill="#F8B500" stroke="#F8B500"/>
<path d="M22.5919 34.4475L1 33.7239" stroke="#F8B500" stroke-width="2" stroke-linecap="round"/>
<path d="M22.5049 27.0977C17.8588 24.6339 13.2566 21.8522 8.59009 19.5078" stroke="#F8B500" stroke-width="2" stroke-linecap="round"/>
<path d="M27.5646 19.5078C26.2592 17.0453 24.2467 14.8832 22.6113 12.5959C21.0078 10.3532 19.7234 8.08392 18.7097 5.59302" stroke="#F8B500" stroke-width="2" stroke-linecap="round"/>
</svg>
