<svg width="369" height="207" viewBox="0 0 369 207" fill="none" xmlns="http://www.w3.org/2000/svg">
<path d="M60.2353 90.5918C64.5375 94.5267 69.1891 97.0963 75.4074 91.701C79.9062 87.953 81.7321 78.0536 78.5684 70.5923C76.2958 65.1815 72.7434 60.6219 69.5011 56.2337C67.0595 53.3267 63.2989 52.8076 59.3693 54.7924C55.2199 57.1751 53.2413 60.7569 52.9035 65.7646C52.2278 75.7799 52.302 85.1706 60.2353 90.5918Z" fill="#F8B500"/>
<path d="M87.5391 137.879C91.8414 141.814 96.493 144.384 102.711 138.988C107.21 135.24 109.036 125.341 105.872 117.88C103.6 112.469 100.047 107.909 96.805 103.521C94.3634 100.614 90.6028 100.095 86.6732 102.08C82.5238 104.462 80.5452 108.044 80.2074 113.052C79.5317 123.067 79.6059 132.458 87.5391 137.879Z" fill="#F8B500"/>
<path d="M63.3865 24.8069C64.3285 28.9632 65.8003 32.8929 70.9703 31.5934C74.5505 30.9739 78.6883 24.9487 79.1557 18.9738C79.5838 14.5354 79.3916 9.75443 78.7598 5.76939C78.3085 2.92295 76.8875 1.09915 73.9669 0.524662C71.1366 0.519475 68.8872 2.39348 67.3483 5.17937C63.8307 11.5471 61.1532 17.8594 63.3865 24.8069Z" fill="#F8B500"/>
<path d="M28.1688 61.4508C35.1253 51.7884 33.2066 32.5485 24.7041 28.8905C20.4528 27.0615 15.903 28.7036 12.2049 33.9328C5.99824 42.9705 6.13495 58.1094 12.2585 64.6087C17.3615 70.0247 22.8416 68.8965 28.3887 61.0528L28.1688 61.4508Z" fill="#F8B500"/>
<path d="M5.0803 115.703C7.7417 118.212 10.6623 118.786 13.7518 116.857C16.8412 114.928 17.4499 111.628 17.4382 107.985C17.4266 104.343 17.1049 100.529 15.5034 97.5669C13.5918 94.4332 11.2405 92.0955 7.53083 93.6822C3.82113 95.269 1.62265 99.2488 0.884453 103.516C0.326784 108.922 1.79868 112.851 4.7702 115.532L5.0803 115.703Z" fill="#F8B500"/>
<path d="M38.9733 204.548C41.6347 207.057 44.5553 207.632 47.6448 205.703C50.7343 203.773 51.3429 200.473 51.3312 196.831C51.3196 193.189 50.9979 189.375 49.3964 186.412C47.4848 183.279 45.1335 180.941 41.4238 182.528C37.7141 184.115 35.5157 188.094 34.7775 192.361C34.2198 197.767 35.6917 201.697 38.6632 204.377L38.9733 204.548Z" fill="#F8B500"/>
<path d="M33.7078 148.139C35.2583 148.995 36.4988 149.68 38.3085 148.602C40.1182 147.524 40.1575 145.988 40.4167 144.053C40.3658 141.947 40.4051 140.411 39.2942 138.758C38.4935 137.277 37.1628 136.023 35.2628 136.531C33.143 137.438 32.0438 139.428 32.0947 141.534C31.7059 144.436 32.5969 146.486 33.9276 147.741L33.7078 148.139Z" fill="#F8B500"/>
<path d="M94.1731 54.7993C96.8345 57.3083 99.7551 57.8828 102.845 55.9535C105.934 54.0241 106.543 50.7243 106.531 47.0819C106.519 43.4394 106.198 39.6257 104.596 36.6633C102.685 33.5296 100.333 31.1919 96.6237 32.7787C92.914 34.3654 90.7155 38.3452 89.9773 42.6123C89.4196 48.018 90.8915 51.9476 93.863 54.628L94.1731 54.7993Z" fill="#F8B500"/>
<path d="M180.203 101.284C184.804 101.748 189.624 101.813 192.832 95.2743C195.25 90.8965 193.237 83.5511 188.185 80.2409C184.463 78.1852 180.212 76.3562 176.051 75.0965C173.35 74.1241 169.861 75.3128 167.572 78.7234C164.973 81.9626 164.674 85.4337 166.056 88.7941C168.819 95.5148 172.552 101.213 180.203 101.284Z" fill="#F8B500"/>
<path d="M242.017 139.585C246.618 140.049 251.438 140.115 254.646 133.576C257.064 129.198 255.05 121.853 249.998 118.543C246.277 116.487 242.026 114.658 237.865 113.398C235.164 112.426 231.674 113.614 229.386 117.025C226.787 120.264 226.488 123.735 227.87 127.096C230.633 133.816 234.366 139.515 242.017 139.585Z" fill="#F8B500"/>
<path d="M168.967 44.6923C171.318 47.03 173.579 48.7984 177.328 45.6751C180.108 43.5745 181.505 38.1134 179.413 33.8411C178.342 30.6521 176.52 28.0877 174.699 25.5233C173.588 23.8708 171.288 23.6389 169.168 24.5457C166.828 25.8504 165.729 27.8403 165.34 30.7421C164.563 36.5457 164.535 41.7247 168.747 45.0903L168.967 44.6923Z" fill="#F8B500"/>
<path d="M152.342 59.4021C154.568 50.2433 146.262 38.9025 138.262 40.1968C134.151 41.0429 130.932 43.9395 130.065 49.1739C128.278 57.5367 133.483 67.1645 140.565 68.9987C146.716 70.319 150.465 67.1957 152.122 59.8001L152.342 59.4021Z" fill="#F8B500"/>
<path d="M153.712 128.724C156.853 128.9 159.283 128.165 161.132 125.55C162.671 122.765 162.31 120.487 161.109 118.266C159.597 115.873 158.396 113.651 155.915 112.28C153.434 110.91 150.604 110.905 148.225 113.746C145.846 116.587 145.238 119.887 146.309 123.076C147.471 126.834 150.352 128.945 153.712 128.724Z" fill="#F8B500"/>
<path d="M211.687 169.58C214.827 169.756 217.257 169.021 219.106 166.406C220.645 163.62 220.284 161.343 219.083 159.121C217.572 156.728 216.371 154.506 213.89 153.136C211.409 151.765 208.579 151.76 206.2 154.602C203.821 157.443 203.212 160.743 204.284 163.932C205.445 167.69 208.327 169.801 211.687 169.58Z" fill="#F8B500"/>
<path d="M188.009 136.242C188.009 136.242 190.84 136.248 191.719 134.656C192.599 133.064 192.418 131.925 191.708 131.013C191.217 129.703 190.196 128.62 188.956 127.935C187.715 127.25 186.255 126.962 185.066 128.383C183.876 129.804 183.307 131.567 184.108 133.048C184.688 134.927 186.239 135.784 187.699 136.071L188.009 136.242Z" fill="#F8B500"/>
<path d="M203.743 49.8782C206.883 50.0547 209.313 49.3193 211.162 46.7047C212.701 43.9188 212.34 41.6417 211.139 39.4199C209.628 37.0268 208.427 34.805 205.946 33.4345C203.465 32.0641 200.635 32.0589 198.256 34.9002C195.877 37.7414 195.268 41.0412 196.34 44.2303C197.501 47.9886 200.383 50.0997 203.743 49.8782Z" fill="#F8B500"/>
<path d="M298.361 113.054C301.502 113.23 304.642 113.407 306.75 108.858C308.289 106.072 306.947 101.175 303.756 98.8926C301.275 97.5221 298.794 96.1517 295.563 95.4059C293.703 94.378 291.363 95.6828 289.734 97.8994C288.104 100.116 288.155 102.222 288.827 104.67C290.699 109.341 293.011 113.215 298.361 113.054Z" fill="#F8B500"/>
<path d="M329.636 115.786C332.776 115.963 335.917 116.139 338.025 111.59C339.564 108.804 338.222 103.907 335.03 101.625C332.549 100.254 330.069 98.8839 326.838 98.1381C324.977 97.1103 322.638 98.415 321.008 100.632C319.379 102.848 319.43 104.954 320.101 107.402C321.973 112.073 324.285 115.947 329.636 115.786Z" fill="#F8B500"/>
<path d="M236.823 63.9963C238.464 65.4221 239.794 66.6766 242.574 64.5759C244.073 63.3266 245.212 59.8001 244.14 56.6111C243.249 54.5606 242.139 52.9081 241.028 51.2556C240.007 50.1724 238.857 50.0565 237.267 50.7365C235.677 51.4165 234.798 53.0085 235.069 54.7163C234.55 58.5854 234.782 61.8298 237.353 63.7696L236.823 63.9963Z" fill="#F8B500"/>
<path d="M280.944 101.355C282.252 95.3246 277.098 87.8027 271.618 88.9308C268.878 89.4949 266.938 91.5402 266.33 94.84C265.242 100.472 268.535 106.966 273.226 107.999C277.297 108.69 279.547 106.816 281.035 101.924L280.944 101.355Z" fill="#F8B500"/>
<path d="M281.127 131.063C283.118 131.124 284.488 130.842 285.897 129.023C286.996 127.033 286.506 125.724 286.015 124.414C285.214 122.932 284.103 121.28 282.553 120.424C281.002 119.567 279.012 119.506 277.603 121.325C275.883 122.972 275.404 125.305 276.295 127.355C277.276 129.975 279.137 131.003 281.127 131.063Z" fill="#F8B500"/>
<path d="M319.333 157.882C321.324 157.943 322.694 157.661 324.103 155.842C325.202 153.852 324.712 152.543 324.221 151.233C323.42 149.751 322.309 148.099 320.759 147.242C319.208 146.386 317.218 146.325 315.809 148.144C314.089 149.791 313.61 152.124 314.501 154.174C315.483 156.794 317.343 157.822 319.333 157.882Z" fill="#F8B500"/>
<path d="M364.357 131.33C364.357 131.33 366.037 131.219 366.476 130.423C366.916 129.627 367.136 129.229 366.206 128.715C365.585 128.373 365.185 127.632 364.345 127.688C363.725 127.345 363.105 127.002 362.135 128.025C361.695 128.821 361.256 129.617 361.656 130.358C362.056 131.098 362.987 131.612 364.137 131.728L364.357 131.33Z" fill="#F8B500"/>
<path d="M313.908 79.0487C315.898 79.1093 317.268 78.8273 318.678 77.0087C319.777 75.0187 319.286 73.7089 318.796 72.399C317.995 70.9178 316.884 69.2653 315.333 68.4088C313.783 67.5522 311.793 67.4916 310.383 69.3102C308.664 70.9575 308.185 73.2901 309.076 75.3406C310.057 77.9603 311.918 78.9882 313.908 79.0487Z" fill="#F8B500"/>
</svg>
