<svg width="144" height="192" viewBox="0 0 144 192" fill="none" xmlns="http://www.w3.org/2000/svg">
<path fill-rule="evenodd" clip-rule="evenodd" d="M142.23 41.2113L141.655 40.5108L141.404 40.536L131.659 42.9039L122.451 46.8607L114.033 52.3811L104.938 56.2003L96.0563 60.8827L87.7754 66.5157L80.208 72.9617L71.7643 78.232L63.6462 84.2278L57.4806 92.0497L52.5288 100.634L52.6197 110.356L53.6205 110.256L53.2205 111.307L62.6928 113.768L71.8126 110.199L80.5566 105.404L88.5873 99.7966L97.0058 94.276L103.722 86.9045L111.402 80.3207L118.256 73.0616L124.422 65.2398L130.037 56.9676L136.065 49.0332L142.23 41.2113Z" fill="#77B945"/>
<path fill-rule="evenodd" clip-rule="evenodd" d="M38.2968 3.2406L37.5693 3.00999L37.4041 3.14245L31.609 9.28182L26.9225 16.296L23.5096 24.0526L18.8395 30.918L14.7154 38.2952L11.4513 46.0682L9.06369 54.0881L5.51841 61.6795L2.5356 69.634L1.7683 77.9827L2.20761 86.3134L6.72828 93.1352L7.38878 92.6054L7.58827 93.5309L15.4041 90.9267L20.2066 84.2264L24.1819 76.8328L27.2808 69.1923L30.6936 61.4357L32.0562 53.1525L34.4602 44.9838L35.9715 36.7169L36.7388 28.3683L36.9109 19.9542L37.5295 11.5892L38.2968 3.2406Z" fill="#77B945"/>
<path fill-rule="evenodd" clip-rule="evenodd" d="M143.607 149.322L143.579 148.568L143.449 148.446L136.664 145.298L129.544 143.295L122.219 142.558L115.09 140.303L107.868 138.933L100.543 138.195L93.0034 138.472L85.6691 137.484L78.2323 137.128L71.1208 138.773L64.2973 141.415L59.8466 146.989L60.2374 147.352L59.6229 147.752L63.9959 153.757L70.8736 156.02L77.9658 157.27L85.2816 157.756L92.7368 158.614L100.118 157.462L107.537 157.316L114.797 156.294L122.16 154.639L129.262 152.743L136.365 150.846L143.607 149.322Z" fill="#77B945"/>
</svg>
