<svg width="195" height="83" viewBox="0 0 195 83" fill="none" xmlns="http://www.w3.org/2000/svg">
<path d="M76.3154 16.2807C77.9411 16.9294 79.1593 17.5579 80.3304 18.4369C81.1411 19.0455 81.8146 19.8368 82.2609 20.7434C82.5741 21.2643 82.2782 21.4709 81.6434 21.566C80.7813 21.7763 80.0094 22.0543 79.173 21.8552C77.839 21.5685 76.5737 21.1903 75.3083 20.8121C74.2918 20.4778 74.1546 20.6606 74.0346 21.5709C73.8592 23.8685 73.1863 26.0785 71.9943 28.0418C71.7885 28.316 71.8314 28.6341 71.514 28.6817C71.1066 28.6616 71.1322 28.2522 71.0207 28.0255C70.2612 26.5981 69.5919 25.2383 69.1498 23.7633C68.9953 23.2186 68.9739 23.0596 68.4507 23.3814C66.8124 24.4382 65.0883 24.8589 63.2312 24.8939C62.5964 24.989 62.2832 24.4682 62.6734 23.7607C63.3422 22.1192 64.3498 20.5891 65.2888 19.1504C65.6319 18.6934 65.9063 18.3278 66.2493 17.8708C66.661 17.3224 66.3907 17.1195 65.8031 16.9642C63.8815 16.5222 62.1443 15.647 60.5443 14.5889C60.184 14.3184 59.8451 14.207 59.5534 13.8451C58.9013 13.2128 59.0171 12.871 59.7676 12.434C60.4495 12.0884 61.1314 11.7428 61.7661 11.6477C64.0092 11.4737 66.2309 11.1406 68.517 11.2847C69.0145 11.3723 69.1518 11.1895 68.9286 10.7362C68.375 9.03461 69.0653 7.55211 69.7555 6.06961C70.3086 4.76991 71.3335 3.96732 72.47 3.39136C73.1519 3.04578 73.5808 3.22484 73.4609 4.13513C73.3583 5.7729 73.8689 7.1565 74.2424 8.72291C74.3969 9.26758 74.3927 9.83605 74.4571 10.3131C74.5216 10.7902 74.7017 10.9254 75.2249 10.6036C77.4549 9.13365 79.8311 9.34529 82.2031 10.1254C82.7907 10.2807 82.7436 10.5311 82.3105 10.9205C80.5309 12.7285 79.0215 14.7394 76.3411 15.8713L76.3154 16.2807Z" fill="#9986B4"/>
<path d="M180.659 61.1958C182.706 62.0127 184.24 62.8043 185.715 63.9113C186.736 64.6777 187.584 65.6742 188.146 66.8159C188.54 67.4719 188.168 67.7321 187.368 67.8519C186.283 68.1168 185.311 68.4669 184.257 68.2161C182.577 67.855 180.984 67.3788 179.39 66.9025C178.11 66.4815 177.937 66.7117 177.786 67.8581C177.565 70.7517 176.718 73.5348 175.217 76.0074C174.957 76.3527 175.012 76.7532 174.612 76.8131C174.099 76.7879 174.131 76.2723 173.99 75.9868C173.034 74.1892 172.191 72.4767 171.634 70.6191C171.44 69.9332 171.413 69.7329 170.754 70.1382C168.691 71.469 166.52 71.9988 164.181 72.0429C163.381 72.1628 162.987 71.5068 163.478 70.6159C164.32 68.5486 165.589 66.6217 166.772 64.8098C167.204 64.2343 167.55 63.7738 167.982 63.1983C168.5 62.5076 168.16 62.2522 167.42 62.0566C165 61.5 162.812 60.3977 160.797 59.0652C160.343 58.7246 159.916 58.5842 159.549 58.1285C158.728 57.3322 158.874 56.9017 159.819 56.3514C160.677 55.9162 161.536 55.481 162.336 55.3611C165.161 55.142 167.958 54.7226 170.837 54.904C171.464 55.0144 171.637 54.7841 171.356 54.2133C170.659 52.0703 171.528 50.2033 172.397 48.3363C173.094 46.6995 174.384 45.6888 175.816 44.9634C176.674 44.5282 177.215 44.7537 177.064 45.9001C176.934 47.9626 177.577 49.7051 178.048 51.6778C178.242 52.3637 178.237 53.0796 178.318 53.6804C178.399 54.2812 178.626 54.4515 179.285 54.0463C182.094 52.195 185.086 52.4616 188.073 53.444C188.813 53.6396 188.754 53.9549 188.208 54.4453C185.967 56.7223 184.066 59.2547 180.691 60.6802L180.659 61.1958Z" fill="#9986B4"/>
<path d="M18.3275 37.8533C19.7093 38.4047 20.7448 38.939 21.7402 39.6861C22.4293 40.2034 23.0018 40.876 23.3811 41.6466C23.6473 42.0893 23.3958 42.2649 22.8563 42.3458C22.1235 42.5246 21.4674 42.7609 20.7564 42.5916C19.6226 42.3479 18.547 42.0265 17.4715 41.705C16.6074 41.4208 16.4908 41.5762 16.3888 42.35C16.2397 44.303 15.6677 46.1815 14.6545 47.8503C14.4796 48.0834 14.5161 48.3537 14.2463 48.3941C13.9 48.3771 13.9218 48.0291 13.827 47.8364C13.1814 46.6231 12.6125 45.4673 12.2368 44.2135C12.1054 43.7505 12.0872 43.6154 11.6424 43.8889C10.25 44.7872 8.78447 45.1447 7.20589 45.1745C6.66635 45.2554 6.40013 44.8126 6.73177 44.2113C7.30023 42.816 8.15672 41.5155 8.95489 40.2926C9.24648 39.9041 9.47974 39.5933 9.77132 39.2049C10.1212 38.7387 9.89151 38.5663 9.39203 38.4343C7.75869 38.0586 6.28204 37.3146 4.92203 36.4153C4.61575 36.1854 4.32773 36.0907 4.07976 35.7831C3.52552 35.2456 3.62389 34.955 4.26182 34.5836C4.84143 34.2899 5.42104 33.9961 5.96058 33.9152C7.86725 33.7673 9.75566 33.4843 11.6988 33.6067C12.1217 33.6812 12.2384 33.5258 12.0487 33.1405C11.5782 31.6941 12.1649 30.434 12.7516 29.1739C13.2217 28.0691 14.0929 27.3869 15.0589 26.8974C15.6385 26.6036 16.0031 26.7558 15.9012 27.5296C15.8139 28.9217 16.248 30.0977 16.5654 31.4292C16.6967 31.8922 16.6932 32.3753 16.7479 32.7808C16.8027 33.1863 16.9558 33.3013 17.4006 33.0278C19.2961 31.7783 21.3158 31.9582 23.332 32.6213C23.8315 32.7533 23.7914 32.9661 23.4233 33.2971C21.9106 34.834 20.6277 36.5432 18.3493 37.5053L18.3275 37.8533Z" fill="#9986B4"/>
</svg>
