<svg width="1255" height="782" viewBox="0 0 1255 782" fill="none" xmlns="http://www.w3.org/2000/svg">
<path d="M477.18 395.106C467.826 334.627 509.487 275.938 569.786 263.846C630.696 252.384 690.176 303.313 699.53 363.793C708.884 424.273 665.727 470.991 605.427 483.082C544.518 494.545 487.185 454.955 477.18 395.106Z" fill="#F1F8FD"/>
<path d="M-136.727 437.738C-159.977 287.407 -56.4239 141.527 93.4593 111.472C244.858 82.9806 392.706 209.572 415.956 359.904C439.206 510.235 331.933 626.36 182.05 656.415C30.6507 684.906 -111.858 586.5 -136.727 437.738Z" fill="url(#paint0_linear_1664_4553)"/>
<path d="M102.337 100.453C102.408 94.2105 107.63 88.8808 114.002 86.5773C123.05 83.3066 135.033 92.8255 130.393 101.482C127.32 107.215 120.438 108.932 114.478 109.245C107.941 109.588 102.263 106.892 102.337 100.453Z" fill="#F2F8FC"/>
<path d="M885.407 662.276C883.753 663.006 882.219 663.907 880.938 665.245C879.9 666.355 879.466 665.946 879.175 664.66C878.947 663.174 878.613 661.608 878.203 660.15C877.193 656.597 875.15 653.583 871.577 652.706C867.822 651.857 864.233 652.694 861.575 655.955C858.673 659.443 859.334 663.145 861.1 666.772C861.916 668.453 861.653 669.159 859.808 669.252C859.354 669.322 858.81 669.406 858.356 669.476C854.117 670.317 850.168 674.252 849.65 678.135C849.011 683.653 856.417 690.121 862.108 689.056C865.453 688.447 868.755 687.559 871.857 685.371C871.822 687.564 871.73 689.384 871.82 691.177C872.08 695.891 876.396 699.792 880.902 699.48C884.485 699.214 888.038 695.721 888.666 691.346C889.002 689.297 889.037 687.105 889.086 685.006C889.115 683.385 889.589 682.837 891.223 682.585C897.76 681.581 901.969 673.898 899.517 667.619C897.671 662.863 890.172 660.022 885.407 662.276ZM878.422 677.897C876.849 679.755 873.685 680.336 872.291 679.124C870.792 677.833 870.773 676.505 872.088 674.782C873.953 672.403 875.74 671.938 877.541 673.373C879.25 674.822 879.598 676.48 878.422 677.897Z" fill="#E8E9EB"/>
<path d="M983.357 616.477C978.663 611.087 1081.3 608.377 1130.75 583.471C1191.5 552.87 1210.52 503.8 1236.1 524.298C1263.51 546.256 1208.6 585.063 1173.38 603.838C1148.19 617.264 1123.82 625.342 1092.44 627.867C1049.44 631.326 989.26 623.255 983.357 616.477Z" fill="#F1F8FD"/>
<defs>
<linearGradient id="paint0_linear_1664_4553" x1="-55.581" y1="192.355" x2="329.128" y2="589.193" gradientUnits="userSpaceOnUse">
<stop stop-color="#F1F8FD"/>
<stop offset="1" stop-color="#E7F1F8"/>
</linearGradient>
</defs>
</svg>
