<svg width="147" height="157" viewBox="0 0 147 157" fill="none" xmlns="http://www.w3.org/2000/svg">
<path fill-rule="evenodd" clip-rule="evenodd" d="M83.7146 6.10074L84.7777 5.7726L85.2108 5.9696L94.2947 15.1577L101.682 25.7119L107.224 37.3597L114.912 47.6898L121.52 58.753L126.885 70.4614L130.746 82.7779L136.595 94.2374L141.55 106.185L143.006 119.013L142.514 131.631L135.947 142.225L134.901 141.599L134.575 142.997L122.321 139.255L114.702 129.172L108.328 118.187L103.257 106.474L97.6059 94.8415L95.3207 82.1635L91.3922 69.8929L88.7082 57.2693L87.1842 44.4874L86.3951 31.6782L85.1661 18.8926L83.7146 6.10074Z" fill="#77B945"/>
<path fill-rule="evenodd" clip-rule="evenodd" d="M0.0770563 84.8836L0.579282 84.2402L0.941333 84.1908L10.4141 85.771L19.4326 88.8862L27.7967 93.4199L36.9263 96.2685L45.6599 99.9973L54.0021 104.642L61.6683 110.277L70.1482 114.579L78.3118 119.535L84.7562 126.487L89.8923 134.119L90.5315 143.121L89.6215 143.209L90.046 144.157L81.0087 147.116L72.0793 144.383L63.4496 140.604L55.3511 135.855L46.8833 131.371L40.0163 124.837L32.3236 119.277L25.2635 112.949L18.7876 106.038L12.785 98.8109L6.52152 91.8349L0.0770563 84.8836Z" fill="#77B945"/>
</svg>
