<svg width="1543" height="1321" viewBox="0 0 1543 1321" fill="none" xmlns="http://www.w3.org/2000/svg">
<path d="M823.4 407.393C664.166 298.469 675.818 197.028 702.076 135.736C726.018 79.8515 827.512 19.2752 854.462 3.94721C856.25 2.9301 855.553 0.243974 853.496 0.261186C817.105 0.566068 653.47 5.6433 453.35 69.0901C225.941 141.189 176.903 158.64 82.682 301.058C0.714684 424.955 -2.70472 524.135 1.23448 672.639C16.9744 1266.03 1172.83 1569.32 1469.44 1066.04C1560.31 911.866 1573.07 717.36 1466.96 607.788C1320.3 486.704 1046.94 560.306 823.4 407.393Z" fill="url(#paint0_linear_1306_5280)"/>
<defs>
<linearGradient id="paint0_linear_1306_5280" x1="613.878" y1="1276.27" x2="949.437" y2="23.9488" gradientUnits="userSpaceOnUse">
<stop stop-color="#F1F8FD"/>
<stop offset="1" stop-color="#E7F1F8"/>
</linearGradient>
</defs>
</svg>
