<svg width="235" height="207" viewBox="0 0 235 207" fill="none" xmlns="http://www.w3.org/2000/svg">
<path d="M-71.7647 90.5918C-67.4625 94.5267 -62.8109 97.0963 -56.5926 91.701C-52.0938 87.953 -50.2679 78.0536 -53.4316 70.5923C-55.7042 65.1815 -59.2566 60.6219 -62.4989 56.2337C-64.9405 53.3267 -68.7011 52.8076 -72.6307 54.7924C-76.7801 57.1751 -78.7587 60.7569 -79.0965 65.7646C-79.7722 75.7799 -79.698 85.1706 -71.7647 90.5918Z" fill="#F8B500"/>
<path d="M-44.4609 137.879C-40.1586 141.814 -35.507 144.384 -29.2887 138.988C-24.7899 135.24 -22.964 125.341 -26.1277 117.88C-28.4003 112.469 -31.9527 107.909 -35.195 103.521C-37.6366 100.614 -41.3972 100.095 -45.3268 102.08C-49.4762 104.462 -51.4548 108.044 -51.7926 113.052C-52.4683 123.067 -52.3941 132.458 -44.4609 137.879Z" fill="#F8B500"/>
<path d="M-68.6135 24.8069C-67.6715 28.9632 -66.1997 32.8929 -61.0297 31.5934C-57.4495 30.9739 -53.3117 24.9487 -52.8443 18.9738C-52.4162 14.5354 -52.6084 9.75443 -53.2402 5.76939C-53.6915 2.92295 -55.1125 1.09915 -58.0331 0.524662C-60.8634 0.519475 -63.1128 2.39348 -64.6517 5.17937C-68.1693 11.5471 -70.8468 17.8594 -68.6135 24.8069Z" fill="#F8B500"/>
<path d="M-103.831 61.4508C-96.8747 51.7884 -98.7934 32.5485 -107.296 28.8905C-111.547 27.0615 -116.097 28.7036 -119.795 33.9328C-126.002 42.9705 -125.865 58.1094 -119.742 64.6087C-114.639 70.0247 -109.158 68.8965 -103.611 61.0528L-103.831 61.4508Z" fill="#F8B500"/>
<path d="M-126.92 115.703C-124.258 118.212 -121.338 118.786 -118.248 116.857C-115.159 114.928 -114.55 111.628 -114.562 107.985C-114.573 104.343 -114.895 100.529 -116.497 97.5669C-118.408 94.4332 -120.759 92.0955 -124.469 93.6822C-128.179 95.269 -130.377 99.2488 -131.116 103.516C-131.673 108.922 -130.201 112.851 -127.23 115.532L-126.92 115.703Z" fill="#F8B500"/>
<path d="M-93.0267 204.548C-90.3653 207.057 -87.4447 207.632 -84.3552 205.703C-81.2657 203.773 -80.6571 200.473 -80.6688 196.831C-80.6804 193.189 -81.0021 189.375 -82.6036 186.412C-84.5152 183.279 -86.8665 180.941 -90.5762 182.528C-94.2859 184.115 -96.4843 188.094 -97.2225 192.361C-97.7802 197.767 -96.3083 201.697 -93.3368 204.377L-93.0267 204.548Z" fill="#F8B500"/>
<path d="M-98.2922 148.139C-96.7417 148.995 -95.5012 149.68 -93.6915 148.602C-91.8818 147.524 -91.8425 145.988 -91.5833 144.053C-91.6342 141.947 -91.5949 140.411 -92.7058 138.758C-93.5065 137.277 -94.8372 136.023 -96.7372 136.531C-98.857 137.438 -99.9562 139.428 -99.9053 141.534C-100.294 144.436 -99.4031 146.486 -98.0724 147.741L-98.2922 148.139Z" fill="#F8B500"/>
<path d="M-37.8269 54.7993C-35.1655 57.3083 -32.2449 57.8828 -29.1554 55.9535C-26.0659 54.0241 -25.4573 50.7243 -25.4689 47.0819C-25.4805 43.4394 -25.8022 39.6257 -27.4037 36.6633C-29.3153 33.5296 -31.6666 31.1919 -35.3763 32.7787C-39.086 34.3654 -41.2845 38.3452 -42.0227 42.6123C-42.5804 48.018 -41.1085 51.9476 -38.137 54.628L-37.8269 54.7993Z" fill="#F8B500"/>
<path d="M48.2031 101.284C52.8039 101.748 57.6244 101.813 60.8319 95.2743C63.2502 90.8965 61.2368 83.5511 56.1847 80.2409C52.4634 78.1852 48.2121 76.3562 44.0511 75.0965C41.3504 74.1241 37.8605 75.3128 35.5718 78.7234C32.9729 81.9626 32.6745 85.4337 34.0561 88.7941C36.8194 95.5148 40.5523 101.213 48.2031 101.284Z" fill="#F8B500"/>
<path d="M110.017 139.585C114.618 140.049 119.438 140.115 122.646 133.576C125.064 129.198 123.05 121.853 117.998 118.543C114.277 116.487 110.026 114.658 105.865 113.398C103.164 112.426 99.6742 113.614 97.3855 117.025C94.7867 120.264 94.4882 123.735 95.8698 127.096C98.6331 133.816 102.366 139.515 110.017 139.585Z" fill="#F8B500"/>
<path d="M36.9669 44.6923C39.3182 47.03 41.5792 48.7984 45.3282 45.6751C48.1076 43.5745 49.5054 38.1134 47.4132 33.8411C46.3417 30.6521 44.5204 28.0877 42.699 25.5233C41.5882 23.8708 39.2878 23.6389 37.168 24.5457C34.8283 25.8504 33.7291 27.8403 33.3403 30.7421C32.5628 36.5457 32.5351 41.7247 36.747 45.0903L36.9669 44.6923Z" fill="#F8B500"/>
<path d="M20.3416 59.4021C22.5678 50.2433 14.2618 38.9025 6.26153 40.1968C2.15145 41.0429 -1.06762 43.9395 -1.9354 49.1739C-3.72189 57.5367 1.48293 67.1645 8.56451 68.9987C14.7158 70.319 18.4648 67.1957 20.1217 59.8001L20.3416 59.4021Z" fill="#F8B500"/>
<path d="M21.7124 128.724C24.8528 128.9 27.2827 128.165 29.1318 125.55C30.6707 122.765 30.3097 120.487 29.1086 118.266C27.5973 115.873 26.3962 113.651 23.9153 112.28C21.4345 110.91 18.6042 110.905 16.2251 113.746C13.8461 116.587 13.2375 119.887 14.3091 123.076C15.4709 126.834 18.3521 128.945 21.7124 128.724Z" fill="#F8B500"/>
<path d="M79.6868 169.58C82.8272 169.756 85.2572 169.021 87.1062 166.406C88.6452 163.62 88.2841 161.343 87.083 159.121C85.5718 156.728 84.3706 154.506 81.8898 153.136C79.4089 151.765 76.5786 151.76 74.1996 154.602C71.8206 157.443 71.212 160.743 72.2835 163.932C73.4453 167.69 76.3265 169.801 79.6868 169.58Z" fill="#F8B500"/>
<path d="M56.0095 136.242C56.0095 136.242 58.8398 136.248 59.7192 134.656C60.5986 133.064 60.418 131.925 59.7076 131.013C59.2169 129.703 58.1963 128.62 56.9559 127.935C55.7154 127.25 54.2552 126.962 53.0657 128.383C51.8762 129.804 51.3069 131.567 52.1076 133.048C52.6885 134.927 54.2391 135.784 55.6994 136.071L56.0095 136.242Z" fill="#F8B500"/>
<path d="M71.743 49.8782C74.8834 50.0547 77.3134 49.3193 79.1624 46.7047C80.7014 43.9188 80.3403 41.6417 79.1392 39.4199C77.628 37.0268 76.4269 34.805 73.946 33.4345C71.4651 32.0641 68.6348 32.0589 66.2558 34.9002C63.8768 37.7414 63.2682 41.0412 64.3397 44.2303C65.5015 47.9886 68.3827 50.0997 71.743 49.8782Z" fill="#F8B500"/>
<path d="M166.361 113.054C169.502 113.23 172.642 113.407 174.75 108.858C176.289 106.072 174.947 101.175 171.756 98.8926C169.275 97.5221 166.794 96.1517 163.563 95.4059C161.703 94.378 159.363 95.6828 157.734 97.8994C156.104 100.116 156.155 102.222 156.827 104.67C158.699 109.341 161.011 113.215 166.361 113.054Z" fill="#F8B500"/>
<path d="M197.636 115.786C200.776 115.963 203.917 116.139 206.025 111.59C207.564 108.804 206.222 103.907 203.03 101.625C200.549 100.254 198.069 98.8839 194.838 98.1381C192.977 97.1103 190.638 98.415 189.008 100.632C187.379 102.848 187.43 104.954 188.101 107.402C189.973 112.073 192.285 115.947 197.636 115.786Z" fill="#F8B500"/>
<path d="M104.823 63.9963C106.464 65.4221 107.794 66.6766 110.574 64.5759C112.073 63.3266 113.212 59.8001 112.14 56.6111C111.249 54.5606 110.139 52.9081 109.028 51.2556C108.007 50.1724 106.857 50.0565 105.267 50.7365C103.677 51.4165 102.798 53.0085 103.069 54.7163C102.55 58.5854 102.782 61.8298 105.353 63.7696L104.823 63.9963Z" fill="#F8B500"/>
<path d="M148.944 101.355C150.252 95.3246 145.098 87.8027 139.618 88.9308C136.878 89.4949 134.938 91.5402 134.33 94.84C133.242 100.472 136.535 106.966 141.226 107.999C145.297 108.69 147.547 106.816 149.035 101.924L148.944 101.355Z" fill="#F8B500"/>
<path d="M149.127 131.063C151.118 131.124 152.488 130.842 153.897 129.023C154.996 127.033 154.506 125.724 154.015 124.414C153.214 122.932 152.103 121.28 150.553 120.424C149.002 119.567 147.012 119.506 145.603 121.325C143.883 122.972 143.404 125.305 144.295 127.355C145.276 129.975 147.137 131.003 149.127 131.063Z" fill="#F8B500"/>
<path d="M187.333 157.882C189.324 157.943 190.694 157.661 192.103 155.842C193.202 153.852 192.712 152.543 192.221 151.233C191.42 149.751 190.309 148.099 188.759 147.242C187.208 146.386 185.218 146.325 183.809 148.144C182.089 149.791 181.61 152.124 182.501 154.174C183.483 156.794 185.343 157.822 187.333 157.882Z" fill="#F8B500"/>
<path d="M232.357 131.33C232.357 131.33 234.037 131.219 234.476 130.423C234.916 129.627 235.136 129.229 234.206 128.715C233.585 128.373 233.185 127.632 232.345 127.688C231.725 127.345 231.105 127.002 230.135 128.025C229.695 128.821 229.256 129.617 229.656 130.358C230.056 131.098 230.987 131.612 232.137 131.728L232.357 131.33Z" fill="#F8B500"/>
<path d="M181.908 79.0487C183.898 79.1093 185.268 78.8273 186.678 77.0087C187.777 75.0187 187.286 73.7089 186.796 72.399C185.995 70.9178 184.884 69.2653 183.333 68.4088C181.783 67.5522 179.793 67.4916 178.383 69.3102C176.664 70.9575 176.185 73.2901 177.076 75.3406C178.057 77.9603 179.918 78.9882 181.908 79.0487Z" fill="#F8B500"/>
</svg>
