<svg width="395" height="695" viewBox="0 0 395 695" fill="none" xmlns="http://www.w3.org/2000/svg">
<path d="M44.4077 56.6899L51.6378 53.4086L64.3203 82.4397L91.6301 161.801L113.392 223.98L104.754 223.264L61.8506 102.188L44.4077 56.6899Z" fill="#15466B"/>
<path d="M108.858 57.119L116.494 54.9712L127.243 109.287L136.931 160.118L145.82 225.268L137.659 222.619L128.58 162.278L119.441 115.014L113.248 89.9684L108.858 57.119Z" fill="#15466B"/>
<path d="M174.454 71.3548L182.364 70.6747L180.992 105.803L178.451 151.014L178.486 176.537L176.434 223.634L168.978 219.816L170.946 177.313L169.67 148.27L172.008 109.574L174.454 71.3548Z" fill="#15466B"/>
<path d="M218.216 50.652L226.139 50.2463L225.936 82.6423L221.879 125.503L219.004 158.973L214.959 216.737L213.671 230.817L205.987 227.392L207.18 203.552L210.998 157.41L213.766 115.814L217.25 84.2293L218.216 50.652Z" fill="#15466B"/>
<path d="M252.601 55.2462L260.487 54.4825L259.604 73.0849L261.453 115.253L262.026 161.574L259.246 227.273L251.694 223.228L253.424 161.67L252.708 117.497L251.109 88.3462L252.601 55.2462Z" fill="#15466B"/>
<path d="M303.438 72.7986L311.349 73.1805L304.047 107.856L296.232 139.643L288.942 180.153L279.553 223.204L272.848 218.181L281.402 177.086L288.024 138.438L294.956 108.512L303.438 72.7986Z" fill="#15466B"/>
<path d="M355.433 59.0048L362.186 63.8254L343.979 121.828L331.607 160.441L318.758 198.111L312.267 223.037L304.488 221.522L310.227 195.545L323.506 153.902L338.539 110.862L355.433 59.0048Z" fill="#15466B"/>
<path d="M322.897 36.7198L326.75 38.7483L319.413 49.4634L315.512 59.3075L311.479 55.2983L316.216 44.2729L322.897 36.7198Z" fill="#E96852"/>
<path d="M362.204 46.805L381.759 40.5048L383.656 44.2873L372.835 48.4517L362.502 52.4728L362.204 46.805Z" fill="#E96852"/>
<path d="M257.526 11.3633L261.726 10.5996L261.571 22.2574L261.034 36.4925L261.046 42.0172L256.727 41.4802L254.317 31.7674L257.526 11.3633Z" fill="#E96852"/>
<path d="M230.375 15.5201L234.181 17.3576L228.155 27.2733L222.429 36.7594L219.112 33.9792L222.488 24.9823L230.375 15.5201Z" fill="#E96852"/>
<path d="M183.02 35.9617L186.826 37.7993L179.811 48.6218L175.074 57.1892L171.757 54.409L174.239 46.1519L183.02 35.9617Z" fill="#E96852"/>
<path d="M111.34 1.50356L115.671 0.775696L114.418 19.0559L114.991 32.1932L110.672 31.6444L108.262 21.9435L111.34 1.50356Z" fill="#E96852"/>
<path d="M56.0994 0.739798L60.4184 0L59.5236 24.2463L59.7383 31.4175L55.4313 30.8806L53.1167 19.6166L56.0994 0.739798Z" fill="#E96852"/>
<path d="M8.75781 33.8637L10.2014 29.8903L20.9273 34.7228L32.0469 38.3621L30.0305 42.2043L19.2928 41.035L8.75781 33.8637Z" fill="#E96852"/>
<path d="M0.624033 702C0.248899 673.864 -2.5315 646.739 -2.8956 618.545C-3.04281 604.961 -3.58873 591.426 -4.52853 578.061C-5.48843 564.586 -4.99193 458.329 -5.16847 444.651C-5.76427 397.111 -6.7352 349.629 -7 302.147C-7 291.824 -5.89667 282.166 -6.1394 271.582C-6.39317 257.557 -3.86653 245.788 -3.028 232.341C-2.7301 227.628 -3.60173 222.22 -3.17143 217.68C-2.74113 213.14 -2.87353 214.326 -0.766167 213.372C3.77957 211.376 8.3915 208.803 12.9814 207.154C18.2332 205.246 23.6837 205.101 28.9025 203.048C35.5776 200.388 41.657 197.554 48.4866 197.265L87.655 195.125C91.0974 194.951 94.6832 194.113 98.1146 194.778C101.038 195.385 103.742 196.918 106.698 196.86C113.881 196.715 121.042 196.108 128.258 195.588C131.648 195.383 135.039 195.905 138.397 197.149C142.546 198.566 146.926 197.149 151.097 197.005C154 197.235 156.896 197.92 159.769 199.058C163.818 200.156 168.253 198.826 172.347 198.595C188.897 197.727 205.237 202.181 221.809 201.313L274.615 198.421L357.1 193.824C361.789 193.592 366.489 193.39 371.179 193.043C376.64 192.609 382.41 195.559 387.729 197.901C391.53 200.017 395.382 201.437 399.258 202.152C403.153 202.47 402.701 205.622 402.822 213.719C403.059 220.374 403.059 227.074 402.822 233.729C400.836 268.43 397.857 302.35 398.254 337.542C398.236 344.435 397.785 351.274 396.919 357.784C395.959 366.459 396.202 374.7 396.368 383.636C396.533 392.571 395.529 400.466 395.386 409.256C395.209 419.349 395.706 429.788 395.838 439.909C396.202 469.028 397.912 591.681 396.004 620.425C395.022 635.115 395.165 649.862 394.095 664.466C393.852 670.048 393.852 675.684 394.095 681.266C394.095 685.228 394.966 691.04 394.029 694.453C393.664 692.631 393.389 696.101 393.025 694.25L0.624033 702Z" fill="url(#paint0_linear_402_888)"/>
<path d="M-2.63731 157.597L15.5646 160.46L85.8353 152L136.53 157.725L186.871 167.152L289.214 165.52L339.167 157.904L407 165.111L400.622 286.802L343.058 284.451L190.297 297L94.3793 280.31L-6.99996 279.876L-2.63731 157.597Z" fill="#AB8EB8"/>
<defs>
<linearGradient id="paint0_linear_402_888" x1="198" y1="193" x2="198" y2="702" gradientUnits="userSpaceOnUse">
<stop stop-color="#F1F8FD"/>
<stop offset="1" stop-color="#E7F1F8"/>
</linearGradient>
</defs>
</svg>
