<svg width="462" height="474" viewBox="0 0 462 474" fill="none" xmlns="http://www.w3.org/2000/svg">
<path d="M91.9254 87.4606C91.84 87.4744 91.6225 87.7529 91.3795 88.265C91.1365 88.7771 90.9146 89.7653 90.8748 91.1922C90.835 92.6191 90.9668 94.5006 91.2011 96.8947C91.4084 97.7392 91.5321 98.5482 91.6677 99.4719C91.8034 100.396 91.9604 101.416 92.1569 102.702L91.9167 102.234C92.319 103.774 92.5241 105.113 92.8394 106.456C92.8821 107.223 92.3876 105.434 92.6732 106.981C93.0508 108.404 93.1484 108.759 93.2557 109.109C93.3631 109.46 93.4535 109.818 93.8755 111.224C93.9038 111.024 93.4416 109.544 93.6773 109.908C93.6858 110.161 94.208 111.901 94.1383 112.065L94.2702 112.08C94.3926 112.633 94.6318 112.998 94.8527 113.694C94.9214 114.042 94.9395 114.311 94.6702 113.541C95.0726 115.002 95.5752 117.07 96.0205 118.123C96.4439 119.506 96.4537 119.042 96.6909 119.403C96.7965 119.823 96.9081 120.478 96.8482 120.478L96.9174 120.639L96.975 121.254C97.9616 124.019 98.1617 126.694 98.8613 129.088C98.752 128.453 98.4556 127.307 98.5806 127.259L98.9817 129.317C98.8402 128.472 98.7791 127.776 98.9419 128.084C99.4842 130.991 99.7539 133.521 100.173 137.04C100.273 137.1 100.355 137.679 100.447 138.393C100.538 139.107 100.61 139.956 100.742 140.55C100.694 140.385 100.67 140.341 100.664 140.367C100.595 139.825 100.539 139.623 100.62 140.799C100.629 140.778 100.642 140.815 100.65 140.821C100.653 140.996 100.643 141.172 100.621 141.347C100.768 142.265 100.798 142.127 100.777 141.671C100.833 142.375 100.875 143.147 100.933 142.529C101.13 144.411 100.861 144.594 100.854 145.645C100.847 146.695 100.939 147.429 100.932 148.254C100.926 149.079 100.937 149.993 100.884 151.414L100.92 151.053C100.941 151.835 101.092 152.121 101.029 153.647C100.414 154.843 100.911 157.624 100.634 160.976C100.451 160.549 100.49 162.262 100.347 162.112C100.435 165.359 100.021 167.919 100.07 171.54L100.091 171.354C100.205 172.336 100.031 174.776 99.8758 175.599C100.019 175.127 100.023 176.677 100.14 176.302C99.9517 177.156 99.9498 180.145 99.9498 180.145C100.11 180.759 99.8735 183.1 99.9752 184.598L99.7164 186.526L99.8779 185.844C99.8444 186.865 99.9539 187.061 100.021 186.639C100.04 187.102 99.9848 187.333 99.9555 188.025L100.08 187.709C100.1 188.039 100.086 188.37 100.04 188.697L101.589 192.315L101.64 189.508L101.583 190.043C101.6 188.894 101.661 187.604 101.787 187.612C101.679 187.419 101.587 187.698 101.603 186.216C101.877 186.19 101.951 184.035 102.053 181.999C102.015 182.044 102.006 181.257 101.947 181.805C102.436 177.403 101.844 174.899 102.351 170.63L102.314 170.677C102.214 167.295 102.56 165.917 102.488 162.163L102.632 162.313C102.634 160.557 102.698 158.575 102.845 156.637L102.789 156.866L102.84 155.52L102.803 155.567C102.856 155.022 102.843 153.766 102.966 152.661L102.928 152.705C102.901 151.913 102.933 151.119 103.022 150.331C102.991 150.059 102.949 149.768 102.903 149.486C103.108 147.3 102.727 144.061 102.794 142.212C102.541 138.189 102.031 134.186 101.266 130.228C100.733 127.157 100.006 124.122 99.0897 121.142C98.353 118.681 97.4746 116.268 96.2197 112.536C95.1504 109.143 94.304 105.684 93.6859 102.181C93.4282 100.699 93.239 99.3103 93.0519 97.7465C92.8387 96.1082 92.4929 94.5068 92.2022 92.6876C92.2022 92.6876 92.0576 91.7763 91.9633 90.7293C91.8763 89.8197 91.879 88.9037 91.9713 87.9946C92.021 87.6509 92.0194 87.4404 91.9254 87.4606Z" fill="#77B945"/>
<path d="M119.368 26.9025C119.038 26.2188 118.77 25.5059 118.429 24.8297C117.218 22.4198 115.763 20.1117 113.77 18.2617C112.923 17.4826 112.068 16.6383 111.149 15.9301C110.179 15.2151 109.147 14.588 108.065 14.0563C107.289 13.6575 106.473 13.2963 105.667 12.965C104.86 12.6337 104.017 12.2439 103.176 11.9529C101.441 11.3629 99.4813 11.231 97.6767 10.9673C95.1977 10.6011 92.7491 10.2991 90.2404 10.3766C89.3032 10.4066 88.3327 10.3853 87.4148 10.5869C86.3515 10.8221 85.3085 11.0915 84.2545 11.3485C83.2005 11.6055 82.1744 11.7677 81.1297 12.0464C79.9476 12.3639 78.7985 12.7586 77.6239 13.0872C75.3268 13.7191 73.2763 14.9276 71.2951 16.1779C68.8489 17.7213 66.4965 19.4443 64.5084 21.5651C63.6794 22.4478 62.8958 23.3967 62.0968 24.3094C61.2616 25.2576 60.7225 26.3245 60.1686 27.4434C59.6146 28.5623 58.8999 29.6188 58.4452 30.7495C57.867 32.1385 57.4339 33.6395 56.9532 35.0696C55.2291 40.1939 54.0069 45.8312 54.3963 51.2611C54.6152 54.3525 54.7827 56.6239 55.9914 59.4686C56.7976 61.3525 57.5812 63.757 58.7109 65.4768C59.7518 67.0691 61.0235 69.1077 62.2745 70.5445C63.6092 72.0767 64.9015 73.55 66.3744 74.9517C67.4692 75.9901 69.0669 77.5838 70.2248 78.5496C73.0029 80.8482 74.3271 82.0225 77.5556 83.6404C79.4453 84.5898 83.1187 85.7605 85.2219 86.1419C86.2174 86.3432 87.2359 86.4058 88.2485 86.3279C87.9548 86.9216 87.6825 87.5319 87.4105 88.1363C86.8531 89.3738 86.6638 90.7048 86.3609 92.0102C86.2467 92.3425 86.2183 92.6982 86.2785 93.0444C86.3655 93.381 86.6455 93.4353 87.0229 93.4507C87.6744 93.4716 88.3264 93.4333 88.971 93.3363C89.3238 93.3035 89.6784 93.2948 90.0325 93.3101C90.4117 93.2963 90.679 93.0877 91.0496 93.0204C91.3056 93.0098 91.5619 93.0184 91.8166 93.0461C92.0319 93.0085 92.2434 92.9515 92.4483 92.8756C92.8633 92.7889 93.2872 92.7521 93.711 92.7662C94.2352 92.7645 94.7628 92.7642 95.2856 92.7859C95.6664 92.8299 96.0515 92.818 96.4287 92.7505C96.3703 92.5334 96.3308 92.3116 96.3105 92.0876C96.2888 91.8986 96.2412 91.7135 96.1692 91.5374C95.8662 90.7798 95.4776 90.0594 95.0108 89.3903C94.7657 89.0043 94.4135 88.6613 94.1853 88.2681C94.0414 87.9377 93.8796 87.6153 93.7008 87.3024C93.1583 86.5414 92.8363 85.7089 92.4243 84.9063C92.506 84.897 92.6231 84.884 92.807 84.8538L93.438 84.735C94.3961 84.7274 94.5685 84.4568 95.5108 84.4188C95.8559 84.4053 96.1913 84.4958 96.5426 84.4567C97.0878 84.3975 97.6166 84.2197 98.1639 84.1653C99.0194 84.0846 99.8728 84.1989 100.733 84.0362C101.88 83.7761 103.005 83.4302 104.099 83.0012C104.9 82.721 105.563 82.289 106.322 81.9358C107.081 81.5825 107.964 81.2672 108.729 80.8285C109.444 80.4197 110.259 80.0568 110.893 79.5315C111.68 78.857 112.533 78.2635 113.439 77.7601C113.901 77.5166 114.313 77.1873 114.652 76.7897C115.086 76.3019 115.584 75.8802 115.971 75.352C116.933 74.0329 117.895 72.7137 118.59 71.2236C119.247 69.8005 120.012 68.3886 120.478 66.8907C121.073 64.9467 121.81 62.896 122.023 60.8612C122.197 59.2659 122.65 57.7391 122.86 56.1507C123.1 54.4031 123.191 52.6382 123.13 50.8752C123.095 49.9116 123.059 48.9539 122.996 47.9933C122.919 46.8275 123.027 45.6738 122.913 44.5011C122.813 43.4537 122.768 42.3744 122.625 41.3339C122.457 40.1156 122.17 38.8714 121.891 37.6723C121.238 34.8125 120.721 31.9315 120.025 29.0926C119.824 28.3425 119.713 27.6166 119.368 26.9025Z" fill="#77B945"/>
<path d="M273.826 159.021L275.52 159.328C275.809 158.908 276.061 158.463 276.273 157.999C276.668 156.724 276.986 155.425 277.225 154.112C277.354 153.477 277.507 152.841 277.66 152.205C277.813 151.57 277.963 150.931 278.137 150.302C278.765 147.855 279.585 145.461 280.589 143.142L280.793 142.995C281.017 142.979 280.975 141.654 281.217 141.547L281.327 140.994C281.415 140.86 281.57 140.565 281.513 140.839C281.635 140.562 281.716 140.269 281.754 139.968L282.07 139.497C282.892 137.635 283.299 135.933 284.119 133.943C284.838 132.418 285.457 130.848 285.971 129.242C286.565 127.447 287.096 125.585 287.436 124.217C287.544 123.731 287.675 123.245 287.812 122.747C287.948 122.25 288.088 121.752 288.227 121.25C288.535 120.243 288.871 119.237 289.215 118.223C289.927 116.248 290.501 114.226 290.933 112.172C290.988 112.023 291.011 111.865 291.001 111.706C291.337 110.528 291.649 109.333 292.024 108.202L292.815 105.76C293.331 104.253 293.698 102.699 293.911 101.121C294.065 99.6794 293.895 98.6669 293.671 98.9091C293.446 99.1513 293.19 100.593 291.818 103.63L291.801 103.532C291.111 105.394 290.642 106.582 290.449 107.997C290.284 108.059 290.155 108.464 290.043 108.906C289.973 109.287 289.874 109.661 289.748 110.027L289.739 109.978C289.617 111.22 288.899 112.377 288.769 113.571C288.744 113.515 288.73 113.454 288.728 113.393C288.727 113.331 288.738 113.27 288.761 113.213C288.569 114.055 288.315 115.213 288.142 115.233C287.639 117.232 286.807 120.009 286.702 121.327L286.685 121.228C286.646 121.993 286.463 122.17 286.298 122.987C286.264 123.024 286.236 123.079 286.231 123.067C286.154 123.588 286.027 124.101 285.852 124.598C285.666 125.144 285.479 125.678 285.418 125.989L285.306 126.009C285.15 126.527 284.972 127.038 284.801 127.555L285.04 126.986C285.242 127.289 284.477 128.099 284.242 129.256C283.832 130.282 284.03 131.57 283.472 132.601C283.404 133.161 283.441 132.069 283.243 132.875C283.092 132.843 283.293 132.484 283.103 132.635C282.884 133.414 282.486 133.812 282.225 134.774L282.099 134.769C281.829 136.058 281.067 136.979 280.948 137.872C280.553 139.156 280.299 138.588 280.016 139.97L279.672 140.423C279.43 140.976 279.703 140.891 279.4 141.485C279.32 141.414 279.029 142.226 279.078 141.846C278.404 143.201 278.238 144.79 277.357 146.584C277.409 147.056 276.993 147.971 277.036 148.332C276.928 148.351 276.451 150.251 276.591 149.117C276.601 149.02 276.654 148.859 276.681 148.878L276.609 148.714C276.078 149.744 276.132 150.729 275.816 151.81C275.941 151.497 276.045 151.066 276.044 151.374L275.759 152.378L275.719 152.145C275.565 152.638 275.416 153.141 275.281 153.649L275.448 153.464C275.208 154.182 274.938 154.419 274.939 155.275C274.946 155.666 275.251 154.621 275.115 155.396C274.965 155.872 274.775 156.454 274.553 157.037C274.33 157.621 274.061 158.216 273.801 158.762C273.912 158.719 273.89 158.841 273.826 159.021Z" fill="#FDC504"/>
<path d="M267.549 63.7362C267.559 61.6674 267.857 59.6101 268.435 57.6238C269.445 54.2576 270.698 50.9692 272.185 47.7846C273.111 45.8644 274.16 44.0058 275.324 42.22C275.948 41.2753 276.635 40.3735 277.38 39.5204C278.158 38.5897 278.849 37.5895 279.687 36.7094C280.424 35.9346 281.233 35.2388 282.033 34.5343C282.725 33.9231 283.351 33.2456 284.074 32.6628C285.928 31.1994 287.903 29.8955 289.976 28.7649C291.177 28.0854 292.528 27.7653 293.766 27.2214C294.536 26.8382 295.336 26.5166 296.158 26.2596C298.434 25.6417 300.769 25.2642 303.125 25.1332C304.201 25.0809 305.304 24.8684 306.382 24.9037C307.282 24.9261 308.185 25.0055 309.085 25.0619C310.958 25.1752 312.891 25.7313 314.711 26.1788C316.531 26.6262 318.411 27.0359 320.168 27.6465C321.838 28.2249 323.49 28.7387 324.973 29.6949C333.835 35.4072 337.079 43.6179 335.436 53.1677C335.138 54.9113 334.533 56.5459 334.241 58.2851C333.878 60.2567 333.355 62.1955 332.678 64.0824C332.295 65.2217 331.908 66.3583 331.526 67.5008C331.008 69.0493 330.357 70.4958 329.714 71.9882C328.601 74.5504 327.128 76.7493 325.489 78.9904C324.779 79.96 324.095 80.9048 323.132 81.6445C322.028 82.4899 321.022 83.4738 319.936 84.3432C318.974 85.1097 318.044 85.9078 317.059 86.6411C315.976 87.4491 315.018 88.3976 313.926 89.1936C311.796 90.7457 309.018 92.3092 306.444 92.8323C304.533 93.2196 304.168 93.608 302.245 93.9669C301.493 94.0979 300.119 94.3984 299.392 94.6131C298.61 94.8441 297.167 94.561 296.372 94.7537C296.108 94.8271 295.835 94.8666 295.561 94.8715C295.634 94.9806 295.707 95.0896 295.77 95.2004C296.087 95.7542 296.38 96.329 296.675 96.8967C297.251 98.0109 297.495 99.2337 297.833 100.416C297.956 100.718 298 101.045 297.962 101.368C297.902 101.683 297.645 101.762 297.293 101.779C296.69 101.828 296.084 101.821 295.483 101.757C295.159 101.742 294.835 101.751 294.513 101.783C294.176 101.788 293.905 101.609 293.57 101.569C293.333 101.573 293.097 101.594 292.864 101.631C292.663 101.607 292.464 101.566 292.27 101.508C291.883 101.448 291.49 101.434 291.1 101.468C290.614 101.492 290.128 101.519 289.646 101.566C289.297 101.627 288.94 101.635 288.588 101.588C288.631 101.386 288.657 101.18 288.663 100.973C288.676 100.796 288.71 100.622 288.766 100.454C289.009 99.7403 289.332 99.0562 289.729 98.4153C289.935 98.0412 290.245 97.7096 290.434 97.3351C290.55 97.0224 290.684 96.7167 290.836 96.4192C291.347 95.6094 291.603 94.7324 292.006 93.8977C291.646 93.7002 291.276 93.5219 290.898 93.3634C290.516 93.227 290.129 93.1049 289.745 92.9757C288.796 92.6638 287.869 92.2873 286.971 91.8488C286.601 91.6663 286.163 91.4991 285.81 91.2798C285.458 91.0604 285.186 90.6071 284.862 90.3185C284.537 90.03 284.132 89.7047 283.79 89.3686C283.339 88.9819 282.857 88.6348 282.347 88.331C281.82 87.9661 281.28 87.6035 280.776 87.2111C280.312 86.7977 279.879 86.3507 279.48 85.8737C278.935 85.3967 278.35 84.9667 277.731 84.5885C277.232 84.1808 276.76 83.741 276.318 83.2718C275.735 82.7205 275.117 82.2023 274.595 81.593C273.933 80.7649 273.356 79.8726 272.872 78.9295C272.208 77.7766 271.464 76.6713 270.75 75.544C270.454 75.1087 270.223 74.6327 270.064 74.131C269.851 73.5301 269.599 72.9433 269.312 72.3743C269.092 71.851 268.985 71.2742 268.793 70.7359C268.501 69.9139 268.27 69.0405 268.013 68.2024C267.543 66.7313 267.523 65.2564 267.549 63.7362Z" fill="#FDC504"/>
<path d="M406.7 212.656C406.616 212.647 406.348 212.861 406.005 213.272C405.467 214.053 405.075 214.925 404.848 215.847C404.383 217.599 404.032 219.379 403.797 221.176C403.783 222.002 403.709 222.775 403.61 223.658C403.511 224.541 403.422 225.517 403.288 226.747L403.181 226.261C403.184 227.774 403.055 229.05 403.027 230.37C402.896 231.084 402.855 229.318 402.75 230.811C402.757 232.212 402.773 232.561 402.781 232.91C402.789 233.258 402.795 233.61 402.853 235.005C402.934 234.83 402.853 233.35 402.983 233.744C402.931 233.977 402.996 235.706 402.897 235.841L403.009 235.892C402.992 236.431 403.125 236.826 403.162 237.519C403.143 237.855 403.096 238.108 403.03 237.336C403.053 238.775 403.026 240.799 403.187 241.875C403.248 243.247 403.367 242.821 403.499 243.212C403.515 243.559 403.479 243.908 403.39 244.244L403.413 244.409L403.323 244.987C403.573 247.771 403.107 250.279 403.201 252.638C403.255 252.028 403.266 250.906 403.378 250.885L403.262 252.872C403.332 252.06 403.443 251.406 403.518 251.727C403.325 254.534 402.958 256.923 402.519 260.265C402.596 260.345 402.536 260.897 402.451 261.574C402.367 262.251 402.231 263.054 402.211 263.639C402.206 263.475 402.194 263.43 402.172 263.453C402.238 262.936 402.23 262.746 402.034 263.84C402.042 263.822 402.052 263.849 402.054 263.868C402.014 264.03 401.964 264.19 401.904 264.346C401.821 265.225 401.879 265.101 401.97 264.68C401.848 265.358 401.702 266.058 401.911 265.508C401.645 267.287 401.352 267.39 401.099 268.36C400.847 269.33 400.747 270.033 400.55 270.779C400.353 271.525 400.141 272.381 399.756 273.672L399.871 273.358C399.703 274.081 399.787 274.384 399.356 275.774C398.505 276.728 398.302 279.406 397.251 282.426C397.188 281.99 396.812 283.578 396.716 283.405C396.028 286.417 395.023 288.67 394.214 292.018L394.288 291.858C394.013 293.177 393.61 294.466 393.086 295.707C393.33 295.306 392.97 296.755 393.162 296.418C392.785 297.158 392.074 299.909 392.074 299.909C392.074 300.515 391.304 302.615 391.04 304.016L390.344 305.733L390.657 305.143C390.382 306.073 390.436 306.281 390.601 305.917C390.508 306.348 390.397 306.557 390.21 307.179L390.407 306.903C390.345 307.201 390.256 307.493 390.141 307.775L390.708 311.486L391.422 308.912L391.249 309.39C391.533 308.328 391.906 307.168 392.011 307.202C391.956 306.996 391.808 307.229 392.174 305.871C392.446 305.908 393.013 303.946 393.59 302.098C393.543 302.127 393.724 301.4 393.537 301.894C395.033 297.955 395.082 295.508 396.562 291.698L396.519 291.73C397.233 288.587 397.865 287.407 398.702 283.928L398.798 284.101C399.216 282.484 399.743 280.664 400.341 278.921L400.246 279.127L400.614 277.899L400.569 277.933C400.755 277.442 401.033 276.282 401.416 275.299L401.371 275.333C401.53 274.594 401.743 273.866 402.007 273.157C402.042 272.89 402.074 272.622 402.096 272.35C402.799 270.388 403.225 267.314 403.726 265.629C404.445 261.864 404.923 258.056 405.157 254.23C405.397 251.275 405.449 248.308 405.314 245.347C405.22 242.908 404.99 240.478 404.716 236.741C404.535 233.364 404.576 229.978 404.838 226.606C404.948 225.189 405.107 223.857 405.318 222.379C405.512 220.821 405.573 219.264 405.725 217.517C405.725 217.517 405.809 216.642 405.969 215.659C406.105 214.799 406.325 213.956 406.627 213.14C406.745 212.853 406.791 212.657 406.7 212.656Z" fill="#77B945"/>
<path d="M440.711 195.3C441.243 193.875 442.026 192.566 442.615 191.168C443.252 189.616 443.755 188.012 444.12 186.375C444.312 185.48 444.506 184.589 444.673 183.694C444.88 182.6 445.254 181.565 445.429 180.461C445.587 179.473 445.8 178.47 445.916 177.477C446.052 176.314 446.081 175.098 446.109 173.93C446.181 171.148 446.395 168.366 446.428 165.588C446.484 164.86 446.461 164.128 446.359 163.406C446.219 162.699 446.139 161.98 445.986 161.278C445.446 158.772 444.649 156.298 443.249 154.145C442.653 153.217 442.066 152.245 441.389 151.375C440.663 150.487 439.86 149.664 438.988 148.919C438.369 148.369 437.702 147.841 437.038 147.348C436.374 146.855 435.694 146.285 434.986 145.823C433.529 144.869 431.754 144.286 430.162 143.6C427.998 142.634 425.752 141.863 423.451 141.296C422.585 141.054 421.7 140.892 420.805 140.811C419.77 140.774 418.745 140.775 417.713 140.762C416.681 140.749 415.7 140.657 414.681 140.664C413.52 140.676 412.366 140.775 411.207 140.791C408.952 140.828 406.774 141.453 404.646 142.139C401.996 142.932 399.457 144.061 397.093 145.499C396.119 146.114 395.163 146.811 394.217 147.447C393.274 148.142 392.427 148.96 391.699 149.879C390.925 150.763 390.013 151.58 389.314 152.516C388.454 153.665 387.697 154.934 386.91 156.139C384.111 160.446 381.65 165.349 380.717 170.438C380.187 173.339 379.803 175.47 380.239 178.376C380.533 180.302 380.686 182.7 381.315 184.553C381.901 186.265 382.589 188.443 383.398 190.063C384.263 191.791 385.103 193.455 386.127 195.094C386.887 196.31 387.983 198.151 388.818 199.317C390.837 202.101 391.771 203.489 394.359 205.746C396.354 207.356 398.523 208.737 400.825 209.864C401.693 210.289 402.616 210.591 403.567 210.76C403.153 211.237 402.751 211.735 402.363 212.227C401.557 213.236 401.065 214.415 400.466 215.548C400.281 215.826 400.17 216.146 400.143 216.478C400.142 216.808 400.388 216.925 400.733 217.029C401.329 217.205 401.939 217.324 402.557 217.385C402.886 217.439 403.21 217.513 403.529 217.609C403.864 217.679 404.183 217.544 404.52 217.585C404.758 217.637 404.992 217.706 405.221 217.791C405.428 217.805 405.637 217.803 405.844 217.784C406.248 217.799 406.649 217.861 407.039 217.968C407.522 218.091 408.004 218.215 408.481 218.357C408.822 218.491 409.18 218.572 409.545 218.598C409.542 218.384 409.558 218.17 409.593 217.96C409.616 217.78 409.616 217.599 409.592 217.42C409.494 216.65 409.307 215.893 409.035 215.166C408.908 214.741 408.672 214.361 408.543 213.942C408.488 213.602 408.415 213.266 408.325 212.934C408.061 212.113 407.858 211.274 407.717 210.423C407.795 210.437 407.906 210.452 408.067 210.46L408.678 210.503C409.56 210.722 409.776 210.51 410.662 210.705C410.994 210.781 411.285 210.944 411.602 210.988C412.119 211.061 412.647 211.022 413.164 211.102C413.97 211.231 414.731 211.538 415.562 211.591C417.463 211.67 419.366 211.464 421.206 210.981C422.011 210.827 422.876 210.756 423.686 210.534C424.471 210.371 425.24 210.143 425.986 209.851C426.871 209.416 427.797 209.072 428.752 208.824C429.234 208.708 429.691 208.503 430.098 208.219C430.624 207.874 431.167 207.611 431.664 207.209C432.895 206.262 434.03 205.197 435.052 204.029C436 202.88 437.039 201.755 437.822 200.486C438.876 198.836 440.031 197.119 440.711 195.3Z" fill="#77B945"/>
<path d="M81.6537 398.037L83.6924 397.368C83.7597 396.734 83.7717 396.095 83.7283 395.459C83.4004 393.82 82.9738 392.203 82.4509 390.616C82.1983 389.847 82.0091 389.056 81.7956 388.267C81.5821 387.477 81.3728 386.69 81.1888 385.895C80.4234 382.838 79.9001 379.725 79.6238 376.586L79.7589 376.303C79.9903 376.154 79.1569 374.726 79.3593 374.466L79.14 373.798C79.1578 373.596 79.1523 373.184 79.2551 373.518C79.2207 373.142 79.1348 372.773 78.9998 372.42L79.0661 371.714C78.8594 369.183 78.2978 367.076 78.0105 364.406C77.8942 362.307 77.6396 360.218 77.2484 358.153C76.8373 355.832 76.3085 353.473 75.8546 351.77C75.6845 351.177 75.5387 350.561 75.394 349.939C75.2493 349.316 75.1046 348.683 74.9737 348.039C74.7118 346.749 74.4753 345.452 74.2558 344.131C73.7966 341.504 73.328 338.869 72.5464 336.477C72.5208 336.28 72.4507 336.092 72.3413 335.927C72.0139 334.438 71.6445 332.939 71.3814 331.475C71.3814 331.475 71.1314 330.115 70.8012 328.329C70.471 326.543 69.9481 324.256 69.2465 322.588C68.5449 320.92 67.7697 319.916 67.6648 320.301C67.5028 320.705 68.1377 322.436 68.4552 326.598L68.3776 326.5C68.7407 328.942 68.9254 330.53 69.5469 332.199C69.406 332.368 69.5027 332.887 69.6446 333.437C69.7936 333.897 69.908 334.367 69.987 334.844L69.9462 334.794C70.5519 336.233 70.4547 337.925 71.0195 339.314C70.959 339.267 70.9084 339.208 70.8707 339.141C70.8331 339.074 70.809 339 70.8 338.923C71.0851 339.963 71.4949 341.382 71.3216 341.506C71.9563 343.995 72.6948 347.538 73.3623 349.048L73.2848 348.951C73.6929 349.81 73.5999 350.114 73.9062 351.111C73.8912 351.172 73.8951 351.248 73.8814 351.239C74.1072 351.857 74.2723 352.496 74.3744 353.146C74.4977 353.853 74.5968 354.54 74.7162 354.936L74.5936 355.011C74.7287 355.668 74.8385 356.334 74.9577 356.996L74.8652 356.244C75.2583 356.449 74.8993 357.791 75.3408 359.21C75.497 360.562 76.4815 361.874 76.5003 363.32C76.7586 363.979 76.1488 362.762 76.4119 363.756C76.2315 363.815 76.2338 363.299 76.1188 363.578C76.3356 364.56 76.1408 365.237 76.423 366.45L76.2836 366.517C76.7539 368.088 76.4754 369.569 76.868 370.604C77.1977 372.25 76.5782 371.773 77.1028 373.457L76.9827 374.159C77.0541 374.9 77.2997 374.655 77.317 375.488C77.1865 375.453 77.3598 376.526 77.1795 376.073C77.248 377.959 78.0121 379.795 78.1094 382.292C78.4475 382.778 78.5357 384.029 78.7964 384.386C78.6886 384.474 79.2933 386.84 78.7735 385.512C78.7361 385.398 78.6885 385.189 78.7327 385.196L78.5553 385.061C78.5836 386.504 79.2258 387.553 79.5252 388.924C79.4733 388.51 79.3324 387.974 79.5164 388.31L79.8004 389.581L79.6192 389.35C79.7428 389.982 79.88 390.625 80.031 391.256L80.1082 390.957C80.28 391.897 80.1338 392.296 80.6237 393.243C80.8652 393.669 80.5804 392.342 80.8901 393.275C81.0096 393.885 81.1474 394.636 81.2409 395.412C81.3343 396.188 81.4087 396.992 81.4433 397.749C81.568 397.659 81.6179 397.8 81.6537 398.037Z" fill="#FDC504"/>
<path d="M60.8632 225.809C58.6692 225.642 56.5527 226.063 54.3795 226.418C52.0914 226.797 49.7694 227.468 47.5214 228.055C45.2735 228.642 42.8119 229.187 40.6886 230.175C39.6729 230.649 38.632 231.099 37.635 231.609C36.4353 232.227 35.3588 233.114 34.2103 233.813C31.7034 235.356 29.3662 237.159 27.2374 239.193C26.4891 239.961 25.8035 240.787 25.1876 241.665C24.1331 243.014 22.852 244.165 21.9298 245.628C20.3261 248.099 18.9351 250.702 17.772 253.409C17.3363 254.475 17.05 255.59 16.6542 256.67C16.1977 257.918 15.7201 259.166 15.374 260.451C14.9786 261.917 14.817 263.423 14.5174 264.903C14.2071 266.283 13.9903 267.682 13.8685 269.09C13.6566 271.739 13.6148 274.399 13.7432 277.053C14.004 281.428 14.5835 285.779 15.477 290.07C16.0266 292.591 16.922 295.024 18.1377 297.3C19.012 298.981 19.9142 300.576 21.2842 301.908C22.071 302.67 22.8417 303.501 23.6488 304.219C24.1798 304.693 24.6408 305.265 25.1888 305.706C25.8434 306.164 26.4692 306.661 27.0629 307.195C27.5328 307.655 28.0697 308.041 28.6551 308.339C30.1054 309.158 31.577 309.923 32.9893 310.775C34.1147 311.458 35.2155 312.216 36.4599 312.674C37.4045 313.02 38.3782 313.23 39.3443 313.481C40.1065 313.735 40.885 313.936 41.6743 314.085C42.5578 314.202 43.5062 314.185 44.3626 314.455C45.1244 314.692 45.7719 315.02 46.5763 315.152C47.3807 315.285 48.1685 315.356 48.9583 315.444C49.7138 315.482 50.4644 315.588 51.2012 315.76C51.7799 315.921 52.36 316.032 52.9431 316.164C53.4704 316.285 54.0126 316.623 54.5561 316.655C55.0997 316.687 55.649 316.608 56.1643 316.587C57.4126 316.533 58.6559 316.394 59.8855 316.172C60.3832 316.086 60.8778 315.99 61.3775 315.91C61.8878 315.859 62.4002 315.834 62.913 315.834C62.9668 316.992 63.2063 318.106 63.1272 319.297C63.1404 319.713 63.1752 320.129 63.2312 320.543C63.2478 321.064 63.1062 321.615 63.1007 322.143C63.0466 323.083 63.0997 324.026 63.2588 324.954C63.2985 325.173 63.3685 325.387 63.4667 325.587C63.5809 325.819 63.6753 326.06 63.749 326.308C64.162 326.149 64.5481 325.928 64.8941 325.652C65.3971 325.315 65.9169 324.997 66.4304 324.681C66.8406 324.413 67.2804 324.193 67.7409 324.026C67.9875 323.976 68.2293 323.905 68.4636 323.814C68.6968 323.633 68.9434 323.47 69.2012 323.326C69.5918 323.17 69.9814 323.214 70.3628 322.997C70.6979 322.773 71.0472 322.57 71.4086 322.391C72.1029 322.097 72.7687 321.74 73.3974 321.324C73.7598 321.083 74.0021 320.859 73.8796 320.464C73.7292 320.089 73.4865 319.757 73.1737 319.5C72.0872 318.39 71.0947 317.194 69.7996 316.314C69.1409 315.867 68.4771 315.415 67.8015 314.991C67.6659 314.909 67.5251 314.833 67.3747 314.759C67.6726 314.589 67.9473 314.381 68.192 314.14C68.941 313.463 70.6925 312.913 71.4111 312.196C72.0821 311.527 73.4169 310.391 74.154 309.794C76.0416 308.259 76.2099 307.618 78.0703 306.053C80.5842 303.948 82.7014 300.58 84.1118 297.612C84.8393 296.09 85.3238 294.478 86.0324 292.951C86.6772 291.561 87.2125 290.136 87.8205 288.72C88.4946 287.12 89.011 285.445 89.7304 283.855C90.3467 282.474 90.5365 281.033 90.7359 279.547C91.2044 276.113 91.5037 272.816 91.2084 269.352C91.0342 267.326 90.8807 265.362 90.5262 263.353C90.2663 261.877 90.0159 260.398 89.7728 258.921C89.3898 256.449 88.8092 254.012 88.0364 251.633C87.3261 249.554 87.0017 247.412 86.3116 245.309C82.4117 233.877 73.9754 226.806 60.8632 225.809Z" fill="#FDC504"/>
<path d="M210.628 454.989C211.012 455.566 211.352 456.171 211.646 456.799L211.598 456.78C212.139 457.587 212.623 458.565 212.893 458.963L212.845 458.944L213.426 459.967L213.29 459.808C214.055 461.041 214.765 462.331 215.421 463.524L217.174 462.752C216.975 462.44 216.736 462.038 216.757 462.284C215.198 459.799 214.462 457.449 213.505 456.771C213.133 456.112 212.814 455.425 212.549 454.715L212.721 454.982C212.11 453.907 211.74 453.2 211.415 452.56C211.09 451.92 210.82 451.34 210.425 450.508C210.03 449.677 209.719 449.665 209.113 448.129C209.407 448.582 209.129 447.969 208.89 447.4C209.049 447.76 209.135 447.857 208.88 447.088C208.793 446.962 208.715 446.829 208.647 446.692C208.647 446.692 208.633 446.658 208.661 446.664C208.246 445.721 208.29 445.895 208.451 446.345C208.442 446.323 208.43 446.372 208.459 446.52C208.322 446.001 208.039 445.31 207.819 444.726C207.598 444.142 207.435 443.656 207.488 443.568C206.397 440.676 205.593 438.608 204.841 436.139C204.842 435.836 205.076 436.399 205.308 437.109L204.791 435.356C204.905 435.342 205.138 436.35 205.309 436.887C204.899 434.748 203.968 432.601 203.62 430.063L203.402 429.569L203.39 429.418C203.242 429.135 203.137 428.831 203.078 428.517C203.114 428.137 203.31 428.499 203.084 427.258C203.01 426.261 202.564 424.461 202.29 423.169C202.381 423.857 202.293 423.655 202.206 423.359C202.098 422.733 202.13 422.358 202.008 421.876L202.104 421.812C201.987 421.711 201.698 420.17 201.597 419.956C201.63 419.577 201.874 420.926 201.971 421.055C201.734 419.797 201.669 419.484 201.604 419.17C201.539 418.857 201.48 418.54 201.198 417.288C200.798 415.974 201.125 417.56 200.862 416.947C200.566 415.778 200.184 414.661 199.877 413.31L199.88 413.764C199.514 412.691 199.224 411.835 198.963 411.068C198.701 410.353 198.476 409.624 198.287 408.886C197.703 407.329 197.022 405.811 196.247 404.34C195.855 403.562 195.324 402.862 194.68 402.277C194.287 401.972 194.006 401.845 193.939 401.874C193.872 401.904 193.94 402.06 194.128 402.305C194.565 402.972 194.935 403.681 195.234 404.421C195.582 405.27 195.834 406.033 195.834 406.033C196.34 407.554 196.713 408.923 197.207 410.286C197.693 411.573 198.105 412.724 198.499 413.975C199.427 416.932 200.162 419.946 200.697 422.999C201.232 426.406 201.516 428.615 201.955 430.821C202.444 433.496 203.101 436.138 203.925 438.73C204.921 442.102 206.132 445.406 207.55 448.624C208.342 450.027 209.359 452.685 210.387 454.294C210.458 454.521 210.544 454.757 210.628 454.989Z" fill="#77B945"/>
<path d="M199.979 347.257C199.03 346.341 198.094 345.363 197.09 344.522C196.272 343.83 195.285 343.289 194.419 342.654C193.578 341.984 192.652 341.429 191.665 341.003C190.68 340.617 189.69 340.204 188.695 339.852C186.294 339.056 183.801 338.571 181.278 338.408C179.232 338.234 177.15 338.127 175.154 338.553C174.113 338.778 173.062 338.928 172.019 339.157C171.107 339.358 170.238 339.65 169.33 339.871C168.423 340.091 167.498 340.313 166.579 340.55C165.793 340.804 165.032 341.129 164.305 341.521C162.361 342.504 160.509 343.66 158.77 344.973C157.48 345.904 156.013 346.79 154.908 347.943C154.375 348.502 153.89 349.137 153.39 349.729C152.889 350.321 152.408 350.915 151.972 351.536C151.346 352.382 150.796 353.282 150.33 354.225C149.904 355.141 149.579 356.132 149.237 357.084C148.44 359.31 148.24 361.685 148.27 364.035C148.281 364.697 148.356 365.355 148.377 366.016C148.435 366.682 148.565 367.341 148.764 367.979C149.367 370.456 150.132 372.898 150.768 375.371C151.034 376.412 151.311 377.488 151.673 378.502C151.979 379.364 152.376 380.217 152.722 381.069C153.104 382.019 153.65 382.871 154.061 383.805C154.399 384.574 154.75 385.322 155.114 386.091C155.776 387.473 156.555 388.797 157.441 390.048C158.244 391.184 159.211 392.183 159.989 393.355C160.971 394.842 162.353 396.138 163.593 397.41C164.557 398.384 165.716 399.174 166.796 400.006C167.951 400.839 169.185 401.557 170.48 402.15C170.993 402.405 171.55 402.531 172.08 402.735C172.503 402.905 172.953 402.994 173.409 402.999C174.313 403.023 175.212 403.14 176.092 403.348C176.818 403.45 177.552 403.493 178.285 403.475C179.05 403.502 179.836 403.401 180.595 403.365C181.314 403.381 182.032 403.357 182.748 403.295C183.772 403.187 184.785 403.001 185.78 402.74C186.51 402.521 187.125 402.09 187.821 401.81C188.266 401.632 188.746 401.556 189.195 401.384C189.475 401.26 189.704 401.069 189.977 400.937C190.722 400.587 190.974 400.721 191.708 400.347L192.245 400.184C192.398 400.134 192.495 400.099 192.56 400.074C192.608 400.862 192.599 401.653 192.535 402.441C192.522 402.756 192.526 403.071 192.547 403.386C192.528 403.78 192.392 404.183 192.348 404.588C192.257 405.293 192.246 406.006 192.315 406.714C192.33 406.881 192.368 407.044 192.427 407.2C192.502 407.38 192.56 407.567 192.6 407.758C192.92 407.659 193.224 407.513 193.501 407.325C193.897 407.1 194.306 406.887 194.71 406.68C195.033 406.5 195.377 406.359 195.733 406.259C195.923 406.235 196.109 406.194 196.291 406.137C196.478 406.014 196.673 405.904 196.874 405.808C197.176 405.768 197.474 405.707 197.766 405.626C198.031 405.475 198.305 405.341 198.587 405.225C199.127 405.044 199.65 404.814 200.149 404.538C200.439 404.37 200.631 404.22 200.562 403.923C200.468 403.631 200.303 403.367 200.082 403.155C199.325 402.261 198.642 401.305 197.709 400.557C197.254 400.201 196.8 399.84 196.332 399.496C197.147 399.15 197.91 398.692 198.598 398.135C200.424 396.653 202.078 394.971 203.529 393.12C205.377 390.57 205.94 389.128 207.156 386.233C207.668 385.022 208.265 383.145 208.699 381.913C209.276 380.239 209.68 378.568 210.112 376.853C210.49 375.23 210.666 373.149 210.834 371.495C211.017 369.71 210.661 367.537 210.524 365.754C210.317 363.067 209.536 361.24 208.462 358.76C206.575 354.405 203.368 350.532 199.979 347.257Z" fill="#77B945"/>
<path d="M320.234 400.559C320.352 401.242 320.42 401.932 320.437 402.625L320.4 402.589C320.57 403.545 320.62 404.635 320.707 405.108L320.67 405.072L320.79 406.242L320.73 406.042C320.933 407.478 321.063 408.945 321.183 410.301H323.099C323.042 409.935 322.986 409.471 322.906 409.705C322.479 406.802 322.752 404.355 322.149 403.349C322.075 402.596 322.059 401.838 322.103 401.082L322.153 401.395C322.026 400.166 321.973 399.369 321.933 398.652C321.893 397.936 321.88 397.296 321.853 396.376C321.826 395.456 321.546 395.319 321.61 393.67C321.696 394.203 321.69 393.53 321.7 392.913C321.7 393.306 321.74 393.43 321.816 392.623C321.787 392.472 321.769 392.32 321.763 392.166C321.763 392.166 321.763 392.13 321.786 392.146C321.786 391.116 321.756 391.293 321.723 391.77C321.723 391.746 321.693 391.786 321.66 391.933C321.743 391.403 321.763 390.657 321.796 390.033C321.83 389.41 321.876 388.9 321.96 388.84C322.126 385.754 322.223 383.537 322.529 380.974C322.653 380.697 322.639 381.307 322.566 382.051L322.799 380.238C322.909 380.271 322.716 381.287 322.656 381.847C323.142 379.724 323.156 377.384 323.859 374.921V374.381L323.909 374.238C323.887 373.919 323.913 373.599 323.985 373.288C324.172 372.955 324.205 373.365 324.498 372.138C324.831 371.195 325.148 369.369 325.418 368.075C325.225 368.742 325.225 368.522 325.265 368.215C325.418 367.599 325.598 367.269 325.681 366.779L325.794 366.759C325.728 366.619 326.084 365.092 326.078 364.856C326.261 364.522 325.941 365.856 325.978 366.012C326.267 364.766 326.334 364.452 326.401 364.139C326.467 363.826 326.541 363.512 326.787 362.253C326.95 360.889 326.611 362.473 326.617 361.806C326.817 360.616 326.917 359.44 327.18 358.08L327 358.496C327.097 357.366 327.177 356.467 327.247 355.66C327.295 354.899 327.382 354.142 327.507 353.39C327.6 351.73 327.587 350.066 327.47 348.407C327.425 347.537 327.221 346.683 326.867 345.888C326.631 345.451 326.424 345.221 326.351 345.221C326.277 345.221 326.277 345.391 326.351 345.691C326.482 346.478 326.535 347.276 326.511 348.074C326.487 348.991 326.411 349.79 326.411 349.79C326.261 351.387 326.051 352.79 325.954 354.237C325.881 355.61 325.794 356.83 325.651 358.133C325.31 361.214 324.768 364.269 324.029 367.279C323.146 370.612 322.516 372.748 322.03 374.945C321.399 377.59 320.937 380.273 320.647 382.977C320.201 386.465 319.978 389.977 319.98 393.493C320.14 395.096 320 397.939 320.294 399.826C320.267 400.062 320.25 400.312 320.234 400.559Z" fill="#FDC504"/>
<path d="M353.878 297.662C353.378 296.442 352.915 295.169 352.335 293.996C351.865 293.032 351.179 292.139 350.643 291.209C350.143 290.258 349.519 289.377 348.787 288.59C348.041 287.84 347.301 287.063 346.531 286.34C344.654 284.644 342.568 283.196 340.324 282.03C338.522 281.047 336.659 280.11 334.66 279.697C333.617 279.484 332.595 279.197 331.548 278.987C330.632 278.804 329.719 278.721 328.8 278.557C327.88 278.394 326.944 278.224 326.008 278.071C325.186 277.987 324.359 277.978 323.536 278.044C321.36 278.161 319.199 278.472 317.079 278.974C315.523 279.307 313.824 279.527 312.348 280.137C311.635 280.434 310.935 280.82 310.239 281.16C309.542 281.5 308.863 281.85 308.213 282.243C307.299 282.765 306.434 283.368 305.628 284.043C304.868 284.71 304.172 285.487 303.475 286.22C301.849 287.936 300.71 290.029 299.79 292.193C299.534 292.802 299.337 293.436 299.091 294.049C298.876 294.682 298.729 295.337 298.654 296.002C298.208 298.512 297.925 301.055 297.512 303.575C297.335 304.635 297.155 305.731 297.078 306.804C297.012 307.718 297.032 308.658 297.005 309.577C296.972 310.601 297.128 311.601 297.128 312.621C297.128 313.46 297.148 314.287 297.172 315.137C297.221 316.669 297.4 318.195 297.708 319.697C297.985 321.06 298.468 322.363 298.708 323.749C299.008 325.506 299.75 327.249 300.374 328.912C300.863 330.192 301.606 331.382 302.259 332.579C302.982 333.806 303.822 334.96 304.768 336.025C305.135 336.465 305.594 336.805 305.997 337.205C306.316 337.53 306.692 337.794 307.107 337.981C307.925 338.368 308.701 338.837 309.422 339.381C310.046 339.768 310.7 340.102 311.378 340.381C312.068 340.714 312.828 340.938 313.537 341.211C314.189 341.515 314.856 341.783 315.536 342.014C316.516 342.327 317.519 342.566 318.535 342.728C319.291 342.821 320.027 342.674 320.777 342.698C321.257 342.714 321.727 342.838 322.206 342.861C322.513 342.861 322.799 342.778 323.103 342.768C323.925 342.748 324.102 342.971 324.925 342.924L325.481 342.991C325.641 343.008 325.745 343.014 325.815 343.018C325.54 343.758 325.214 344.479 324.838 345.174C324.699 345.457 324.576 345.747 324.469 346.044C324.292 346.397 324.005 346.711 323.802 347.064C323.435 347.673 323.137 348.321 322.916 348.997C322.862 349.155 322.831 349.32 322.823 349.487C322.819 349.682 322.796 349.876 322.756 350.067C323.089 350.105 323.426 350.094 323.756 350.034C324.209 349.987 324.668 349.957 325.122 349.93C325.49 349.896 325.861 349.905 326.228 349.957C326.411 350.011 326.598 350.049 326.787 350.07C327.008 350.033 327.23 350.01 327.454 350.004C327.746 350.088 328.043 350.153 328.343 350.197C328.647 350.165 328.951 350.152 329.256 350.16C329.824 350.212 330.395 350.212 330.962 350.16C331.295 350.124 331.532 350.064 331.588 349.764C331.619 349.459 331.575 349.151 331.459 348.867C331.125 347.744 330.885 346.594 330.332 345.534C330.059 345.024 329.789 344.511 329.499 344.007C330.385 344.019 331.267 343.907 332.122 343.674C334.39 343.054 336.582 342.181 338.655 341.071C341.374 339.481 342.47 338.388 344.749 336.228C345.705 335.325 347.008 333.848 347.901 332.895C349.103 331.595 350.146 330.229 351.232 328.832C352.232 327.499 353.231 325.666 354.051 324.219C354.937 322.66 355.487 320.526 356.08 318.84C356.973 316.297 356.993 314.31 357.01 311.607C357.036 306.861 355.66 302.025 353.878 297.662Z" fill="#FDC504"/>
</svg>
