<svg width="997" height="487" viewBox="0 0 997 487" fill="none" xmlns="http://www.w3.org/2000/svg">
<path d="M193.465 114.978C193.353 114.996 193.067 115.362 192.747 116.036C192.428 116.709 192.136 118.008 192.084 119.884C192.031 121.76 192.205 124.233 192.513 127.38C192.785 128.491 192.948 129.554 193.126 130.768C193.305 131.983 193.511 133.324 193.769 135.014L193.453 134.399C193.982 136.424 194.252 138.184 194.666 139.95C194.723 140.958 194.072 138.606 194.448 140.64C194.944 142.51 195.073 142.977 195.214 143.438C195.355 143.899 195.474 144.37 196.029 146.218C196.066 145.955 195.458 144.009 195.768 144.488C195.779 144.821 196.466 147.108 196.374 147.324L196.547 147.343C196.708 148.07 197.023 148.551 197.313 149.466C197.404 149.922 197.427 150.276 197.073 149.264C197.602 151.184 198.263 153.903 198.848 155.288C199.405 157.106 199.418 156.496 199.73 156.971C199.869 157.523 200.015 158.383 199.937 158.383L200.027 158.596L200.103 159.404C201.4 163.039 201.663 166.555 202.583 169.703C202.439 168.868 202.05 167.361 202.214 167.298L202.741 170.003C202.555 168.893 202.475 167.978 202.689 168.382C203.402 172.204 203.756 175.53 204.307 180.157C204.439 180.236 204.547 180.996 204.667 181.935C204.788 182.874 204.882 183.989 205.055 184.771C204.993 184.554 204.96 184.496 204.952 184.53C204.862 183.818 204.789 183.553 204.895 185.098C204.906 185.071 204.923 185.12 204.934 185.126C204.938 185.358 204.926 185.589 204.896 185.818C205.09 187.026 205.129 186.844 205.101 186.244C205.174 187.17 205.23 188.185 205.306 187.372C205.566 189.846 205.212 190.088 205.203 191.468C205.193 192.849 205.314 193.815 205.305 194.899C205.297 195.983 205.312 197.184 205.242 199.053L205.29 198.578C205.317 199.606 205.516 199.983 205.432 201.988C204.624 203.561 205.277 207.217 204.913 211.624C204.673 211.062 204.725 213.314 204.536 213.117C204.652 217.386 204.108 220.751 204.172 225.511L204.199 225.267C204.35 226.557 204.121 229.765 203.917 230.847C204.105 230.226 204.111 232.265 204.264 231.772C204.016 232.894 204.014 236.823 204.014 236.823C204.224 237.63 203.914 240.708 204.047 242.677L203.707 245.212L203.919 244.315C203.875 245.658 204.019 245.916 204.108 245.36C204.132 245.969 204.06 246.273 204.022 247.183L204.185 246.768C204.211 247.201 204.193 247.636 204.133 248.066L206.169 252.822L206.236 249.132L206.162 249.835C206.183 248.325 206.263 246.629 206.43 246.64C206.287 246.386 206.166 246.753 206.188 244.804C206.548 244.77 206.645 241.937 206.778 239.261C206.729 239.32 206.717 238.285 206.639 239.005C207.283 233.218 206.505 229.927 207.171 224.314L207.122 224.376C206.99 219.931 207.445 218.119 207.351 213.184L207.54 213.381C207.542 211.073 207.627 208.466 207.82 205.919L207.746 206.22L207.814 204.451L207.765 204.513C207.834 203.797 207.818 202.145 207.979 200.692L207.929 200.751C207.894 199.708 207.935 198.665 208.053 197.629C208.012 197.271 207.957 196.889 207.896 196.518C208.166 193.644 207.665 189.387 207.753 186.955C207.421 181.667 206.75 176.405 205.745 171.202C205.044 167.164 204.088 163.174 202.883 159.257C201.915 156.021 200.76 152.849 199.11 147.942C197.705 143.482 196.592 138.935 195.779 134.33C195.441 132.382 195.192 130.556 194.946 128.5C194.666 126.346 194.211 124.241 193.829 121.85C193.829 121.85 193.639 120.652 193.515 119.275C193.4 118.079 193.404 116.875 193.525 115.68C193.591 115.228 193.588 114.951 193.465 114.978Z" fill="#77B945"/>
<path d="M229.541 35.3669C229.108 34.4681 228.756 33.5308 228.308 32.6419C226.716 29.4738 224.802 26.4395 222.183 24.0075C221.069 22.9832 219.945 21.8733 218.737 20.9422C217.461 20.0023 216.104 19.178 214.682 18.4789C213.663 17.9547 212.59 17.4798 211.529 17.0443C210.469 16.6088 209.361 16.0963 208.256 15.7137C205.974 14.9382 203.398 14.7648 201.026 14.4181C197.767 13.9367 194.548 13.5396 191.25 13.6415C190.018 13.681 188.742 13.6529 187.535 13.918C186.137 14.2272 184.766 14.5814 183.381 14.9192C181.995 15.257 180.646 15.4703 179.273 15.8367C177.719 16.2541 176.208 16.773 174.664 17.2049C171.644 18.0357 168.948 19.6244 166.344 21.268C163.128 23.297 160.036 25.5621 157.422 28.3501C156.332 29.5106 155.302 30.7581 154.252 31.958C153.153 33.2045 152.445 34.6071 151.717 36.078C150.988 37.549 150.049 38.9378 149.451 40.4242C148.691 42.2502 148.121 44.2235 147.49 46.1035C145.223 52.8401 143.616 60.251 144.128 67.3893C144.416 71.4533 144.636 74.4394 146.225 78.1791C147.285 80.6558 148.315 83.8167 149.8 86.0777C151.169 88.171 152.841 90.8509 154.485 92.7397C156.24 94.754 157.939 96.6908 159.875 98.5336C161.314 99.8987 163.415 101.994 164.937 103.263C168.589 106.285 170.33 107.829 174.574 109.956C177.058 111.204 181.887 112.743 184.652 113.244C185.961 113.509 187.3 113.591 188.631 113.489C188.245 114.27 187.887 115.072 187.53 115.866C186.797 117.493 186.548 119.243 186.15 120.959C186 121.396 185.962 121.864 186.041 122.319C186.156 122.761 186.524 122.833 187.02 122.853C187.877 122.88 188.734 122.83 189.581 122.702C190.045 122.659 190.511 122.648 190.976 122.668C191.475 122.65 191.826 122.376 192.314 122.287C192.65 122.273 192.987 122.284 193.322 122.321C193.605 122.272 193.883 122.197 194.152 122.097C194.698 121.983 195.255 121.934 195.812 121.953C196.501 121.951 197.195 121.95 197.882 121.979C198.383 122.037 198.889 122.021 199.385 121.932C199.308 121.647 199.256 121.355 199.23 121.061C199.201 120.812 199.139 120.569 199.044 120.337C198.646 119.342 198.135 118.395 197.521 117.515C197.199 117.007 196.736 116.557 196.436 116.04C196.247 115.605 196.034 115.181 195.799 114.77C195.086 113.77 194.662 112.675 194.121 111.62C194.228 111.608 194.382 111.591 194.624 111.551L195.453 111.395C196.713 111.385 196.94 111.029 198.178 110.979C198.632 110.961 199.073 111.08 199.535 111.029C200.252 110.951 200.947 110.718 201.666 110.646C202.791 110.54 203.913 110.69 205.044 110.476C206.551 110.134 208.03 109.68 209.469 109.116C210.522 108.747 211.393 108.179 212.391 107.715C213.388 107.251 214.55 106.836 215.556 106.259C216.496 105.722 217.567 105.245 218.4 104.554C219.435 103.668 220.556 102.887 221.747 102.226C222.355 101.905 222.896 101.473 223.342 100.95C223.912 100.309 224.567 99.7542 225.076 99.0598C226.341 97.3256 227.605 95.5915 228.518 93.6324C229.383 91.7617 230.389 89.9055 231.001 87.9363C231.783 85.3807 232.752 82.6849 233.032 80.0098C233.26 77.9127 233.856 75.9054 234.133 73.8173C234.448 71.5199 234.567 69.1997 234.488 66.882C234.441 65.6152 234.393 64.3561 234.311 63.0934C234.21 61.5608 234.352 60.0441 234.202 58.5024C234.071 57.1255 234.011 55.7066 233.823 54.3387C233.603 52.7371 233.226 51.1015 232.859 49.5252C232 45.7656 231.32 41.9781 230.406 38.2461C230.141 37.26 229.996 36.3056 229.541 35.3669Z" fill="#77B945"/>
<path d="M678.693 214.76L680.92 215.163C681.3 214.611 681.631 214.027 681.909 213.416C682.429 211.739 682.847 210.033 683.161 208.306C683.332 207.471 683.533 206.635 683.734 205.8C683.935 204.964 684.131 204.125 684.36 203.298C685.187 200.08 686.264 196.933 687.583 193.885L687.852 193.691C688.146 193.671 688.091 191.928 688.409 191.788L688.554 191.06C688.67 190.884 688.874 190.498 688.798 190.858C688.959 190.493 689.065 190.108 689.115 189.713L689.531 189.093C690.612 186.645 691.147 184.408 692.224 181.792C693.17 179.787 693.983 177.723 694.66 175.612C695.44 173.252 696.138 170.804 696.585 169.005C696.727 168.367 696.9 167.727 697.079 167.073C697.259 166.419 697.442 165.764 697.625 165.105C698.03 163.781 698.471 162.458 698.923 161.125C699.86 158.529 700.614 155.871 701.182 153.17C701.255 152.975 701.285 152.767 701.271 152.559C701.713 151.01 702.124 149.439 702.616 147.952L703.657 144.742C704.335 142.761 704.817 140.718 705.097 138.642C705.3 136.748 705.077 135.417 704.781 135.735C704.485 136.054 704.149 137.949 702.346 141.942L702.324 141.812C701.417 144.261 700.8 145.823 700.546 147.682C700.329 147.764 700.159 148.296 700.012 148.878C699.92 149.378 699.79 149.87 699.624 150.351L699.613 150.286C699.453 151.92 698.509 153.441 698.337 155.01C698.304 154.936 698.286 154.857 698.284 154.776C698.282 154.695 698.297 154.615 698.327 154.54C698.075 155.647 697.74 157.168 697.513 157.195C696.851 159.823 695.758 163.474 695.62 165.206L695.597 165.076C695.546 166.082 695.306 166.315 695.089 167.389C695.044 167.437 695.008 167.51 695 167.493C694.899 168.179 694.732 168.853 694.502 169.506C694.258 170.225 694.012 170.926 693.932 171.336L693.785 171.361C693.579 172.042 693.345 172.714 693.121 173.394L693.435 172.645C693.701 173.044 692.695 174.109 692.386 175.63C691.848 176.978 692.107 178.672 691.374 180.028C691.285 180.764 691.332 179.328 691.073 180.387C690.874 180.346 691.139 179.873 690.889 180.072C690.6 181.096 690.078 181.619 689.734 182.884L689.568 182.878C689.214 184.572 688.212 185.783 688.056 186.957C687.537 188.645 687.202 187.898 686.83 189.715L686.378 190.31C686.06 191.037 686.418 190.926 686.021 191.706C685.916 191.614 685.533 192.681 685.597 192.181C684.712 193.963 684.493 196.051 683.335 198.41C683.403 199.03 682.857 200.233 682.913 200.708C682.77 200.733 682.143 203.23 682.328 201.739C682.341 201.612 682.411 201.4 682.447 201.425L682.351 201.21C681.654 202.564 681.724 203.859 681.309 205.279C681.473 204.868 681.61 204.302 681.609 204.707L681.235 206.026L681.181 205.72C680.979 206.369 680.783 207.03 680.606 207.697L680.826 207.454C680.51 208.399 680.155 208.71 680.156 209.835C680.165 210.349 680.566 208.976 680.388 209.994C680.19 210.62 679.941 211.384 679.648 212.152C679.355 212.919 679.002 213.701 678.661 214.419C678.806 214.362 678.777 214.523 678.693 214.76Z" fill="#FDC504"/>
<path d="M670.44 89.4964C670.453 86.7767 670.845 84.0722 671.605 81.4609C672.933 77.0355 674.581 72.7125 676.535 68.526C677.753 66.0017 679.131 63.5583 680.662 61.2106C681.483 59.9688 682.385 58.7832 683.364 57.6617C684.387 56.4382 685.296 55.1233 686.397 53.9663C687.367 52.9477 688.43 52.033 689.482 51.1068C690.391 50.3034 691.214 49.4127 692.165 48.6465C694.603 46.7227 697.198 45.0086 699.924 43.5223C701.502 42.629 703.278 42.2081 704.906 41.4931C705.919 40.9893 706.971 40.5666 708.051 40.2287C711.044 39.4164 714.113 38.9201 717.209 38.7479C718.625 38.6791 720.074 38.3997 721.492 38.4462C722.675 38.4757 723.862 38.58 725.045 38.6541C727.507 38.8031 730.049 39.5342 732.441 40.1224C734.833 40.7106 737.306 41.2492 739.615 42.0519C741.811 42.8123 743.983 43.4878 745.931 44.7449C757.582 52.2544 761.846 63.0484 759.687 75.6028C759.295 77.895 758.5 80.0439 758.116 82.3302C757.638 84.9221 756.951 87.471 756.061 89.9515C755.558 91.4493 755.049 92.9434 754.546 94.4455C753.865 96.4812 753.009 98.3827 752.164 100.345C750.702 103.713 748.765 106.604 746.611 109.55C745.677 110.825 744.777 112.067 743.511 113.039C742.06 114.151 740.738 115.444 739.31 116.587C738.045 117.595 736.823 118.644 735.528 119.608C734.104 120.67 732.845 121.917 731.409 122.963C728.608 125.004 724.956 127.059 721.573 127.747C719.061 128.256 718.58 128.767 716.053 129.238C715.065 129.411 713.257 129.806 712.302 130.088C711.274 130.392 709.378 130.019 708.333 130.273C707.985 130.369 707.627 130.421 707.266 130.428C707.362 130.571 707.458 130.714 707.541 130.86C707.957 131.588 708.342 132.344 708.73 133.09C709.488 134.555 709.808 136.162 710.253 137.717C710.415 138.113 710.473 138.544 710.422 138.969C710.343 139.383 710.005 139.486 709.542 139.509C708.75 139.573 707.954 139.563 707.163 139.479C706.738 139.46 706.312 139.472 705.889 139.514C705.445 139.52 705.088 139.285 704.648 139.232C704.337 139.238 704.027 139.265 703.72 139.314C703.456 139.282 703.195 139.228 702.94 139.152C702.431 139.073 701.915 139.055 701.402 139.1C700.762 139.131 700.124 139.167 699.49 139.229C699.031 139.309 698.562 139.319 698.099 139.258C698.156 138.991 698.189 138.721 698.198 138.449C698.214 138.217 698.259 137.988 698.333 137.767C698.652 136.828 699.077 135.929 699.599 135.086C699.869 134.595 700.278 134.159 700.526 133.666C700.679 133.255 700.855 132.853 701.054 132.462C701.726 131.398 702.063 130.245 702.592 129.147C702.12 128.888 701.633 128.653 701.136 128.445C700.634 128.266 700.125 128.105 699.62 127.935C698.372 127.525 697.154 127.03 695.974 126.454C695.487 126.214 694.911 125.994 694.447 125.706C693.984 125.418 693.626 124.822 693.2 124.442C692.774 124.063 692.241 123.635 691.791 123.193C691.199 122.685 690.565 122.229 689.895 121.829C689.202 121.35 688.492 120.873 687.829 120.357C687.219 119.814 686.65 119.226 686.126 118.599C685.409 117.972 684.639 117.407 683.826 116.909C683.17 116.373 682.55 115.795 681.969 115.178C681.202 114.454 680.39 113.772 679.703 112.971C678.833 111.883 678.075 110.71 677.439 109.47C676.566 107.954 675.588 106.501 674.649 105.019C674.26 104.447 673.956 103.821 673.747 103.162C673.467 102.372 673.136 101.6 672.758 100.852C672.469 100.164 672.328 99.4061 672.076 98.6984C671.692 97.6178 671.389 96.4696 671.05 95.3678C670.433 93.4339 670.406 91.4949 670.44 89.4964Z" fill="#FDC504"/>
<path d="M924.461 155.976C924.351 155.964 923.999 156.245 923.548 156.785C922.841 157.813 922.325 158.96 922.026 160.171C921.416 162.474 920.955 164.814 920.645 167.176C920.627 168.263 920.529 169.279 920.4 170.44C920.27 171.601 920.152 172.883 919.976 174.5L919.836 173.861C919.84 175.851 919.67 177.529 919.632 179.263C919.46 180.202 919.406 177.88 919.269 179.843C919.278 181.685 919.298 182.144 919.309 182.602C919.32 183.06 919.328 183.523 919.404 185.357C919.51 185.126 919.404 183.181 919.575 183.699C919.506 184.005 919.592 186.278 919.462 186.455L919.61 186.523C919.587 187.231 919.762 187.751 919.811 188.661C919.785 189.103 919.723 189.436 919.636 188.422C919.667 190.312 919.632 192.974 919.843 194.388C919.924 196.191 920.08 195.631 920.254 196.145C920.275 196.602 920.227 197.06 920.11 197.503L920.141 197.719L920.022 198.48C920.351 202.139 919.738 205.437 919.862 208.538C919.933 207.736 919.947 206.261 920.095 206.233L919.942 208.845C920.034 207.778 920.179 206.918 920.279 207.34C920.025 211.03 919.543 214.17 918.965 218.565C919.066 218.669 918.987 219.395 918.876 220.285C918.765 221.174 918.587 222.231 918.56 223C918.553 222.785 918.538 222.724 918.509 222.755C918.596 222.076 918.586 221.825 918.328 223.264C918.339 223.24 918.351 223.275 918.354 223.301C918.301 223.514 918.235 223.723 918.156 223.928C918.048 225.085 918.123 224.922 918.243 224.369C918.083 225.26 917.891 226.18 918.166 225.457C917.816 227.795 917.431 227.931 917.099 229.206C916.767 230.481 916.635 231.405 916.376 232.386C916.117 233.366 915.839 234.493 915.332 236.189L915.484 235.776C915.263 236.726 915.374 237.125 914.807 238.952C913.688 240.207 913.421 243.727 912.04 247.698C911.957 247.124 911.463 249.212 911.336 248.985C910.432 252.944 909.111 255.906 908.047 260.307L908.144 260.096C907.782 261.831 907.253 263.526 906.564 265.158C906.885 264.63 906.412 266.535 906.664 266.092C906.168 267.064 905.234 270.681 905.234 270.681C905.234 271.477 904.222 274.239 903.874 276.081L902.96 278.337L903.371 277.561C903.009 278.784 903.081 279.058 903.297 278.579C903.176 279.146 903.03 279.421 902.783 280.238L903.042 279.875C902.961 280.267 902.843 280.651 902.692 281.021L903.439 285.901L904.376 282.516L904.149 283.145C904.522 281.749 905.013 280.224 905.152 280.268C905.078 279.998 904.884 280.304 905.365 278.519C905.723 278.568 906.468 275.988 907.226 273.558C907.165 273.598 907.403 272.641 907.157 273.29C909.123 268.112 909.188 264.895 911.134 259.887L911.077 259.928C912.016 255.797 912.847 254.245 913.947 249.672L914.073 249.899C914.624 247.774 915.316 245.382 916.102 243.09L915.977 243.361L916.461 241.746L916.402 241.791C916.646 241.146 917.011 239.621 917.515 238.328L917.456 238.373C917.665 237.401 917.945 236.445 918.292 235.512C918.338 235.162 918.38 234.809 918.409 234.452C919.333 231.872 919.893 227.831 920.552 225.616C921.497 220.666 922.126 215.66 922.433 210.63C922.748 206.746 922.817 202.846 922.639 198.953C922.516 195.746 922.213 192.552 921.854 187.639C921.616 183.199 921.669 178.748 922.014 174.315C922.159 172.452 922.368 170.701 922.645 168.759C922.9 166.71 922.98 164.663 923.18 162.367C923.18 162.367 923.29 161.216 923.5 159.923C923.679 158.794 923.969 157.685 924.366 156.612C924.52 156.235 924.581 155.978 924.461 155.976Z" fill="#77B945"/>
<path d="M969.173 133.159C969.872 131.286 970.901 129.566 971.676 127.727C972.513 125.687 973.175 123.579 973.654 121.426C973.907 120.25 974.162 119.079 974.381 117.902C974.653 116.464 975.145 115.103 975.376 113.651C975.583 112.353 975.863 111.034 976.016 109.73C976.195 108.201 976.232 106.602 976.27 105.065C976.364 101.408 976.646 97.751 976.689 94.0994C976.762 93.1425 976.732 92.1805 976.598 91.2303C976.414 90.3011 976.309 89.3556 976.107 88.4328C975.397 85.1386 974.35 81.8865 972.51 79.0557C971.726 77.8359 970.955 76.5589 970.064 75.4151C969.111 74.2465 968.054 73.1656 966.908 72.1853C966.094 71.4625 965.217 70.7691 964.344 70.1207C963.471 69.4723 962.577 68.7226 961.646 68.1153C959.731 66.8611 957.398 66.0947 955.306 65.1932C952.461 63.9229 949.508 62.9093 946.482 62.1643C945.345 61.8468 944.181 61.6334 943.005 61.5267C941.643 61.4781 940.297 61.48 938.94 61.4626C937.583 61.4453 936.293 61.3238 934.953 61.3333C933.427 61.3488 931.91 61.4797 930.386 61.501C927.422 61.5487 924.559 62.3715 921.762 63.2726C918.277 64.3149 914.94 65.7993 911.831 67.6894C910.552 68.4988 909.295 69.4153 908.052 70.251C906.811 71.1648 905.697 72.2401 904.741 73.4484C903.723 74.6101 902.524 75.6835 901.605 76.9147C900.475 78.425 899.479 80.0938 898.445 81.6775C894.766 87.3392 891.53 93.7845 890.303 100.475C889.607 104.289 889.102 107.091 889.676 110.911C890.062 113.443 890.263 116.595 891.089 119.031C891.86 121.282 892.764 124.145 893.827 126.275C894.965 128.546 896.07 130.734 897.416 132.888C898.415 134.487 899.856 136.907 900.953 138.441C903.607 142.1 904.835 143.925 908.237 146.892C910.86 149.008 913.711 150.824 916.738 152.305C917.879 152.865 919.092 153.262 920.343 153.484C919.798 154.111 919.27 154.765 918.759 155.413C917.7 156.739 917.053 158.288 916.265 159.778C916.023 160.143 915.877 160.564 915.842 161.001C915.84 161.434 916.164 161.589 916.617 161.725C917.4 161.956 918.203 162.113 919.015 162.193C919.447 162.263 919.874 162.362 920.293 162.488C920.733 162.58 921.152 162.401 921.595 162.456C921.908 162.524 922.216 162.614 922.517 162.726C922.79 162.745 923.064 162.742 923.336 162.718C923.867 162.737 924.395 162.818 924.908 162.96C925.542 163.122 926.176 163.284 926.803 163.471C927.25 163.647 927.722 163.754 928.201 163.787C928.197 163.506 928.219 163.226 928.265 162.948C928.295 162.713 928.295 162.474 928.264 162.239C928.135 161.226 927.889 160.232 927.531 159.276C927.364 158.717 927.054 158.217 926.884 157.666C926.812 157.22 926.716 156.778 926.597 156.342C926.251 155.263 925.984 154.159 925.799 153.041C925.901 153.059 926.047 153.078 926.259 153.089L927.062 153.146C928.222 153.434 928.505 153.154 929.669 153.411C930.106 153.511 930.489 153.726 930.906 153.783C931.585 153.879 932.28 153.828 932.959 153.933C934.019 154.103 935.02 154.506 936.111 154.575C938.611 154.679 941.112 154.409 943.532 153.774C944.59 153.571 945.727 153.478 946.792 153.187C947.823 152.972 948.834 152.672 949.815 152.288C950.978 151.716 952.197 151.264 953.451 150.939C954.085 150.786 954.686 150.516 955.221 150.143C955.913 149.69 956.627 149.344 957.28 148.815C958.898 147.571 960.39 146.171 961.734 144.634C962.98 143.124 964.346 141.645 965.375 139.978C966.761 137.808 968.279 135.55 969.173 133.159Z" fill="#77B945"/>
<path d="M107.345 396.686L110.025 395.807C110.114 394.973 110.129 394.133 110.072 393.296C109.641 391.142 109.081 389.016 108.393 386.93C108.061 385.918 107.812 384.879 107.532 383.842C107.251 382.804 106.976 381.769 106.734 380.723C105.728 376.704 105.04 372.613 104.676 368.486L104.854 368.114C105.158 367.917 104.063 366.04 104.329 365.699L104.041 364.821C104.064 364.555 104.057 364.013 104.192 364.453C104.147 363.958 104.034 363.473 103.856 363.009L103.943 362.081C103.672 358.753 102.933 355.984 102.556 352.474C102.403 349.715 102.068 346.968 101.554 344.253C101.013 341.202 100.318 338.101 99.7215 335.861C99.4978 335.082 99.3061 334.273 99.1159 333.455C98.9256 332.636 98.7354 331.804 98.5633 330.957C98.2191 329.262 97.9082 327.556 97.6196 325.82C97.0159 322.366 96.3998 318.902 95.3723 315.757C95.3388 315.499 95.2465 315.251 95.1027 315.034C94.6724 313.077 94.1868 311.106 93.8408 309.181C93.8408 309.181 93.5122 307.393 93.0781 305.046C92.644 302.698 91.9567 299.691 91.0343 297.499C90.1119 295.306 89.0929 293.985 88.9549 294.492C88.7419 295.023 89.5767 297.299 89.994 302.77L89.892 302.642C90.3694 305.852 90.6121 307.94 91.4292 310.134C91.2439 310.356 91.3711 311.038 91.5576 311.761C91.7534 312.366 91.9039 312.984 92.0078 313.61L91.954 313.545C92.7503 315.437 92.6226 317.66 93.3652 319.487C93.2855 319.425 93.219 319.347 93.1695 319.259C93.12 319.171 93.0884 319.074 93.0766 318.973C93.4514 320.34 93.9901 322.206 93.7622 322.368C94.5966 325.641 95.5675 330.298 96.445 332.284L96.3431 332.156C96.8796 333.285 96.7573 333.685 97.1601 334.996C97.1403 335.076 97.1454 335.176 97.1275 335.163C97.4243 335.976 97.6414 336.816 97.7755 337.672C97.9376 338.601 98.0679 339.503 98.2248 340.024L98.0637 340.123C98.2413 340.987 98.3856 341.862 98.5423 342.732L98.4207 341.744C98.9376 342.012 98.4656 343.777 99.0459 345.643C99.2513 347.42 100.546 349.145 100.57 351.046C100.91 351.912 100.108 350.312 100.454 351.619C100.217 351.697 100.22 351.018 100.069 351.386C100.354 352.676 100.098 353.567 100.469 355.16L100.285 355.248C100.904 357.314 100.538 359.261 101.054 360.622C101.487 362.786 100.673 362.158 101.362 364.372L101.204 365.295C101.298 366.27 101.621 365.947 101.644 367.042C101.472 366.996 101.7 368.407 101.463 367.811C101.553 370.29 102.558 372.705 102.686 375.988C103.13 376.626 103.246 378.271 103.589 378.739C103.447 378.855 104.242 381.965 103.559 380.22C103.509 380.071 103.447 379.796 103.505 379.804L103.272 379.627C103.309 381.524 104.153 382.903 104.547 384.706C104.479 384.161 104.293 383.456 104.535 383.898L104.909 385.57L104.67 385.265C104.833 386.097 105.013 386.942 105.212 387.771L105.313 387.378C105.539 388.614 105.347 389.138 105.991 390.384C106.308 390.944 105.934 389.199 106.341 390.426C106.498 391.227 106.68 392.215 106.802 393.235C106.925 394.255 107.023 395.312 107.068 396.307C107.232 396.188 107.298 396.374 107.345 396.686Z" fill="#FDC504"/>
<path d="M80.0078 170.253C77.1235 170.033 74.3411 170.587 71.4842 171.054C68.4762 171.552 65.4236 172.434 62.4684 173.206C59.5132 173.978 56.2771 174.694 53.4857 175.993C52.1504 176.616 50.782 177.208 49.4715 177.878C47.8943 178.691 46.479 179.856 44.9692 180.776C41.6736 182.804 38.6011 185.175 35.8025 187.848C34.8187 188.857 33.9175 189.944 33.1077 191.098C31.7215 192.872 30.0373 194.384 28.825 196.308C26.7167 199.557 24.8881 202.979 23.3591 206.537C22.7863 207.938 22.4099 209.403 21.8896 210.824C21.2894 212.464 20.6615 214.105 20.2065 215.794C19.6867 217.722 19.4743 219.701 19.0804 221.647C18.6725 223.461 18.3876 225.3 18.2274 227.152C17.9489 230.634 17.8938 234.13 18.0627 237.619C18.4055 243.371 19.1673 249.091 20.342 254.732C21.0645 258.046 22.2416 261.245 23.8398 264.237C24.9892 266.447 26.1752 268.543 27.9763 270.295C29.0107 271.297 30.0238 272.39 31.0848 273.333C31.7828 273.957 32.3889 274.708 33.1094 275.287C33.9698 275.889 34.7926 276.543 35.573 277.246C36.1909 277.85 36.8966 278.357 37.6662 278.749C39.5728 279.825 41.5075 280.832 43.3641 281.952C44.8435 282.85 46.2907 283.846 47.9266 284.448C49.1684 284.903 50.4484 285.179 51.7185 285.509C52.7206 285.842 53.7439 286.107 54.7816 286.302C55.9431 286.456 57.1898 286.434 58.3157 286.789C59.3171 287.101 60.1684 287.532 61.2259 287.706C62.2834 287.88 63.319 287.973 64.3574 288.089C65.3506 288.14 66.3373 288.279 67.3058 288.505C68.0667 288.716 68.8293 288.863 69.5959 289.035C70.2891 289.195 71.0018 289.639 71.7164 289.681C72.4309 289.724 73.153 289.62 73.8305 289.592C75.4716 289.521 77.106 289.339 78.7225 289.047C79.3767 288.933 80.0269 288.807 80.684 288.703C81.3547 288.635 82.0284 288.602 82.7026 288.603C82.7733 290.124 83.0881 291.589 82.9841 293.154C83.0015 293.702 83.0471 294.249 83.1208 294.792C83.1426 295.477 82.9566 296.202 82.9493 296.896C82.8782 298.132 82.9479 299.371 83.1571 300.591C83.2094 300.88 83.3013 301.16 83.4304 301.424C83.5806 301.729 83.7047 302.046 83.8015 302.372C84.3444 302.163 84.8521 301.872 85.3069 301.509C85.9682 301.066 86.6515 300.648 87.3266 300.233C87.8659 299.881 88.444 299.592 89.0494 299.372C89.3735 299.306 89.6914 299.213 89.9995 299.092C90.306 298.855 90.6302 298.64 90.9692 298.451C91.4826 298.246 91.9948 298.304 92.4961 298.019C92.9367 297.724 93.396 297.458 93.871 297.222C94.7838 296.836 95.6591 296.367 96.4855 295.82C96.962 295.502 97.2806 295.208 97.1194 294.69C96.9218 294.195 96.6026 293.759 96.1915 293.421C94.7631 291.963 93.4584 290.389 91.7558 289.233C90.8899 288.645 90.0172 288.051 89.129 287.494C88.9508 287.386 88.7657 287.286 88.568 287.189C88.9596 286.965 89.3207 286.692 89.6424 286.375C90.6271 285.485 92.9296 284.762 93.8744 283.82C94.7565 282.94 96.5112 281.446 97.4802 280.662C99.9617 278.644 100.183 277.801 102.629 275.744C105.934 272.976 108.717 268.549 110.571 264.647C111.527 262.646 112.164 260.527 113.096 258.52C113.943 256.692 114.647 254.819 115.446 252.957C116.333 250.854 117.012 248.652 117.957 246.562C118.767 244.746 119.017 242.852 119.279 240.898C119.895 236.384 120.289 232.049 119.9 227.496C119.671 224.832 119.47 222.251 119.004 219.609C118.662 217.669 118.333 215.725 118.013 213.783C117.51 210.533 116.746 207.329 115.73 204.202C114.797 201.469 114.37 198.653 113.463 195.889C108.336 180.859 97.2454 171.563 80.0078 170.253Z" fill="#FDC504"/>
<path d="M387.849 462.945C388.353 463.704 388.801 464.499 389.188 465.324L389.124 465.299C389.835 466.361 390.472 467.645 390.827 468.169L390.764 468.144L391.527 469.489L391.349 469.28C392.354 470.901 393.287 472.597 394.15 474.165L396.455 473.151C396.193 472.74 395.879 472.212 395.907 472.535C393.856 469.268 392.89 466.18 391.631 465.288C391.142 464.421 390.722 463.518 390.375 462.585L390.601 462.936C389.797 461.523 389.312 460.593 388.884 459.752C388.457 458.91 388.102 458.147 387.582 457.055C387.063 455.962 386.654 455.946 385.857 453.927C386.243 454.523 385.879 453.716 385.564 452.969C385.773 453.442 385.886 453.569 385.551 452.558C385.436 452.392 385.334 452.218 385.245 452.037C385.245 452.037 385.226 451.993 385.263 452.001C384.717 450.761 384.775 450.99 384.987 451.581C384.975 451.553 384.96 451.617 384.998 451.811C384.817 451.129 384.446 450.22 384.156 449.453C383.866 448.685 383.652 448.047 383.721 447.93C382.287 444.128 381.23 441.41 380.241 438.164C380.243 437.766 380.55 438.507 380.855 439.44L380.176 437.135C380.326 437.116 380.632 438.442 380.856 439.148C380.317 436.335 379.094 433.513 378.636 430.177L378.35 429.527L378.334 429.328C378.139 428.956 378.001 428.557 377.924 428.145C377.972 427.645 378.229 428.12 377.932 426.489C377.834 425.178 377.247 422.812 376.887 421.114C377.008 422.018 376.891 421.753 376.777 421.363C376.635 420.54 376.677 420.048 376.518 419.414L376.643 419.33C376.489 419.197 376.11 417.171 375.976 416.89C376.02 416.392 376.341 418.166 376.469 418.335C376.157 416.681 376.072 416.269 375.986 415.857C375.9 415.444 375.822 415.029 375.452 413.382C374.927 411.655 375.356 413.74 375.011 412.935C374.622 411.397 374.119 409.928 373.716 408.153L373.72 408.749C373.238 407.339 372.857 406.213 372.515 405.206C372.17 404.265 371.873 403.308 371.625 402.337C370.858 400.29 369.962 398.294 368.943 396.361C368.429 395.338 367.73 394.418 366.883 393.648C366.367 393.248 365.997 393.08 365.909 393.119C365.821 393.158 365.911 393.363 366.158 393.685C366.732 394.563 367.219 395.495 367.612 396.468C368.069 397.583 368.401 398.586 368.401 398.586C369.065 400.586 369.556 402.386 370.206 404.178C370.844 405.869 371.386 407.383 371.904 409.027C373.124 412.914 374.09 416.877 374.794 420.891C375.496 425.369 375.87 428.273 376.447 431.173C377.09 434.69 377.955 438.163 379.037 441.571C380.347 446.003 381.939 450.348 383.803 454.577C384.844 456.421 386.181 459.916 387.533 462.031C387.626 462.33 387.738 462.64 387.849 462.945Z" fill="#77B945"/>
<path d="M373.85 321.318C372.603 320.114 371.371 318.827 370.053 317.723C368.977 316.812 367.678 316.101 366.541 315.266C365.435 314.385 364.218 313.656 362.92 313.096C361.625 312.589 360.324 312.046 359.015 311.584C355.859 310.537 352.582 309.899 349.264 309.684C346.575 309.456 343.838 309.315 341.214 309.876C339.846 310.171 338.464 310.368 337.094 310.669C335.894 310.934 334.751 311.317 333.558 311.607C332.365 311.898 331.149 312.189 329.941 312.5C328.908 312.834 327.908 313.262 326.952 313.777C324.397 315.07 321.961 316.589 319.675 318.315C317.98 319.54 316.052 320.704 314.598 322.22C313.898 322.954 313.26 323.79 312.603 324.567C311.945 325.345 311.312 326.126 310.739 326.943C309.915 328.055 309.193 329.238 308.581 330.478C308.02 331.682 307.593 332.986 307.143 334.237C306.096 337.163 305.833 340.285 305.872 343.375C305.886 344.244 305.985 345.11 306.013 345.979C306.089 346.855 306.26 347.721 306.522 348.56C307.313 351.816 308.319 355.026 309.156 358.277C309.505 359.646 309.869 361.061 310.345 362.393C310.749 363.527 311.27 364.647 311.725 365.768C312.227 367.017 312.945 368.137 313.485 369.365C313.93 370.375 314.391 371.359 314.869 372.37C315.74 374.187 316.764 375.928 317.929 377.572C318.984 379.066 320.255 380.378 321.278 381.92C322.569 383.875 324.385 385.579 326.016 387.25C327.283 388.531 328.807 389.569 330.226 390.663C331.745 391.758 333.368 392.702 335.07 393.482C335.744 393.817 336.477 393.983 337.174 394.25C337.729 394.474 338.321 394.591 338.92 394.598C340.108 394.629 341.29 394.783 342.447 395.056C343.402 395.191 344.366 395.247 345.33 395.224C346.336 395.259 347.369 395.126 348.367 395.079C349.312 395.1 350.257 395.069 351.198 394.987C352.543 394.845 353.876 394.601 355.184 394.258C356.143 393.97 356.952 393.403 357.866 393.034C358.452 392.8 359.083 392.7 359.672 392.474C360.041 392.312 360.342 392.06 360.701 391.887C361.681 391.427 362.012 391.603 362.977 391.111L363.682 390.896C363.883 390.832 364.011 390.785 364.097 390.752C364.159 391.789 364.148 392.829 364.064 393.864C364.047 394.278 364.052 394.693 364.08 395.106C364.054 395.625 363.876 396.154 363.818 396.686C363.698 397.614 363.684 398.551 363.775 399.482C363.794 399.701 363.844 399.916 363.922 400.121C364.021 400.357 364.097 400.603 364.149 400.854C364.57 400.724 364.97 400.532 365.334 400.284C365.855 399.988 366.392 399.709 366.923 399.437C367.348 399.2 367.8 399.014 368.268 398.883C368.517 398.852 368.763 398.798 369.002 398.723C369.247 398.561 369.503 398.417 369.768 398.29C370.164 398.238 370.556 398.158 370.941 398.052C371.289 397.853 371.649 397.676 372.02 397.524C372.73 397.286 373.417 396.984 374.073 396.621C374.454 396.401 374.707 396.203 374.617 395.812C374.492 395.429 374.275 395.082 373.986 394.802C372.99 393.627 372.092 392.37 370.866 391.388C370.267 390.919 369.67 390.444 369.055 389.992C370.127 389.538 371.129 388.935 372.034 388.203C374.435 386.256 376.61 384.044 378.517 381.611C380.947 378.259 381.687 376.363 383.285 372.557C383.958 370.964 384.743 368.498 385.313 366.878C386.072 364.677 386.603 362.48 387.171 360.225C387.668 358.091 387.9 355.356 388.12 353.182C388.361 350.836 387.893 347.978 387.713 345.635C387.441 342.102 386.413 339.701 385.002 336.439C382.521 330.714 378.305 325.624 373.85 321.318Z" fill="#77B945"/>
<path d="M750.543 409.118C750.7 410.015 750.789 410.924 750.811 411.834L750.762 411.786C750.986 413.044 751.051 414.477 751.165 415.099L751.117 415.051L751.275 416.589L751.196 416.326C751.463 418.214 751.634 420.142 751.792 421.925H754.31C754.236 421.443 754.161 420.834 754.056 421.141C753.495 417.325 753.855 414.108 753.062 412.785C752.963 411.795 752.943 410.799 753.001 409.806L753.066 410.218C752.9 408.601 752.83 407.554 752.777 406.611C752.725 405.669 752.707 404.828 752.672 403.619C752.637 402.409 752.269 402.23 752.352 400.061C752.466 400.762 752.457 399.877 752.471 399.066C752.471 399.583 752.523 399.745 752.624 398.685C752.586 398.487 752.562 398.286 752.554 398.085C752.554 398.085 752.554 398.037 752.584 398.058C752.584 396.705 752.545 396.937 752.501 397.563C752.501 397.533 752.462 397.585 752.418 397.778C752.527 397.081 752.554 396.1 752.598 395.281C752.641 394.461 752.703 393.791 752.812 393.712C753.031 389.654 753.158 386.741 753.561 383.371C753.723 383.008 753.706 383.809 753.609 384.786L753.916 382.403C754.06 382.447 753.806 383.783 753.728 384.519C754.367 381.728 754.385 378.652 755.309 375.414V374.704L755.374 374.516C755.346 374.097 755.38 373.676 755.475 373.267C755.72 372.829 755.764 373.368 756.15 371.755C756.588 370.515 757.004 368.114 757.359 366.414C757.105 367.29 757.105 367.001 757.157 366.598C757.359 365.788 757.595 365.354 757.705 364.71L757.854 364.683C757.766 364.499 758.235 362.493 758.226 362.181C758.467 361.743 758.046 363.496 758.094 363.702C758.475 362.063 758.563 361.651 758.651 361.239C758.738 360.828 758.835 360.416 759.159 358.759C759.373 356.967 758.927 359.049 758.935 358.172C759.198 356.608 759.33 355.061 759.676 353.274L759.439 353.821C759.566 352.336 759.671 351.153 759.763 350.092C759.827 349.093 759.941 348.097 760.105 347.109C760.227 344.926 760.211 342.738 760.057 340.558C759.998 339.415 759.729 338.292 759.264 337.245C758.953 336.671 758.681 336.369 758.585 336.369C758.489 336.369 758.489 336.593 758.585 336.987C758.757 338.022 758.828 339.071 758.795 340.12C758.765 341.325 758.664 342.376 758.664 342.376C758.467 344.475 758.191 346.32 758.064 348.222C757.967 350.027 757.854 351.63 757.665 353.344C757.217 357.394 756.504 361.41 755.532 365.367C754.371 369.749 753.544 372.557 752.904 375.445C752.075 378.923 751.468 382.45 751.086 386.005C750.5 390.589 750.207 395.207 750.21 399.829C750.421 401.936 750.237 405.674 750.622 408.154C750.587 408.465 750.565 408.794 750.543 409.118Z" fill="#FDC504"/>
<path d="M794.772 273.848C794.115 272.244 793.506 270.57 792.744 269.028C792.127 267.762 791.224 266.587 790.519 265.365C789.862 264.114 789.042 262.956 788.08 261.921C787.099 260.935 786.126 259.914 785.114 258.963C782.647 256.735 779.905 254.831 776.954 253.298C774.585 252.005 772.137 250.774 769.509 250.231C768.138 249.95 766.793 249.574 765.418 249.297C764.213 249.056 763.013 248.947 761.804 248.732C760.595 248.518 759.365 248.294 758.134 248.093C757.054 247.982 755.966 247.971 754.884 248.057C752.024 248.211 749.183 248.621 746.395 249.28C744.35 249.718 742.116 250.007 740.176 250.809C739.239 251.199 738.319 251.707 737.403 252.154C736.488 252.601 735.594 253.061 734.74 253.578C733.539 254.264 732.402 255.056 731.341 255.944C730.343 256.821 729.427 257.842 728.512 258.806C726.375 261.062 724.877 263.814 723.668 266.658C723.331 267.459 723.072 268.292 722.748 269.098C722.465 269.931 722.273 270.792 722.174 271.666C721.587 274.965 721.215 278.308 720.672 281.621C720.44 283.014 720.203 284.456 720.102 285.867C720.015 287.067 720.041 288.303 720.006 289.512C719.962 290.857 720.168 292.172 720.168 293.513C720.168 294.617 720.194 295.704 720.225 296.821C720.29 298.835 720.526 300.841 720.93 302.815C721.294 304.607 721.929 306.32 722.244 308.143C722.638 310.452 723.615 312.744 724.434 314.93C725.078 316.613 726.055 318.177 726.913 319.75C727.863 321.364 728.968 322.881 730.211 324.281C730.693 324.859 731.298 325.306 731.828 325.832C732.246 326.26 732.741 326.606 733.286 326.853C734.361 327.36 735.381 327.977 736.33 328.693C737.15 329.201 738.01 329.641 738.901 330.008C739.808 330.446 740.807 330.739 741.74 331.099C742.596 331.498 743.473 331.85 744.368 332.155C745.656 332.566 746.974 332.88 748.309 333.092C749.304 333.215 750.272 333.022 751.257 333.053C751.888 333.075 752.506 333.237 753.136 333.268C753.539 333.268 753.916 333.158 754.314 333.145C755.396 333.119 755.628 333.412 756.71 333.351L757.442 333.438C757.652 333.46 757.788 333.469 757.88 333.473C757.519 334.447 757.09 335.395 756.596 336.308C756.414 336.68 756.251 337.062 756.11 337.452C755.878 337.916 755.501 338.328 755.234 338.793C754.751 339.593 754.36 340.446 754.069 341.334C753.998 341.542 753.957 341.759 753.947 341.978C753.941 342.235 753.912 342.49 753.859 342.741C754.297 342.791 754.74 342.777 755.173 342.697C755.769 342.636 756.373 342.596 756.969 342.561C757.453 342.516 757.941 342.527 758.423 342.596C758.663 342.668 758.909 342.717 759.159 342.745C759.448 342.695 759.741 342.666 760.035 342.657C760.418 342.769 760.809 342.854 761.204 342.912C761.603 342.869 762.004 342.853 762.404 342.863C763.15 342.931 763.901 342.931 764.647 342.863C765.085 342.815 765.396 342.736 765.47 342.342C765.511 341.941 765.452 341.536 765.299 341.163C764.861 339.687 764.546 338.175 763.819 336.782C763.46 336.111 763.105 335.436 762.724 334.775C763.888 334.79 765.048 334.643 766.171 334.337C769.153 333.522 772.034 332.374 774.76 330.915C778.334 328.825 779.775 327.387 782.771 324.548C784.028 323.361 785.741 321.42 786.915 320.166C788.496 318.458 789.867 316.661 791.295 314.825C792.609 313.072 793.923 310.663 795 308.761C796.165 306.71 796.888 303.906 797.667 301.689C798.841 298.346 798.867 295.734 798.889 292.181C798.924 285.941 797.116 279.583 794.772 273.848Z" fill="#FDC504"/>
</svg>
