<svg width="432" height="550" viewBox="0 0 432 550" fill="none" xmlns="http://www.w3.org/2000/svg">
<path d="M217.979 167.148L219.925 167.097C220.148 166.566 220.324 166.015 220.452 165.453C220.594 163.949 220.647 162.439 220.609 160.929C220.606 160.196 220.628 159.457 220.651 158.718C220.674 157.979 220.692 157.238 220.739 156.501C220.871 153.647 221.226 150.808 221.802 148.009L221.994 147.799C222.238 147.73 221.886 146.272 222.129 146.098L222.123 145.46C222.19 145.292 222.294 144.93 222.294 145.246C222.365 144.912 222.387 144.568 222.359 144.227L222.601 143.632C223.081 141.381 223.139 139.403 223.587 137.011C224.032 135.157 224.354 133.276 224.553 131.379C224.796 129.255 224.954 127.071 225.015 125.478C225.022 124.915 225.056 124.346 225.092 123.764C225.128 123.182 225.168 122.598 225.207 122.011C225.315 120.824 225.454 119.634 225.601 118.432C225.934 116.081 226.103 113.71 226.107 111.336C226.134 111.159 226.123 110.978 226.075 110.806C226.175 109.424 226.245 108.029 226.399 106.691L226.712 103.804C226.935 102.017 226.983 100.212 226.854 98.415C226.692 96.7839 226.271 95.7022 226.078 96.0222C225.884 96.3423 225.934 97.9976 225.117 101.676L225.075 101.571C224.741 103.792 224.495 105.216 224.608 106.826C224.44 106.933 224.39 107.411 224.368 107.927C224.378 108.364 224.356 108.802 224.3 109.235L224.279 109.183C224.431 110.587 223.903 112.033 224.034 113.384C223.993 113.328 223.964 113.265 223.948 113.197C223.933 113.129 223.931 113.059 223.943 112.991C223.925 113.967 223.91 115.307 223.724 115.369C223.628 117.699 223.348 120.965 223.536 122.448L223.494 122.343C223.627 123.198 223.466 123.437 223.472 124.379C223.442 124.427 223.424 124.495 223.415 124.483C223.45 125.078 223.428 125.674 223.349 126.265C223.27 126.913 223.185 127.547 223.19 127.906L223.071 127.953C223.017 128.563 222.938 129.17 222.869 129.781L223.002 129.096C223.295 129.385 222.635 130.458 222.642 131.794C222.425 133.024 222.941 134.404 222.562 135.674C222.616 136.31 222.404 135.092 222.371 136.03C222.197 136.03 222.336 135.586 222.161 135.797C222.098 136.71 221.749 137.242 221.682 138.368L221.541 138.391C221.54 139.88 220.909 141.076 220.984 142.092C220.843 143.604 220.43 143.034 220.435 144.63L220.159 145.21C220.019 145.878 220.301 145.721 220.104 146.449C219.999 146.389 219.864 147.355 219.83 146.923C219.397 148.579 219.58 150.376 219.018 152.566C219.184 153.076 218.935 154.184 219.066 154.574C218.951 154.62 218.861 156.834 218.755 155.546C218.744 155.437 218.765 155.246 218.799 155.26L218.681 155.096C218.332 156.359 218.618 157.437 218.518 158.706C218.584 158.331 218.6 157.83 218.67 158.171L218.586 159.348L218.488 159.099C218.431 159.681 218.382 160.272 218.35 160.865L218.492 160.622C218.392 161.473 218.148 161.797 218.346 162.744C218.444 163.176 218.541 161.949 218.57 162.838C218.513 163.4 218.438 164.087 218.325 164.784C218.213 165.482 218.053 166.202 217.892 166.867C218.004 166.794 218.008 166.934 217.979 167.148Z" fill="#15466B"/>
<path d="M189.043 63.1112C188.577 60.8187 188.432 58.4724 188.614 56.1401C188.955 52.1803 189.584 48.2507 190.495 44.3822C191.077 42.0428 191.809 39.7431 192.686 37.4975C193.159 36.3077 193.712 35.1508 194.339 34.0346C194.986 32.8248 195.52 31.558 196.244 30.3904C196.882 29.3625 197.617 28.4056 198.34 27.4409C198.965 26.6048 199.502 25.7103 200.168 24.8981C201.883 22.8503 203.768 20.9513 205.802 19.2212C206.975 18.1919 208.397 17.5258 209.641 16.6381C210.406 16.036 211.218 15.4954 212.068 15.0213C214.446 13.8119 216.943 12.8552 219.521 12.1668C220.7 11.8605 221.872 11.3708 223.074 11.1611C224.075 10.9782 225.094 10.8577 226.102 10.7126C228.202 10.4058 230.471 10.5755 232.588 10.6509C234.706 10.7263 236.883 10.7459 238.969 11.0165C240.951 11.2715 242.898 11.4592 244.76 12.1757C255.889 16.4547 261.375 24.7959 261.76 35.7471C261.832 37.7461 261.54 39.6952 261.618 41.688C261.671 43.9545 261.539 46.2215 261.225 48.4666C261.064 49.8163 260.898 51.1638 260.738 52.5169C260.522 54.3507 260.135 56.1022 259.767 57.9028C259.127 60.996 258.003 63.7702 256.707 66.6293C256.144 67.8666 255.605 69.0704 254.709 70.1116C253.682 71.3023 252.796 72.6235 251.794 73.8366C250.905 74.9072 250.06 76.0052 249.139 77.0443C248.126 78.1887 247.285 79.4596 246.26 80.5929C244.259 82.8029 241.544 85.1747 238.816 86.3477C236.79 87.2173 236.475 87.7316 234.429 88.5725C233.627 88.891 232.175 89.5409 231.42 89.9463C230.608 90.3823 228.945 90.4019 228.11 90.7987C227.834 90.9408 227.541 91.0475 227.238 91.1163C227.345 91.2201 227.451 91.3239 227.546 91.432C228.024 91.9721 228.481 92.5409 228.939 93.1013C229.834 94.2017 230.386 95.4993 231.033 96.7306C231.239 97.0356 231.364 97.3881 231.395 97.7547C231.401 98.1173 231.135 98.2636 230.749 98.3641C230.094 98.5575 229.421 98.6888 228.74 98.7564C228.379 98.8149 228.023 98.8996 227.674 99.0099C227.301 99.0929 226.959 98.9569 226.579 98.9902C226.318 99.0497 226.062 99.1272 225.812 99.222C225.584 99.2417 225.355 99.2418 225.127 99.2223C224.685 99.245 224.246 99.321 223.822 99.4486C223.289 99.5872 222.758 99.7293 222.235 99.8924C221.862 100.041 221.469 100.131 221.069 100.161C221.07 99.9268 221.051 99.693 221.01 99.4623C220.983 99.2641 220.981 99.0633 221.004 98.8646C221.108 98.0181 221.308 97.1863 221.6 96.3851C221.741 95.9235 222.009 95.4847 222.131 95.0266C222.188 94.6536 222.266 94.2841 222.364 93.92C222.744 92.9055 222.825 91.8755 223.078 90.8585C222.634 90.7229 222.184 90.6108 221.728 90.5226C221.274 90.4598 220.818 90.4138 220.362 90.3595C219.24 90.2332 218.127 90.0302 217.032 89.7518C216.58 89.6352 216.056 89.5513 215.615 89.3899C215.174 89.2284 214.769 88.7893 214.343 88.5446C213.917 88.3 213.394 88.0334 212.937 87.7404C212.35 87.4162 211.735 87.1432 211.101 86.9245C210.433 86.6421 209.752 86.3653 209.103 86.0473C208.494 85.6968 207.911 85.3018 207.36 84.8656C206.646 84.4634 205.899 84.1224 205.127 83.8465C204.48 83.5103 203.856 83.1323 203.259 82.7149C202.486 82.2391 201.682 81.808 200.964 81.2539C200.04 80.4898 199.196 79.6352 198.442 78.7027C197.441 77.5796 196.362 76.5277 195.312 75.4444C194.884 75.0307 194.518 74.5571 194.226 74.0384C193.851 73.4225 193.438 72.8309 192.988 72.2673C192.624 71.7387 192.372 71.125 192.035 70.5733C191.522 69.7307 191.066 68.8169 190.587 67.9485C189.728 66.4283 189.365 64.8001 189.043 63.1112Z" fill="#15466B"/>
<path d="M114.49 196.217C114.377 196.188 113.96 196.418 113.388 196.924C112.816 197.429 112.017 198.535 111.212 200.281C110.406 202.027 109.572 204.427 108.594 207.515C108.403 208.671 108.128 209.738 107.806 210.954C107.485 212.17 107.138 213.516 106.7 215.213L106.651 214.506C106.333 216.627 105.877 218.394 105.556 220.224C105.202 221.196 105.538 218.719 105.072 220.786C104.785 222.748 104.718 223.239 104.665 223.73C104.612 224.222 104.535 224.713 104.312 226.678C104.453 226.445 104.665 224.366 104.764 224.942C104.641 225.261 104.365 227.692 104.192 227.858L104.347 227.947C104.206 228.696 104.309 229.275 104.213 230.254C104.114 230.721 103.994 231.064 104.068 229.968C103.793 231.99 103.319 234.817 103.312 236.358C103.104 238.295 103.362 237.726 103.464 238.298C103.372 238.874 103.164 239.744 103.09 239.712V239.949L102.835 240.74C102.592 244.688 101.422 248.106 101.02 251.442C101.221 250.597 101.461 249.021 101.641 249.028L101.048 251.788C101.32 250.668 101.613 249.774 101.652 250.24C100.783 254.128 99.7759 257.404 98.4299 261.984C98.5218 262.111 98.3169 262.871 98.0519 263.804C97.787 264.737 97.4266 265.826 97.2747 266.632C97.303 266.402 97.2959 266.335 97.2747 266.363C97.4761 265.656 97.5149 265.377 96.9921 266.876C97.0133 266.854 97.0098 266.907 97.0168 266.918C96.9277 267.137 96.8226 267.35 96.7024 267.554C96.3986 268.77 96.5081 268.614 96.7236 268.038C96.4198 268.94 96.063 269.918 96.4622 269.183C95.7097 271.618 95.2787 271.703 94.7134 273C94.1482 274.297 93.8726 275.255 93.4275 276.273C92.9823 277.291 92.5125 278.429 91.6929 280.161L91.9296 279.733C91.5409 280.712 91.5763 281.147 90.6895 283.002C89.2941 284.158 88.4356 287.865 86.3159 291.869C86.3159 291.244 85.4574 293.385 85.3585 293.124C83.7475 297.192 81.8787 300.143 80.0204 304.652L80.1441 304.433C79.766 305.709 78.2575 308.639 77.6287 309.576C78.0562 309.067 77.2401 310.989 77.5828 310.586C76.8974 311.544 75.3112 315.244 75.3112 315.244C75.184 316.089 73.6507 318.863 72.983 320.772L71.6406 323.023L72.2023 322.263C71.6194 323.511 71.6512 323.811 71.9585 323.323C71.7359 323.907 71.5452 324.165 71.1424 325.006L71.4639 324.681C71.3134 325.099 71.1217 325.502 70.8916 325.882L70.8916 331.184L72.4425 327.734L72.0892 328.367C72.7181 326.953 73.4776 325.387 73.6295 325.465C73.5977 325.168 73.3363 325.465 74.1418 323.638C74.4951 323.751 75.728 321.122 76.9327 318.655C76.8621 318.69 77.2683 317.711 76.9045 318.358C79.8438 313.166 80.4373 309.752 83.3271 304.734L83.2565 304.773C84.924 300.532 86.0827 299.008 87.9834 294.322L88.0823 294.584C89.015 292.41 90.1455 289.989 91.3537 287.667L91.1629 287.922L91.9402 286.282L91.8695 286.321C92.2228 285.674 92.8728 284.112 93.6112 282.808L93.5405 282.843C93.9275 281.847 94.3868 280.881 94.9148 279.952C95.0208 279.599 95.1232 279.217 95.2151 278.842C96.6282 276.245 97.8718 272.032 98.9351 269.777C100.754 264.661 102.243 259.434 103.394 254.128C104.361 250.042 105.069 245.898 105.513 241.723C105.905 238.284 106.096 234.831 106.52 229.544C106.994 224.776 107.778 220.044 108.869 215.379C109.336 213.407 109.837 211.587 110.434 209.551C111.039 207.409 111.459 205.243 112.063 202.836C112.063 202.836 112.367 201.631 112.805 200.285C113.179 199.112 113.668 197.979 114.264 196.902C114.508 196.503 114.617 196.241 114.49 196.217Z" fill="#D0468B"/>
<path d="M180.565 135.768C180.519 134.747 180.565 133.722 180.501 132.704C180.279 129.078 179.699 125.448 178.212 122.101C177.576 120.688 176.965 119.189 176.202 117.825C175.379 116.425 174.433 115.102 173.375 113.87C172.626 112.965 171.807 112.085 170.984 111.248C170.161 110.41 169.323 109.481 168.437 108.675C166.599 107.025 164.243 105.823 162.148 104.54C159.272 102.773 156.4 101.101 153.252 99.8678C152.076 99.4083 150.885 98.8676 149.642 98.6308C148.201 98.3587 146.766 98.1396 145.325 97.8993C143.883 97.6589 142.527 97.3161 141.085 97.1076C139.453 96.8743 137.821 96.7542 136.192 96.5386C133.013 96.1039 129.833 96.5139 126.717 97.0122C122.87 97.6271 119.044 98.5142 115.458 100.087C113.964 100.741 112.491 101.501 111.018 102.207C109.481 102.939 108.248 103.975 106.969 105.067C105.69 106.159 104.245 107.088 103.083 108.247C101.631 109.661 100.299 111.29 98.9459 112.806C94.0953 118.238 89.5945 124.572 87.1993 131.502C85.8321 135.446 84.8358 138.348 84.8252 142.511C84.8252 145.271 84.5214 148.664 85.0089 151.393C85.4541 153.916 85.9487 157.114 86.7365 159.557C87.5773 162.161 88.3969 164.671 89.4779 167.187C90.2834 169.053 91.4175 171.873 92.3395 173.683C94.5617 178.001 95.5791 180.157 98.7198 183.872C100.557 186.049 104.485 189.445 106.888 191.032C108.014 191.809 109.242 192.426 110.537 192.866C109.859 193.446 109.198 194.057 108.541 194.662C107.195 195.899 106.255 197.447 105.188 198.903C104.871 199.254 104.647 199.679 104.538 200.14C104.468 200.603 104.786 200.818 105.245 201.037C106.041 201.408 106.868 201.706 107.718 201.928C108.172 202.074 108.616 202.251 109.046 202.458C109.523 202.642 109.965 202.525 110.459 202.638C110.782 202.761 111.095 202.907 111.396 203.076C111.682 203.144 111.974 203.185 112.268 203.2C112.828 203.313 113.372 203.492 113.89 203.734C114.54 204.01 115.193 204.289 115.829 204.593C116.277 204.849 116.761 205.038 117.264 205.155C117.306 204.855 117.375 204.559 117.468 204.271C117.542 204.025 117.581 203.771 117.585 203.515C117.611 202.416 117.512 201.318 117.288 200.242C117.189 199.634 116.935 199.023 116.861 198.415C116.858 197.929 116.828 197.445 116.773 196.962C116.504 195.732 116.546 194.531 116.462 193.319C116.568 193.35 116.72 193.396 116.963 193.456L117.808 193.644C118.998 194.142 119.355 193.898 120.542 194.351C120.977 194.517 121.344 194.806 121.8 194.944C122.506 195.16 123.255 195.22 123.962 195.443C125.064 195.796 126.06 196.39 127.212 196.644C128.769 196.93 130.346 197.097 131.928 197.146C133.069 197.224 134.119 197.04 135.246 197.005C136.373 196.969 137.634 197.047 138.814 196.909C139.916 196.782 141.117 196.764 142.181 196.45C143.512 196.032 144.883 195.749 146.272 195.605C146.973 195.549 147.658 195.359 148.289 195.047C149.084 194.672 149.925 194.414 150.684 193.965C152.574 192.841 154.464 191.718 156.114 190.24C157.683 188.827 159.378 187.484 160.749 185.876C162.516 183.783 164.515 181.635 165.858 179.228C166.917 177.344 168.288 175.694 169.39 173.838C170.613 171.801 171.661 169.663 172.52 167.448C172.987 166.236 173.45 165.031 173.881 163.808C174.403 162.324 175.149 160.953 175.629 159.44C176.06 158.09 176.576 156.729 176.951 155.365C177.389 153.768 177.692 152.075 177.982 150.442C178.689 146.554 179.575 142.713 180.218 138.829C180.367 137.793 180.614 136.835 180.565 135.768Z" fill="#D0468B"/>
<path d="M376.83 153.355L75.1687 153.355C63.7916 153.355 53.9998 162.578 53.9998 173.955L53.9998 334.671C53.9998 337.639 55.318 340.453 57.5979 342.353L74.6876 356.595C79.5161 360.619 79.4793 368.047 74.6111 372.022L57.6744 385.854C55.3489 387.753 53.9998 390.597 53.9998 393.599V528.755C53.9998 540.132 63.7924 549.355 75.1695 549.355H376.824C388.201 549.355 398 540.132 398 528.755V393.599C398 390.597 396.651 387.753 394.325 385.854L377.388 372.022C372.52 368.047 372.483 360.619 377.312 356.595L394.402 342.353C396.682 340.453 398 337.639 398 334.671L398 173.955C398 162.578 388.207 153.355 376.83 153.355Z" fill="#FDC504"/>
<path d="M31.2347 478.813H33.5179C33.7964 478.194 34.0206 477.552 34.1879 476.894C34.4001 475.129 34.5055 473.352 34.5035 471.574C34.5035 470.712 34.5744 469.85 34.6205 468.981C34.6666 468.112 34.7162 467.247 34.7942 466.382C35.0348 463.037 35.5386 459.716 36.301 456.451L36.5314 456.21C36.815 456.135 36.4463 454.415 36.737 454.22V453.472C36.8221 453.273 36.9533 452.855 36.9462 453.227C37.0362 452.835 37.072 452.433 37.0526 452.032L37.3539 451.34C37.985 448.712 38.1162 446.396 38.7118 443.601C39.2907 441.44 39.7265 439.244 40.0165 437.026C40.371 434.543 40.6192 431.982 40.7255 430.11C40.7504 429.453 40.8071 428.783 40.8674 428.106C40.9276 427.428 40.9914 426.74 41.073 426.045C41.2361 424.655 41.4275 423.264 41.6438 421.856C42.0515 419.047 42.4521 416.228 42.4557 413.55C42.4951 413.343 42.4866 413.129 42.4308 412.926C42.5939 411.312 42.718 409.673 42.9378 408.106C42.9378 408.106 43.1364 406.648 43.3952 404.733C43.654 402.818 43.8844 400.331 43.7284 398.413C43.5724 396.494 43.1222 395.221 42.8882 395.575C42.5904 395.93 42.6578 397.891 41.5977 402.204L41.5516 402.08C41.1084 404.669 40.7681 406.336 40.8425 408.23C40.644 408.354 40.5695 408.911 40.5306 409.514C40.5286 410.028 40.4883 410.541 40.41 411.05L40.3852 410.986C40.5199 412.642 39.8605 414.32 39.9704 415.912C39.9249 415.844 39.8933 415.768 39.8775 415.687C39.8617 415.607 39.8619 415.524 39.8782 415.444C39.8215 416.59 39.7648 418.161 39.5485 418.228C39.3641 420.956 38.9351 424.782 39.1089 426.531L39.0628 426.407C39.1904 427.411 38.9954 427.687 38.9741 428.797C38.9387 428.854 38.9174 428.932 38.9068 428.918C38.9298 429.618 38.8847 430.319 38.7721 431.01C38.6622 431.766 38.5345 432.493 38.5239 432.933L38.375 432.968C38.2934 433.678 38.1835 434.387 38.0843 435.096L38.2403 434.305C38.57 434.642 37.7616 435.88 37.7368 437.462C37.4461 438.881 38.0063 440.533 37.5454 442.002C37.5879 442.754 37.3752 441.321 37.3114 442.413C37.1093 442.413 37.283 441.892 37.0738 442.136C36.9675 443.2 36.5456 443.821 36.4286 445.14L36.2655 445.162C36.2194 446.907 35.4465 448.311 35.4997 449.489C35.287 451.262 34.819 450.574 34.7906 452.45L34.4361 453.121C34.2624 453.894 34.5921 453.727 34.3333 454.575C34.2127 454.497 34.0319 455.639 34 455.121C33.4434 457.05 33.6065 459.161 32.8762 461.718C33.057 462.321 32.7308 463.615 32.8762 464.062C32.7379 464.115 32.5642 466.708 32.4791 465.194C32.4791 465.066 32.5004 464.839 32.5429 464.86L32.4082 464.665C31.9579 466.133 32.2593 467.407 32.1068 468.893C32.1919 468.457 32.2274 467.868 32.3018 468.269L32.1671 469.648L32.0607 469.354C31.9756 470.035 31.9012 470.73 31.8445 471.418L32.0217 471.141C31.8835 472.149 31.6034 472.503 31.7842 473.624C31.887 474.135 32.0395 472.698 32.043 473.745C31.9615 474.401 31.8516 475.206 31.6885 476.022C31.5254 476.837 31.3339 477.674 31.1177 478.451C31.2737 478.401 31.2772 478.561 31.2347 478.813Z" fill="#15466B"/>
<path d="M67.369 297.768C65.2063 296.87 62.9267 296.594 60.6116 296.232C58.1724 295.856 55.602 295.764 53.1345 295.611C50.6669 295.459 47.9973 295.193 45.5226 295.487C44.3385 295.629 43.1366 295.739 41.9595 295.923C40.5414 296.15 39.1587 296.69 37.7654 297.016C34.7188 297.744 31.7575 298.791 28.9304 300.14C27.9189 300.668 26.9515 301.277 26.0374 301.96C24.5236 302.974 22.8466 303.712 21.4285 304.886C18.987 306.852 16.7169 309.022 14.6427 311.373C13.8485 312.306 13.1891 313.338 12.4304 314.299C11.5547 315.409 10.6577 316.512 9.8813 317.697C8.99496 319.048 8.33199 320.516 7.53783 321.914C6.7663 323.206 6.08286 324.548 5.49218 325.932C4.399 328.54 3.47412 331.215 2.72326 333.941C1.53493 338.451 0.67704 343.042 0.156431 347.677C-0.12452 350.408 -0.026685 353.165 0.447152 355.87C0.773323 357.86 1.15622 359.771 2.09928 361.573C2.64172 362.605 3.14515 363.701 3.72304 364.694C4.10239 365.35 4.37893 366.081 4.78665 366.709C5.29653 367.389 5.76421 368.099 6.18706 368.837C6.50976 369.457 6.92454 370.025 7.41729 370.521C8.61207 371.83 9.84585 373.093 10.991 374.423C11.9021 375.487 12.7637 376.618 13.8698 377.494C14.7101 378.157 15.6248 378.693 16.5182 379.267C17.2048 379.776 17.925 380.239 18.6737 380.651C19.5282 381.062 20.4925 381.36 21.2689 381.917C21.9603 382.41 22.5063 382.956 23.2756 383.357C24.0449 383.758 24.8178 384.091 25.5872 384.442C26.3383 384.732 27.062 385.088 27.7498 385.506C28.2816 385.861 28.8312 386.166 29.3771 386.492C29.8699 386.79 30.306 387.311 30.8449 387.524C31.3838 387.737 31.9652 387.84 32.4935 387.989C33.7735 388.349 35.0765 388.621 36.3934 388.805C36.9252 388.883 37.457 388.95 37.9888 389.035C38.5216 389.153 39.0482 389.297 39.5664 389.468C39.2367 390.656 39.1091 391.862 38.634 393.039C38.5091 393.465 38.4061 393.897 38.3256 394.334C38.1696 394.866 37.8434 395.377 37.6626 395.909C37.296 396.841 37.0367 397.812 36.8897 398.803C36.857 399.038 36.857 399.277 36.8897 399.512C36.9282 399.785 36.9436 400.06 36.9358 400.335C37.4061 400.311 37.87 400.215 38.3114 400.051C38.9318 399.877 39.5629 399.728 40.1869 399.579C40.6905 399.445 41.208 399.369 41.7291 399.352C41.995 399.384 42.263 399.392 42.5303 399.377C42.8262 399.272 43.1296 399.189 43.438 399.129C43.8847 399.101 44.264 399.274 44.7214 399.182C45.1347 399.066 45.5551 398.978 45.98 398.916C46.7794 398.85 47.571 398.71 48.3447 398.498C48.7914 398.374 49.1105 398.228 49.1176 397.788C49.0903 397.358 48.955 396.942 48.7241 396.579C47.9937 395.096 47.3875 393.557 46.37 392.238C45.8523 391.567 45.3312 390.89 44.7887 390.237C44.6788 390.11 44.5618 389.986 44.4342 389.861C44.7919 389.788 45.1386 389.669 45.4659 389.507C46.448 389.071 48.4014 389.095 49.3658 388.609C50.2663 388.155 51.9929 387.45 52.9359 387.091C55.3538 386.166 55.7367 385.573 58.1369 384.609C61.3774 383.314 64.6355 380.612 67.0464 378.079C68.2872 376.781 69.3119 375.313 70.535 374.004C71.6482 372.812 72.6622 371.55 73.7471 370.319C74.9596 368.925 76.0374 367.404 77.2924 366.035C78.3737 364.843 79.0438 363.449 79.7387 362.013C81.3518 358.697 82.7487 355.462 83.5996 351.862C84.0959 349.755 84.5923 347.72 84.9007 345.57C85.1276 343.992 85.3651 342.414 85.6098 340.839C86.0428 338.213 86.2645 335.556 86.2728 332.894C86.2444 330.557 86.6273 328.284 86.6273 325.929C86.4784 313.075 80.2953 303.127 67.369 297.768Z" fill="#15466B"/>
<path d="M400.322 316.735C400.23 316.766 400.054 317.118 399.893 317.711C399.708 318.784 399.718 319.881 399.924 320.95C400.281 322.999 400.771 325.023 401.388 327.009C401.771 327.877 402.065 328.718 402.386 329.686C402.707 330.654 403.082 331.713 403.533 333.059L403.189 332.604C403.919 334.18 404.397 335.572 405.001 336.961C405.208 337.768 404.317 335.947 404.925 337.554C405.605 339.011 405.789 339.367 405.965 339.726C406.141 340.086 406.316 340.449 407.047 341.876C407.047 341.654 406.252 340.151 406.576 340.499C406.634 340.766 407.532 342.537 407.494 342.725H407.636C407.876 343.295 408.205 343.643 408.576 344.346C408.718 344.706 408.79 344.993 408.35 344.22C409.065 345.708 410.01 347.831 410.694 348.875C411.417 350.275 411.336 349.774 411.661 350.118C411.845 350.472 411.974 350.853 412.044 351.246L412.147 351.407L412.331 352.053C413.929 354.834 414.647 357.672 415.879 360.085C415.641 359.423 415.114 358.249 415.221 358.173L416.054 360.299C415.737 359.42 415.538 358.685 415.771 358.984C416.918 362.001 417.683 364.667 418.83 368.362C418.949 368.408 419.151 369.012 419.388 369.758C419.625 370.504 419.87 371.406 420.13 372.026C420.046 371.858 420.011 371.816 420 371.85C419.82 371.28 419.721 371.085 420.042 372.32C420.042 372.298 420.065 372.32 420.076 372.34C420.112 372.528 420.136 372.718 420.149 372.909C420.486 373.866 420.486 373.709 420.379 373.227C420.577 373.992 420.761 374.791 420.715 374.118C421.292 376.099 421.036 376.348 421.239 377.48C421.441 378.612 421.675 379.392 421.828 380.264C421.98 381.137 422.172 382.131 422.39 383.661L422.359 383.278C422.531 384.112 422.764 384.388 422.982 386.044C422.554 387.447 423.628 390.335 423.984 393.988C423.709 393.563 424.079 395.399 423.896 395.265C424.626 398.734 424.661 401.564 425.425 405.443V405.24C425.772 406.747 425.972 408.284 426.022 409.83C426.083 409.294 426.404 410.977 426.442 410.533C426.404 411.486 426.985 414.695 426.985 414.695C427.276 415.326 427.482 417.885 427.88 419.472L427.979 421.595L428.021 420.83C428.182 421.931 428.339 422.122 428.335 421.664C428.446 422.157 428.43 422.428 428.534 423.167L428.606 422.784C428.685 423.125 428.732 423.472 428.748 423.821L431.122 427.416L430.629 424.391L430.678 424.972C430.464 423.729 430.296 422.34 430.422 422.325C430.265 422.138 430.223 422.451 429.952 420.86C430.254 420.769 429.902 418.451 429.616 416.248C429.581 416.301 429.421 415.456 429.463 416.06C429.13 411.237 428.006 408.663 427.719 403.982L427.689 404.035C426.924 400.417 427.016 398.883 426.217 394.856L426.4 394.99C426.06 393.104 425.735 390.955 425.521 388.851V389.111L425.314 387.654L425.284 387.711C425.242 387.111 424.974 385.768 424.901 384.56L424.871 384.617C424.682 383.769 424.554 382.909 424.489 382.043C424.397 381.748 424.301 381.454 424.194 381.159C423.984 378.777 422.952 375.369 422.665 373.372C421.606 369.102 420.275 364.904 418.681 360.804C417.512 357.61 416.141 354.493 414.579 351.472C413.309 348.974 411.902 346.553 409.822 342.79C408.012 339.357 406.428 335.809 405.082 332.168C404.516 330.638 404.042 329.174 403.552 327.533C403.006 325.815 402.321 324.163 401.641 322.27C401.641 322.27 401.308 321.318 401.002 320.216C400.731 319.255 400.556 318.27 400.478 317.275C400.463 316.919 400.417 316.693 400.322 316.735Z" fill="#D0468B"/>
<path d="M427.432 282.313C427.302 280.572 427.49 278.832 427.432 277.092C427.35 275.169 427.105 273.256 426.698 271.374C426.469 270.349 426.243 269.328 425.987 268.314C425.678 267.075 425.571 265.817 425.223 264.581C424.913 263.476 424.653 262.328 424.297 261.238C423.881 259.961 423.326 258.68 422.795 257.448C421.533 254.514 420.421 251.512 419.121 248.601C418.829 247.816 418.454 247.064 418 246.36C417.515 245.691 417.087 244.979 416.59 244.322C414.823 241.969 412.805 239.774 410.312 238.202C409.245 237.521 408.167 236.791 407.043 236.209C405.86 235.631 404.628 235.16 403.361 234.802C402.451 234.526 401.503 234.297 400.574 234.102C399.645 233.907 398.662 233.639 397.703 233.498C395.726 233.203 393.597 233.448 391.608 233.498C388.889 233.53 386.178 233.805 383.507 234.32C382.489 234.484 381.488 234.74 380.517 235.085C379.42 235.544 378.353 236.037 377.271 236.519C376.189 237.001 375.122 237.376 374.063 237.873C372.859 238.443 371.704 239.101 370.504 239.674C368.172 240.795 366.203 242.493 364.314 244.23C361.932 246.329 359.829 248.725 358.055 251.359C357.337 252.468 356.675 253.654 355.995 254.771C355.345 255.949 354.855 257.208 354.538 258.515C354.156 259.808 353.597 261.097 353.318 262.409C352.974 264.019 352.795 265.706 352.554 267.339C351.705 273.172 351.495 279.463 352.967 285.216C353.808 288.494 354.431 290.899 356.281 293.718C357.512 295.585 358.824 298.009 360.368 299.639C361.802 301.142 363.565 303.081 365.186 304.381C366.918 305.766 368.592 307.097 370.447 308.313C371.823 309.216 373.849 310.608 375.279 311.423C378.72 313.354 380.36 314.353 384.142 315.462C386.994 316.181 389.918 316.579 392.859 316.647C393.967 316.674 395.074 316.546 396.147 316.265C395.944 316.961 395.764 317.672 395.596 318.372C395.241 319.81 395.294 321.275 395.214 322.744C395.155 323.122 395.193 323.509 395.325 323.869C395.481 324.213 395.795 324.217 396.204 324.159C396.909 324.056 397.603 323.887 398.276 323.654C398.644 323.552 399.018 323.474 399.396 323.421C399.779 323.333 400.046 323.039 400.417 322.92C400.69 322.86 400.968 322.819 401.247 322.798C401.47 322.713 401.686 322.611 401.893 322.492C402.321 322.313 402.769 322.184 403.227 322.109C403.789 322.006 404.351 321.903 404.917 321.822C405.336 321.798 405.748 321.711 406.141 321.562C406.035 321.341 405.949 321.11 405.885 320.874C405.823 320.676 405.735 320.487 405.625 320.312C405.152 319.556 404.594 318.858 403.961 318.231C403.625 317.848 403.197 317.565 402.86 317.191C402.64 316.863 402.403 316.548 402.149 316.246C401.48 315.517 400.866 314.739 400.31 313.92C400.398 313.897 400.52 313.859 400.692 313.79L401.35 313.542C402.375 313.347 402.497 313.022 403.514 312.8C403.896 312.719 404.279 312.75 404.63 312.643C405.204 312.471 405.735 312.176 406.313 312.012C407.215 311.759 408.156 311.714 409.046 311.369C411.066 310.538 412.95 309.41 414.636 308.023C415.401 307.476 416.269 306.986 417.006 306.367C417.745 305.82 418.437 305.212 419.075 304.55C419.788 303.671 420.589 302.868 421.464 302.152C421.911 301.799 422.289 301.365 422.577 300.874C422.959 300.262 423.399 299.727 423.724 299.069C424.552 297.491 425.223 295.836 425.727 294.127C426.163 292.475 426.706 290.804 426.913 289.105C427.218 286.879 427.597 284.535 427.432 282.313Z" fill="#D0468B"/>
</svg>
