<svg width="1179" height="687" viewBox="0 0 1179 687" fill="none" xmlns="http://www.w3.org/2000/svg">
<path d="M376.363 249.294C376.189 249.251 375.544 249.605 374.66 250.386C373.776 251.167 372.542 252.876 371.298 255.574C370.053 258.271 368.765 261.979 367.253 266.752C366.958 268.537 366.532 270.186 366.036 272.065C365.539 273.943 365.004 276.024 364.327 278.645L364.251 277.553C363.76 280.829 363.055 283.559 362.559 286.388C362.013 287.89 362.531 284.062 361.811 287.256C361.369 290.287 361.265 291.046 361.183 291.805C361.101 292.564 360.981 293.323 360.637 296.359C360.856 295.999 361.183 292.788 361.336 293.678C361.145 294.169 360.719 297.926 360.452 298.183L360.692 298.319C360.474 299.477 360.632 300.373 360.484 301.885C360.332 302.606 360.146 303.136 360.261 301.443C359.835 304.566 359.103 308.935 359.093 311.316C358.77 314.308 359.169 313.429 359.327 314.313C359.185 315.204 358.863 316.547 358.749 316.498V316.864L358.356 318.087C357.979 324.186 356.172 329.467 355.55 334.621C355.861 333.316 356.232 330.881 356.511 330.892L355.594 335.157C356.014 333.426 356.467 332.044 356.527 332.765C355.184 338.771 353.629 343.833 351.549 350.91C351.691 351.107 351.374 352.281 350.965 353.723C350.555 355.164 349.999 356.846 349.764 358.091C349.808 357.736 349.797 357.632 349.764 357.676C350.075 356.584 350.135 356.152 349.327 358.468C349.36 358.435 349.355 358.517 349.366 358.533C349.228 358.872 349.065 359.201 348.88 359.516C348.41 361.395 348.58 361.154 348.912 360.264C348.443 361.657 347.892 363.169 348.509 362.034C347.346 365.796 346.68 365.927 345.807 367.931C344.933 369.935 344.507 371.415 343.82 372.987C343.132 374.56 342.406 376.318 341.14 378.994L341.505 378.333C340.905 379.846 340.959 380.518 339.589 383.384C337.433 385.17 336.107 390.898 332.832 397.085C332.832 396.119 331.505 399.428 331.353 399.024C328.863 405.309 325.976 409.868 323.105 416.836L323.296 416.497C322.712 418.469 320.381 422.996 319.409 424.443C320.07 423.656 318.809 426.627 319.338 426.004C318.279 427.484 315.829 433.201 315.829 433.201C315.632 434.506 313.263 438.793 312.231 441.742L310.157 445.22L311.025 444.046C310.124 445.974 310.174 446.438 310.648 445.684C310.305 446.585 310.01 446.984 309.388 448.284L309.884 447.781C309.652 448.428 309.355 449.05 309 449.638L309 457.829L311.396 452.499L310.85 453.477C311.822 451.292 312.996 448.873 313.23 448.993C313.181 448.535 312.777 448.993 314.022 446.17C314.568 446.345 316.473 442.282 318.334 438.471C318.225 438.525 318.853 437.013 318.29 438.012C322.832 429.991 323.749 424.716 328.214 416.962L328.105 417.022C330.681 410.469 332.472 408.115 335.408 400.875L335.561 401.279C337.002 397.921 338.749 394.18 340.616 390.592L340.321 390.986L341.522 388.452L341.413 388.512C341.958 387.513 342.963 385.099 344.104 383.084L343.994 383.139C344.592 381.6 345.302 380.107 346.118 378.672C346.281 378.126 346.44 377.536 346.582 376.957C348.765 372.944 350.686 366.435 352.329 362.951C355.14 355.047 357.441 346.97 359.218 338.771C360.713 332.458 361.807 326.056 362.493 319.605C363.099 314.292 363.394 308.957 364.049 300.788C364.781 293.421 365.993 286.11 367.679 278.902C368.399 275.855 369.174 273.042 370.097 269.897C371.03 266.588 371.68 263.241 372.613 259.522C372.613 259.522 373.083 257.66 373.76 255.579C374.338 253.768 375.093 252.017 376.014 250.354C376.39 249.737 376.56 249.332 376.363 249.294Z" fill="#D0468B"/>
<path d="M478.453 155.896C478.382 154.318 478.453 152.735 478.355 151.162C478.011 145.559 477.116 139.951 474.818 134.78C473.835 132.596 472.891 130.281 471.712 128.173C470.441 126.01 468.979 123.965 467.345 122.062C466.188 120.665 464.922 119.305 463.65 118.011C462.378 116.717 461.084 115.28 459.714 114.035C456.876 111.485 453.235 109.629 449.998 107.646C445.555 104.916 441.117 102.333 436.254 100.428C434.436 99.7177 432.597 98.8822 430.675 98.5164C428.448 98.0959 426.232 97.7573 424.005 97.386C421.778 97.0147 419.682 96.485 417.455 96.1629C414.933 95.8025 412.411 95.6168 409.895 95.2837C404.982 94.612 400.069 95.2455 395.255 96.0154C389.311 96.9656 383.399 98.3362 377.859 100.766C375.55 101.776 373.274 102.95 370.998 104.042C368.623 105.173 366.718 106.773 364.742 108.46C362.766 110.147 360.534 111.584 358.738 113.375C356.494 115.559 354.436 118.076 352.346 120.419C344.851 128.812 337.897 138.597 334.196 149.305C332.084 155.399 330.545 159.882 330.528 166.315C330.528 170.58 330.059 175.822 330.812 180.037C331.5 183.936 332.264 188.878 333.481 192.651C334.78 196.676 336.047 200.553 337.717 204.441C338.962 207.324 340.714 211.682 342.139 214.477C345.572 221.15 347.144 224.481 351.997 230.22C354.835 233.584 360.905 238.832 364.617 241.283C366.357 242.484 368.254 243.437 370.255 244.118C369.207 245.013 368.186 245.958 367.171 246.891C365.091 248.803 363.639 251.194 361.991 253.444C361.5 253.986 361.155 254.644 360.987 255.355C360.877 256.071 361.369 256.404 362.078 256.742C363.308 257.316 364.587 257.776 365.899 258.118C366.601 258.345 367.287 258.618 367.952 258.938C368.689 259.221 369.371 259.041 370.135 259.216C370.634 259.405 371.117 259.632 371.582 259.893C372.024 259.998 372.476 260.062 372.93 260.084C373.795 260.258 374.636 260.535 375.435 260.909C376.44 261.335 377.449 261.766 378.432 262.236C379.124 262.632 379.871 262.924 380.648 263.104C380.714 262.641 380.82 262.184 380.965 261.739C381.078 261.359 381.139 260.966 381.145 260.57C381.185 258.873 381.032 257.176 380.686 255.514C380.534 254.575 380.14 253.63 380.026 252.691C380.021 251.941 379.975 251.191 379.889 250.446C379.475 248.546 379.54 246.689 379.409 244.816C379.573 244.866 379.808 244.937 380.184 245.029L381.489 245.319C383.328 246.089 383.88 245.712 385.714 246.411C386.385 246.668 386.953 247.115 387.657 247.328C388.749 247.661 389.906 247.754 390.997 248.098C392.7 248.644 394.24 249.562 396.019 249.955C398.425 250.396 400.861 250.655 403.306 250.73C405.069 250.85 406.691 250.566 408.432 250.512C410.173 250.457 412.122 250.577 413.945 250.364C415.648 250.168 417.504 250.141 419.147 249.655C421.205 249.008 423.322 248.571 425.468 248.349C426.552 248.262 427.61 247.969 428.585 247.487C429.813 246.908 431.112 246.509 432.285 245.816C435.206 244.079 438.126 242.343 440.675 240.06C443.099 237.876 445.719 235.801 447.837 233.316C450.566 230.084 453.655 226.764 455.73 223.045C457.367 220.135 459.485 217.585 461.188 214.718C463.078 211.57 464.696 208.267 466.024 204.845C466.745 202.972 467.46 201.11 468.126 199.221C468.934 196.927 470.085 194.808 470.828 192.471C471.494 190.385 472.291 188.283 472.869 186.175C473.546 183.707 474.016 181.091 474.463 178.569C475.555 172.562 476.925 166.626 477.918 160.625C478.148 159.025 478.53 157.545 478.453 155.896Z" fill="#D0468B"/>
<path d="M625.959 242.681L628.778 242.607C629.101 241.836 629.356 241.039 629.54 240.224C629.748 238.046 629.824 235.857 629.768 233.67C629.764 232.609 629.797 231.538 629.83 230.467C629.862 229.397 629.888 228.323 629.958 227.255C630.148 223.12 630.662 219.006 631.496 214.952L631.775 214.648C632.129 214.548 631.619 212.436 631.971 212.184L631.962 211.259C632.059 211.015 632.209 210.491 632.209 210.95C632.312 210.465 632.344 209.967 632.304 209.473L632.654 208.611C633.35 205.35 633.434 202.484 634.084 199.018C634.727 196.332 635.195 193.607 635.483 190.86C635.835 187.782 636.064 184.618 636.152 182.31C636.163 181.494 636.211 180.67 636.264 179.827C636.316 178.983 636.374 178.138 636.43 177.287C636.587 175.568 636.788 173.843 637.001 172.101C637.483 168.696 637.728 165.261 637.734 161.822C637.773 161.565 637.757 161.303 637.688 161.053C637.832 159.051 637.934 157.03 638.156 155.091L638.61 150.91C638.934 148.32 639.003 145.705 638.816 143.102C638.582 140.739 637.971 139.171 637.691 139.635C637.412 140.099 637.483 142.497 636.299 147.826L636.238 147.674C635.755 150.892 635.399 152.955 635.562 155.287C635.318 155.443 635.247 156.135 635.215 156.882C635.229 157.516 635.196 158.149 635.116 158.778L635.086 158.702C635.306 160.735 634.541 162.831 634.731 164.789C634.672 164.708 634.629 164.615 634.606 164.517C634.584 164.419 634.581 164.318 634.599 164.219C634.573 165.633 634.551 167.575 634.282 167.664C634.142 171.039 633.737 175.771 634.009 177.92L633.948 177.767C634.141 179.007 633.908 179.352 633.916 180.718C633.873 180.788 633.848 180.886 633.834 180.868C633.885 181.73 633.853 182.594 633.738 183.45C633.624 184.389 633.501 185.307 633.508 185.827L633.335 185.896C633.257 186.779 633.143 187.659 633.042 188.544L633.235 187.551C633.66 187.97 632.704 189.525 632.714 191.46C632.4 193.241 633.148 195.242 632.598 197.082C632.676 198.003 632.369 196.239 632.321 197.597C632.069 197.598 632.271 196.953 632.017 197.26C631.925 198.583 631.421 199.353 631.323 200.984L631.119 201.018C631.118 203.175 630.203 204.908 630.312 206.38C630.107 208.571 629.509 207.745 629.517 210.057L629.117 210.897C628.914 211.865 629.323 211.638 629.036 212.692C628.885 212.605 628.689 214.005 628.639 213.378C628.013 215.778 628.277 218.381 627.464 221.554C627.705 222.292 627.344 223.899 627.533 224.464C627.366 224.53 627.236 227.737 627.082 225.871C627.066 225.713 627.097 225.436 627.147 225.458L626.976 225.22C626.469 227.049 626.884 228.611 626.739 230.449C626.834 229.906 626.857 229.18 626.96 229.674L626.838 231.379L626.695 231.019C626.613 231.862 626.542 232.719 626.496 233.578L626.702 233.225C626.557 234.458 626.204 234.928 626.49 236.3C626.633 236.925 626.773 235.148 626.814 236.436C626.732 237.25 626.623 238.245 626.46 239.256C626.298 240.266 626.066 241.31 625.832 242.273C625.995 242.167 626 242.37 625.959 242.681Z" fill="#15466B"/>
<path d="M584.037 91.9546C583.361 88.6333 583.152 85.234 583.415 81.855C583.91 76.1182 584.821 70.4251 586.14 64.8205C586.984 61.4312 588.045 58.0996 589.315 54.8463C590.001 53.1225 590.801 51.4464 591.71 49.8293C592.646 48.0766 593.421 46.2412 594.47 44.5496C595.394 43.0605 596.458 41.6741 597.507 40.2765C598.412 39.0651 599.189 37.7693 600.155 36.5925C602.639 33.6258 605.37 30.8745 608.318 28.368C610.016 26.8768 612.076 25.9118 613.879 24.6257C614.987 23.7534 616.163 22.9701 617.395 22.2833C620.839 20.5313 624.458 19.1452 628.192 18.1478C629.901 17.704 631.599 16.9946 633.34 16.6908C634.791 16.4259 636.266 16.2512 637.727 16.041C640.769 15.5966 644.056 15.8423 647.124 15.9516C650.192 16.0609 653.346 16.0893 656.368 16.4814C659.24 16.8507 662.061 17.1226 664.758 18.1608C680.881 24.36 688.829 36.4445 689.387 52.3103C689.491 55.2064 689.068 58.0302 689.181 60.9172C689.258 64.2009 689.067 67.4852 688.612 70.7379C688.379 72.6933 688.138 74.6455 687.906 76.6059C687.593 79.2627 687.033 81.8002 686.501 84.4087C685.573 88.8901 683.945 92.9092 682.066 97.0515C681.251 98.8441 680.469 100.588 679.171 102.097C677.683 103.822 676.4 105.736 674.948 107.493C673.661 109.044 672.437 110.635 671.103 112.14C669.635 113.798 668.417 115.64 666.931 117.282C664.032 120.483 660.1 123.92 656.146 125.619C653.211 126.879 652.755 127.624 649.791 128.842C648.63 129.304 646.525 130.245 645.431 130.832C644.255 131.464 641.846 131.492 640.635 132.067C640.236 132.273 639.812 132.428 639.373 132.527C639.527 132.678 639.681 132.828 639.819 132.985C640.512 133.767 641.174 134.591 641.837 135.403C643.134 136.997 643.933 138.877 644.871 140.661C645.169 141.103 645.35 141.614 645.396 142.145C645.405 142.67 645.019 142.882 644.46 143.028C643.51 143.308 642.535 143.498 641.55 143.596C641.026 143.681 640.509 143.804 640.004 143.963C639.464 144.084 638.969 143.887 638.419 143.935C638.041 144.021 637.669 144.133 637.307 144.271C636.977 144.299 636.645 144.3 636.314 144.271C635.673 144.304 635.039 144.414 634.424 144.599C633.652 144.8 632.882 145.006 632.125 145.242C631.585 145.457 631.015 145.588 630.435 145.631C630.437 145.292 630.409 144.953 630.35 144.619C630.311 144.332 630.308 144.041 630.341 143.753C630.492 142.527 630.782 141.321 631.205 140.161C631.409 139.492 631.797 138.856 631.974 138.193C632.056 137.652 632.169 137.117 632.312 136.589C632.862 135.12 632.98 133.627 633.346 132.154C632.703 131.958 632.051 131.795 631.391 131.667C630.732 131.576 630.071 131.51 629.411 131.431C627.785 131.248 626.173 130.954 624.586 130.551C623.932 130.382 623.173 130.26 622.534 130.026C621.895 129.792 621.307 129.156 620.691 128.802C620.074 128.447 619.316 128.061 618.654 127.637C617.803 127.167 616.913 126.771 615.994 126.455C615.027 126.045 614.039 125.644 613.099 125.184C612.216 124.676 611.373 124.104 610.575 123.472C609.54 122.889 608.457 122.395 607.339 121.995C606.402 121.508 605.498 120.96 604.633 120.356C603.513 119.666 602.349 119.042 601.307 118.239C599.97 117.132 598.746 115.894 597.655 114.543C596.204 112.916 594.641 111.392 593.119 109.823C592.499 109.223 591.97 108.537 591.547 107.786C591.003 106.893 590.404 106.036 589.752 105.22C589.225 104.454 588.86 103.565 588.372 102.765C587.629 101.545 586.968 100.221 586.275 98.9627C585.03 96.7603 584.504 94.4015 584.037 91.9546Z" fill="#15466B"/>
<path d="M1158.4 188L20.6005 188C9.22339 188 0 197.223 0 208.6V369.316C0 372.284 1.31824 375.099 3.59814 376.998L20.6879 391.24C25.5164 395.264 25.4795 402.692 20.6113 406.667L3.67468 420.499C1.34912 422.398 0 425.242 0 428.244V589.4C0 600.777 9.22461 610 20.6017 610L1158.4 610C1169.77 610 1179 600.777 1179 589.4V428.244C1179 425.242 1177.65 422.398 1175.33 420.499L1158.39 406.667C1153.52 402.692 1153.48 395.264 1158.31 391.24L1175.4 376.998C1177.68 375.099 1179 372.284 1179 369.316V208.6C1179 197.223 1169.78 188 1158.4 188Z" fill="#FDC504"/>
<path d="M1100.15 247.042C1100.02 247.086 1099.77 247.589 1099.54 248.435C1099.27 249.967 1099.29 251.534 1099.58 253.06C1100.09 255.985 1100.79 258.874 1101.67 261.71C1102.22 262.949 1102.64 264.15 1103.1 265.532C1103.55 266.914 1104.09 268.426 1104.73 270.348L1104.24 269.698C1105.28 271.948 1105.97 273.936 1106.83 275.918C1107.12 277.07 1105.85 274.471 1106.72 276.764C1107.69 278.845 1107.95 279.353 1108.21 279.866C1108.46 280.379 1108.71 280.898 1109.75 282.935C1109.75 282.618 1108.61 280.472 1109.08 280.969C1109.16 281.351 1110.44 283.88 1110.39 284.147H1110.59C1110.93 284.961 1111.4 285.458 1111.93 286.462C1112.14 286.976 1112.24 287.385 1111.61 286.282C1112.63 288.406 1113.98 291.437 1114.96 292.928C1115.99 294.926 1115.87 294.211 1116.34 294.702C1116.6 295.209 1116.78 295.752 1116.88 296.313L1117.03 296.543L1117.29 297.466C1119.58 301.435 1120.6 305.487 1122.36 308.933C1122.02 307.988 1121.27 306.312 1121.42 306.202L1122.61 309.239C1122.16 307.983 1121.87 306.934 1122.21 307.36C1123.84 311.669 1124.94 315.475 1126.57 320.749C1126.74 320.815 1127.03 321.678 1127.37 322.743C1127.71 323.807 1128.06 325.096 1128.43 325.981C1128.31 325.74 1128.26 325.68 1128.24 325.73C1127.99 324.916 1127.84 324.637 1128.3 326.401C1128.3 326.368 1128.34 326.401 1128.35 326.428C1128.4 326.697 1128.44 326.969 1128.46 327.242C1128.94 328.607 1128.94 328.383 1128.78 327.695C1129.07 328.787 1129.33 329.929 1129.26 328.968C1130.09 331.796 1129.72 332.151 1130.01 333.768C1130.3 335.384 1130.63 336.498 1130.85 337.743C1131.07 338.988 1131.34 340.408 1131.65 342.592L1131.61 342.046C1131.86 343.236 1132.19 343.629 1132.5 345.994C1131.89 347.998 1133.42 352.121 1133.93 357.335C1133.54 356.729 1134.07 359.35 1133.81 359.159C1134.85 364.112 1134.9 368.153 1135.99 373.69V373.4C1136.48 375.552 1136.77 377.747 1136.84 379.953C1136.93 379.189 1137.39 381.591 1137.44 380.958C1137.39 382.318 1138.22 386.899 1138.22 386.899C1138.63 387.8 1138.93 391.453 1139.49 393.719L1139.64 396.75L1139.7 395.658C1139.92 397.231 1140.15 397.504 1140.14 396.848C1140.3 397.553 1140.28 397.94 1140.43 398.994L1140.53 398.448C1140.64 398.934 1140.71 399.43 1140.73 399.928L1144.12 405.061L1143.42 400.742L1143.49 401.572C1143.18 399.797 1142.94 397.815 1143.12 397.793C1142.9 397.525 1142.84 397.973 1142.45 395.702C1142.88 395.57 1142.38 392.261 1141.97 389.116C1141.92 389.193 1141.69 387.986 1141.75 388.848C1141.28 381.963 1139.67 378.288 1139.26 371.604L1139.22 371.68C1138.13 366.515 1138.26 364.325 1137.12 358.575L1137.38 358.766C1136.9 356.074 1136.43 353.005 1136.13 350.002V350.373L1135.83 348.293L1135.79 348.375C1135.73 347.517 1135.34 345.601 1135.24 343.875L1135.2 343.957C1134.93 342.747 1134.75 341.519 1134.65 340.282C1134.52 339.862 1134.38 339.441 1134.23 339.021C1133.93 335.619 1132.46 330.753 1132.05 327.903C1130.54 321.807 1128.64 315.813 1126.36 309.959C1124.69 305.399 1122.73 300.949 1120.5 296.636C1118.69 293.07 1116.68 289.613 1113.71 284.24C1111.13 279.339 1108.87 274.273 1106.94 269.076C1106.14 266.892 1105.46 264.8 1104.76 262.458C1103.98 260.006 1103 257.647 1102.03 254.944C1102.03 254.944 1101.56 253.584 1101.12 252.012C1100.73 250.64 1100.48 249.233 1100.37 247.812C1100.35 247.305 1100.28 246.982 1100.15 247.042Z" fill="#D0468B"/>
<path d="M1138.85 197.897C1138.67 195.413 1138.94 192.928 1138.85 190.443C1138.74 187.697 1138.39 184.966 1137.81 182.28C1137.48 180.816 1137.16 179.358 1136.79 177.911C1136.35 176.142 1136.2 174.346 1135.7 172.582C1135.26 171.004 1134.89 169.366 1134.38 167.809C1133.78 165.985 1132.99 164.156 1132.23 162.398C1130.43 158.21 1128.84 153.923 1126.99 149.768C1126.57 148.646 1126.04 147.573 1125.39 146.568C1124.7 145.612 1124.08 144.596 1123.37 143.657C1120.85 140.299 1117.97 137.164 1114.41 134.92C1112.89 133.948 1111.35 132.905 1109.74 132.075C1108.06 131.25 1106.3 130.577 1104.49 130.066C1103.19 129.673 1101.84 129.345 1100.51 129.066C1099.18 128.788 1097.78 128.406 1096.41 128.204C1093.59 127.783 1090.55 128.133 1087.71 128.204C1083.83 128.25 1079.95 128.643 1076.14 129.378C1074.69 129.612 1073.26 129.977 1071.87 130.47C1070.31 131.125 1068.78 131.829 1067.24 132.518C1065.69 133.206 1064.17 133.741 1062.66 134.451C1060.94 135.264 1059.29 136.203 1057.58 137.023C1054.25 138.622 1051.44 141.047 1048.74 143.526C1045.34 146.523 1042.34 149.944 1039.8 153.705C1038.78 155.288 1037.83 156.981 1036.86 158.575C1035.94 160.257 1035.24 162.055 1034.78 163.921C1034.24 165.767 1033.44 167.607 1033.04 169.48C1032.55 171.779 1032.29 174.187 1031.95 176.519C1030.74 184.846 1030.44 193.829 1032.54 202.042C1033.74 206.721 1034.63 210.156 1037.27 214.181C1039.03 216.845 1040.9 220.307 1043.11 222.634C1045.15 224.78 1047.67 227.548 1049.98 229.405C1052.46 231.382 1054.85 233.282 1057.5 235.018C1059.46 236.307 1062.35 238.295 1064.4 239.458C1069.31 242.215 1071.65 243.641 1077.05 245.224C1081.12 246.251 1085.29 246.819 1089.49 246.917C1091.08 246.955 1092.66 246.772 1094.19 246.371C1093.9 247.365 1093.64 248.38 1093.4 249.38C1092.89 251.433 1092.97 253.524 1092.86 255.621C1092.77 256.161 1092.83 256.713 1093.01 257.226C1093.24 257.718 1093.69 257.723 1094.27 257.641C1095.28 257.494 1096.27 257.253 1097.23 256.921C1097.75 256.775 1098.29 256.663 1098.83 256.588C1099.37 256.462 1099.76 256.042 1100.28 255.872C1100.68 255.786 1101.07 255.727 1101.47 255.698C1101.79 255.576 1102.1 255.43 1102.39 255.261C1103 255.005 1103.64 254.822 1104.3 254.715C1105.1 254.567 1105.9 254.42 1106.71 254.305C1107.31 254.271 1107.9 254.146 1108.46 253.934C1108.31 253.618 1108.18 253.289 1108.09 252.951C1108 252.668 1107.88 252.398 1107.72 252.148C1107.05 251.069 1106.25 250.073 1105.34 249.178C1104.86 248.632 1104.25 248.227 1103.77 247.692C1103.46 247.225 1103.12 246.775 1102.76 246.344C1101.8 245.302 1100.93 244.193 1100.13 243.023C1100.26 242.991 1100.43 242.936 1100.68 242.838L1101.62 242.483C1103.08 242.204 1103.25 241.74 1104.71 241.424C1105.25 241.309 1105.8 241.353 1106.3 241.2C1107.12 240.954 1107.88 240.533 1108.7 240.299C1109.99 239.938 1111.33 239.873 1112.6 239.381C1115.49 238.195 1118.18 236.585 1120.59 234.603C1121.68 233.822 1122.92 233.123 1123.97 232.239C1125.02 231.458 1126.01 230.591 1126.92 229.645C1127.94 228.391 1129.08 227.244 1130.33 226.221C1130.97 225.717 1131.51 225.099 1131.92 224.397C1132.47 223.524 1133.1 222.759 1133.56 221.82C1134.74 219.568 1135.7 217.205 1136.42 214.765C1137.04 212.406 1137.82 210.02 1138.11 207.595C1138.55 204.417 1139.09 201.07 1138.85 197.897Z" fill="#D0468B"/>
<path d="M73.0898 431.457H76.6051C77.0339 430.504 77.3791 429.515 77.6367 428.502C77.9634 425.784 78.1256 423.049 78.1225 420.311C78.1225 418.985 78.2317 417.658 78.3026 416.32C78.3736 414.982 78.45 413.65 78.5701 412.317C78.9406 407.168 79.7163 402.055 80.89 397.028L81.2448 396.656C81.6815 396.542 81.1138 393.893 81.5614 393.593V392.441C81.6924 392.135 81.8943 391.491 81.8834 392.064C82.022 391.461 82.0771 390.842 82.0472 390.224L82.5111 389.159C83.4828 385.113 83.6847 381.547 84.6017 377.244C85.493 373.917 86.1641 370.535 86.6105 367.12C87.1563 363.297 87.5384 359.355 87.7022 356.472C87.7404 355.462 87.8277 354.429 87.9205 353.387C88.0133 352.344 88.1116 351.284 88.2371 350.214C88.4882 348.073 88.7829 345.933 89.1159 343.765C89.7436 339.44 90.3604 335.099 90.3659 330.976C90.4266 330.657 90.4135 330.328 90.3277 330.015C90.5788 327.531 90.7698 325.008 91.1083 322.594C91.1083 322.594 91.4139 320.35 91.8124 317.401C92.2109 314.453 92.5657 310.625 92.3255 307.67C92.0853 304.716 91.3921 302.756 91.0318 303.302C90.5733 303.848 90.677 306.868 89.045 313.508L88.974 313.317C88.2917 317.303 87.7677 319.869 87.8823 322.785C87.5766 322.977 87.462 323.834 87.4019 324.762C87.399 325.554 87.337 326.344 87.2164 327.127L87.1781 327.028C87.3856 329.578 86.3703 332.161 86.5395 334.613C86.4695 334.508 86.4209 334.39 86.3965 334.267C86.3722 334.143 86.3725 334.016 86.3976 333.892C86.3103 335.656 86.2229 338.075 85.89 338.179C85.6061 342.378 84.9456 348.27 85.2131 350.962L85.1421 350.771C85.3386 352.316 85.0384 352.742 85.0057 354.451C84.9511 354.539 84.9183 354.659 84.902 354.637C84.9375 355.715 84.868 356.794 84.6945 357.859C84.5253 359.022 84.3288 360.141 84.3124 360.818L84.0832 360.873C83.9576 361.965 83.7884 363.057 83.6356 364.149L83.8758 362.932C84.3834 363.45 83.1389 365.356 83.1007 367.792C82.6531 369.976 83.5155 372.52 82.8059 374.781C82.8714 375.939 82.5439 373.733 82.4456 375.415C82.1345 375.415 82.402 374.612 82.0799 374.989C81.9162 376.627 81.2666 377.582 81.0865 379.614L80.8354 379.647C80.7644 382.333 79.5745 384.495 79.6564 386.308C79.3288 389.039 78.6083 387.979 78.5647 390.868L78.0188 391.9C77.7513 393.09 78.259 392.834 77.8605 394.139C77.6749 394.019 77.3965 395.777 77.3474 394.98C76.4904 397.95 76.7415 401.199 75.6171 405.137C75.8955 406.065 75.3933 408.058 75.6171 408.746C75.4042 408.828 75.1367 412.82 75.0057 410.488C75.0057 410.291 75.0385 409.942 75.104 409.975L74.8965 409.674C74.2033 411.935 74.6673 413.895 74.4326 416.183C74.5636 415.512 74.6182 414.605 74.7328 415.222L74.5254 417.346L74.3616 416.893C74.2306 417.942 74.116 419.012 74.0287 420.071L74.3016 419.645C74.0887 421.196 73.6575 421.742 73.9358 423.468C74.0941 424.254 74.3289 422.043 74.3343 423.653C74.2088 424.664 74.0396 425.903 73.7885 427.159C73.5374 428.415 73.2426 429.704 72.9097 430.9C73.1498 430.823 73.1553 431.069 73.0898 431.457Z" fill="#15466B"/>
<path d="M128.723 152.715C125.393 151.334 121.883 150.908 118.319 150.351C114.564 149.772 110.606 149.63 106.807 149.395C103.008 149.16 98.8977 148.751 95.0877 149.204C93.2645 149.423 91.4141 149.592 89.6019 149.876C87.4185 150.225 85.2897 151.055 83.1445 151.558C78.4539 152.679 73.8945 154.291 69.5419 156.368C67.9846 157.181 66.4951 158.118 65.0878 159.17C62.757 160.731 60.1752 161.867 57.9918 163.675C54.2328 166.702 50.7377 170.043 47.5442 173.662C46.3215 175.098 45.3062 176.687 44.1381 178.167C42.7899 179.876 41.4089 181.575 40.2135 183.398C38.8489 185.479 37.8281 187.74 36.6054 189.891C35.4175 191.88 34.3653 193.947 33.4559 196.078C31.7728 200.092 30.3488 204.211 29.1928 208.408C27.3632 215.352 26.0424 222.42 25.2408 229.557C24.8083 233.762 24.9589 238.007 25.6884 242.171C26.1906 245.234 26.7801 248.177 28.2321 250.951C29.0673 252.54 29.8423 254.228 30.7321 255.757C31.3161 256.767 31.7419 257.892 32.3696 258.858C33.1547 259.905 33.8747 260.999 34.5257 262.135C35.0226 263.09 35.6612 263.964 36.4198 264.728C38.2593 266.743 40.1589 268.687 41.922 270.735C43.3248 272.373 44.6512 274.115 46.3543 275.464C47.6479 276.485 49.0562 277.31 50.4318 278.194C51.489 278.978 52.5977 279.689 53.7505 280.324C55.066 280.957 56.5507 281.416 57.7462 282.273C58.8106 283.032 59.6512 283.873 60.8356 284.49C62.0201 285.107 63.2101 285.621 64.3946 286.161C65.551 286.607 66.6653 287.155 67.7243 287.799C68.543 288.345 69.3891 288.815 70.2297 289.317C70.9884 289.776 71.6598 290.579 72.4895 290.906C73.3192 291.234 74.2144 291.392 75.0277 291.622C76.9985 292.176 79.0045 292.595 81.0321 292.878C81.8508 292.998 82.6696 293.102 83.4884 293.233C84.3087 293.414 85.1194 293.636 85.9174 293.899C85.4098 295.728 85.2133 297.585 84.4818 299.398C84.2894 300.053 84.1309 300.719 84.0069 301.391C83.7668 302.21 83.2646 302.996 82.9862 303.815C82.4218 305.251 82.0226 306.745 81.7963 308.271C81.7459 308.633 81.7459 309.001 81.7963 309.363C81.8555 309.783 81.8793 310.207 81.8672 310.63C82.5913 310.594 83.3056 310.446 83.9851 310.193C84.9403 309.926 85.9119 309.696 86.8726 309.467C87.6481 309.26 88.4448 309.142 89.2471 309.117C89.6564 309.166 90.0692 309.178 90.4807 309.156C90.9362 308.993 91.4033 308.865 91.8781 308.773C92.5658 308.73 93.1499 308.997 93.854 308.855C94.4904 308.677 95.1377 308.54 95.7918 308.446C97.0227 308.344 98.2414 308.128 99.4326 307.801C100.12 307.61 100.612 307.386 100.623 306.709C100.581 306.048 100.372 305.407 100.017 304.847C98.8922 302.565 97.9588 300.195 96.3923 298.164C95.5953 297.131 94.7929 296.089 93.9578 295.084C93.7886 294.887 93.6084 294.696 93.4119 294.505C93.9626 294.392 94.4965 294.208 95.0003 293.959C96.5123 293.287 99.52 293.325 101.005 292.577C102.391 291.878 105.049 290.792 106.501 290.24C110.224 288.815 110.814 287.903 114.509 286.418C119.498 284.425 124.514 280.264 128.226 276.365C130.137 274.366 131.714 272.106 133.597 270.091C135.311 268.256 136.872 266.312 138.543 264.417C140.41 262.271 142.069 259.928 144.001 257.821C145.666 255.986 146.698 253.84 147.768 251.628C150.251 246.523 152.402 241.543 153.712 236C154.476 232.757 155.24 229.622 155.715 226.313C156.064 223.883 156.43 221.453 156.807 219.029C157.474 214.985 157.815 210.895 157.828 206.797C157.784 203.198 158.373 199.698 158.373 196.072C158.144 176.283 148.625 160.966 128.723 152.715Z" fill="#15466B"/>
<path d="M196.064 619.792C196.258 620.911 196.37 622.043 196.397 623.178L196.337 623.118C196.615 624.685 196.697 626.47 196.839 627.246L196.779 627.186L196.975 629.102L196.877 628.775C197.21 631.128 197.423 633.531 197.619 635.753H200.758C200.665 635.153 200.573 634.394 200.442 634.776C199.743 630.02 200.19 626.012 199.202 624.363C199.08 623.129 199.054 621.887 199.126 620.649L199.208 621.163C199 619.148 198.913 617.843 198.848 616.669C198.782 615.495 198.76 614.446 198.717 612.939C198.673 611.432 198.214 611.208 198.318 608.505C198.46 609.379 198.449 608.276 198.466 607.266C198.466 607.91 198.531 608.112 198.657 606.79C198.609 606.544 198.58 606.294 198.569 606.042C198.569 606.042 198.569 605.982 198.607 606.01C198.607 604.322 198.558 604.612 198.504 605.393C198.504 605.354 198.455 605.42 198.4 605.66C198.537 604.792 198.569 603.569 198.624 602.548C198.678 601.526 198.755 600.691 198.891 600.593C199.164 595.536 199.323 591.905 199.825 587.706C200.027 587.253 200.005 588.252 199.885 589.47L200.267 586.499C200.447 586.554 200.13 588.219 200.032 589.136C200.829 585.658 200.851 581.825 202.003 577.789V576.905L202.085 576.67C202.049 576.148 202.091 575.623 202.21 575.114C202.516 574.568 202.57 575.239 203.051 573.23C203.597 571.684 204.115 568.692 204.557 566.573C204.241 567.665 204.241 567.305 204.306 566.803C204.557 565.792 204.852 565.252 204.988 564.449L205.174 564.416C205.065 564.187 205.649 561.686 205.638 561.298C205.938 560.752 205.414 562.937 205.474 563.193C205.949 561.151 206.058 560.638 206.167 560.124C206.277 559.611 206.397 559.098 206.801 557.034C207.068 554.8 206.511 557.394 206.522 556.302C206.85 554.352 207.014 552.425 207.445 550.197L207.15 550.88C207.308 549.028 207.439 547.554 207.554 546.233C207.633 544.987 207.775 543.745 207.98 542.514C208.132 539.794 208.111 537.068 207.92 534.35C207.846 532.925 207.511 531.526 206.932 530.222C206.544 529.507 206.206 529.13 206.086 529.13C205.965 529.13 205.965 529.408 206.086 529.9C206.3 531.19 206.388 532.497 206.348 533.804C206.309 535.306 206.184 536.616 206.184 536.616C205.938 539.232 205.594 541.531 205.436 543.901C205.316 546.151 205.174 548.149 204.939 550.284C204.38 555.332 203.492 560.337 202.281 565.268C200.835 570.729 199.803 574.229 199.006 577.828C197.973 582.162 197.217 586.557 196.741 590.988C196.01 596.701 195.645 602.456 195.649 608.216C195.911 610.842 195.682 615.5 196.162 618.591C196.118 618.979 196.091 619.388 196.064 619.792Z" fill="#D0468B"/>
<path d="M251.184 451.213C250.365 449.214 249.607 447.128 248.657 445.206C247.887 443.628 246.763 442.164 245.884 440.641C245.065 439.082 244.043 437.638 242.843 436.349C241.621 435.12 240.409 433.848 239.148 432.663C236.073 429.885 232.656 427.513 228.979 425.602C226.026 423.992 222.975 422.457 219.699 421.78C217.991 421.431 216.315 420.961 214.601 420.617C213.1 420.317 211.605 420.18 210.098 419.913C208.591 419.645 207.058 419.367 205.524 419.115C204.178 418.978 202.822 418.963 201.474 419.072C197.909 419.263 194.369 419.773 190.895 420.595C188.346 421.141 185.562 421.502 183.144 422.501C181.976 422.987 180.83 423.62 179.689 424.177C178.548 424.734 177.434 425.308 176.37 425.952C174.873 426.807 173.455 427.794 172.134 428.901C170.89 429.993 169.749 431.265 168.608 432.466C165.944 435.279 164.077 438.708 162.571 442.252C162.151 443.251 161.829 444.289 161.425 445.293C161.072 446.331 160.832 447.404 160.71 448.493C159.978 452.605 159.514 456.772 158.837 460.9C158.548 462.636 158.253 464.433 158.128 466.191C158.019 467.687 158.051 469.227 158.008 470.734C157.953 472.411 158.21 474.049 158.21 475.72C158.21 477.096 158.242 478.45 158.281 479.843C158.361 482.353 158.655 484.852 159.159 487.313C159.612 489.546 160.404 491.681 160.797 493.953C161.288 496.83 162.505 499.686 163.526 502.411C164.329 504.508 165.546 506.457 166.616 508.418C167.799 510.429 169.176 512.32 170.726 514.064C171.326 514.785 172.08 515.342 172.74 515.997C173.262 516.53 173.878 516.962 174.558 517.269C175.897 517.902 177.169 518.671 178.351 519.563C179.373 520.196 180.444 520.744 181.556 521.201C182.685 521.747 183.93 522.113 185.093 522.561C186.16 523.058 187.253 523.498 188.368 523.877C189.974 524.39 191.616 524.78 193.28 525.045C194.519 525.198 195.726 524.958 196.954 524.996C197.74 525.023 198.51 525.225 199.296 525.264C199.798 525.264 200.267 525.127 200.764 525.111C202.112 525.078 202.402 525.444 203.75 525.367L204.661 525.477C204.923 525.504 205.093 525.515 205.207 525.52C204.758 526.734 204.223 527.915 203.608 529.053C203.38 529.517 203.178 529.993 203.002 530.479C202.713 531.057 202.243 531.571 201.91 532.149C201.308 533.147 200.821 534.209 200.458 535.317C200.37 535.576 200.319 535.846 200.305 536.119C200.299 536.439 200.262 536.757 200.196 537.069C200.742 537.133 201.294 537.114 201.834 537.015C202.576 536.938 203.329 536.889 204.072 536.846C204.676 536.789 205.284 536.804 205.884 536.889C206.184 536.978 206.49 537.04 206.801 537.075C207.162 537.013 207.527 536.977 207.893 536.966C208.371 537.105 208.858 537.211 209.35 537.282C209.847 537.23 210.346 537.21 210.846 537.222C211.775 537.307 212.711 537.307 213.641 537.222C214.186 537.162 214.574 537.064 214.667 536.573C214.717 536.073 214.644 535.568 214.454 535.104C213.908 533.263 213.515 531.38 212.609 529.643C212.161 528.808 211.719 527.967 211.244 527.142C212.695 527.162 214.141 526.978 215.54 526.596C219.257 525.58 222.847 524.15 226.244 522.331C230.698 519.727 232.494 517.936 236.228 514.397C237.794 512.917 239.929 510.498 241.391 508.937C243.362 506.807 245.071 504.568 246.85 502.28C248.488 500.096 250.125 497.093 251.468 494.723C252.92 492.167 253.82 488.672 254.792 485.909C256.255 481.743 256.288 478.488 256.315 474.06C256.359 466.284 254.104 458.361 251.184 451.213Z" fill="#D0468B"/>
<path d="M1018.06 670.792C1018.26 671.911 1018.37 673.043 1018.4 674.178L1018.34 674.118C1018.62 675.685 1018.7 677.47 1018.84 678.246L1018.78 678.186L1018.98 680.102L1018.88 679.775C1019.21 682.128 1019.42 684.531 1019.62 686.753H1022.76C1022.67 686.153 1022.57 685.394 1022.44 685.776C1021.74 681.02 1022.19 677.012 1021.2 675.363C1021.08 674.129 1021.05 672.887 1021.13 671.649L1021.21 672.163C1021 670.148 1020.91 668.843 1020.85 667.669C1020.78 666.495 1020.76 665.446 1020.72 663.939C1020.67 662.432 1020.21 662.208 1020.32 659.505C1020.46 660.379 1020.45 659.276 1020.47 658.266C1020.47 658.91 1020.53 659.112 1020.66 657.79C1020.61 657.544 1020.58 657.294 1020.57 657.042C1020.57 657.042 1020.57 656.982 1020.61 657.01C1020.61 655.322 1020.56 655.612 1020.5 656.393C1020.5 656.354 1020.45 656.42 1020.4 656.66C1020.54 655.792 1020.57 654.569 1020.62 653.548C1020.68 652.526 1020.75 651.691 1020.89 651.593C1021.16 646.536 1021.32 642.905 1021.82 638.706C1022.03 638.253 1022 639.252 1021.88 640.47L1022.27 637.499C1022.45 637.554 1022.13 639.219 1022.03 640.136C1022.83 636.658 1022.85 632.825 1024 628.789V627.905L1024.08 627.67C1024.05 627.148 1024.09 626.623 1024.21 626.114C1024.52 625.568 1024.57 626.239 1025.05 624.23C1025.6 622.684 1026.12 619.692 1026.56 617.573C1026.24 618.665 1026.24 618.305 1026.31 617.803C1026.56 616.792 1026.85 616.252 1026.99 615.449L1027.17 615.416C1027.06 615.187 1027.65 612.686 1027.64 612.298C1027.94 611.752 1027.41 613.937 1027.47 614.193C1027.95 612.151 1028.06 611.638 1028.17 611.124C1028.28 610.611 1028.4 610.098 1028.8 608.034C1029.07 605.8 1028.51 608.394 1028.52 607.302C1028.85 605.352 1029.01 603.425 1029.44 601.197L1029.15 601.88C1029.31 600.028 1029.44 598.554 1029.55 597.233C1029.63 595.987 1029.78 594.745 1029.98 593.514C1030.13 590.794 1030.11 588.068 1029.92 585.35C1029.85 583.925 1029.51 582.526 1028.93 581.222C1028.54 580.507 1028.21 580.13 1028.09 580.13C1027.97 580.13 1027.97 580.408 1028.09 580.9C1028.3 582.19 1028.39 583.497 1028.35 584.804C1028.31 586.306 1028.18 587.616 1028.18 587.616C1027.94 590.232 1027.59 592.531 1027.44 594.901C1027.32 597.151 1027.17 599.149 1026.94 601.284C1026.38 606.332 1025.49 611.337 1024.28 616.268C1022.83 621.729 1021.8 625.229 1021.01 628.828C1019.97 633.162 1019.22 637.557 1018.74 641.988C1018.01 647.701 1017.65 653.456 1017.65 659.216C1017.91 661.842 1017.68 666.5 1018.16 669.591C1018.12 669.979 1018.09 670.388 1018.06 670.792Z" fill="#15466B"/>
<path d="M1073.18 502.213C1072.37 500.214 1071.61 498.128 1070.66 496.206C1069.89 494.628 1068.76 493.164 1067.88 491.641C1067.07 490.082 1066.04 488.638 1064.84 487.349C1063.62 486.12 1062.41 484.848 1061.15 483.663C1058.07 480.885 1054.66 478.513 1050.98 476.602C1048.03 474.992 1044.97 473.457 1041.7 472.78C1039.99 472.431 1038.32 471.961 1036.6 471.617C1035.1 471.317 1033.6 471.18 1032.1 470.913C1030.59 470.645 1029.06 470.367 1027.52 470.115C1026.18 469.978 1024.82 469.963 1023.47 470.072C1019.91 470.263 1016.37 470.773 1012.9 471.595C1010.35 472.141 1007.56 472.502 1005.14 473.501C1003.98 473.987 1002.83 474.62 1001.69 475.177C1000.55 475.734 999.434 476.308 998.37 476.952C996.873 477.807 995.455 478.794 994.134 479.901C992.89 480.993 991.749 482.265 990.608 483.466C987.944 486.279 986.077 489.708 984.571 493.252C984.151 494.251 983.829 495.289 983.425 496.293C983.072 497.331 982.832 498.404 982.71 499.493C981.978 503.605 981.514 507.772 980.837 511.9C980.548 513.636 980.253 515.433 980.128 517.191C980.019 518.687 980.051 520.227 980.008 521.734C979.953 523.411 980.21 525.049 980.21 526.72C980.21 528.096 980.242 529.45 980.281 530.843C980.361 533.353 980.655 535.852 981.159 538.313C981.612 540.546 982.404 542.681 982.797 544.953C983.288 547.83 984.505 550.686 985.526 553.411C986.329 555.508 987.546 557.457 988.616 559.418C989.799 561.429 991.176 563.32 992.726 565.064C993.326 565.785 994.08 566.342 994.74 566.997C995.262 567.53 995.878 567.962 996.558 568.269C997.897 568.902 999.169 569.671 1000.35 570.563C1001.37 571.196 1002.44 571.744 1003.56 572.201C1004.69 572.747 1005.93 573.113 1007.09 573.561C1008.16 574.058 1009.25 574.498 1010.37 574.877C1011.97 575.39 1013.62 575.78 1015.28 576.045C1016.52 576.198 1017.73 575.958 1018.95 575.996C1019.74 576.023 1020.51 576.225 1021.3 576.264C1021.8 576.264 1022.27 576.127 1022.76 576.111C1024.11 576.078 1024.4 576.444 1025.75 576.367L1026.66 576.477C1026.92 576.504 1027.09 576.515 1027.21 576.52C1026.76 577.734 1026.22 578.915 1025.61 580.053C1025.38 580.517 1025.18 580.993 1025 581.479C1024.71 582.057 1024.24 582.571 1023.91 583.149C1023.31 584.147 1022.82 585.209 1022.46 586.317C1022.37 586.576 1022.32 586.846 1022.31 587.119C1022.3 587.439 1022.26 587.757 1022.2 588.069C1022.74 588.133 1023.29 588.114 1023.83 588.015C1024.58 587.938 1025.33 587.889 1026.07 587.846C1026.68 587.789 1027.28 587.804 1027.88 587.889C1028.18 587.978 1028.49 588.04 1028.8 588.075C1029.16 588.013 1029.53 587.977 1029.89 587.966C1030.37 588.105 1030.86 588.211 1031.35 588.282C1031.85 588.23 1032.35 588.21 1032.85 588.222C1033.78 588.307 1034.71 588.307 1035.64 588.222C1036.19 588.162 1036.57 588.064 1036.67 587.573C1036.72 587.073 1036.64 586.568 1036.45 586.104C1035.91 584.263 1035.51 582.38 1034.61 580.643C1034.16 579.808 1033.72 578.967 1033.24 578.142C1034.69 578.162 1036.14 577.978 1037.54 577.596C1041.26 576.58 1044.85 575.15 1048.24 573.331C1052.7 570.727 1054.49 568.936 1058.23 565.397C1059.79 563.917 1061.93 561.498 1063.39 559.937C1065.36 557.807 1067.07 555.568 1068.85 553.28C1070.49 551.096 1072.13 548.093 1073.47 545.723C1074.92 543.167 1075.82 539.672 1076.79 536.909C1078.25 532.743 1078.29 529.488 1078.31 525.06C1078.36 517.284 1076.1 509.361 1073.18 502.213Z" fill="#15466B"/>
</svg>
