<svg width="121" height="145" viewBox="0 0 121 145" fill="none" xmlns="http://www.w3.org/2000/svg">
<path d="M23.2239 57.6393C24.1577 59.4686 25.2809 59.8687 26.1393 60.6162C26.8416 61.2546 27.7784 61.9101 27.9322 62.8996C28.5305 65.9273 29.6188 68.4527 31.9213 70.2842C33.8237 71.8174 34.1057 72.4006 31.8546 73.3611C26.6184 75.5955 22.601 79.0685 19.5873 83.8134C16.4656 88.7215 17.0779 93.8537 19.1373 98.8959C22.9742 108.397 28.6924 116.275 37.2132 121.667C45.5288 126.971 53.0592 133.49 61.5419 138.488C62.0592 138.794 62.4873 139.608 63.1436 139.094C63.7215 138.671 62.9121 137.903 62.8453 137.287C61.6011 123.279 60.5915 109.288 58.2715 95.4459C57.472 90.8626 56.2329 86.1738 55.5709 81.356C57.7886 81.9338 60.025 82.8555 61.459 84.061C69.7413 90.9033 77.6904 98.0637 85.443 105.601C87.1691 107.268 87.9528 106.64 89.3953 104.618C94.615 97.4662 98.1063 89.5278 101.354 81.4002C101.984 79.7831 102.252 77.9683 103.156 76.469C103.941 75.2545 103.827 74.0722 102.106 74.0443C92.711 74.0669 83.4765 72.438 74.1512 71.9032C70.6028 71.7173 67.4009 69.9179 64.0304 69.0111C63.3856 68.8173 62.9467 68.4183 62.3905 68.0108C61.3465 67.2252 61.0459 66.2982 62.1621 65.646C64.9817 64.0911 67.733 62.5067 70.5915 61.0524C75.6429 58.4866 80.3236 55.5512 84.8102 52.1125C89.6789 48.3349 94.7722 44.6959 99.2999 40.4775C102.603 37.3681 104.979 33.1881 108.351 30.1081C109.781 28.7941 109.822 28.0144 107.731 27.617C96.934 25.4826 85.8967 25.3852 74.9588 24.6591C70.4037 24.3751 65.9286 23.4121 61.2842 23.6352C55.9066 23.8781 50.713 24.7459 46.033 27.3878C41.4998 29.9671 38.7805 34.2932 37.0368 39.3754C35.2046 44.6714 36.2775 49.3725 38.5723 54.1384C39.8851 56.8025 39.4626 57.6277 36.5885 57.5644C32.3069 57.3982 28.1193 58.6575 23.3218 57.5976L23.2239 57.6393ZM32.2784 64.5625C31.2724 64.171 30.6976 63.4197 31.0424 62.3932C31.3679 61.3164 32.2891 60.4543 33.3929 60.804C34.5457 61.1328 34.3275 62.3398 33.9826 63.3663C33.6867 64.372 33.1383 64.7232 32.2784 64.5625Z" fill="#FDC504"/>
<path d="M5.94677 59.1916C6.47234 59.4349 6.95999 59.7355 7.36723 60.1817C7.69699 60.552 7.8351 60.4157 7.92747 59.9866C8.00007 59.491 8.10606 58.969 8.23636 58.4826C8.55759 57.2977 9.20694 56.2925 10.3427 56C11.5361 55.7168 12.6767 55.9959 13.5217 57.0834C14.4442 58.2469 14.2338 59.4814 13.6727 60.6911C13.4133 61.2518 13.497 61.4872 14.0832 61.5183C14.2275 61.5416 14.4006 61.5695 14.5449 61.5927C15.892 61.8734 17.1472 63.1857 17.312 64.4806C17.515 66.3209 15.161 68.4782 13.3522 68.1231C12.289 67.9199 11.2395 67.6238 10.2535 66.894C10.2646 67.6252 10.2938 68.2324 10.2653 68.8303C10.1827 70.4025 8.81073 71.7034 7.37864 71.5993C6.23965 71.5108 5.11064 70.3457 4.91083 68.8865C4.80412 68.2034 4.79306 67.4723 4.77745 66.7721C4.76802 66.2315 4.61757 66.0487 4.09816 65.9649C2.02054 65.6299 0.682656 63.0676 1.46195 60.9735C2.04869 59.3875 4.43229 58.44 5.94677 59.1916ZM8.16702 64.4013C8.66701 65.021 9.67243 65.2148 10.1156 64.8106C10.5922 64.3801 10.598 63.9371 10.18 63.3623C9.58732 62.5691 9.01927 62.4141 8.44705 62.8926C7.90369 63.3758 7.79317 63.9288 8.16702 64.4013Z" fill="#FDC504"/>
</svg>
