<svg width="361" height="86" viewBox="0 0 361 86" fill="none" xmlns="http://www.w3.org/2000/svg">
<path d="M307.826 8.55219e-05L10 2.77826e-06C4.47716 -2.49092e-07 2.49092e-07 4.47715 5.56363e-07 10L4.22836e-06 76C4.53563e-06 81.5229 4.47716 86 10 86L308.372 86.0002C309.509 86.0002 310.372 85.0525 310.714 83.9676C311.105 82.7291 312.016 81.5296 314.096 81.5296C316.277 81.5296 317.242 82.6742 317.649 83.9665C317.99 85.0517 318.846 86.0002 319.983 86.0002L351 86.0002C356.523 86.0002 361 81.523 361 76.0002L361 10.0001C361 4.47724 356.523 8.34371e-05 351 8.37444e-05L320.228 8.54565e-05C319.09 8.55197e-05 318.239 0.964751 317.798 2.01364C317.146 3.56457 315.709 4.30797 314.096 4.30797C312.357 4.30797 310.822 3.74872 310.095 1.82605C309.719 0.832793 308.888 8.58169e-05 307.826 8.55219e-05Z" fill="#FDC504"/>
<path d="M328 76.2051L328 76.9999L352.649 76.9999L352.649 76.2051L328 76.2051Z" fill="#15466B"/>
<path d="M328 74.7554L328 75.5515L352.649 75.5515L352.649 74.7554L328 74.7554Z" fill="#15466B"/>
<path d="M328 43.3389L328 44.135L352.649 44.135L352.649 43.3389L328 43.3389Z" fill="#15466B"/>
<path d="M328 41.8901L328 42.6863L352.649 42.6863L352.649 41.8901L328 41.8901Z" fill="#15466B"/>
<path d="M328 9.44873L328 10.2449L352.649 10.2449L352.649 9.44873L328 9.44873Z" fill="#15466B"/>
<path d="M328 8L328 8.79616L352.649 8.79615L352.649 8L328 8Z" fill="#15466B"/>
<path d="M328.001 72.3545L328.001 74.0467L352.653 74.0467L352.653 72.3545L328.001 72.3545Z" fill="#15466B"/>
<path d="M328.001 64.9961L328.001 66.6883L352.653 66.6883L352.653 64.9961L328.001 64.9961Z" fill="#15466B"/>
<path d="M328.001 33.1445L328.001 34.8367L352.653 34.8367L352.653 33.1445L328.001 33.1445Z" fill="#15466B"/>
<path d="M328.001 30.1787L328.001 31.8709L352.653 31.8709L352.653 30.1787L328.001 30.1787Z" fill="#15466B"/>
<path d="M328.001 47.8037L328.001 49.4959L352.653 49.4959L352.653 47.8037L328.001 47.8037Z" fill="#15466B"/>
<path d="M328.001 50.6187L328.001 53.5803L352.653 53.5803L352.653 50.6187L328.001 50.6187Z" fill="#15466B"/>
<path d="M328.001 37.9731L328.001 40.9348L352.653 40.9348L352.653 37.9731L328.001 37.9731Z" fill="#15466B"/>
<path d="M328.001 11.3691L328.001 14.3308L352.653 14.3308L352.653 11.3691L328.001 11.3691Z" fill="#15466B"/>
<path d="M328.001 69.9414L328.001 70.7403L352.653 70.7403L352.653 69.9414L328.001 69.9414Z" fill="#15466B"/>
<path d="M328.001 68.564L328.001 69.3642L352.653 69.3642L352.653 68.564L328.001 68.564Z" fill="#15466B"/>
<path d="M328.001 62.583L328.001 63.3819L352.653 63.3819L352.653 62.583L328.001 62.583Z" fill="#15466B"/>
<path d="M328.001 61.207L328.001 62.0059L352.653 62.0059L352.653 61.207L328.001 61.207Z" fill="#15466B"/>
<path d="M328.001 28.2075L328.001 29.0078L352.653 29.0078L352.653 28.2075L328.001 28.2075Z" fill="#15466B"/>
<path d="M328.001 26.833L328.001 27.6319L352.653 27.6319L352.653 26.833L328.001 26.833Z" fill="#15466B"/>
<path d="M328.001 58.2261L328.001 59.0263L352.653 59.0263L352.653 58.2261L328.001 58.2261Z" fill="#15466B"/>
<path d="M328.001 56.3809L328.001 57.1798L352.653 57.1797L352.653 56.3809L328.001 56.3809Z" fill="#15466B"/>
<path d="M328.001 54.5952L328.001 55.3955L352.653 55.3955L352.653 54.5952L328.001 54.5952Z" fill="#15466B"/>
<path d="M328.001 21.7329L328.001 22.5318L352.653 22.5318L352.653 21.7329L328.001 21.7329Z" fill="#15466B"/>
<path d="M328.001 19.8848L328.001 20.685L352.653 20.685L352.653 19.8848L328.001 19.8848Z" fill="#15466B"/>
<path d="M328.001 18.1011L328.001 18.9013L352.653 18.9013L352.653 18.1011L328.001 18.1011Z" fill="#15466B"/>
<path d="M328.001 45.1499L328.001 45.9488L352.653 45.9488L352.653 45.1499L328.001 45.1499Z" fill="#15466B"/>
<path d="M328.001 24.1772L328.001 24.9761L352.653 24.9761L352.653 24.1772L328.001 24.1772Z" fill="#15466B"/>
<path d="M328.001 15.4214L328.001 16.2203L352.653 16.2203L352.653 15.4214L328.001 15.4214Z" fill="#15466B"/>
<path d="M328.001 36.0117L328.001 36.812L352.653 36.812L352.653 36.0117L328.001 36.0117Z" fill="#15466B"/>
</svg>
