<svg width="1293" height="607" viewBox="0 0 1293 607" fill="none" xmlns="http://www.w3.org/2000/svg">
<path d="M535.5 100.481L417.953 66.8171C294.729 31.5274 162.214 70.735 78.0288 167.392V167.392C31.4161 220.91 24.2195 298.229 60.1543 359.431L64 365.981" stroke="#15466B" stroke-width="5" stroke-dasharray="5 10"/>
<path d="M392.823 523.108L1217.55 523.108C1228.93 523.108 1238.15 513.885 1238.15 502.508V121.667C1238.15 110.29 1228.93 101.067 1217.55 101.067L388.332 101.067C387.194 101.067 386.276 101.985 386.233 103.122C385.875 112.63 382.667 129.654 362.883 129.654C342.818 129.654 338.881 114.447 338.489 103.125C338.45 101.988 337.532 101.067 336.394 101.067H84.1039C72.7268 101.067 63.5039 110.29 63.5039 121.667V502.508C63.5039 513.885 72.7268 523.108 84.1039 523.108H334.835C335.973 523.108 336.889 522.181 336.945 521.044C337.794 503.747 349.376 495.561 362.883 495.561C376.508 495.561 388.173 500.951 390.743 521.244C390.877 522.297 391.76 523.108 392.823 523.108Z" fill="#FDC504"/>
<path d="M265.15 143.065V139.097H152.231V143.065H265.15Z" fill="#15466B"/>
<path d="M265.15 150.304V146.329H152.231V150.304H265.15Z" fill="#15466B"/>
<path d="M265.15 307.165V303.19H152.231V307.165H265.15Z" fill="#15466B"/>
<path d="M265.15 314.398V310.423H152.231V314.398H265.15Z" fill="#15466B"/>
<path d="M265.15 476.374V472.398H152.231V476.374H265.15Z" fill="#15466B"/>
<path d="M265.15 483.607V479.632H152.231V483.607H265.15Z" fill="#15466B"/>
<path d="M265.15 162.291V153.842H152.214V162.291H265.15Z" fill="#15466B"/>
<path d="M265.15 199.03V190.581H152.214V199.03H265.15Z" fill="#15466B"/>
<path d="M265.15 358.063V349.614H152.214V358.063H265.15Z" fill="#15466B"/>
<path d="M265.15 372.87V364.421H152.214V372.87H265.15Z" fill="#15466B"/>
<path d="M265.15 284.871V276.422H152.214V284.871H265.15Z" fill="#15466B"/>
<path d="M265.15 270.815V256.028H152.214V270.815H265.15Z" fill="#15466B"/>
<path d="M265.15 333.952V319.165H152.214V333.952H265.15Z" fill="#15466B"/>
<path d="M265.15 466.784V451.997H152.214V466.784H265.15Z" fill="#15466B"/>
<path d="M265.15 174.339V170.351H152.214V174.339H265.15Z" fill="#15466B"/>
<path d="M265.15 181.218V177.222H152.214V181.218H265.15Z" fill="#15466B"/>
<path d="M265.15 211.079V207.09H152.214V211.079H265.15Z" fill="#15466B"/>
<path d="M265.15 217.95V213.961H152.214V217.95H265.15Z" fill="#15466B"/>
<path d="M265.15 382.712V378.717H152.214V382.712H265.15Z" fill="#15466B"/>
<path d="M265.15 389.577V385.588H152.214V389.577H265.15Z" fill="#15466B"/>
<path d="M265.15 232.833V228.837H152.214V232.833H265.15Z" fill="#15466B"/>
<path d="M265.15 242.046V238.058H152.214V242.046H265.15Z" fill="#15466B"/>
<path d="M265.15 250.96V246.964H152.214V250.96H265.15Z" fill="#15466B"/>
<path d="M265.15 415.039V411.05H152.214V415.039H265.15Z" fill="#15466B"/>
<path d="M265.15 424.267V420.271H152.214V424.267H265.15Z" fill="#15466B"/>
<path d="M265.15 433.173V429.177H152.214V433.173H265.15Z" fill="#15466B"/>
<path d="M265.15 298.121V294.133H152.214V298.121H265.15Z" fill="#15466B"/>
<path d="M265.15 402.834V398.845H152.214V402.834H265.15Z" fill="#15466B"/>
<path d="M265.15 446.553V442.564H152.214V446.553H265.15Z" fill="#15466B"/>
<path d="M265.15 343.747V339.751H152.214V343.747H265.15Z" fill="#15466B"/>
<path d="M359.339 129.634H362.497V142.26H359.339V129.634Z" fill="white" stroke="white"/>
<path d="M359.339 431.574H362.497V456.79H359.339V431.574ZM359.339 379.154H362.497V404.364H359.339V379.154ZM359.339 326.729H362.497V351.939H359.339V326.729ZM359.339 274.304H362.497V299.519H359.339V274.304ZM359.339 221.884H362.497V247.099H359.339V221.884ZM359.339 169.464H362.497V194.669H359.339V169.464Z" fill="white" stroke="white"/>
<path d="M359.339 484H362.497V496.62H359.339V484Z" fill="white" stroke="white"/>
<path d="M881.389 32.2686C886.12 35.6407 889.451 40.1312 893.922 43.4692C896.847 45.7881 899.603 48.3272 902.168 51.0647C902.796 51.7076 902.379 52.2752 901.746 52.4559C900.8 52.6964 899.874 52.7109 898.873 52.9653C895.107 53.9227 891.455 55.3326 887.702 56.2665C886.683 56.5255 886.41 56.5948 886.688 57.6879C887.277 60.0061 887.871 62.343 888.351 64.689C888.524 65.3675 888.104 65.775 887.431 65.9461C885.757 66.3716 884.149 66.981 882.485 67.4442C881.593 67.6708 881.295 67.1847 881.102 66.2708C880.541 64.0657 879.589 61.9203 879.137 59.6875C878.855 58.5755 878.74 58.1229 877.689 58.41C873.923 59.3674 870.175 60.3202 866.408 61.2776C865.898 61.4071 865.452 61.8617 864.924 61.9959C863.56 62.3427 863.042 61.451 863.372 60.3841C863.96 58.1276 864.636 55.9092 865.312 53.6908C867.262 47.4686 869.652 41.4091 872.463 35.5608C872.646 35.2133 872.874 34.8941 872.679 34.5826C872.554 34.396 872.37 34.2591 872.159 34.1955C871.949 34.1319 871.724 34.1456 871.525 34.234C867.34 35.2978 863.259 36.6963 859.064 37.7224C857.372 38.1525 857.012 37.8026 857.421 36.1336C858.562 31.9402 859.963 27.8307 861.616 23.8308C863.123 19.7759 864.607 15.7069 866.119 11.6708C866.889 9.66936 868.163 7.90076 869.038 5.93269C869.585 4.73029 869.968 4.71314 870.986 5.43777C875.076 8.6517 879.221 11.7718 883.14 15.1496C887.218 18.3795 891.119 21.843 894.823 25.5231C895.456 26.1848 896.412 27.1256 896.194 27.9435C895.976 28.7615 894.68 28.7698 893.825 28.9872C889.731 30.0278 885.883 31.1262 881.389 32.2686Z" fill="#77B945"/>
<path d="M169 525.481L211.279 560.896C233.347 579.382 262.312 587.46 290.762 583.065L452.13 558.132C469.463 555.454 487.181 559.1 502.048 568.403V568.403C541.329 592.982 589.937 597.477 633.058 580.518L773 525.481M1243.25 296.981V296.981C1276.98 279.046 1263.21 227.836 1225.03 229.242L1182.65 230.803C1144.9 232.193 1108.24 217.955 1081.33 191.445L981.211 92.8421C948.249 60.3781 897.321 54.7631 858.078 79.2661L822.5 101.481" stroke="#15466B" stroke-width="5" stroke-linecap="round" stroke-dasharray="5 10"/>
<path d="M287.324 113.605C286.575 113.513 285.201 115.462 284.571 115.384C276.036 114.333 267.703 111.655 259.165 110.628C257.858 110.467 256.047 110.771 255.469 109.39C254.891 108.008 256.925 107.365 257.81 106.348C262.425 100.721 266.602 94.7223 271.228 89.097C275.854 83.4718 279.913 77.3603 284.527 71.7336C289.141 66.1069 294.806 61.3564 299.42 55.7296C304.034 50.1029 306.944 43.0298 311.56 37.391C312.168 36.7376 312.969 36.3032 313.842 36.1541C314.714 36.0051 315.61 36.1497 316.392 36.5658C317.13 36.9905 317.712 37.6469 318.049 38.4368C318.387 39.2268 318.463 40.1076 318.265 40.9468C316.468 48.8792 312.627 56.3639 310.84 64.3098C309.054 72.2557 309.226 80.6509 307.44 88.5968C307.398 88.9345 306.523 89.1818 306.459 89.7003C307.47 89.8247 308.611 88.594 309.55 88.7096C317.727 89.7164 325.656 92.7493 333.835 93.7439C335.178 93.9093 336.87 93.1994 337.473 94.6694C338.076 96.1393 336.035 96.5491 335.181 97.607C330.588 103.163 326.277 109.072 321.677 114.676C317.078 120.28 312.905 126.243 308.305 131.847C303.706 137.451 299.346 143.268 294.746 148.872C290.147 154.476 285.525 160.065 280.926 165.669C279.862 166.958 278.299 168.872 276.543 167.945C274.787 167.019 274.234 164.356 274.604 162.724C276.407 154.743 278.373 146.807 280.163 138.837C281.953 130.867 285.693 123.321 287.495 115.352C287.407 114.774 287.35 114.19 287.324 113.605Z" fill="#D0468B"/>
<path d="M423.9 572.039C425.828 575.925 426.93 578.978 427.756 582.586C428.307 585.083 428.031 587.581 427.756 589.801C427.481 591.189 426.654 591.189 425.552 590.634C423.624 589.801 421.696 588.969 420.594 587.304C418.666 584.806 417.013 581.753 415.36 578.978C413.983 576.757 413.707 576.758 411.779 578.423C407.647 582.308 403.24 585.361 397.731 587.026C396.904 587.026 396.353 587.859 395.802 587.026C395.251 586.471 395.802 585.638 395.802 585.083C396.629 581.198 397.455 577.59 399.108 574.26C399.659 573.15 399.659 572.595 398.281 572.317C393.599 571.762 389.742 569.542 386.161 566.489C385.059 565.379 385.335 564.269 386.987 563.436C390.844 561.493 394.976 560.383 399.108 559.273C400.21 558.996 401.587 558.718 402.964 558.718C404.617 558.718 404.342 557.33 403.791 556.498C401.036 552.612 399.383 548.172 398.006 543.454C398.006 542.344 397.18 541.511 397.18 540.401C397.18 538.181 397.731 537.626 399.934 538.181C401.587 538.736 403.515 539.013 404.893 540.124C409.3 543.454 413.983 546.507 417.564 550.67C418.39 551.78 418.941 551.502 419.217 550.392C420.87 546.507 424.726 544.842 428.307 543.176C431.337 541.789 434.367 541.789 437.673 542.621C439.325 543.176 439.876 544.287 438.499 545.674C435.744 548.45 434.367 552.057 432.439 555.388C431.888 556.498 430.786 557.608 430.235 558.718C429.684 559.551 429.684 560.106 431.062 560.383C437.397 561.493 441.529 565.656 444.284 570.929C444.835 572.039 444.284 572.595 443.182 572.595C437.122 573.15 431.062 574.26 424.45 572.039H423.9Z" fill="#AB8EB8"/>
<path d="M549.5 106.481L629.924 128.932C656.185 136.264 683.368 140.353 710.466 137.336C742.087 133.815 785.308 125.609 815 106.481M786.5 520.481L899.378 468.414C917.23 460.179 938.201 462.723 953.567 474.986V474.986C993.485 506.844 1052.74 492.354 1073.46 445.67L1101.8 381.783C1120 340.769 1157.8 311.818 1202.14 304.931L1234 299.981" stroke="#FBE391" stroke-width="5" stroke-linecap="round" stroke-dasharray="5 10"/>
</svg>
